<?xml version="1.0" standalone="no"?>
<!DOCTYPE svg PUBLIC "-//W3C//DTD SVG 1.1//EN" "http://www.w3.org/Graphics/SVG/1.1/DTD/svg11.dtd" >
<svg xmlns="http://www.w3.org/2000/svg">
<metadata>
Created by FontPrep 20130207 at Tue Sep 22 20:04:26 2015
 By Gianna Fusaro
Copyright (c) 2013 Quote-Unquote Apps.
</metadata>
<defs>
<font id="ee4ecf45b21a1ec47dfe629190a1712b" horiz-adv-x='1024' >
  <font-face 
    font-family="CourierPrime"
    font-weight="400"
    font-stretch="normal"
    units-per-em="2048"
    panose-1="2 0 4 9 0 0 0 0 0 0"
    ascent="1638"
    descent="-410"
    x-height="924"
    cap-height="1187"
    bbox="-480 -838 3211 1797.05"
    underline-thickness="130"
    underline-position="-120"
    unicode-range="U+000D-FB02"
  />
<missing-glyph 
 />
    <glyph glyph-name=".notdef" 
 />
    <glyph glyph-name=".null" horiz-adv-x="0" 
 />
    <glyph glyph-name="nonmarkingreturn" unicode="&#xd;" 
 />
    <glyph glyph-name="NULL" horiz-adv-x="0" 
 />
    <glyph glyph-name="NULL" horiz-adv-x="0" 
 />
    <glyph glyph-name="space" unicode=" " 
 />
    <glyph glyph-name="exclam" unicode="!" 
d="M460 132q0 32 12 60t33 49t49 33t60 12t60 -12t49 -33t33 -49t12 -60t-12 -60t-33 -49t-49 -33t-60 -12t-60 12t-49 33t-33 49t-12 60zM679 1209q45 0 41 -50l-49 -647q-3 -48 -57 -48t-58 48l-48 647q-4 50 41 50h130z" />
    <glyph glyph-name="quotedbl" unicode="&#x22;" 
d="M886 1209q47 0 41 -50l-55 -450q-6 -54 -68 -54t-68 54l-55 450q-6 50 41 50h164zM506 1209q47 0 41 -50l-55 -450q-6 -54 -68 -54t-68 54l-55 450q-6 50 41 50h164z" />
    <glyph glyph-name="numbersign" unicode="#" 
d="M467 476h220l76 245h-219zM103 332q-34 0 -48.5 16.5t-14.5 55.5t14.5 55.5t48.5 16.5h230l76 245h-206q-34 0 -48.5 16.5t-14.5 55.5t14.5 55.5t48.5 16.5h251l98 311q10 33 59 33t59.5 -26t5.5 -41l-87 -277h219l98 311q10 33 59 33t59.5 -26t5.5 -41l-87 -277h182
q34 0 48.5 -16.5t14.5 -55.5t-14.5 -55.5t-48.5 -16.5h-227l-77 -245h204q34 0 48.5 -16.5t14.5 -55.5t-14.5 -55.5t-48.5 -16.5h-249l-100 -321q-10 -33 -59 -33t-59.5 26t-5.5 41l90 287h-220l-100 -321q-10 -33 -59 -33t-59.5 26t-5.5 41l90 287h-185z" />
    <glyph glyph-name="dollar" unicode="$" 
d="M342 810q0 -75 81.5 -89t114.5 -19v239q-93 -2 -144.5 -36t-51.5 -95zM892 417q0 82 -88.5 97t-125.5 20v-271q107 5 160.5 47t53.5 107zM179 423q0 65 65 65q32 0 44 -10t20 -31q57 -147 230 -176v279q-239 31 -296.5 104t-57.5 148q0 138 99 211t255 73v161
q0 35 16.5 50t53.5 15t53.5 -15t16.5 -50v-174q98 -26 176 -97v45q0 35 16.5 50t58.5 15t58.5 -15t16.5 -50v-190q0 -35 -16.5 -50t-54.5 -15t-52 26q-61 116 -203 143v-247q247 -28 309.5 -104.5t62.5 -154.5q0 -146 -98 -226.5t-274 -84.5v-178q0 -35 -16.5 -50t-53.5 -15
t-53.5 15t-16.5 50v189q-124 25 -209 110v-56q0 -35 -16.5 -50t-58.5 -15t-58.5 15t-16.5 50v240z" />
    <glyph glyph-name="percent" unicode="%" 
d="M1003 1059q48 45 96 -5t0 -95l-874 -830q-48 -45 -96 5t0 95zM760 252q0 -30 11.5 -56t31 -45.5t45.5 -31t56 -11.5t56 11.5t45.5 31t31 45.5t11.5 56t-11.5 56t-31 45.5t-45.5 31t-56 11.5t-56 -11.5t-45.5 -31t-31 -45.5t-11.5 -56zM180 935q0 -30 11.5 -56t31 -45.5
t45.5 -31t56 -11.5t56 11.5t45.5 31t31 45.5t11.5 56t-11.5 56t-31 45.5t-45.5 31t-56 11.5t-56 -11.5t-45.5 -31t-31 -45.5t-11.5 -56zM630 252q0 57 21.5 106.5t59 87t87 59t106.5 21.5t106.5 -21.5t87 -59t59 -87t21.5 -106.5t-21.5 -106.5t-59 -87t-87 -59t-106.5 -21.5
t-106.5 21.5t-87 59t-59 87t-21.5 106.5zM50 935q0 57 21.5 106.5t59 87t87 59t106.5 21.5t106.5 -21.5t87 -59t59 -87t21.5 -106.5t-21.5 -106.5t-59 -87t-87 -59t-106.5 -21.5t-106.5 21.5t-87 59t-59 87t-21.5 106.5z" />
    <glyph glyph-name="ampersand" unicode="&#x26;" 
d="M434 532q-129 -92 -129 -219t70 -157t122 -30q107 0 198 112zM147 310q0 191 195 324q-99 115 -99 254t92.5 230t247.5 91t308 -104q21 -15 21 -54v-127q0 -35 -16.5 -50t-58.5 -15t-58.5 15t-16.5 50v90q-75 47 -193 47t-144 -68.5t-26 -112.5q0 -85 83 -178l293 -330
q41 88 59 152t30 75.5t35 11.5h157q34 0 48.5 -15t14.5 -53t-14.5 -53t-48.5 -15h-93q-35 -122 -86 -217l109 -122h84q34 0 48.5 -15t14.5 -53t-14.5 -53t-48.5 -15h-114q-47 0 -78 33l-87 97q-131 -152 -296 -152t-256.5 95.5t-91.5 236.5z" />
    <glyph glyph-name="quotesingle" unicode="'" 
d="M696 1209q47 0 41 -50l-55 -450q-6 -54 -68 -54t-68 54l-55 450q-6 50 41 50h164z" />
    <glyph glyph-name="parenleft" unicode="(" 
d="M438 975.5q141 225.5 333 339.5q41 24 66 -16.5t28 -65t-13 -35.5q-278 -184 -342.5 -393t-64.5 -407t116.5 -380t290.5 -298q16 -11 13 -35.5t-28 -65t-66 -16.5q-192 114 -333 338t-141 516.5t141 518z" />
    <glyph glyph-name="parenright" unicode=")" 
d="M783 514.5q0 196.5 -116 382t-291 301.5q-16 11 -13 35.5t28 65t66 16.5q192 -114 333 -339.5t141 -518t-141 -516.5t-333 -338q-41 -24 -66 16.5t-28 65t13 35.5q277 183 342 390.5t65 404z" />
    <glyph glyph-name="asterisk" unicode="*" 
d="M614 1209q47 0 69 -24t17 -66l-36 -280l256 121q83 37 104 -31t4.5 -96t-57.5 -36l-278 -53l196 -208q62 -65 -17 -121q-38 -28 -70.5 -19.5t-52.5 44.5l-135 245l-135 -245q-20 -36 -52.5 -45t-70.5 19q-79 57 -17 122l194 208l-276 53q-41 8 -57.5 36t4.5 96t104 31
l256 -121l-36 280q-5 42 17 66t69 24z" />
    <glyph glyph-name="plus" unicode="+" 
d="M546 650v313q0 34 15 48.5t53 14.5t53 -14.5t15 -48.5v-313h313q34 0 48.5 -15t14.5 -53t-14.5 -53t-48.5 -15h-313v-313q0 -34 -15 -48.5t-53 -14.5t-53 14.5t-15 48.5v313h-313q-34 0 -48.5 15t-14.5 53t14.5 53t48.5 15h313z" />
    <glyph glyph-name="comma" unicode="," 
d="M530 294h194q25 0 33.5 -18.5t-5.5 -44.5l-252 -484q-21 -41 -68 -41q-46 0 -53.5 25t-4.5 41l104 482q9 40 52 40z" />
    <glyph glyph-name="hyphen" unicode="-" 
d="M995 650q34 0 48.5 -15t14.5 -53t-14.5 -53t-48.5 -15h-762q-34 0 -48.5 15t-14.5 53t14.5 53t48.5 15h762z" />
    <glyph glyph-name="period" unicode="." 
d="M445 147q0 35 13.5 65.5t36.5 53.5t53.5 36.5t65.5 13.5t65.5 -13.5t53.5 -36.5t36.5 -53.5t13.5 -65.5t-13.5 -65.5t-36.5 -53.5t-53.5 -36.5t-65.5 -13.5t-65.5 13.5t-53.5 36.5t-36.5 53.5t-13.5 65.5z" />
    <glyph glyph-name="slash" unicode="/" 
d="M883 1305q13 30 71 30t68.5 -24.5t4.5 -39.5l-682 -1538q-13 -30 -72 -30t-68.5 24.5t-3.5 39.5z" />
    <glyph glyph-name="zero" unicode="0" 
d="M346 593q0 -112 20 -199t55.5 -146.5t84.5 -90.5t108 -31t108 31t84.5 90.5t55.5 146.5t20 199t-20 199t-55.5 147t-84.5 91t-108 31t-108 -31t-84.5 -91t-55.5 -147t-20 -199zM303.5 1040q115.5 169 310.5 169t310.5 -169t115.5 -447.5t-116 -446.5t-310 -168t-310 168
t-116 446.5t115.5 447.5z" />
    <glyph glyph-name="one" unicode="1" 
d="M569 136v896l-248 -90q-51 -19 -73.5 49t30.5 86l365 131q32 11 54 -6.5t22 -55.5v-1010h255q34 0 48.5 -15t14.5 -53t-14.5 -53t-48.5 -15h-674q-34 0 -48.5 15t-14.5 53t14.5 53t48.5 15h269z" />
    <glyph glyph-name="two" unicode="2" 
d="M582 1061q-111 0 -208 -56v-110q0 -35 -16.5 -50t-58.5 -15t-58.5 15t-16.5 50v147q0 39 23 55q155 112 332 112t282.5 -93t105.5 -247t-80 -248.5t-128 -143.5l-336 -341h434v146q0 35 16.5 50t58.5 15t58.5 -15t16.5 -50v-214q0 -38 -14.5 -53t-48.5 -15h-694
q-34 0 -48.5 15t-14.5 53t15 54l440 446q92 94 129.5 156.5t37.5 144.5t-58 137t-169 55z" />
    <glyph glyph-name="three" unicode="3" 
d="M1010 357q0 -177 -109 -278t-303 -101q-148 0 -273 64t-131.5 95t14.5 66q42 67 99 24q133 -101 276 -101q142 0 205.5 60t63.5 162t-66 154.5t-183 52.5h-73q-34 0 -48.5 15t-14.5 53t14.5 53t48.5 15h55q232 0 232 188q0 85 -58.5 133.5t-170.5 48.5t-194 -39v-67
q0 -35 -16.5 -50t-58.5 -15t-58.5 15t-16.5 50v109q0 40 27 57q145 88 318 88t277.5 -89.5t104.5 -249.5t-153 -239q89 -37 140.5 -109t51.5 -165z" />
    <glyph glyph-name="four" unicode="4" 
d="M696 992l-350 -496h342zM751 1209q87 0 87 -78v-635h162q34 0 48.5 -15t14.5 -53t-14.5 -53t-48.5 -15h-162v-224h132q34 0 48.5 -15t14.5 -53t-14.5 -53t-48.5 -15h-430q-34 0 -48.5 15t-14.5 53t14.5 53t48.5 15h148v224h-478q-34 0 -48.5 15t-14.5 51t10 49l484 673
q43 61 110 61z" />
    <glyph glyph-name="five" unicode="5" 
d="M609 786q193 0 297 -111.5t104 -289.5t-116 -292.5t-309 -114.5q-194 0 -366 119q-52 37 -13 102t96 23q133 -96 271 -96t208.5 71.5t70.5 185.5q0 115 -66 185t-184 70t-221 -71q-16 -10 -54 -10t-55.5 15t-15.5 50l20 500q2 35 17.5 50t57.5 15h534q34 0 48.5 -15
t14.5 -53t-14.5 -53t-48.5 -15h-466l-13 -321q100 56 203 56z" />
    <glyph glyph-name="six" unicode="6" 
d="M358 589q109 142 284 142t284.5 -104.5t109.5 -271.5q0 -166 -113 -271.5t-289 -105.5t-304.5 123.5t-128.5 402.5t174 483.5t542 221.5q50 2 57 -71q7 -74 -36 -76q-396 -20 -481.5 -195.5t-98.5 -277.5zM441.5 193.5q69.5 -67.5 184.5 -67.5t183.5 62.5t68.5 165.5
t-68 166t-182 63t-185 -60t-71 -161t69.5 -168.5z" />
    <glyph glyph-name="seven" unicode="7" 
d="M966 1187q63 1 63 -55q0 -34 -6 -53l-426 -1055q-22 -57 -98 -44q-34 6 -50 25.5t-3 50.5l407 995h-474v-146q0 -35 -16.5 -50t-58.5 -15t-58.5 15t-16.5 50v214q0 38 14.5 53t48.5 15h674z" />
    <glyph glyph-name="eight" unicode="8" 
d="M399 878q0 -41 16.5 -74t45 -58t68 -39t109 -14t130.5 53.5t61 133.5t-60.5 130.5t-180.5 50.5t-154.5 -71t-34.5 -112zM366 341q0 -47 18 -86.5t51 -68t78.5 -44.5t100.5 -16t100.5 16t78.5 44.5t51 68t18 86.5t-18 86.5t-51 67.5t-78.5 43.5t-100.5 15.5t-100.5 -15.5
t-78.5 -43.5t-51 -67.5t-18 -86.5zM817 630q205 -94 205 -304q0 -64 -31 -130.5t-85.5 -115t-129 -75.5t-206.5 -27t-248 103t-116 255q0 201 204 294q-165 90 -165 239t105 244.5t264 95.5t264 -95.5t105 -244.5t-166 -239z" />
    <glyph glyph-name="nine" unicode="9" 
d="M870 598q-109 -142 -284 -142t-284.5 104.5t-109.5 271.5q0 166 113 271.5t297 105.5q233 0 348 -195q77 -132 77 -339q0 -270 -174 -475t-542 -222q-50 -2 -57 71q-7 74 36 76q519 26 580 473zM786.5 993.5q-69.5 67.5 -184.5 67.5t-183.5 -62.5t-68.5 -165.5t68 -166
t182 -63t185 60t71 161t-69.5 168.5z" />
    <glyph glyph-name="colon" unicode=":" 
d="M445 777q0 35 13.5 65.5t36.5 53.5t53.5 36.5t65.5 13.5t65.5 -13.5t53.5 -36.5t36.5 -53.5t13.5 -65.5t-13.5 -65.5t-36.5 -53.5t-53.5 -36.5t-65.5 -13.5t-65.5 13.5t-53.5 36.5t-36.5 53.5t-13.5 65.5zM445 147q0 35 13.5 65.5t36.5 53.5t53.5 36.5t65.5 13.5
t65.5 -13.5t53.5 -36.5t36.5 -53.5t13.5 -65.5t-13.5 -65.5t-36.5 -53.5t-53.5 -36.5t-65.5 -13.5t-65.5 13.5t-53.5 36.5t-36.5 53.5t-13.5 65.5z" />
    <glyph glyph-name="semicolon" unicode=";" 
d="M530 294h194q25 0 33.5 -18.5t-5.5 -44.5l-252 -484q-21 -41 -68 -41q-46 0 -53.5 25t-4.5 41l104 482q9 40 52 40zM445 777q0 35 13.5 65.5t36.5 53.5t53.5 36.5t65.5 13.5t65.5 -13.5t53.5 -36.5t36.5 -53.5t13.5 -65.5t-13.5 -65.5t-36.5 -53.5t-53.5 -36.5
t-65.5 -13.5t-65.5 13.5t-53.5 36.5t-36.5 53.5t-13.5 65.5z" />
    <glyph glyph-name="less" unicode="&#x3c;" 
d="M125 583q0 46 47 69l777 381q60 29 92 -35t-29 -93l-672 -322l672 -322q61 -29 29 -93t-92 -35l-777 381q-47 23 -47 69z" />
    <glyph glyph-name="equal" unicode="=" 
d="M995 450q34 0 48.5 -15t14.5 -53t-14.5 -53t-48.5 -15h-762q-34 0 -48.5 15t-14.5 53t14.5 53t48.5 15h762zM995 850q34 0 48.5 -15t14.5 -53t-14.5 -53t-48.5 -15h-762q-34 0 -48.5 15t-14.5 53t14.5 53t48.5 15h762z" />
    <glyph glyph-name="greater" unicode="&#x3e;" 
d="M1103 583q0 -46 -47 -69l-777 -381q-60 -29 -92 35t29 93l672 322l-672 322q-61 29 -29 93t92 35l777 -381q47 -23 47 -69z" />
    <glyph glyph-name="question" unicode="?" 
d="M477 213.5q41 40.5 83 40.5q72 0 112 -40.5t40 -83.5q0 -71 -40.5 -111.5t-83.5 -40.5t-68 11t-54.5 40.5t-29.5 86.5t41 97.5zM602 1061q-111 0 -198 -37v-89q0 -35 -16.5 -50t-58.5 -15t-58.5 15t-16.5 50v127q0 41 25 56q150 91 326 91t270.5 -86t94.5 -220
t-75.5 -209.5t-241.5 -142.5l-10 -141q-4 -51 -69 -51t-69 51l-10 195q-2 38 30 51l69 28q117 47 155 81.5t50.5 63.5t12.5 67q0 73 -49.5 119t-160.5 46z" />
    <glyph glyph-name="at" unicode="@" 
d="M524 266q74 0 131 96t57 199q0 47 -20.5 72t-51.5 25q-61 0 -121.5 -95.5t-60.5 -196.5q0 -100 66 -100zM640 785q86 0 128 -100l31 63q5 11 23 11t50 -12.5t25 -40.5l-77 -302q-17 -65 2.5 -103t61.5 -38q79 0 122 74t43 183q0 207 -106 321t-300 114t-332 -162.5
t-138 -403.5q0 -194 101 -306.5t286 -112.5q137 0 255 37q36 11 51 -41t-18 -67q-120 -52 -263 -52q-263 0 -399 145.5t-136 396.5q0 295 174 492t420 197q247 0 386.5 -152t139.5 -395q0 -175 -77 -284.5t-207 -109.5t-178 129q-103 -134 -209 -134q-76 0 -126 60.5
t-50 164.5q0 146 95 287t222 141z" />
    <glyph glyph-name="A" unicode="A" 
d="M416 510h392l-186 541h-19zM407 136q34 0 48.5 -15t14.5 -53t-14.5 -53t-48.5 -15h-334q-34 0 -48.5 15t-14.5 53t14.5 53t48.5 15h56l331 915h-187q-34 0 -48.5 15t-14.5 53t14.5 53t48.5 15h367q79 0 101 -65l353 -986h61q34 0 48.5 -15t14.5 -53t-14.5 -53t-48.5 -15
h-354q-34 0 -48.5 15t-14.5 53t14.5 53t48.5 15h135l-82 238h-485l-83 -238h121z" />
    <glyph glyph-name="B" unicode="B" 
d="M855 865q0 186 -233 186h-207v-370h207q118 0 175.5 48t57.5 136zM680 136q125 0 190.5 53t65.5 150q0 206 -251 206h-270v-409h265zM1094 339q0 -158 -100.5 -248.5t-283.5 -90.5h-567q-34 0 -48.5 15t-14.5 53t14.5 53t48.5 15h122v915h-122q-34 0 -48.5 15t-14.5 53
t14.5 53t48.5 15h501q265 0 314.5 -125t49.5 -197q0 -154 -133 -230q219 -70 219 -296z" />
    <glyph glyph-name="C" unicode="C" 
d="M634 1209q186 0 290 -123v58q0 35 16.5 50t58.5 15t58.5 -15t16.5 -50v-330q0 -35 -16.5 -50t-58.5 -15t-58.5 15t-16.5 57q0 99 -71.5 169.5t-222.5 70.5t-252.5 -127.5t-101.5 -341.5t97 -340t261 -126q206 0 351 113q51 41 90 -25t-13 -105q-189 -131 -426 -131
q-238 0 -378 168.5t-140 446t143 447t373 169.5z" />
    <glyph glyph-name="D" unicode="D" 
d="M591 136q181 0 286 118.5t105 338t-105 339t-286 119.5h-186v-915h186zM255 1051h-112q-34 0 -48.5 15t-14.5 53t14.5 53t48.5 15h471q238 0 382 -159.5t144 -434.5t-143.5 -434t-382.5 -159h-471q-34 0 -48.5 15t-14.5 53t14.5 53t48.5 15h112v915z" />
    <glyph glyph-name="E" unicode="E" 
d="M245 1051h-102q-34 0 -48.5 15t-14.5 53t14.5 53t48.5 15h874q34 0 48.5 -15t14.5 -53v-254q0 -35 -16.5 -50t-58.5 -15t-58.5 15t-16.5 50v186h-535v-371h250v91q0 35 16.5 50t58.5 15t58.5 -15t16.5 -50v-318q0 -35 -16.5 -50t-58.5 -15t-58.5 15t-16.5 50v91h-250
v-408h555v229q0 35 16.5 50t58.5 15t58.5 -15t16.5 -50v-297q0 -38 -14.5 -53t-48.5 -15h-894q-34 0 -48.5 15t-14.5 53t14.5 53t48.5 15h102v915z" />
    <glyph glyph-name="F" unicode="F" 
d="M275 1051h-132q-34 0 -48.5 15t-14.5 53t14.5 53t48.5 15h904q34 0 48.5 -15t14.5 -53v-264q0 -35 -16.5 -50t-58.5 -15t-58.5 15t-16.5 50v196h-535v-391h250v91q0 35 16.5 50t58.5 15t58.5 -15t16.5 -50v-318q0 -35 -16.5 -50t-58.5 -15t-58.5 15t-16.5 50v91h-250
v-388h232q34 0 48.5 -15t14.5 -53t-14.5 -53t-48.5 -15h-514q-34 0 -48.5 15t-14.5 53t14.5 53t48.5 15h132v915z" />
    <glyph glyph-name="G" unicode="G" 
d="M923 410h-247q-34 0 -48.5 15t-14.5 53t14.5 53t48.5 15h429q34 0 48.5 -15t14.5 -53t-14.5 -53t-48.5 -15h-32v-267q0 -49 -36 -69q-166 -96 -408 -96t-386.5 169t-144.5 445t147.5 446.5t378.5 170.5q187 0 288 -114v49q0 35 16.5 50t58.5 15t58.5 -15t16.5 -50v-290
q0 -35 -16.5 -50t-58.5 -15t-58.5 15t-16.5 55q0 87 -73 144.5t-181 57.5q-107 0 -176.5 -32.5t-119.5 -93.5t-78 -147.5t-28 -247.5t100.5 -287.5t270.5 -126.5q171 0 296 57v227z" />
    <glyph glyph-name="H" unicode="H" 
d="M215 1051h-72q-34 0 -48.5 15t-14.5 53t14.5 53t48.5 15h314q34 0 48.5 -15t14.5 -53t-14.5 -53t-48.5 -15h-92v-371h498v371h-92q-34 0 -48.5 15t-14.5 53t14.5 53t48.5 15h314q34 0 48.5 -15t14.5 -53t-14.5 -53t-48.5 -15h-72v-915h72q34 0 48.5 -15t14.5 -53
t-14.5 -53t-48.5 -15h-314q-34 0 -48.5 15t-14.5 53t14.5 53t48.5 15h92v408h-498v-408h92q34 0 48.5 -15t14.5 -53t-14.5 -53t-48.5 -15h-314q-34 0 -48.5 15t-14.5 53t14.5 53t48.5 15h72v915z" />
    <glyph glyph-name="I" unicode="I" 
d="M539 1051h-256q-34 0 -48.5 15t-14.5 53t14.5 53t48.5 15h662q34 0 48.5 -15t14.5 -53t-14.5 -53t-48.5 -15h-256v-915h276q34 0 48.5 -15t14.5 -53t-14.5 -53t-48.5 -15h-702q-34 0 -48.5 15t-14.5 53t14.5 53t48.5 15h276v915z" />
    <glyph glyph-name="J" unicode="J" 
d="M894 333q0 -355 -400 -355q-226 0 -363 151q-16 19 -16 51v285q0 35 16.5 50t58.5 15t58.5 -15t16.5 -50v-264q83 -75 223 -75t198 59t58 178v688h-341q-34 0 -48.5 15t-14.5 53t14.5 53t48.5 15h692q34 0 48.5 -15t14.5 -53t-14.5 -53t-48.5 -15h-201v-718z" />
    <glyph glyph-name="K" unicode="K" 
d="M255 1051h-112q-34 0 -48.5 15t-14.5 53t14.5 53t48.5 15h354q34 0 48.5 -15t14.5 -53t-14.5 -53t-48.5 -15h-92v-421l434 421h-68q-34 0 -48.5 15t-14.5 53t14.5 53t48.5 15h324q34 0 48.5 -15t14.5 -53t-14.5 -53t-48.5 -15h-57l-423 -405q147 11 233 -99
q46 -61 77 -140t67.5 -175t104.5 -96h28q34 0 48.5 -15t14.5 -53t-14.5 -53t-48.5 -15h-82q-102 0 -172 139q-25 50 -67 161.5t-71 153.5q-55 78 -146 78t-152 -59l-30 -29v-308h162q34 0 48.5 -15t14.5 -53t-14.5 -53t-48.5 -15h-424q-34 0 -48.5 15t-14.5 53t14.5 53
t48.5 15h112v915z" />
    <glyph glyph-name="L" unicode="L" 
d="M305 1051h-162q-34 0 -48.5 15t-14.5 53t14.5 53t48.5 15h554q34 0 48.5 -15t14.5 -53t-14.5 -53t-48.5 -15h-242v-915h495v329q0 35 16.5 50t58.5 15t58.5 -15t16.5 -50v-397q0 -38 -14.5 -53t-48.5 -15h-894q-34 0 -48.5 15t-14.5 53t14.5 53t48.5 15h162v915z" />
    <glyph glyph-name="M" unicode="M" 
d="M123 1051q-34 0 -48.5 15t-14.5 53t14.5 53t48.5 15h211q47 0 58 -33l222 -609l221 609q11 33 59 33h211q34 0 48.5 -15t14.5 -53t-14.5 -53t-48.5 -15h-50l26 -915h54q34 0 48.5 -15t14.5 -53t-14.5 -53t-48.5 -15h-314q-34 0 -48.5 15t-14.5 53t14.5 53t48.5 15h111
l-22 819l-204 -570q-24 -65 -92 -65t-92 65l-205 570l-21 -819h111q34 0 48.5 -15t14.5 -53t-14.5 -53t-48.5 -15h-314q-34 0 -48.5 15t-14.5 53t14.5 53t48.5 15h54l25 915h-49z" />
    <glyph glyph-name="N" unicode="N" 
d="M1038 37q0 -59 -75 -59q-52 0 -84 55l-519 927v-824h137q34 0 48.5 -15t14.5 -53t-14.5 -53t-48.5 -15h-354q-34 0 -48.5 15t-14.5 53t14.5 53t48.5 15h67v915h-77q-34 0 -48.5 15t-14.5 53t14.5 53t48.5 15h224q41 0 57 -28l474 -848v740h-117q-34 0 -48.5 15t-14.5 53
t14.5 53t48.5 15h324q34 0 48.5 -15t14.5 -53t-14.5 -53t-48.5 -15h-57v-1014z" />
    <glyph glyph-name="O" unicode="O" 
d="M246 593q0 -108 26.5 -194.5t74.5 -147t116 -93t151 -32.5t151 32.5t116 93t74.5 147t26.5 194.5t-26.5 194.5t-74.5 147.5t-116 93.5t-151 32.5t-151 -32.5t-116 -93.5t-74.5 -147.5t-26.5 -194.5zM88 593q0 139 38 252.5t107 194.5t166 125t215 44t215 -44t166 -125
t107 -194.5t38 -252.5t-38 -252.5t-107 -194t-166 -124.5t-215 -44t-215 44t-166 124.5t-107 194t-38 252.5z" />
    <glyph glyph-name="P" unicode="P" 
d="M669 569q141 0 213 63.5t72 176.5t-72 177.5t-213 64.5h-214v-482h214zM305 1051h-162q-34 0 -48.5 15t-14.5 53t14.5 53t48.5 15h547q199 0 310.5 -103.5t111.5 -275.5t-112 -273.5t-310 -101.5h-235v-297h240q34 0 48.5 -15t14.5 -53t-14.5 -53t-48.5 -15h-552
q-34 0 -48.5 15t-14.5 53t14.5 53t48.5 15h162v915z" />
    <glyph glyph-name="Q" unicode="Q" 
d="M853 -258q-41 0 -137.5 19t-147.5 19q-116 0 -231 -49q-38 -15 -82 42t-18 85l180 204q-236 90 -282.5 270.5t-46.5 300.5t38 229t107 186.5t166 119t215 41.5t215 -41.5t166 -119t107 -186.5t38 -310.5t-144 -362.5t-382 -161q-34 0 -52 2l-129 -135q115 45 186 33.5
t125 -22.5t90 -11q81 0 159 57q17 13 39 1.5t38 -38.5q38 -62 -5 -94q-106 -79 -212 -79zM246 618q0 -104 26.5 -186t74.5 -139t116 -87t151 -30t151 30t116 87t74.5 139t26.5 186t-26.5 186.5t-74.5 139.5t-116 87t-151 30t-151 -30t-116 -87t-74.5 -139.5t-26.5 -186.5z
" />
    <glyph glyph-name="R" unicode="R" 
d="M618 651q270 0 270 199q0 97 -67.5 149t-192.5 52h-213v-400h203zM265 1051h-122q-34 0 -48.5 15t-14.5 53t14.5 53t48.5 15h506q188 0 292.5 -91t104.5 -255t-107 -221t-170 -71q88 -41 143.5 -136t73.5 -128t38 -67q49 -82 102 -82h19q34 0 48.5 -15t14.5 -53
t-14.5 -53t-48.5 -15h-70q-90 0 -176 139q-20 33 -39 68t-64.5 117t-102.5 128t-113.5 54.5t-102.5 8.5h-62v-379h130q34 0 48.5 -15t14.5 -53t-14.5 -53t-48.5 -15h-402q-34 0 -48.5 15t-14.5 53t14.5 53t48.5 15h122v915z" />
    <glyph glyph-name="S" unicode="S" 
d="M308 43q0 -35 -16.5 -50t-58.5 -15t-58.5 15t-16.5 50v300q0 35 17 50t59 15t57 -42q85 -240 351 -240q193 0 229 78.5t36 133.5q0 138 -140.5 169.5t-250.5 53.5t-163 46q-184 82 -184 255q0 165 107.5 256t281.5 91q91 0 172 -34.5t138 -91.5v61q0 35 16.5 50t58.5 15
t58.5 -15t16.5 -50v-230q0 -35 -16.5 -50t-56.5 -15t-54 26q-98 186 -334 186q-111 0 -170.5 -52t-59.5 -136q0 -110 114 -135.5t227 -47.5t171 -45q113 -45 169.5 -119t56.5 -199q0 -159 -110.5 -254t-315.5 -95q-204 0 -331 143v-78z" />
    <glyph glyph-name="T" unicode="T" 
d="M539 1051h-267v-309q0 -35 -16.5 -50t-58.5 -15t-58.5 15t-16.5 50v377q0 38 14.5 53t48.5 15h858q34 0 48.5 -15t14.5 -53v-377q0 -35 -16.5 -50t-58.5 -15t-58.5 15t-16.5 50v309h-267v-915h236q34 0 48.5 -15t14.5 -53t-14.5 -53t-48.5 -15h-622q-34 0 -48.5 15
t-14.5 53t14.5 53t48.5 15h236v915z" />
    <glyph glyph-name="U" unicode="U" 
d="M133 1051q-34 0 -48.5 15t-14.5 53t14.5 53t48.5 15h324q34 0 48.5 -15t14.5 -53t-14.5 -53t-48.5 -15h-112v-638q0 -225 100.5 -256t204 -31t168.5 67t65 220v638h-112q-34 0 -48.5 15t-14.5 53t14.5 53t48.5 15h324q34 0 48.5 -15t14.5 -53t-14.5 -53t-48.5 -15h-62
v-658q0 -312 -160.5 -363.5t-258.5 -51.5q-200 0 -309.5 103.5t-109.5 311.5v658h-62z" />
    <glyph glyph-name="V" unicode="V" 
d="M73 1051q-34 0 -48.5 15t-14.5 53t14.5 53t48.5 15h374q34 0 48.5 -15t14.5 -53t-14.5 -53t-48.5 -15h-141l306 -884l309 884h-100q-34 0 -48.5 15t-14.5 53t14.5 53t48.5 15h334q34 0 48.5 -15t14.5 -53t-14.5 -53t-48.5 -15h-77l-359 -1008q-24 -65 -108 -65t-106 65
l-356 1008h-76z" />
    <glyph glyph-name="W" unicode="W" 
d="M53 1051q-34 0 -48.5 15t-14.5 53t14.5 53t48.5 15h344q34 0 48.5 -15t14.5 -53t-14.5 -53t-48.5 -15h-146l100 -801l188 588q14 47 74 47q59 0 71 -40l187 -595l104 801h-124q-34 0 -48.5 15t-14.5 53t14.5 53t48.5 15h324q34 0 48.5 -15t14.5 -53t-14.5 -53t-48.5 -15
h-54l-138 -1008q-5 -37 -26.5 -51t-81.5 -14t-80 65l-185 581l-187 -581q-20 -65 -81 -65t-81.5 14.5t-25.5 50.5l-133 1008h-49z" />
    <glyph glyph-name="X" unicode="X" 
d="M143 1051q-34 0 -48.5 15t-14.5 53t14.5 53t48.5 15h344q34 0 48.5 -15t14.5 -53t-14.5 -53t-48.5 -15h-89l221 -316l222 316h-60q-34 0 -48.5 15t-14.5 53t14.5 53t48.5 15h304q34 0 48.5 -15t14.5 -53t-14.5 -53t-48.5 -15h-65l-309 -434l346 -481h58q34 0 48.5 -15
t14.5 -53t-14.5 -53t-48.5 -15h-354q-34 0 -48.5 15t-14.5 53t14.5 53t48.5 15h109l-255 365l-261 -365h83q34 0 48.5 -15t14.5 -53t-14.5 -53t-48.5 -15h-324q-34 0 -48.5 15t-14.5 53t14.5 53t48.5 15h62l349 483l-312 432h-69z" />
    <glyph glyph-name="Y" unicode="Y" 
d="M123 1051q-34 0 -48.5 15t-14.5 53t14.5 53t48.5 15h334q34 0 48.5 -15t14.5 -53t-14.5 -53t-48.5 -15h-93l250 -409l252 409h-65q-34 0 -48.5 15t-14.5 53t14.5 53t48.5 15h304q34 0 48.5 -15t14.5 -53t-14.5 -53t-48.5 -15h-68l-348 -559v-356h226q34 0 48.5 -15
t14.5 -53t-14.5 -53t-48.5 -15h-602q-34 0 -48.5 15t-14.5 53t14.5 53t48.5 15h226v356l-346 559h-70z" />
    <glyph glyph-name="Z" unicode="Z" 
d="M987 1187q63 1 63 -61q0 -32 -10 -46l-663 -944h532v269q0 35 16.5 50t58.5 15t58.5 -15t16.5 -50v-337q0 -38 -14.5 -53t-48.5 -15h-766q-63 0 -63 56q0 34 14 55l659 940h-502v-249q0 -35 -16.5 -50t-58.5 -15t-58.5 15t-16.5 50v317q0 38 14.5 53t48.5 15h736z" />
    <glyph glyph-name="bracketleft" unicode="[" 
d="M807 -257q34 0 48.5 -15t14.5 -53t-14.5 -53t-48.5 -15h-414q-34 0 -48.5 15t-14.5 53v1569q0 38 14.5 53t48.5 15h414q34 0 48.5 -15t14.5 -53t-14.5 -53t-48.5 -15h-327v-1433h327z" />
    <glyph glyph-name="backslash" unicode="\" 
d="M201 1271q-11 28 14.5 46t70.5 18q46 0 59 -30l682 -1538q11 -27 -15 -45.5t-71 -18.5t-58 30z" />
    <glyph glyph-name="bracketright" unicode="]" 
d="M748 1176h-327q-34 0 -48.5 15t-14.5 53t14.5 53t48.5 15h414q34 0 48.5 -15t14.5 -53v-1569q0 -38 -14.5 -53t-48.5 -15h-414q-34 0 -48.5 15t-14.5 53t14.5 53t48.5 15h327v1433z" />
    <glyph glyph-name="asciicircum" unicode="^" 
d="M614 1209q47 0 68 -37l308 -591q18 -34 -18.5 -59t-73.5 -20t-47 25l-237 480l-237 -480q-10 -20 -39 -24t-49 3q-77 27 -51 75l308 591q21 37 68 37z" />
    <glyph glyph-name="underscore" unicode="_" 
d="M1256 -325q0 -68 -23 -68h-1238q-23 0 -23 68t23 68h1238q23 0 23 -68z" />
    <glyph glyph-name="grave" unicode="`" 
d="M807 1133q36 -21 18 -63q-17 -42 -54 -31l-481 163q-51 15 0 107q29 52 51 61q21 9 50 -7z" />
    <glyph glyph-name="a" unicode="a" 
d="M293 273q0 -73 50.5 -113.5t141.5 -40.5q198 0 359 165v109q-135 45 -303 45q-248 0 -248 -165zM638 946q356 0 356 -333v-398q0 -79 66 -79h35q34 0 48.5 -15t14.5 -53t-14.5 -53t-48.5 -15h-64q-100 0 -132.5 47.5t-39.5 80.5q-172 -150 -380 -150q-153 0 -248.5 78
t-95.5 225q0 148 114 223t282 75t313 -51v85q0 97 -46.5 142.5t-143.5 45.5q-200 0 -323 -88q-50 -37 -92.5 23t3.5 93q157 117 396 117z" />
    <glyph glyph-name="b" unicode="b" 
d="M437 216.5q85 -90.5 220 -90.5t210.5 93t75.5 243t-75 243t-211 93q-135 0 -220 -90.5t-85 -245.5t85 -245.5zM342 68q0 -38 -14.5 -53t-48.5 -15h-159q-34 0 -48.5 15t-14.5 53t14.5 53t48.5 15h82v1040h-102q-34 0 -48.5 15t-14.5 53t14.5 53t48.5 15h189
q34 0 48.5 -15t14.5 -53v-463q129 165 318 165t310 -131.5t121 -352.5t-121 -352.5t-314 -131.5q-194 0 -324 170v-80z" />
    <glyph glyph-name="c" unicode="c" 
d="M899 881q0 35 16.5 50t58.5 15t58.5 -15t16.5 -50v-290q0 -35 -16.5 -50t-58.5 -15t-58.5 15t-16.5 55q0 88 -73.5 145t-213.5 57t-233.5 -95.5t-93.5 -241.5t89 -240.5t235 -94.5q191 0 336 111q53 41 93 -24t-17 -107q-173 -128 -401 -128t-360.5 136.5t-132.5 346.5
t134 347.5t333 137.5t305 -125v60z" />
    <glyph glyph-name="d" unicode="d" 
d="M876 437q0 146 -86 228.5t-220 82.5q-135 0 -210 -86.5t-75 -224.5t75 -224.5t210 -86.5t220.5 82.5t85.5 228.5zM876 1176h-202q-34 0 -48.5 15t-14.5 53t14.5 53t48.5 15h289q34 0 48.5 -15t14.5 -53v-1108h82q34 0 48.5 -15t14.5 -53t-14.5 -53t-48.5 -15h-159
q-34 0 -48.5 15t-14.5 53v80q-130 -170 -323 -170t-314.5 124.5t-121.5 334.5t121 334.5t312 124.5t316 -156v436z" />
    <glyph glyph-name="e" unicode="e" 
d="M925 565q-44 236 -302 236q-125 0 -204.5 -62.5t-104.5 -173.5h611zM603 123q212 0 360 86q57 32 88 -44q29 -67 -35 -100q-179 -87 -405 -87t-345.5 129t-119.5 350t132.5 355t346.5 134q213 0 333.5 -125.5t132.5 -333.5q0 -34 -14.5 -48t-48.5 -14h-724
q16 -302 299 -302z" />
    <glyph glyph-name="f" unicode="f" 
d="M800 1171q-202 0 -202 -217v-110h346q34 0 48.5 -15t14.5 -53t-14.5 -53t-48.5 -15h-346v-572h346q34 0 48.5 -15t14.5 -53t-14.5 -53t-48.5 -15h-694q-34 0 -48.5 15t-14.5 53t14.5 53t48.5 15h198v572h-198q-34 0 -48.5 15t-14.5 53t14.5 53t48.5 15h198v123
q0 252 134 301t242 49t242 -51q61 -25 44 -95t-74 -48q-125 48 -236 48z" />
    <glyph glyph-name="g" unicode="g" 
d="M886 856q0 38 14.5 53t48.5 15h159q34 0 48.5 -15t14.5 -53t-14.5 -53t-48.5 -15h-82v-823q0 -274 -158 -327t-250 -53q-189 0 -347 60q-55 22 -30 95t86 46q124 -53 286 -53q195 0 229 95t34 150v206q-125 -156 -316 -156t-312 124.5t-121 334.5t121 334.5t315 124.5
q193 0 323 -170v80zM876 487q0 146 -86 228.5t-220 82.5q-135 0 -210 -86.5t-75 -224.5t75 -224.5t210 -86.5t220.5 82.5t85.5 228.5z" />
    <glyph glyph-name="h" unicode="h" 
d="M717 946q137 0 217 -87.5t80 -238.5v-484h82q34 0 48.5 -15t14.5 -53t-14.5 -53t-48.5 -15h-324q-34 0 -48.5 15t-14.5 53t14.5 53t48.5 15h92v469q0 137 -61 165t-113 28t-110 -28t-128 -107.5t-70 -240.5v-286h92q34 0 48.5 -15t14.5 -53t-14.5 -53t-48.5 -15h-324
q-34 0 -48.5 15t-14.5 53t14.5 53t48.5 15h82v1040h-92q-34 0 -48.5 15t-14.5 53t14.5 53t48.5 15h179q34 0 48.5 -15t14.5 -53v-498q134 200 335 200z" />
    <glyph glyph-name="i" unicode="i" 
d="M713 1168q0 -35 -19 -50t-76 -15t-76 15t-19 50v130q0 35 19 50t76 15t76 -15t19 -50v-130zM563 788h-253q-34 0 -48.5 15t-14.5 53t14.5 53t48.5 15h340q34 0 48.5 -15t14.5 -53v-720h321q34 0 48.5 -15t14.5 -53t-14.5 -53t-48.5 -15h-784q-34 0 -48.5 15t-14.5 53
t14.5 53t48.5 15h313v652z" />
    <glyph glyph-name="j" unicode="j" 
d="M903 1168q0 -35 -19 -50t-76 -15t-76 15t-19 50v130q0 35 19 50t76 15t76 -15t19 -50v-130zM840 924q34 0 48.5 -15t14.5 -53v-918q0 -264 -120 -308.5t-185 -44.5q-202 0 -375 112q-53 34 -18 100.5t94 27.5q145 -94 282 -94t154.5 82.5t17.5 137.5v837h-423
q-34 0 -48.5 15t-14.5 53t14.5 53t48.5 15h510z" />
    <glyph glyph-name="k" unicode="k" 
d="M348 1312q34 0 48.5 -15t14.5 -53v-792l381 336h-71q-34 0 -48.5 15t-14.5 53t14.5 53t48.5 15h334q34 0 48.5 -15t14.5 -53t-14.5 -53t-48.5 -15h-59l-294 -259l336 -393h58q34 0 48.5 -15t14.5 -53t-14.5 -53t-48.5 -15h-334q-34 0 -48.5 15t-14.5 53t14.5 53t48.5 15
h82l-251 298l-182 -160v-138h63q34 0 48.5 -15t14.5 -53t-14.5 -53t-48.5 -15h-324q-34 0 -48.5 15t-14.5 53t14.5 53t48.5 15h111v1040h-131q-34 0 -48.5 15t-14.5 53t14.5 53t48.5 15h218z" />
    <glyph glyph-name="l" unicode="l" 
d="M553 1176h-273q-34 0 -48.5 15t-14.5 53t14.5 53t48.5 15h360q34 0 48.5 -15t14.5 -53v-1108h321q34 0 48.5 -15t14.5 -53t-14.5 -53t-48.5 -15h-784q-34 0 -48.5 15t-14.5 53t14.5 53t48.5 15h313v1040z" />
    <glyph glyph-name="m" unicode="m" 
d="M504 946q106 0 142.5 -67.5t45.5 -113.5q89 181 230 181q142 0 174.5 -99.5t32.5 -168.5v-542h62q34 0 48.5 -15t14.5 -53t-14.5 -53t-48.5 -15h-149q-34 0 -48.5 15t-14.5 53v592q0 138 -95 138q-73 0 -123.5 -97t-50.5 -244v-321h57q34 0 48.5 -15t14.5 -53t-14.5 -53
t-48.5 -15h-144q-34 0 -48.5 15t-14.5 53v592q0 138 -95 138q-73 0 -123.5 -97t-50.5 -244v-321h52q34 0 48.5 -15t14.5 -53t-14.5 -53t-48.5 -15h-284q-34 0 -48.5 15t-14.5 53t14.5 53t48.5 15h82v652h-82q-34 0 -48.5 15t-14.5 53t14.5 53t48.5 15h149q34 0 48.5 -15
t14.5 -53v-99q86 189 233 189z" />
    <glyph glyph-name="n" unicode="n" 
d="M727 946q137 0 217 -87.5t80 -238.5v-484h82q34 0 48.5 -15t14.5 -53t-14.5 -53t-48.5 -15h-324q-34 0 -48.5 15t-14.5 53t14.5 53t48.5 15h92v469q0 137 -61 165t-113 28t-110 -28t-128 -107.5t-70 -240.5v-286h92q34 0 48.5 -15t14.5 -53t-14.5 -53t-48.5 -15h-324
q-34 0 -48.5 15t-14.5 53t14.5 53t48.5 15h82v652h-102q-34 0 -48.5 15t-14.5 53t14.5 53t48.5 15h179q34 0 48.5 -15t14.5 -53v-120q135 210 345 210z" />
    <glyph glyph-name="o" unicode="o" 
d="M278 462q0 -73 24.5 -134.5t68.5 -106.5t106 -70t137 -25t137 25t106 70t68.5 106.5t24.5 134.5t-24.5 134.5t-68.5 106.5t-106 70t-137 25t-137 -25t-106 -70t-68.5 -106.5t-24.5 -134.5zM120 462q0 106 37.5 194.5t103.5 153t156.5 100.5t196.5 36t196.5 -36
t156.5 -100.5t103.5 -153t37.5 -194.5t-37.5 -194.5t-103.5 -153t-156.5 -100.5t-196.5 -36t-196.5 36t-156.5 100.5t-103.5 153t-37.5 194.5z" />
    <glyph glyph-name="p" unicode="p" 
d="M352 487q0 -146 86 -228.5t220 -82.5q135 0 210 86.5t75 224.5t-75 224.5t-210 86.5t-220.5 -82.5t-85.5 -228.5zM352 -257h222q34 0 48.5 -15t14.5 -53t-14.5 -53t-48.5 -15h-484q-34 0 -48.5 15t-14.5 53t14.5 53t48.5 15h112v1045h-82q-34 0 -48.5 15t-14.5 53
t14.5 53t48.5 15h159q34 0 48.5 -15t14.5 -53v-80q130 170 323 170t314.5 -124.5t121.5 -334.5t-121 -334.5t-312 -124.5t-316 156v-441z" />
    <glyph glyph-name="q" unicode="q" 
d="M876 487q0 146 -86 228.5t-220 82.5q-135 0 -210 -86.5t-75 -224.5t75 -224.5t210 -86.5t220.5 82.5t85.5 228.5zM127 487q0 210 121 334.5t315 124.5q193 0 323 -170v80q0 38 14.5 53t48.5 15h159q34 0 48.5 -15t14.5 -53t-14.5 -53t-48.5 -15h-82v-1045h112
q34 0 48.5 -15t14.5 -53t-14.5 -53t-48.5 -15h-484q-34 0 -48.5 15t-14.5 53t14.5 53t48.5 15h222v441q-125 -156 -316 -156t-312 124.5t-121 334.5z" />
    <glyph glyph-name="r" unicode="r" 
d="M367 788h-127q-34 0 -48.5 15t-14.5 53t14.5 53t48.5 15h204q34 0 48.5 -15t14.5 -53v-202q114 206 234.5 249t188.5 43t131 -37t34 -112q-29 -76 -82 -46q-52 29 -102 29t-96.5 -16.5t-112.5 -61.5t-125.5 -149t-59.5 -223v-194h337q34 0 48.5 -15t14.5 -53t-14.5 -53
t-48.5 -15h-644q-34 0 -48.5 15t-14.5 53t14.5 53t48.5 15h157v652z" />
    <glyph glyph-name="s" unicode="s" 
d="M179 283q0 65 65 65q32 0 44 -10t20 -31q70 -184 334 -184q130 0 190 42.5t60 111.5q0 91 -122.5 106t-235.5 27.5t-171 34.5q-96 37 -137.5 89.5t-41.5 127.5q0 138 99 211t273 73q175 0 298 -110v45q0 35 16.5 50t58.5 15t58.5 -15t16.5 -50v-190q0 -35 -16.5 -50
t-54.5 -15t-52 26q-64 120 -169.5 134.5t-183.5 14.5t-132 -34t-54 -97q0 -85 117.5 -98.5t231.5 -25.5t171 -33q100 -37 144 -91.5t44 -132.5q0 -148 -102 -229.5t-300 -81.5t-319 121v-56q0 -35 -16.5 -50t-58.5 -15t-58.5 15t-16.5 50v240z" />
    <glyph glyph-name="t" unicode="t" 
d="M383 844v300q0 35 16.5 50t58.5 15t58.5 -15t16.5 -50v-300h411q34 0 48.5 -15t14.5 -53t-14.5 -53t-48.5 -15h-411v-364q0 -170 63.5 -195t123.5 -25q122 0 274 99q52 34 87 -32.5t-18 -100.5q-177 -112 -353 -112q-252 0 -289.5 133.5t-37.5 219.5v377h-203
q-34 0 -48.5 15t-14.5 53t14.5 53t48.5 15h203z" />
    <glyph glyph-name="u" unicode="u" 
d="M217 304v484h-82q-34 0 -48.5 15t-14.5 53t14.5 53t48.5 15h169q34 0 48.5 -15t14.5 -53v-537q0 -137 60.5 -165t112.5 -28t110.5 28t128.5 107.5t70 240.5v286h-142q-34 0 -48.5 15t-14.5 53t14.5 53t48.5 15h229q34 0 48.5 -15t14.5 -53v-720h82q34 0 48.5 -15
t14.5 -53t-14.5 -53t-48.5 -15h-159q-34 0 -48.5 14.5t-14.5 52.5v121q-135 -210 -345 -210q-137 0 -217 87.5t-80 238.5z" />
    <glyph glyph-name="v" unicode="v" 
d="M113 788q-34 0 -48.5 15t-14.5 53t14.5 53t48.5 15h354q34 0 48.5 -15t14.5 -53t-14.5 -53t-48.5 -15h-128l273 -652l276 652h-87q-34 0 -48.5 15t-14.5 53t14.5 53t48.5 15h314q34 0 48.5 -15t14.5 -53t-14.5 -53t-48.5 -15h-63l-323 -745q-27 -65 -116.5 -65t-117.5 65
l-320 745h-62z" />
    <glyph glyph-name="w" unicode="w" 
d="M53 788q-34 0 -48.5 15t-14.5 53t14.5 53t48.5 15h294q34 0 48.5 -15t14.5 -53t-14.5 -53t-48.5 -15h-123l144 -582l167 464q16 47 78 47q61 0 75 -40l166 -471l148 582h-101q-34 0 -48.5 15t-14.5 53t14.5 53t48.5 15h274q34 0 48.5 -15t14.5 -53t-14.5 -53t-48.5 -15
h-24l-197 -745q-10 -36 -30 -50.5t-60 -14.5q-79 0 -101 65l-153 434l-155 -434q-22 -65 -106 -65q-38 0 -57 15t-28 50l-193 745h-18z" />
    <glyph glyph-name="x" unicode="x" 
d="M143 788q-34 0 -48.5 15t-14.5 53t14.5 53t48.5 15h344q34 0 48.5 -15t14.5 -53t-14.5 -53t-48.5 -15h-76l212 -230l213 230h-55q-34 0 -48.5 15t-14.5 53t14.5 53t48.5 15h304q34 0 48.5 -15t14.5 -53t-14.5 -53t-48.5 -15h-65l-297 -313l321 -339h51q34 0 48.5 -15
t14.5 -53t-14.5 -53t-48.5 -15h-344q-34 0 -48.5 15t-14.5 53t14.5 53t48.5 15h96l-240 258l-239 -258h79q34 0 48.5 -15t14.5 -53t-14.5 -53t-48.5 -15h-314q-34 0 -48.5 15t-14.5 53t14.5 53t48.5 15h50l325 341l-294 311h-71z" />
    <glyph glyph-name="y" unicode="y" 
d="M1115 924q34 0 48.5 -15t14.5 -53t-14.5 -53t-48.5 -15h-62l-409 -838q-98 -200 -195.5 -279t-259.5 -85q-65 -2 -72 72t52 79q138 8 204.5 68t168.5 265l-366 718h-63q-34 0 -48.5 15t-14.5 53t14.5 53t48.5 15h354q34 0 48.5 -15t14.5 -53t-14.5 -53t-48.5 -15h-128
l282 -562l269 562h-89q-34 0 -48.5 15t-14.5 53t14.5 53t48.5 15h314z" />
    <glyph glyph-name="z" unicode="z" 
d="M900 136v172q0 35 16.5 50t58.5 15t58.5 -15t16.5 -50v-240q0 -38 -14.5 -53t-48.5 -15h-746q-34 0 -48.5 15t-14.5 49t14 49l611 675h-455v-149q0 -35 -16.5 -50t-58.5 -15t-58.5 15t-16.5 50v217q0 38 14.5 53t48.5 15h716q34 0 48.5 -15t14.5 -49t-15 -50l-610 -674
h485z" />
    <glyph glyph-name="braceleft" unicode="{" 
d="M635 203v-211q0 -197 78 -223t123 -26t59.5 -15t14.5 -53t-14.5 -53t-48.5 -15q-175 0 -268.5 91t-93.5 282v213q0 220 -215 220q-34 0 -48.5 15t-14.5 53t14.5 53t48.5 15q215 0 215 221v169q0 190 93.5 281.5t268.5 91.5q34 0 48.5 -15t14.5 -53t-14.5 -53t-59.5 -15
q-103 0 -152 -57.5t-49 -191.5v-167q0 -189 -147 -278q147 -89 147 -279z" />
    <glyph glyph-name="bar" unicode="|" 
d="M539 1269q0 35 16.5 50t58.5 15t58.5 -15t16.5 -50v-1619q0 -35 -16.5 -50t-58.5 -15t-58.5 15t-16.5 50v1619z" />
    <glyph glyph-name="braceright" unicode="}" 
d="M593 760v167q0 134 -50 191.5t-162 57.5q-34 0 -48.5 15t-14.5 53t14.5 53t48.5 15q175 0 268.5 -91.5t93.5 -281.5v-169q0 -221 215 -221q34 0 48.5 -15t14.5 -53t-14.5 -53t-48.5 -15q-215 0 -215 -220v-213q0 -191 -93.5 -282t-268.5 -91q-34 0 -48.5 15t-14.5 53
t14.5 53t48.5 15q112 0 162 57.5t50 191.5v211q0 190 147 279q-147 89 -147 278z" />
    <glyph glyph-name="asciitilde" unicode="~" 
d="M410 700q74 0 167 -29.5t143 -43t96 -13.5q94 0 174 58q17 13 36.5 3.5t33.5 -33.5q32 -53 -2 -81q-115 -99 -242 -99q-72 0 -165 29.5t-143 43t-96 13.5q-94 0 -174 -58q-17 -13 -36.5 -3.5t-33.5 33.5q-32 53 2 81q113 99 240 99z" />
    <glyph glyph-name="uni00A0" unicode="&#xa0;" 
 />
    <glyph glyph-name="exclamdown" unicode="&#xa1;" 
d="M768 1055q0 -32 -12 -60t-33 -49t-49 -33t-60 -12t-60 12t-49 33t-33 49t-12 60t12 60t33 49t49 33t60 12t60 -12t49 -33t33 -49t12 -60zM549 -22q-45 0 -41 50l49 647q3 48 57 48t58 -48l48 -647q4 -50 -41 -50h-130z" />
    <glyph glyph-name="cent" unicode="&#xa2;" 
d="M356 381q71 -90 188 -110v659q-117 -24 -188 -112.5t-71 -217.5t71 -219zM899 731q0 80 -54.5 134.5t-160.5 68.5v-663q148 18 261 106q53 41 93 -24t-22 -112q-135 -100 -332 -120v-181q0 -35 -16.5 -50t-53.5 -15t-53.5 15t-16.5 50v181q-190 22 -303.5 155t-113.5 325
t114.5 325.5t302.5 155.5v165q0 35 16.5 50t53.5 15t53.5 -15t16.5 -50v-168q132 -23 215 -118v60q0 35 16.5 50t58.5 15t58.5 -15t16.5 -50v-290q0 -35 -16.5 -50t-58.5 -15t-58.5 15t-16.5 50z" />
    <glyph glyph-name="sterling" unicode="&#xa3;" 
d="M684 140q76 -17 107 -17q70 0 149 56q15 11 36.5 2.5t39.5 -35.5t14.5 -52.5t-20.5 -37.5q-108 -80 -207 -80q-43 0 -129 19.5t-139 19.5q-113 0 -228 -49q-39 -16 -82 39q-42 55 -10 87q180 163 192.5 252t6.5 140h-141q-34 0 -48.5 15t-14.5 53t14.5 53t48.5 15h95
q-15 30 -31 60.5t-37.5 84t-21.5 121.5q0 138 94.5 230.5t260.5 92.5q165 0 308 -104q21 -15 21 -54v-127q0 -35 -16.5 -50t-58.5 -15t-58.5 15t-16.5 50v90q-77 47 -178 47t-150.5 -51t-49.5 -116q0 -66 25 -118.5t43 -85.5t33 -70h310q34 0 48.5 -15t14.5 -53t-14.5 -53
t-48.5 -15h-278q15 -197 -141 -352q71 25 126 25q56 0 132 -17z" />
    <glyph glyph-name="yen" unicode="&#xa5;" 
d="M213 684q-34 0 -48.5 15t-14.5 53t14.5 53t48.5 15h123l-143 231h-70q-34 0 -48.5 15t-14.5 53t14.5 53t48.5 15h334q34 0 48.5 -15t14.5 -53t-14.5 -53t-48.5 -15h-93l250 -409l252 409h-65q-34 0 -48.5 15t-14.5 53t14.5 53t48.5 15h304q34 0 48.5 -15t14.5 -53
t-14.5 -53t-48.5 -15h-68l-144 -231h122q34 0 48.5 -15t14.5 -53t-14.5 -53t-48.5 -15h-207l-108 -174h295q34 0 48.5 -15t14.5 -53t-14.5 -53t-48.5 -15h-306v-238h226q34 0 48.5 -15t14.5 -53t-14.5 -53t-48.5 -15h-602q-34 0 -48.5 15t-14.5 53t14.5 53t48.5 15h226v238
h-306q-34 0 -48.5 15t-14.5 53t14.5 53t48.5 15h295l-108 174h-207z" />
    <glyph glyph-name="brokenbar" unicode="&#xa6;" 
d="M539 1269q0 35 16.5 50t58.5 15t58.5 -15t16.5 -50v-619q0 -35 -16.5 -50t-58.5 -15t-58.5 15t-16.5 50v619zM539 269q0 35 16.5 50t58.5 15t58.5 -15t16.5 -50v-619q0 -35 -16.5 -50t-58.5 -15t-58.5 15t-16.5 50v619z" />
    <glyph glyph-name="section" unicode="&#xa7;" 
d="M891 326q0 48 -26 77t-74 59l-294 182q-63 39 -103 79q-57 -45 -57 -92q0 -48 26 -77t74 -59l294 -182q57 -35 102 -80q58 45 58 93zM599 1051q-141 0 -141 -108q0 -99 130 -177l294 -182q78 -48 122.5 -108.5t44.5 -136.5t-34.5 -126t-103.5 -100q17 -49 17 -103
q0 -110 -73.5 -175t-205.5 -65h-346q-34 0 -48.5 15t-14.5 53v217q0 35 16.5 50t58.5 15t58.5 -15t16.5 -50v-149h239q141 0 141 108q0 99 -130 177l-294 182q-167 103 -167 246q0 77 35.5 126.5t102.5 98.5q-17 48 -17 102q0 111 73.5 176t205.5 65h346q34 0 48.5 -15
t14.5 -53v-197q0 -35 -16.5 -50t-58.5 -15t-58.5 15t-16.5 50v129h-239z" />
    <glyph glyph-name="dieresis" unicode="&#xa8;" 
d="M709 1195q0 26 10 48.5t27 39.5t39.5 27t48.5 10t48.5 -10t39.5 -27t27 -39.5t10 -48.5t-10 -48.5t-27 -39.5t-39.5 -27t-48.5 -10t-48.5 10t-39.5 27t-27 39.5t-10 48.5zM269 1195q0 26 10 48.5t27 39.5t39.5 27t48.5 10t48.5 -10t39.5 -27t27 -39.5t10 -48.5t-10 -48.5
t-27 -39.5t-39.5 -27t-48.5 -10t-48.5 10t-39.5 27t-27 39.5t-10 48.5z" />
    <glyph glyph-name="copyright" unicode="&#xa9;" 
d="M158 594q0 -107 33 -198t93 -157t144 -103.5t186 -37.5t186 37.5t144 103.5t93 157t33 198t-33 198t-93 157t-144 103t-186 37t-186 -37t-144 -103t-93 -157t-33 -198zM199 1032q163 177 415 177t415 -177t163 -437.5t-163 -438.5t-415 -178t-415 178t-163 438.5
t163 437.5zM629 811q-38 0 -71 -13.5t-57.5 -41t-38.5 -68.5t-14 -95t14 -95t50.5 -82t112.5 -41.5t123 21.5q46 22 64.5 16.5t35.5 -51t-32 -68.5q-91 -44 -173 -44t-139.5 23.5t-99.5 67.5t-65.5 108t-23.5 184.5t88 212.5t205 92t201 -40q56 -27 34.5 -84t-65.5 -37
q-45 20 -78 27.5t-71 7.5z" />
    <glyph glyph-name="ordfeminine" unicode="&#xaa;" 
d="M559 801q-176 0 -176 -111q0 -49 36 -74.5t97 -25.5q149 0 266 117v69q-110 25 -223 25zM917 657q0 -55 50 -55h17q49 0 49 -46.5t-11.5 -59.5t-37.5 -13h-49q-48 0 -88 22t-53 69q-128 -109 -282 -109q-188 0 -229 83.5t-41 143.5q0 119 86 177t218.5 58t235.5 -28v51
q0 130 -148 130q-120 0 -232 -65q-44 -25 -77 30q-33 56 10 83q129 81 284 81q298 0 298 -255v-297z" />
    <glyph glyph-name="guillemotleft" unicode="&#xab;" 
d="M652 548q-14 24 0 48l198 326q13 22 39 24t45 -6q76 -34 46 -83l-174 -285l174 -285q29 -48 -40 -80q-25 -11 -51 -9t-39 24zM252 548q-14 24 0 48l198 326q13 22 39 24t45 -6q76 -34 46 -83l-174 -285l174 -285q29 -48 -40 -80q-25 -11 -51 -9t-39 24z" />
    <glyph glyph-name="logicalnot" unicode="&#xac;" 
d="M203 709q-34 0 -48.5 15t-14.5 53t14.5 53t48.5 15h812q34 0 48.5 -15t14.5 -53v-394q0 -35 -16.5 -50t-58.5 -15t-58.5 15t-16.5 50v326h-725z" />
    <glyph glyph-name="registered" unicode="&#xae;" 
d="M615 587q134 0 134 108q0 49 -31 77t-94 28h-115v-213h106zM879 695q0 -153 -145 -201l107 -116q49 -54 3 -96q-47 -42 -88 6l-158 182h-89v-135q0 -35 -14 -50t-49 -15t-48 15t-13 50v519q0 34 15.5 48.5t49.5 14.5h187q110 0 176 -62t66 -160zM158 594q0 -107 33 -198
t93 -157t144 -103.5t186 -37.5t186 37.5t144 103.5t93 157t33 198t-33 198t-93 157t-144 103t-186 37t-186 -37t-144 -103t-93 -157t-33 -198zM199 1032q163 177 415 177t415 -177t163 -437.5t-163 -438.5t-415 -178t-415 178t-163 438.5t163 437.5z" />
    <glyph glyph-name="macron" unicode="&#xaf;" 
d="M895 1246q34 0 48.5 -15t14.5 -53t-14.5 -53t-48.5 -15h-562q-34 0 -48.5 15t-14.5 53t14.5 53t48.5 15h562z" />
    <glyph glyph-name="degree" unicode="&#xb0;" 
d="M381 929q0 -30 11.5 -56.5t31 -46t46 -31t56.5 -11.5t56.5 11.5t46 31t31 46t11.5 56.5t-11.5 56.5t-31 46t-46 31t-56.5 11.5t-56.5 -11.5t-46 -31t-31 -46t-11.5 -56.5zM246 929q0 58 22 109t60 89t89 60t109 22t109 -22t89 -60t60 -89t22 -109t-22 -109t-60 -89
t-89 -60t-109 -22t-109 22t-89 60t-60 89t-22 109z" />
    <glyph glyph-name="plusminus" unicode="&#xb1;" 
d="M995 250q34 0 48.5 -15t14.5 -53t-14.5 -53t-48.5 -15h-762q-34 0 -48.5 15t-14.5 53t14.5 53t48.5 15h762zM233 674q-34 0 -48.5 15t-14.5 53t14.5 53t48.5 15h313v253q0 34 15 48.5t53 14.5t53 -14.5t15 -48.5v-253h313q34 0 48.5 -15t14.5 -53t-14.5 -53t-48.5 -15
h-313v-253q0 -34 -15 -48.5t-53 -14.5t-53 14.5t-15 48.5v253h-313z" />
    <glyph glyph-name="twosuperior" unicode="&#xb2;" 
d="M601 1205q-82 0 -155 -39v-103q0 -51 -68 -51t-67 51v147q0 27 21 42q123 82 270 82t223 -69t76 -187q0 -76 -39 -139t-124 -133l-239 -198h322v78q-1 51 67 51t68 -51v-150q0 -53 -50 -53h-571q-47 0 -47 72q0 38 31 65l332 280q54 46 82 86.5t28 94.5t-39 89t-121 35z
" />
    <glyph glyph-name="threesuperior" unicode="&#xb3;" 
d="M446 1113q0 -51 -68 -51t-67 51v110q0 29 21 42q118 69 263 69q144 0 224 -65.5t80 -179.5t-112 -174q139 -48 139 -196q0 -182 -120 -218t-196 -36q-167 0 -286 65q-34 18 -13 79q22 60 67 41q110 -56 210 -56q198 0 198 126q0 120 -184 120h-52q-44 0 -44 62t44 63h39
q81 0 125.5 27.5t44.5 93.5q0 119 -166 119q-81 0 -147 -29v-63z" />
    <glyph glyph-name="acute" unicode="&#xb4;" 
d="M837 1363q29 16 50 7t44 -49q59 -104 7 -119l-481 -163q-37 -12 -54 31q-17 42 18 63z" />
    <glyph glyph-name="paragraph" unicode="&#xb6;" 
d="M676 -350q0 -35 -16.5 -50t-58.5 -15t-58.5 15t-16.5 50v852q-277 10 -336 137t-59 207q0 158 114.5 249.5t302.5 91.5h506q34 0 48.5 -15t14.5 -53t-14.5 -53t-48.5 -15h-68v-1401q0 -35 -16.5 -50t-58.5 -15t-58.5 15t-16.5 50v1401h-160v-1401z" />
    <glyph glyph-name="periodcentered" unicode="&#xb7;" 
d="M445 582q0 35 13.5 65.5t36.5 53.5t53.5 36.5t65.5 13.5t65.5 -13.5t53.5 -36.5t36.5 -53.5t13.5 -65.5t-13.5 -65.5t-36.5 -53.5t-53.5 -36.5t-65.5 -13.5t-65.5 13.5t-53.5 36.5t-36.5 53.5t-13.5 65.5z" />
    <glyph glyph-name="cedilla" unicode="&#xb8;" 
d="M714 -285q0 79 -145 68q-28 0 -34 14t-6 28v203h135v-141q149 3 177.5 -65t28.5 -106q0 -83 -63.5 -135.5t-196.5 -52.5q-132 0 -236 48q-36 16 -15 68t69 34q77 -30 181 -30q105 0 105 67z" />
    <glyph glyph-name="onesuperior" unicode="&#xb9;" 
d="M365 483q-50 0 -50 62.5t50 62.5h204v571l-174 -57q-50 -17 -69 40q-22 61 28 77l284 91q27 9 46.5 -1.5t19.5 -36.5v-684h194q49 0 49 -62.5t-49 -62.5h-533z" />
    <glyph glyph-name="ordmasculine" unicode="&#xba;" 
d="M614 597q106 0 172.5 66.5t66.5 172.5t-66 173.5t-173 67.5t-173 -67.5t-66 -173.5t66.5 -172.5t172.5 -66.5zM235 837q0 81 29 149t79.5 117.5t120 77.5t150.5 28t150.5 -28t120 -77.5t79.5 -117.5t29 -149t-29 -149.5t-79.5 -118t-120 -77t-150.5 -27.5t-150.5 27.5
t-120 77t-79.5 118t-29 149.5z" />
    <glyph glyph-name="guillemotright" unicode="&#xbb;" 
d="M778 222q-13 -22 -39 -24t-45 6q-76 34 -46 83l174 285l-174 285q-29 48 40 80q25 11 51 9t39 -24l198 -326q14 -24 0 -48zM378 222q-13 -22 -39 -24t-45 6q-76 34 -46 83l174 285l-174 285q-29 48 40 80q25 11 51 9t39 -24l198 -326q14 -24 0 -48z" />
    <glyph glyph-name="onequarter" unicode="&#xbc;" 
d="M86 638q-42 0 -42 52t42 53h170v476l-145 -47q-42 -14 -59 35t24 62l238 76q23 8 38 -1q16 -9 17 -31v-570h162q41 0 40 -53q0 -52 -40 -52h-445zM111 252q0 18 14 27l918 561q30 19 60 -24q14 -20 14 -38t-14 -27l-918 -561q-30 -19 -60 24q-14 20 -14 38zM1122 178
q40 0 40 -52t-40 -53h-91v-153q0 -40 -57 -40q-56 0 -56 40v153h-314q-45 0 -45 65q0 25 14 45l317 377q30 37 72 37q43 0 63 -28q6 -9 6 -19v-372h91zM923 444l-221 -266h216z" />
    <glyph glyph-name="onehalf" unicode="&#xbd;" 
d="M86 638q-42 0 -42 52t42 53h170v476l-145 -47q-42 -14 -59 35t24 62l238 76q23 8 38 -1q16 -9 17 -31v-570h162q41 0 40 -53q0 -52 -40 -52h-445zM860 489q-68 0 -130 -32v-86q0 -43 -56 -43t-56 43v122q0 6 1 12l-434 -265q-30 -19 -60 24q-14 20 -14 38t14 27l918 561
q30 19 60 -24q14 -20 14 -38t-14 -27l-371 -226q70 22 134 22q117 0 181 -58t63 -153q0 -96 -77 -176q-25 -26 -59 -54l-199 -165h269v65q0 43 56 42q56 0 56 -42v-125q0 -44 -41 -45h-477q-39 0 -40 60q0 32 26 55l278 234q45 38 68 72t23 79t-32 74q-33 29 -101 29z" />
    <glyph glyph-name="threequarters" unicode="&#xbe;" 
d="M111 262q0 18 14 27l918 561q30 19 60 -24q14 -20 14 -38t-14 -27l-918 -561q-30 -19 -60 24q-14 20 -14 38zM179 1164q0 -43 -56 -42q-56 0 -56 42v92q0 24 17 35q99 58 220 58t187 -55q67 -55 67 -149q0 -95 -94 -146q116 -40 116 -164q0 -152 -150 -197
q-50 -15 -114 -15q-140 0 -238 55q-29 15 -11 65t57 32q94 -44 176 -44q163 0 163 105q0 100 -153 100h-44q-37 0 -36 53q0 52 36 52h33q142 0 142 100t-139 100q-67 0 -123 -24v-53zM1122 178q40 0 40 -52t-40 -53h-91v-153q0 -40 -57 -40q-56 0 -56 40v153h-314
q-45 0 -45 65q0 25 14 45l317 377q30 37 72 37q43 0 63 -28q6 -9 6 -19v-372h91zM923 444l-221 -266h216z" />
    <glyph glyph-name="questiondown" unicode="&#xbf;" 
d="M751.5 973.5q-40.5 -40.5 -83.5 -40.5q-71 0 -111.5 40.5t-40.5 82.5q0 72 41 112.5t83 40.5t67.5 -11t55 -40.5t29.5 -86.5t-40.5 -97.5zM626 126q111 0 198 37v89q0 35 16.5 50t58.5 15t58.5 -15t16.5 -50v-127q0 -41 -25 -56q-150 -91 -326 -91t-270.5 86t-94.5 227
q0 182 120 247.5t197 97.5l10 141q4 51 69 51t69 -51l10 -195q2 -38 -30 -51l-69 -28q-117 -47 -167.5 -93t-50.5 -119t49.5 -119t160.5 -46z" />
    <glyph glyph-name="Agrave" unicode="&#xc0;" 
d="M416 510h392l-186 541h-19zM407 136q35 0 49 -15t14 -53t-14 -53t-49 -15h-334q-35 0 -49 15t-14 53t14 53t49 15h56l331 915h-187q-35 0 -49 15t-14 53t14 53t49 15h367q79 0 101 -65l353 -986h61q35 0 49 -15t14 -53t-14 -53t-49 -15h-354q-35 0 -49 15t-14 53t14 53
t49 15h135l-82 238h-485l-83 -238h121zM769 1403q36 -21 18 -63q-17 -42 -54 -31l-481 163q-51 15 0 107q29 52 51 61q21 9 50 -7z" />
    <glyph glyph-name="Aacute" unicode="&#xc1;" 
d="M416 510h392l-186 541h-19zM407 136q35 0 49 -15t14 -53t-14 -53t-49 -15h-334q-35 0 -49 15t-14 53t14 53t49 15h56l331 915h-187q-35 0 -49 15t-14 53t14 53t49 15h367q79 0 101 -65l353 -986h61q35 0 49 -15t14 -53t-14 -53t-49 -15h-354q-35 0 -49 15t-14 53t14 53
t49 15h135l-82 238h-485l-83 -238h121zM775 1633q29 16 50 7t44 -49q59 -104 7 -119l-481 -163q-37 -12 -54 31q-17 42 18 63z" />
    <glyph glyph-name="Acircumflex" unicode="&#xc2;" 
d="M416 510h392l-186 541h-19zM407 136q35 0 49 -15t14 -53t-14 -53t-49 -15h-334q-35 0 -49 15t-14 53t14 53t49 15h56l331 915h-187q-35 0 -49 15t-14 53t14 53t49 15h367q79 0 101 -65l353 -986h61q35 0 49 -15t14 -53t-14 -53t-49 -15h-354q-35 0 -49 15t-14 53t14 53
t49 15h135l-82 238h-485l-83 -238h121zM246 1364q0 18 16 32l277 232q23 18 55 18t55 -18l277 -232q16 -14 16 -32t-10 -34q-25 -41 -59 -21l-279 159l-279 -159q-34 -20 -59 21q-10 16 -10 34z" />
    <glyph glyph-name="Atilde" unicode="&#xc3;" 
d="M416 510h392l-186 541h-19zM407 136q35 0 49 -15t14 -53t-14 -53t-49 -15h-334q-35 0 -49 15t-14 53t14 53t49 15h56l331 915h-187q-35 0 -49 15t-14 53t14 53t49 15h367q79 0 101 -65l353 -986h61q35 0 49 -15t14 -53t-14 -53t-49 -15h-354q-35 0 -49 15t-14 53t14 53
t49 15h135l-82 238h-485l-83 -238h121zM441 1557q51 1 112 -21q119 -42 172 -42t123 42q35 21 62 -26q27 -46 -6 -73q-109 -91 -200 -91q-48 0 -109 22q-119 42 -172 41q-53 0 -123 -42q-35 -21 -62 26q-27 46 6 73q109 91 197 91z" />
    <glyph glyph-name="Adieresis" unicode="&#xc4;" 
d="M416 510h392l-186 541h-19zM407 136q35 0 49 -15t14 -53t-14 -53t-49 -15h-334q-35 0 -49 15t-14 53t14 53t49 15h56l331 915h-187q-35 0 -49 15t-14 53t14 53t49 15h367q79 0 101 -65l353 -986h61q35 0 49 -15t14 -53t-14 -53t-49 -15h-354q-35 0 -49 15t-14 53t14 53
t49 15h135l-82 238h-485l-83 -238h121zM689 1465q0 27 10 49t27 39q18 17 40 27t48 10t48 -10t40 -27q17 -17 27 -39t10 -49t-10 -49t-27 -39q-18 -17 -40 -27t-48 -10t-48 10t-40 27q-17 17 -27 39t-10 49zM249 1465q0 27 10 49t27 39q18 17 40 27t48 10t48 -10t40 -27
q17 -17 27 -39t10 -49t-10 -49t-27 -39q-18 -17 -40 -27t-48 -10t-48 10t-40 27q-17 17 -27 39t-10 49z" />
    <glyph glyph-name="Aring" unicode="&#xc5;" 
d="M416 510h392l-186 541h-19zM407 136q35 0 49 -15t14 -53t-14 -53t-49 -15h-334q-35 0 -49 15t-14 53t14 53t49 15h56l331 915h-187q-35 0 -49 15t-14 53t14 53t49 15h367q79 0 101 -65l353 -986h61q35 0 49 -15t14 -53t-14 -53t-49 -15h-354q-35 0 -49 15t-14 53t14 53
t49 15h135l-82 238h-485l-83 -238h121zM451 1551q0 -26 10 -49t27 -40t40 -27t49 -10t49 10t40 27t27 40t10 49t-10 49t-27 40t-40 27t-49 10t-49 -10t-40 -27t-27 -40t-10 -49zM331 1551q-1 51 19 96t53 78t78 53t96 19q51 1 96 -19t78 -53t53 -78t19 -96q1 -51 -19 -96
t-53 -78t-78 -53t-96 -19q-51 -1 -96 19t-78 53t-53 78t-19 96z" />
    <glyph glyph-name="AE" unicode="&#xc6;" 
d="M566 510v541h-20l-164 -541h184zM294 1051q-34 0 -48.5 15t-14.5 53t14.5 53t48.5 15h769q34 0 48.5 -15t14.5 -53v-254q0 -35 -16.5 -50t-58.5 -15t-58.5 15t-16.5 50v186h-260v-366h192q34 0 48.5 -15t14.5 -53t-14.5 -53t-48.5 -15h-192v-413h272v229q0 35 16.5 50
t58.5 15t58.5 -15t16.5 -50v-297q0 -38 -14.5 -53t-48.5 -15h-446q-34 0 -48.5 15t-14.5 53v306h-225l-72 -238h88q34 0 48.5 -15t14.5 -53t-14.5 -53t-48.5 -15h-294q-34 0 -48.5 15t-14.5 53t14.5 53t48.5 15h50l280 915h-99z" />
    <glyph glyph-name="Ccedilla" unicode="&#xc7;" 
d="M744 -285q0 79 -145 68q-28 0 -34 14t-6 28v158q-202 26 -321.5 190t-119.5 431t143 436t373 169q186 0 290 -123v58q0 35 16.5 50t58.5 15t58.5 -15t16.5 -50v-330q0 -35 -16.5 -50t-58.5 -15t-58.5 15t-16.5 57q0 99 -71.5 169.5t-222.5 70.5t-252.5 -127.5
t-101.5 -341.5t97 -340t261 -126q206 0 351 113q51 41 90 -25t-13 -105q-159 -111 -368 -128v-94q149 3 177.5 -65t28.5 -106q0 -83 -63.5 -135.5t-196.5 -52.5q-132 0 -236 48q-36 16 -15 68t69 34q77 -30 181 -30q105 0 105 67z" />
    <glyph glyph-name="Egrave" unicode="&#xc8;" 
d="M245 1051h-102q-35 0 -49 15t-14 53t14 53t49 15h874q35 0 49 -15t14 -53v-254q0 -35 -16 -50t-59 -15t-59 15t-16 50v186h-535v-371h250v91q1 35 17 50t58 15t58 -15t17 -50v-318q-1 -35 -17 -50t-58 -15t-58 15t-17 50v91h-250v-408h555v229q0 35 16 50t59 15t59 -15
t16 -50v-297q0 -38 -14 -53t-49 -15h-894q-35 0 -49 15t-14 53t14 53t49 15h102v915zM839 1403q36 -21 18 -63q-17 -42 -54 -31l-481 163q-51 15 0 107q29 52 51 61q21 9 50 -7z" />
    <glyph glyph-name="Eacute" unicode="&#xc9;" 
d="M245 1051h-102q-35 0 -49 15t-14 53t14 53t49 15h874q35 0 49 -15t14 -53v-254q0 -35 -16 -50t-59 -15t-59 15t-16 50v186h-535v-371h250v91q1 35 17 50t58 15t58 -15t17 -50v-318q-1 -35 -17 -50t-58 -15t-58 15t-17 50v91h-250v-408h555v229q0 35 16 50t59 15t59 -15
t16 -50v-297q0 -38 -14 -53t-49 -15h-894q-35 0 -49 15t-14 53t14 53t49 15h102v915zM805 1633q29 16 50 7t44 -49q59 -104 7 -119l-481 -163q-37 -12 -54 31q-17 42 18 63z" />
    <glyph glyph-name="Ecircumflex" unicode="&#xca;" 
d="M245 1051h-102q-35 0 -49 15t-14 53t14 53t49 15h874q35 0 49 -15t14 -53v-254q0 -35 -16 -50t-59 -15t-59 15t-16 50v186h-535v-371h250v91q1 35 17 50t58 15t58 -15t17 -50v-318q-1 -35 -17 -50t-58 -15t-58 15t-17 50v91h-250v-408h555v229q0 35 16 50t59 15t59 -15
t16 -50v-297q0 -38 -14 -53t-49 -15h-894q-35 0 -49 15t-14 53t14 53t49 15h102v915zM296 1364q0 18 16 32l277 232q23 18 55 18t55 -18l277 -232q16 -14 16 -32t-10 -34q-25 -41 -59 -21l-279 159l-279 -159q-34 -20 -59 21q-10 16 -10 34z" />
    <glyph glyph-name="Edieresis" unicode="&#xcb;" 
d="M245 1051h-102q-35 0 -49 15t-14 53t14 53t49 15h874q35 0 49 -15t14 -53v-254q0 -35 -16 -50t-59 -15t-59 15t-16 50v186h-535v-371h250v91q1 35 17 50t58 15t58 -15t17 -50v-318q-1 -35 -17 -50t-58 -15t-58 15t-17 50v91h-250v-408h555v229q0 35 16 50t59 15t59 -15
t16 -50v-297q0 -38 -14 -53t-49 -15h-894q-35 0 -49 15t-14 53t14 53t49 15h102v915zM739 1465q0 27 10 49t27 39q18 17 40 27t48 10t48 -10t40 -27q17 -17 27 -39t10 -49t-10 -49t-27 -39q-18 -17 -40 -27t-48 -10t-48 10t-40 27q-17 17 -27 39t-10 49zM299 1465
q0 27 10 49t27 39q18 17 40 27t48 10t48 -10t40 -27q17 -17 27 -39t10 -49t-10 -49t-27 -39q-18 -17 -40 -27t-48 -10t-48 10t-40 27q-17 17 -27 39t-10 49z" />
    <glyph glyph-name="Igrave" unicode="&#xcc;" 
d="M539 1051h-256q-35 0 -49 15t-14 53t14 53t49 15h662q35 0 49 -15t14 -53t-14 -53t-49 -15h-256v-915h276q35 0 49 -15t14 -53t-14 -53t-49 -15h-702q-35 0 -49 15t-14 53t14 53t49 15h276v915zM829 1403q36 -21 18 -63q-17 -42 -54 -31l-481 163q-51 15 0 107
q29 52 51 61q21 9 50 -7z" />
    <glyph glyph-name="Iacute" unicode="&#xcd;" 
d="M539 1051h-256q-35 0 -49 15t-14 53t14 53t49 15h662q35 0 49 -15t14 -53t-14 -53t-49 -15h-256v-915h276q35 0 49 -15t14 -53t-14 -53t-49 -15h-702q-35 0 -49 15t-14 53t14 53t49 15h276v915zM835 1633q29 16 50 7t44 -49q59 -104 7 -119l-481 -163q-37 -12 -54 31
q-17 42 18 63z" />
    <glyph glyph-name="Icircumflex" unicode="&#xce;" 
d="M539 1051h-256q-35 0 -49 15t-14 53t14 53t49 15h662q35 0 49 -15t14 -53t-14 -53t-49 -15h-256v-915h276q35 0 49 -15t14 -53t-14 -53t-49 -15h-702q-35 0 -49 15t-14 53t14 53t49 15h276v915zM266 1364q0 18 16 32l277 232q23 18 55 18t55 -18l277 -232q16 -14 16 -32
t-10 -34q-25 -41 -59 -21l-279 159l-279 -159q-34 -20 -59 21q-10 16 -10 34z" />
    <glyph glyph-name="Idieresis" unicode="&#xcf;" 
d="M539 1051h-256q-35 0 -49 15t-14 53t14 53t49 15h662q35 0 49 -15t14 -53t-14 -53t-49 -15h-256v-915h276q35 0 49 -15t14 -53t-14 -53t-49 -15h-702q-35 0 -49 15t-14 53t14 53t49 15h276v915zM709 1465q0 27 10 49t27 39q18 17 40 27t48 10t48 -10t40 -27
q17 -17 27 -39t10 -49t-10 -49t-27 -39q-18 -17 -40 -27t-48 -10t-48 10t-40 27q-17 17 -27 39t-10 49zM269 1465q0 27 10 49t27 39q18 17 40 27t48 10t48 -10t40 -27q17 -17 27 -39t10 -49t-10 -49t-27 -39q-18 -17 -40 -27t-48 -10t-48 10t-40 27q-17 17 -27 39t-10 49z
" />
    <glyph glyph-name="Eth" unicode="&#xd0;" 
d="M591 136q181 0 286 118.5t105 338t-105 339t-286 119.5h-186v-371h190q34 0 48.5 -15t14.5 -53t-14.5 -53t-48.5 -15h-190v-408h186zM255 544h-142q-34 0 -48.5 15t-14.5 53t14.5 53t48.5 15h142v371h-112q-34 0 -48.5 15t-14.5 53t14.5 53t48.5 15h471q238 0 382 -159.5
t144 -434.5t-143.5 -434t-382.5 -159h-471q-34 0 -48.5 15t-14.5 53t14.5 53t48.5 15h112v408z" />
    <glyph glyph-name="Ntilde" unicode="&#xd1;" 
d="M1038 37q0 -59 -75 -59q-52 0 -84 55l-519 927v-824h137q35 0 49 -15t14 -53t-14 -53t-49 -15h-354q-35 0 -49 15t-14 53t14 53t49 15h67v915h-77q-35 0 -49 15t-14 53t14 53t49 15h224q41 0 57 -28l474 -848v740h-117q-35 0 -49 15t-14 53t14 53t49 15h324q35 0 49 -15
t14 -53t-14 -53t-49 -15h-57v-1014zM481 1557q51 1 112 -21q119 -42 172 -42t123 42q35 21 62 -26q27 -46 -6 -73q-109 -91 -200 -91q-48 0 -109 22q-119 42 -172 41q-53 0 -123 -42q-35 -21 -62 26q-27 46 6 73q109 91 197 91z" />
    <glyph glyph-name="Ograve" unicode="&#xd2;" 
d="M246 593q0 -109 26 -195t75 -146q48 -60 116 -94q68 -32 151 -32t151 32t116 94q49 60 75 146t26 195t-26 195t-75 147q-48 61 -116 93t-151 33q-83 -1 -151 -33t-116 -93q-49 -61 -75 -147t-26 -195zM88 593q0 139 38 253t107 194q69 81 166 125t215 44t215 -44
t166 -125q69 -80 107 -194t38 -253t-38 -253t-107 -194t-166 -124t-215 -44t-215 44t-166 124t-107 194t-38 253zM829 1403q36 -21 18 -63q-17 -42 -54 -31l-481 163q-51 15 0 107q29 52 51 61q21 9 50 -7z" />
    <glyph glyph-name="Oacute" unicode="&#xd3;" 
d="M246 593q0 -109 26 -195t75 -146q48 -60 116 -94q68 -32 151 -32t151 32t116 94q49 60 75 146t26 195t-26 195t-75 147q-48 61 -116 93t-151 33q-83 -1 -151 -33t-116 -93q-49 -61 -75 -147t-26 -195zM88 593q0 139 38 253t107 194q69 81 166 125t215 44t215 -44
t166 -125q69 -80 107 -194t38 -253t-38 -253t-107 -194t-166 -124t-215 -44t-215 44t-166 124t-107 194t-38 253zM815 1633q29 16 50 7t44 -49q59 -104 7 -119l-481 -163q-37 -12 -54 31q-17 42 18 63z" />
    <glyph glyph-name="Ocircumflex" unicode="&#xd4;" 
d="M246 593q0 -109 26 -195t75 -146q48 -60 116 -94q68 -32 151 -32t151 32t116 94q49 60 75 146t26 195t-26 195t-75 147q-48 61 -116 93t-151 33q-83 -1 -151 -33t-116 -93q-49 -61 -75 -147t-26 -195zM88 593q0 139 38 253t107 194q69 81 166 125t215 44t215 -44
t166 -125q69 -80 107 -194t38 -253t-38 -253t-107 -194t-166 -124t-215 -44t-215 44t-166 124t-107 194t-38 253zM266 1364q0 18 16 32l277 232q23 18 55 18t55 -18l277 -232q16 -14 16 -32t-10 -34q-25 -41 -59 -21l-279 159l-279 -159q-34 -20 -59 21q-10 16 -10 34z" />
    <glyph glyph-name="Otilde" unicode="&#xd5;" 
d="M246 593q0 -109 26 -195t75 -146q48 -60 116 -94q68 -32 151 -32t151 32t116 94q49 60 75 146t26 195t-26 195t-75 147q-48 61 -116 93t-151 33q-83 -1 -151 -33t-116 -93q-49 -61 -75 -147t-26 -195zM88 593q0 139 38 253t107 194q69 81 166 125t215 44t215 -44
t166 -125q69 -80 107 -194t38 -253t-38 -253t-107 -194t-166 -124t-215 -44t-215 44t-166 124t-107 194t-38 253zM481 1557q51 1 112 -21q119 -42 172 -42t123 42q35 21 62 -26q27 -46 -6 -73q-109 -91 -200 -91q-48 0 -109 22q-119 42 -172 41q-53 0 -123 -42
q-35 -21 -62 26q-27 46 6 73q109 91 197 91z" />
    <glyph glyph-name="Odieresis" unicode="&#xd6;" 
d="M246 593q0 -109 26 -195t75 -146q48 -60 116 -94q68 -32 151 -32t151 32t116 94q49 60 75 146t26 195t-26 195t-75 147q-48 61 -116 93t-151 33q-83 -1 -151 -33t-116 -93q-49 -61 -75 -147t-26 -195zM88 593q0 139 38 253t107 194q69 81 166 125t215 44t215 -44
t166 -125q69 -80 107 -194t38 -253t-38 -253t-107 -194t-166 -124t-215 -44t-215 44t-166 124t-107 194t-38 253zM709 1465q0 27 10 49t27 39q18 17 40 27t48 10t48 -10t40 -27q17 -17 27 -39t10 -49t-10 -49t-27 -39q-18 -17 -40 -27t-48 -10t-48 10t-40 27q-17 17 -27 39
t-10 49zM269 1465q0 27 10 49t27 39q18 17 40 27t48 10t48 -10t40 -27q17 -17 27 -39t10 -49t-10 -49t-27 -39q-18 -17 -40 -27t-48 -10t-48 10t-40 27q-17 17 -27 39t-10 49z" />
    <glyph glyph-name="multiply" unicode="&#xd7;" 
d="M614 678l261 261q45 45 93 -3t3 -93l-261 -261l261 -261q45 -45 -3 -93t-93 -3l-261 261l-261 -261q-45 -45 -93 3t-3 93l261 261l-261 261q-45 45 3 93t93 3z" />
    <glyph glyph-name="Oslash" unicode="&#xd8;" 
d="M628 1061q-182 0 -282 -127t-100 -325t72 -317l494 709q-86 60 -184 60zM982 575q0 197 -73 320l-494 -709q87 -60 184 -60q182 0 282.5 126t100.5 323zM224 157q-136 167 -136 440t144.5 442.5t381.5 169.5q160 0 285 -83l37 53q37 54 95 13.5t20 -93.5l-48 -69
q137 -168 137 -441t-144.5 -442t-381.5 -169q-165 0 -286 83l-36 -51q-37 -53 -94 -13q-58 40 -21 93z" />
    <glyph glyph-name="Ugrave" unicode="&#xd9;" 
d="M133 1051q-35 0 -49 15t-14 53t14 53t49 15h324q35 0 49 -15t14 -53t-14 -53t-49 -15h-112v-638q1 -225 151 -271q50 -16 118 -16q139 0 204 67t65 220v638h-112q-35 0 -49 15t-14 53t14 53t49 15h324q35 0 49 -15t14 -53t-14 -53t-49 -15h-62v-658q0 -312 -244 -390
q-77 -25 -175 -25q-200 0 -310 103q-109 103 -109 312v658h-62zM829 1403q36 -21 18 -63q-17 -42 -54 -31l-481 163q-51 15 0 107q29 52 51 61q21 9 50 -7z" />
    <glyph glyph-name="Uacute" unicode="&#xda;" 
d="M133 1051q-35 0 -49 15t-14 53t14 53t49 15h324q35 0 49 -15t14 -53t-14 -53t-49 -15h-112v-638q1 -225 151 -271q50 -16 118 -16q139 0 204 67t65 220v638h-112q-35 0 -49 15t-14 53t14 53t49 15h324q35 0 49 -15t14 -53t-14 -53t-49 -15h-62v-658q0 -312 -244 -390
q-77 -25 -175 -25q-200 0 -310 103q-109 103 -109 312v658h-62zM835 1633q29 16 50 7t44 -49q59 -104 7 -119l-481 -163q-37 -12 -54 31q-17 42 18 63z" />
    <glyph glyph-name="Ucircumflex" unicode="&#xdb;" 
d="M133 1051q-35 0 -49 15t-14 53t14 53t49 15h324q35 0 49 -15t14 -53t-14 -53t-49 -15h-112v-638q1 -225 151 -271q50 -16 118 -16q139 0 204 67t65 220v638h-112q-35 0 -49 15t-14 53t14 53t49 15h324q35 0 49 -15t14 -53t-14 -53t-49 -15h-62v-658q0 -312 -244 -390
q-77 -25 -175 -25q-200 0 -310 103q-109 103 -109 312v658h-62zM266 1364q0 18 16 32l277 232q23 18 55 18t55 -18l277 -232q16 -14 16 -32t-10 -34q-25 -41 -59 -21l-279 159l-279 -159q-34 -20 -59 21q-10 16 -10 34z" />
    <glyph glyph-name="Udieresis" unicode="&#xdc;" 
d="M133 1051q-35 0 -49 15t-14 53t14 53t49 15h324q35 0 49 -15t14 -53t-14 -53t-49 -15h-112v-638q1 -225 151 -271q50 -16 118 -16q139 0 204 67t65 220v638h-112q-35 0 -49 15t-14 53t14 53t49 15h324q35 0 49 -15t14 -53t-14 -53t-49 -15h-62v-658q0 -312 -244 -390
q-77 -25 -175 -25q-200 0 -310 103q-109 103 -109 312v658h-62zM709 1465q0 27 10 49t27 39q18 17 40 27t48 10t48 -10t40 -27q17 -17 27 -39t10 -49t-10 -49t-27 -39q-18 -17 -40 -27t-48 -10t-48 10t-40 27q-17 17 -27 39t-10 49zM269 1465q0 27 10 49t27 39q18 17 40 27
t48 10t48 -10t40 -27q17 -17 27 -39t10 -49t-10 -49t-27 -39q-18 -17 -40 -27t-48 -10t-48 10t-40 27q-17 17 -27 39t-10 49z" />
    <glyph glyph-name="Yacute" unicode="&#xdd;" 
d="M835 1633q29 16 50 7t44 -49q59 -104 7 -119l-481 -163q-37 -12 -54 31q-17 42 18 63zM123 1051q-35 0 -49 15t-14 53t14 53t49 15h334q35 0 49 -15t14 -53t-14 -53t-49 -15h-93l250 -409l252 409h-65q-35 0 -49 15t-14 53t14 53t49 15h304q35 0 49 -15t14 -53t-14 -53
t-49 -15h-68l-348 -559v-356h226q35 0 49 -15t14 -53t-14 -53t-49 -15h-602q-35 0 -49 15t-14 53t14 53t49 15h226v356l-346 559h-70z" />
    <glyph glyph-name="Thorn" unicode="&#xde;" 
d="M689 409q111 0 168 49.5t57 139.5q0 136 -83 164.5t-142 28.5h-210v-382h210zM329 1051h-156q-34 0 -48.5 15t-14.5 53t14.5 53t48.5 15h522q34 0 48.5 -15t14.5 -53t-14.5 -53t-48.5 -15h-216v-124h231q174 0 268 -92t94 -236t-94 -235t-268 -91h-231v-137h216
q34 0 48.5 -15t14.5 -53t-14.5 -53t-48.5 -15h-522q-34 0 -48.5 15t-14.5 53t14.5 53t48.5 15h156v915z" />
    <glyph glyph-name="germandbls" unicode="&#xdf;" 
d="M994 971q0 -176 -174 -269q107 -41 169 -128.5t62 -195.5q0 -195 -111.5 -297.5t-295.5 -102.5q-51 0 -67 17t-16 57t14.5 57t49.5 17q125 0 196.5 60.5t71.5 175.5q0 186 -99 221.5t-145 35.5t-60.5 16.5t-14.5 52.5t14.5 52t48.5 19q100 10 150.5 67.5t50.5 147.5
t-57.5 144t-168.5 54q-156 0 -186.5 -92.5t-30.5 -147.5v-864q0 -38 -14.5 -53t-48.5 -15h-229q-34 0 -48.5 15t-14.5 53t14.5 53t48.5 15h142v807q0 168 99.5 271t275.5 103t275 -97t99 -249z" />
    <glyph glyph-name="agrave" unicode="&#xe0;" 
d="M293 273q1 -73 51 -113t141 -41q198 0 359 165v109q-135 45 -303 45q-248 0 -248 -165zM638 946q356 0 356 -333v-398q0 -79 66 -79h35q35 0 49 -15t14 -53t-14 -53t-49 -15h-64q-101 0 -149 71q-16 24 -23 57q-172 -150 -380 -150q-153 0 -249 78q-95 78 -95 225
q0 148 114 223t282 75t313 -51v85q0 97 -46 143t-144 45q-200 0 -323 -88q-50 -37 -92 23t3 93q157 117 396 117zM869 1133q36 -21 18 -63q-17 -42 -54 -31l-481 163q-51 15 0 107q29 52 51 61q21 9 50 -7z" />
    <glyph glyph-name="aacute" unicode="&#xe1;" 
d="M293 273q1 -73 51 -113t141 -41q198 0 359 165v109q-135 45 -303 45q-248 0 -248 -165zM638 946q356 0 356 -333v-398q0 -79 66 -79h35q35 0 49 -15t14 -53t-14 -53t-49 -15h-64q-101 0 -149 71q-16 24 -23 57q-172 -150 -380 -150q-153 0 -249 78q-95 78 -95 225
q0 148 114 223t282 75t313 -51v85q0 97 -46 143t-144 45q-200 0 -323 -88q-50 -37 -92 23t3 93q157 117 396 117zM775 1363q29 16 50 7t44 -49q59 -104 7 -119l-481 -163q-37 -12 -54 31q-17 42 18 63z" />
    <glyph glyph-name="acircumflex" unicode="&#xe2;" 
d="M293 273q1 -73 51 -113t141 -41q198 0 359 165v109q-135 45 -303 45q-248 0 -248 -165zM638 946q356 0 356 -333v-398q0 -79 66 -79h35q35 0 49 -15t14 -53t-14 -53t-49 -15h-64q-101 0 -149 71q-16 24 -23 57q-172 -150 -380 -150q-153 0 -249 78q-95 78 -95 225
q0 148 114 223t282 75t313 -51v85q0 97 -46 143t-144 45q-200 0 -323 -88q-50 -37 -92 23t3 93q157 117 396 117zM266 1094q0 18 16 32l277 232q23 18 55 18t55 -18l277 -232q16 -14 16 -32t-10 -34q-25 -41 -59 -21l-279 159l-279 -159q-34 -20 -59 21q-10 16 -10 34z" />
    <glyph glyph-name="atilde" unicode="&#xe3;" 
d="M293 273q1 -73 51 -113t141 -41q198 0 359 165v109q-135 45 -303 45q-248 0 -248 -165zM638 946q356 0 356 -333v-398q0 -79 66 -79h35q35 0 49 -15t14 -53t-14 -53t-49 -15h-64q-101 0 -149 71q-16 24 -23 57q-172 -150 -380 -150q-153 0 -249 78q-95 78 -95 225
q0 148 114 223t282 75t313 -51v85q0 97 -46 143t-144 45q-200 0 -323 -88q-50 -37 -92 23t3 93q157 117 396 117zM481 1297q51 1 112 -21q119 -42 172 -42t123 42q35 21 62 -26q27 -46 -6 -73q-109 -91 -200 -91q-48 0 -109 22q-119 42 -172 41q-53 0 -123 -42
q-35 -21 -62 26q-27 46 6 73q109 91 197 91z" />
    <glyph glyph-name="adieresis" unicode="&#xe4;" 
d="M293 273q1 -73 51 -113t141 -41q198 0 359 165v109q-135 45 -303 45q-248 0 -248 -165zM638 946q356 0 356 -333v-398q0 -79 66 -79h35q35 0 49 -15t14 -53t-14 -53t-49 -15h-64q-101 0 -149 71q-16 24 -23 57q-172 -150 -380 -150q-153 0 -249 78q-95 78 -95 225
q0 148 114 223t282 75t313 -51v85q0 97 -46 143t-144 45q-200 0 -323 -88q-50 -37 -92 23t3 93q157 117 396 117zM709 1195q0 27 10 49t27 39q18 17 40 27t48 10t48 -10t40 -27q17 -17 27 -39t10 -49t-10 -49t-27 -39q-18 -17 -40 -27t-48 -10t-48 10t-40 27q-17 17 -27 39
t-10 49zM269 1195q0 27 10 49t27 39q18 17 40 27t48 10t48 -10t40 -27q17 -17 27 -39t10 -49t-10 -49t-27 -39q-18 -17 -40 -27t-48 -10t-48 10t-40 27q-17 17 -27 39t-10 49z" />
    <glyph glyph-name="aring" unicode="&#xe5;" 
d="M293 273q1 -73 51 -113t141 -41q198 0 359 165v109q-135 45 -303 45q-248 0 -248 -165zM638 946q356 0 356 -333v-398q0 -79 66 -79h35q35 0 49 -15t14 -53t-14 -53t-49 -15h-64q-101 0 -149 71q-16 24 -23 57q-172 -150 -380 -150q-153 0 -249 78q-95 78 -95 225
q0 148 114 223t282 75t313 -51v85q0 97 -46 143t-144 45q-200 0 -323 -88q-50 -37 -92 23t3 93q157 117 396 117zM498 1282q0 -26 10 -49t27 -40t40 -27t49 -10t49 10t40 27t27 40t10 49t-10 49t-27 40t-40 27t-49 10t-49 -10t-40 -27t-27 -40t-10 -49zM378 1282q0 51 20 96
t52 78q33 32 78 52t96 20t96 -20t78 -52q32 -33 52 -78t20 -96t-20 -96t-52 -78q-33 -32 -78 -52t-96 -20t-96 20t-78 52q-32 33 -52 78t-20 96z" />
    <glyph glyph-name="ae" unicode="&#xe6;" 
d="M854 801q-68 0 -108 -51t-52 -170h300q-7 103 -39.5 162t-100.5 59zM539 440q-311 0 -311 -200q0 -58 30 -89.5t76 -31.5q89 0 147 62t58 159v100zM853 946q224 0 259.5 -172t38.5 -272q0 -34 -14.5 -48t-48.5 -14h-399q4 -317 164 -317q90 0 170 78q19 19 45.5 17
t60 -44t-19.5 -93q-109 -103 -263 -103q-155 0 -237 144q-48 -67 -120.5 -105.5t-142.5 -38.5q-129 0 -200 71t-71 173q0 184 124.5 271t339.5 87v22q0 100 -20 136t-45.5 49.5t-68.5 13.5q-83 0 -174 -69q-50 -38 -96 13t4 95q123 106 273 106t217 -116q80 116 224 116z
" />
    <glyph glyph-name="ccedilla" unicode="&#xe7;" 
d="M714 -285q0 79 -145 68q-28 0 -34 14t-6 28v159q-183 26 -292.5 157t-109.5 331t134 337t333 137t305 -125v60q0 35 16.5 50t58.5 15t58.5 -15t16.5 -50v-290q0 -35 -16.5 -50t-58.5 -15t-58.5 15t-16.5 55q0 88 -73.5 145t-213.5 57t-233.5 -95.5t-93.5 -241.5
t89 -240.5t235 -94.5q191 0 336 111q53 41 93 -23q40 -65 -24 -113q-138 -104 -350 -121v-93q149 3 177.5 -65t28.5 -106q0 -83 -63.5 -135.5t-196.5 -52.5q-132 0 -236 48q-36 16 -15 68t69 34q77 -30 181 -30q105 0 105 67z" />
    <glyph glyph-name="egrave" unicode="&#xe8;" 
d="M925 565q-44 236 -302 236q-125 -1 -205 -63t-104 -173h611zM603 123q212 0 360 86q57 32 88 -44q29 -67 -35 -100q-179 -87 -405 -87t-345 129q-120 129 -120 350t133 355t346 134t333 -125t133 -334q-1 -34 -15 -48t-48 -14h-724q16 -302 299 -302zM869 1133
q36 -21 18 -63q-17 -42 -54 -31l-481 163q-51 15 0 107q29 52 51 61q21 9 50 -7z" />
    <glyph glyph-name="eacute" unicode="&#xe9;" 
d="M925 565q-44 236 -302 236q-125 -1 -205 -63t-104 -173h611zM603 123q212 0 360 86q57 32 88 -44q29 -67 -35 -100q-179 -87 -405 -87t-345 129q-120 129 -120 350t133 355t346 134t333 -125t133 -334q-1 -34 -15 -48t-48 -14h-724q16 -302 299 -302zM815 1363
q29 16 50 7t44 -49q59 -104 7 -119l-481 -163q-37 -12 -54 31q-17 42 18 63z" />
    <glyph glyph-name="ecircumflex" unicode="&#xea;" 
d="M925 565q-44 236 -302 236q-125 -1 -205 -63t-104 -173h611zM603 123q212 0 360 86q57 32 88 -44q29 -67 -35 -100q-179 -87 -405 -87t-345 129q-120 129 -120 350t133 355t346 134t333 -125t133 -334q-1 -34 -15 -48t-48 -14h-724q16 -302 299 -302zM286 1094
q0 18 16 32l277 232q23 18 55 18t55 -18l277 -232q16 -14 16 -32t-10 -34q-25 -41 -59 -21l-279 159l-279 -159q-34 -20 -59 21q-10 16 -10 34z" />
    <glyph glyph-name="edieresis" unicode="&#xeb;" 
d="M925 565q-44 236 -302 236q-125 -1 -205 -63t-104 -173h611zM603 123q212 0 360 86q57 32 88 -44q29 -67 -35 -100q-179 -87 -405 -87t-345 129q-120 129 -120 350t133 355t346 134t333 -125t133 -334q-1 -34 -15 -48t-48 -14h-724q16 -302 299 -302zM719 1195
q0 27 10 49t27 39q18 17 40 27t48 10t48 -10t40 -27q17 -17 27 -39t10 -49t-10 -49t-27 -39q-18 -17 -40 -27t-48 -10t-48 10t-40 27q-17 17 -27 39t-10 49zM279 1195q0 27 10 49t27 39q18 17 40 27t48 10t48 -10t40 -27q17 -17 27 -39t10 -49t-10 -49t-27 -39
q-18 -17 -40 -27t-48 -10t-48 10t-40 27q-17 17 -27 39t-10 49z" />
    <glyph glyph-name="igrave" unicode="&#xec;" 
d="M563 788h-253q-34 0 -48 15t-15 53q1 38 15 53t48 15h340q34 0 48 -15t15 -53v-720h321q34 0 48 -15t15 -53q-1 -38 -15 -53t-48 -15h-784q-34 0 -48 15t-15 53q1 38 15 53t48 15h313v652zM769 1133q36 -21 18 -63q-17 -42 -54 -31l-481 163q-51 15 0 107q29 52 51 61
q21 9 50 -7z" />
    <glyph glyph-name="iacute" unicode="&#xed;" 
d="M563 788h-253q-34 0 -48 15t-15 53q1 38 15 53t48 15h340q34 0 48 -15t15 -53v-720h321q34 0 48 -15t15 -53q-1 -38 -15 -53t-48 -15h-784q-34 0 -48 15t-15 53q1 38 15 53t48 15h313v652zM775 1363q29 16 50 7t44 -49q59 -104 7 -119l-481 -163q-37 -12 -54 31
q-17 42 18 63z" />
    <glyph glyph-name="icircumflex" unicode="&#xee;" 
d="M563 788h-253q-34 0 -48 15t-15 53q1 38 15 53t48 15h340q34 0 48 -15t15 -53v-720h321q34 0 48 -15t15 -53q-1 -38 -15 -53t-48 -15h-784q-34 0 -48 15t-15 53q1 38 15 53t48 15h313v652zM266 1094q0 18 16 32l277 232q23 18 55 18t55 -18l277 -232q16 -14 16 -32
t-10 -34q-25 -41 -59 -21l-279 159l-279 -159q-34 -20 -59 21q-10 16 -10 34z" />
    <glyph glyph-name="idieresis" unicode="&#xef;" 
d="M563 788h-253q-34 0 -48 15t-15 53q1 38 15 53t48 15h340q34 0 48 -15t15 -53v-720h321q34 0 48 -15t15 -53q-1 -38 -15 -53t-48 -15h-784q-34 0 -48 15t-15 53q1 38 15 53t48 15h313v652zM709 1195q0 27 10 49t27 39q18 17 40 27t48 10t48 -10t40 -27q17 -17 27 -39
t10 -49t-10 -49t-27 -39q-18 -17 -40 -27t-48 -10t-48 10t-40 27q-17 17 -27 39t-10 49zM269 1195q0 27 10 49t27 39q18 17 40 27t48 10t48 -10t40 -27q17 -17 27 -39t10 -49t-10 -49t-27 -39q-18 -17 -40 -27t-48 -10t-48 10t-40 27q-17 17 -27 39t-10 49z" />
    <glyph glyph-name="eth" unicode="&#xf0;" 
d="M298 432q0 -69 22.5 -125.5t64 -96.5t100 -62t129.5 -22t129.5 22t100 62t64 96.5t22.5 125.5t-22.5 125.5t-64 96.5t-100 62t-129.5 22t-129.5 -22t-100 -62t-64 -96.5t-22.5 -125.5zM1088 432q0 -200 -133 -327t-341 -127t-341 127t-133 327t133 327t341 127
q117 0 238 -77q-74 121 -208 227l-240 -90q-32 -12 -50.5 -2.5t-32.5 44.5t-5.5 54.5t40.5 31.5l149 56q-46 27 -122 65q-56 27 -23 92q34 65 125.5 20t188.5 -114l237 89q32 12 50.5 2.5t32.5 -44.5t5.5 -54.5t-40.5 -31.5l-161 -60q290 -264 290 -662z" />
    <glyph glyph-name="ntilde" unicode="&#xf1;" 
d="M727 946q137 0 217 -87t80 -239v-484h82q34 0 48 -15t15 -53q-1 -38 -15 -53t-48 -15h-324q-34 0 -48 15t-15 53q1 38 15 53t48 15h92v469q0 137 -90 179q-30 14 -84 14q-52 0 -110 -28t-102 -78q-96 -109 -96 -270v-286h92q34 0 48 -15t15 -53q-1 -38 -15 -53t-48 -15
h-324q-34 0 -48 15t-15 53q1 38 15 53t48 15h82v652h-102q-34 0 -48 15t-15 53q1 38 15 53t48 15h179q35 0 49 -15t14 -53v-120q135 210 345 210zM481 1297q51 1 112 -21q119 -42 172 -42t123 42q35 21 62 -26q27 -46 -6 -73q-109 -91 -200 -91q-48 0 -109 22
q-119 42 -172 41q-53 0 -123 -42q-35 -21 -62 26q-27 46 6 73q109 91 197 91z" />
    <glyph glyph-name="ograve" unicode="&#xf2;" 
d="M278 462q0 -72 24 -134t69 -107q44 -45 106 -70t137 -25t137 25t106 70q45 45 69 107t24 134t-24 134t-69 107q-44 45 -106 70t-137 25t-137 -25t-106 -70q-45 -45 -69 -107t-24 -134zM120 462q0 106 38 194t103 154q67 64 157 100t196 36t196 -36t157 -100
q65 -64 103 -154q38 -88 38 -194t-38 -194t-103 -154q-67 -64 -157 -100t-196 -36t-196 36t-157 100q-65 64 -103 154q-38 88 -38 194zM829 1133q36 -21 18 -63q-17 -42 -54 -31l-481 163q-51 15 0 107q29 52 51 61q21 9 50 -7z" />
    <glyph glyph-name="oacute" unicode="&#xf3;" 
d="M278 462q0 -72 24 -134t69 -107q44 -45 106 -70t137 -25t137 25t106 70q45 45 69 107t24 134t-24 134t-69 107q-44 45 -106 70t-137 25t-137 -25t-106 -70q-45 -45 -69 -107t-24 -134zM120 462q0 106 38 194t103 154q67 64 157 100t196 36t196 -36t157 -100
q65 -64 103 -154q38 -88 38 -194t-38 -194t-103 -154q-67 -64 -157 -100t-196 -36t-196 36t-157 100q-65 64 -103 154q-38 88 -38 194zM815 1363q29 16 50 7t44 -49q59 -104 7 -119l-481 -163q-37 -12 -54 31q-17 42 18 63z" />
    <glyph glyph-name="ocircumflex" unicode="&#xf4;" 
d="M278 462q0 -72 24 -134t69 -107q44 -45 106 -70t137 -25t137 25t106 70q45 45 69 107t24 134t-24 134t-69 107q-44 45 -106 70t-137 25t-137 -25t-106 -70q-45 -45 -69 -107t-24 -134zM120 462q0 106 38 194t103 154q67 64 157 100t196 36t196 -36t157 -100
q65 -64 103 -154q38 -88 38 -194t-38 -194t-103 -154q-67 -64 -157 -100t-196 -36t-196 36t-157 100q-65 64 -103 154q-38 88 -38 194zM266 1094q0 18 16 32l277 232q23 18 55 18t55 -18l277 -232q16 -14 16 -32t-10 -34q-25 -41 -59 -21l-279 159l-279 -159q-34 -20 -59 21
q-10 16 -10 34z" />
    <glyph glyph-name="otilde" unicode="&#xf5;" 
d="M278 462q0 -72 24 -134t69 -107q44 -45 106 -70t137 -25t137 25t106 70q45 45 69 107t24 134t-24 134t-69 107q-44 45 -106 70t-137 25t-137 -25t-106 -70q-45 -45 -69 -107t-24 -134zM120 462q0 106 38 194t103 154q67 64 157 100t196 36t196 -36t157 -100
q65 -64 103 -154q38 -88 38 -194t-38 -194t-103 -154q-67 -64 -157 -100t-196 -36t-196 36t-157 100q-65 64 -103 154q-38 88 -38 194zM481 1297q51 1 112 -21q119 -42 172 -42t123 42q35 21 62 -26q27 -46 -6 -73q-109 -91 -200 -91q-48 0 -109 22q-119 42 -172 41
q-53 0 -123 -42q-35 -21 -62 26q-27 46 6 73q109 91 197 91z" />
    <glyph glyph-name="odieresis" unicode="&#xf6;" 
d="M278 462q0 -72 24 -134t69 -107q44 -45 106 -70t137 -25t137 25t106 70q45 45 69 107t24 134t-24 134t-69 107q-44 45 -106 70t-137 25t-137 -25t-106 -70q-45 -45 -69 -107t-24 -134zM120 462q0 106 38 194t103 154q67 64 157 100t196 36t196 -36t157 -100
q65 -64 103 -154q38 -88 38 -194t-38 -194t-103 -154q-67 -64 -157 -100t-196 -36t-196 36t-157 100q-65 64 -103 154q-38 88 -38 194zM709 1195q0 27 10 49t27 39q18 17 40 27t48 10t48 -10t40 -27q17 -17 27 -39t10 -49t-10 -49t-27 -39q-18 -17 -40 -27t-48 -10t-48 10
t-40 27q-17 17 -27 39t-10 49zM269 1195q0 27 10 49t27 39q18 17 40 27t48 10t48 -10t40 -27q17 -17 27 -39t10 -49t-10 -49t-27 -39q-18 -17 -40 -27t-48 -10t-48 10t-40 27q-17 17 -27 39t-10 49z" />
    <glyph glyph-name="divide" unicode="&#xf7;" 
d="M995 650q34 0 48.5 -15t14.5 -53t-14.5 -53t-48.5 -15h-762q-34 0 -48.5 15t-14.5 53t14.5 53t48.5 15h762zM494 239q0 25 9.5 46.5t25.5 38t37.5 26t46.5 9.5t46.5 -9.5t38 -26t26 -38t9.5 -46.5t-9.5 -46.5t-26 -37.5t-38 -25.5t-46.5 -9.5t-46.5 9.5t-37.5 25.5
t-25.5 37.5t-9.5 46.5zM494 925q0 25 9.5 46.5t25.5 38t37.5 26t46.5 9.5t46.5 -9.5t38 -26t26 -38t9.5 -46.5t-9.5 -46.5t-26 -37.5t-38 -25.5t-46.5 -9.5t-46.5 9.5t-37.5 25.5t-25.5 37.5t-9.5 46.5z" />
    <glyph glyph-name="oslash" unicode="&#xf8;" 
d="M278 462q0 -103 47 -181l481 463q-83 54 -175 54q-167 0 -260 -95t-93 -241zM950 462q0 101 -47 181l-482 -463q83 -54 176 -54q168 0 260.5 95t92.5 241zM120 462q0 210 140.5 347t353.5 137q172 0 303 -95l75 72q46 45 96 -5t1 -96l-73 -70q92 -125 92 -290
q0 -210 -140.5 -347t-353.5 -137q-176 0 -304 95l-75 -72q-46 -44 -95 5t-2 95l73 70q-91 124 -91 291z" />
    <glyph glyph-name="ugrave" unicode="&#xf9;" 
d="M217 304v484h-82q-35 0 -49 15t-14 53t14 53t49 15h169q34 0 48 -15t15 -53v-537q1 -137 91 -179q30 -14 82 -14t111 28q58 28 102 78q96 109 96 270v286h-142q-35 0 -49 15t-14 53t14 53t49 15h229q34 0 48 -15t15 -53v-720h82q35 0 49 -15t14 -53t-14 -53t-49 -15h-159
q-34 0 -48 14t-15 53v121q-135 -210 -345 -210q-137 0 -217 87q-80 88 -80 239zM819 1133q36 -21 18 -63q-17 -42 -54 -31l-481 163q-51 15 0 107q29 52 51 61q21 9 50 -7z" />
    <glyph glyph-name="uacute" unicode="&#xfa;" 
d="M217 304v484h-82q-35 0 -49 15t-14 53t14 53t49 15h169q34 0 48 -15t15 -53v-537q1 -137 91 -179q30 -14 82 -14t111 28q58 28 102 78q96 109 96 270v286h-142q-35 0 -49 15t-14 53t14 53t49 15h229q34 0 48 -15t15 -53v-720h82q35 0 49 -15t14 -53t-14 -53t-49 -15h-159
q-34 0 -48 14t-15 53v121q-135 -210 -345 -210q-137 0 -217 87q-80 88 -80 239zM835 1363q29 16 50 7t44 -49q59 -104 7 -119l-481 -163q-37 -12 -54 31q-17 42 18 63z" />
    <glyph glyph-name="ucircumflex" unicode="&#xfb;" 
d="M217 304v484h-82q-35 0 -49 15t-14 53t14 53t49 15h169q34 0 48 -15t15 -53v-537q1 -137 91 -179q30 -14 82 -14t111 28q58 28 102 78q96 109 96 270v286h-142q-35 0 -49 15t-14 53t14 53t49 15h229q34 0 48 -15t15 -53v-720h82q35 0 49 -15t14 -53t-14 -53t-49 -15h-159
q-34 0 -48 14t-15 53v121q-135 -210 -345 -210q-137 0 -217 87q-80 88 -80 239zM256 1094q0 18 16 32l277 232q23 18 55 18t55 -18l277 -232q16 -14 16 -32t-10 -34q-25 -41 -59 -21l-279 159l-279 -159q-34 -20 -59 21q-10 16 -10 34z" />
    <glyph glyph-name="udieresis" unicode="&#xfc;" 
d="M217 304v484h-82q-35 0 -49 15t-14 53t14 53t49 15h169q34 0 48 -15t15 -53v-537q1 -137 91 -179q30 -14 82 -14t111 28q58 28 102 78q96 109 96 270v286h-142q-35 0 -49 15t-14 53t14 53t49 15h229q34 0 48 -15t15 -53v-720h82q35 0 49 -15t14 -53t-14 -53t-49 -15h-159
q-34 0 -48 14t-15 53v121q-135 -210 -345 -210q-137 0 -217 87q-80 88 -80 239zM689 1195q0 27 10 49t27 39q18 17 40 27t48 10t48 -10t40 -27q17 -17 27 -39t10 -49t-10 -49t-27 -39q-18 -17 -40 -27t-48 -10t-48 10t-40 27q-17 17 -27 39t-10 49zM249 1195q0 27 10 49
t27 39q18 17 40 27t48 10t48 -10t40 -27q17 -17 27 -39t10 -49t-10 -49t-27 -39q-18 -17 -40 -27t-48 -10t-48 10t-40 27q-17 17 -27 39t-10 49z" />
    <glyph glyph-name="yacute" unicode="&#xfd;" 
d="M1115 924q35 0 49 -15t14 -53t-14 -53t-49 -15h-62l-409 -838q-98 -200 -195 -279q-98 -79 -260 -85q-65 -2 -72 72t52 79q138 8 205 68t168 265l-366 718h-63q-35 0 -49 15t-14 53t14 53t49 15h354q35 0 49 -15t14 -53t-14 -53t-49 -15h-128l282 -562l269 562h-89
q-35 0 -49 15t-14 53t14 53t49 15h314zM845 1363q29 16 50 7t44 -49q59 -104 7 -119l-481 -163q-37 -12 -54 31q-17 42 18 63z" />
    <glyph glyph-name="thorn" unicode="&#xfe;" 
d="M352 487q0 -146 86 -228.5t220 -82.5q135 0 210 86.5t75 224.5t-75 224.5t-210 86.5t-220.5 -82.5t-85.5 -228.5zM352 -257h222q34 0 48.5 -15t14.5 -53t-14.5 -53t-48.5 -15h-484q-34 0 -48.5 15t-14.5 53t14.5 53t48.5 15h112v1433h-82q-34 0 -48.5 15t-14.5 53
t14.5 53t48.5 15h169q34 0 48.5 -15t14.5 -53v-451q126 153 316 153t311.5 -124.5t121.5 -334.5t-121 -334.5t-312 -124.5t-316 156v-441z" />
    <glyph glyph-name="ydieresis" unicode="&#xff;" 
d="M1115 924q35 0 49 -15t14 -53t-14 -53t-49 -15h-62l-409 -838q-98 -200 -195 -279q-98 -79 -260 -85q-65 -2 -72 72t52 79q138 8 205 68t168 265l-366 718h-63q-35 0 -49 15t-14 53t14 53t49 15h354q35 0 49 -15t14 -53t-14 -53t-49 -15h-128l282 -562l269 562h-89
q-35 0 -49 15t-14 53t14 53t49 15h314zM709 1195q0 27 10 49t27 39q18 17 40 27t48 10t48 -10t40 -27q17 -17 27 -39t10 -49t-10 -49t-27 -39q-18 -17 -40 -27t-48 -10t-48 10t-40 27q-17 17 -27 39t-10 49zM269 1195q0 27 10 49t27 39q18 17 40 27t48 10t48 -10t40 -27
q17 -17 27 -39t10 -49t-10 -49t-27 -39q-18 -17 -40 -27t-48 -10t-48 10t-40 27q-17 17 -27 39t-10 49z" />
    <glyph glyph-name="Amacron" unicode="&#x100;" 
d="M845 1516q35 0 49 -15t14 -53t-14 -53t-49 -15h-562q-35 0 -49 15t-14 53t14 53t49 15h562zM416 510h392l-186 541h-19zM407 136q35 0 49 -15t14 -53t-14 -53t-49 -15h-334q-35 0 -49 15t-14 53t14 53t49 15h56l331 915h-187q-35 0 -49 15t-14 53t14 53t49 15h367
q79 0 101 -65l353 -986h61q35 0 49 -15t14 -53t-14 -53t-49 -15h-354q-35 0 -49 15t-14 53t14 53t49 15h135l-82 238h-485l-83 -238h121z" />
    <glyph glyph-name="amacron" unicode="&#x101;" 
d="M293 273q1 -73 51 -113t141 -41q198 0 359 165v109q-135 45 -303 45q-248 0 -248 -165zM638 946q356 0 356 -333v-398q0 -79 66 -79h35q35 0 49 -15t14 -53t-14 -53t-49 -15h-64q-101 0 -149 71q-16 24 -23 57q-172 -150 -380 -150q-153 0 -249 78q-95 78 -95 225
q0 148 114 223t282 75t313 -51v85q0 97 -46 143t-144 45q-200 0 -323 -88q-50 -37 -92 23t3 93q157 117 396 117zM895 1246q35 0 49 -15t14 -53t-14 -53t-49 -15h-562q-35 0 -49 15t-14 53t14 53t49 15h562z" />
    <glyph glyph-name="Abreve" unicode="&#x102;" 
d="M416 510h392l-186 541h-19zM407 136q35 0 49 -15t14 -53t-14 -53t-49 -15h-334q-35 0 -49 15t-14 53t14 53t49 15h56l331 915h-187q-35 0 -49 15t-14 53t14 53t49 15h367q79 0 101 -65l353 -986h61q35 0 49 -15t14 -53t-14 -53t-49 -15h-354q-35 0 -49 15t-14 53t14 53
t49 15h135l-82 238h-485l-83 -238h121zM594 1485q102 -1 168 27t101 96q9 20 31 20q37 0 59 -18q23 -18 18 -42q-37 -162 -235 -211q-64 -16 -142 -16q-154 0 -253 61t-124 166q-6 25 12 38q29 22 58 22t38 -20q35 -68 101 -96t168 -27z" />
    <glyph glyph-name="abreve" unicode="&#x103;" 
d="M293 273q1 -73 51 -113t141 -41q198 0 359 165v109q-135 45 -303 45q-248 0 -248 -165zM638 946q356 0 356 -333v-398q0 -79 66 -79h35q35 0 49 -15t14 -53t-14 -53t-49 -15h-64q-101 0 -149 71q-16 24 -23 57q-172 -150 -380 -150q-153 0 -249 78q-95 78 -95 225
q0 148 114 223t282 75t313 -51v85q0 97 -46 143t-144 45q-200 0 -323 -88q-50 -37 -92 23t3 93q157 117 396 117zM617 1215q103 -1 169 27t100 96q9 20 31 20q37 0 59 -18q23 -18 18 -42q-37 -162 -235 -211q-64 -16 -142 -16q-154 0 -253 61t-124 166q-6 25 12 38
q29 22 58 22t38 -20q34 -68 100 -96t169 -27z" />
    <glyph glyph-name="Aogonek" unicode="&#x104;" 
d="M416 510h392l-186 541h-19zM771 -281q0 137 164 281h-134q-34 0 -48.5 15t-14.5 53t14.5 53t48.5 15h135l-82 238h-485l-83 -238h121q34 0 48.5 -15t14.5 -53t-14.5 -53t-48.5 -15h-334q-34 0 -48.5 15t-14.5 53t14.5 53t48.5 15h56l331 915h-187q-34 0 -48.5 15
t-14.5 53t14.5 53t48.5 15h367q79 0 101 -65l353 -986h61q34 0 48.5 -15t14.5 -53t-14.5 -53t-48.5 -15h-62q-166 -155 -166 -261q0 -37 21.5 -56t69.5 -19t83 6q36 6 49.5 -5t17.5 -41q8 -56 -30 -69q-78 -27 -169 -27q-92 0 -145 51.5t-53 139.5z" />
    <glyph glyph-name="aogonek" unicode="&#x105;" 
d="M293 273q0 -73 50.5 -113.5t141.5 -40.5q198 0 359 165v109q-135 45 -303 45q-248 0 -248 -165zM638 946q356 0 356 -333v-398q0 -79 66 -79h35q34 0 48.5 -15t14.5 -53t-14.5 -53t-48.5 -15h-22q-166 -155 -166 -261q0 -37 21.5 -56t69.5 -19t83 6q36 6 49.5 -5
t17.5 -41q8 -56 -30 -69q-78 -27 -169 -27q-92 0 -145 51t-53 137t51.5 159.5t136.5 144.5q-65 34 -80 108q-172 -150 -380 -150q-153 0 -248.5 78t-95.5 225q0 148 114 223t282 75t313 -51v85q0 97 -46.5 142.5t-143.5 45.5q-200 0 -323 -88q-50 -37 -92.5 23t3.5 93
q157 117 396 117z" />
    <glyph glyph-name="Cacute" unicode="&#x106;" 
d="M855 1633q29 16 50 7t44 -49q59 -104 7 -119l-481 -163q-37 -12 -54 31q-17 42 18 63zM634 1209q186 0 290 -123v58q0 35 16 50t59 15t59 -15t16 -50v-330q0 -35 -16 -50t-59 -15t-59 15t-16 57q0 99 -71 170q-71 70 -223 70q-151 0 -253 -127q-101 -127 -101 -342
q0 -214 97 -340t261 -126q206 0 351 113q51 41 90 -25t-13 -105q-189 -131 -426 -131q-238 0 -378 168t-140 447q0 278 143 447t373 169z" />
    <glyph glyph-name="cacute" unicode="&#x107;" 
d="M899 881q1 35 17 50t58 15t58 -15t17 -50v-290q-1 -35 -17 -50t-58 -15t-58 15t-17 55q0 88 -74 145t-213 57q-140 0 -234 -96q-93 -96 -93 -241q0 -146 89 -241q89 -94 235 -94q191 0 336 111q53 41 93 -24t-17 -107q-173 -128 -401 -128t-361 137q-132 137 -132 346
q0 210 134 348q134 137 333 137t305 -125v60zM834 1363q29 16 50 7t44 -49q59 -104 7 -119l-481 -163q-37 -12 -54 31q-17 42 18 63z" />
    <glyph glyph-name="Ccircumflex" unicode="&#x108;" 
d="M306 1364q0 18 16 32l277 232q23 18 55 18t55 -18l277 -232q16 -14 16 -32t-10 -34q-25 -41 -59 -21l-279 159l-279 -159q-34 -20 -59 21q-10 16 -10 34zM634 1209q186 0 290 -123v58q0 35 16 50t59 15t59 -15t16 -50v-330q0 -35 -16 -50t-59 -15t-59 15t-16 57
q0 99 -71 170q-71 70 -223 70q-151 0 -253 -127q-101 -127 -101 -342q0 -214 97 -340t261 -126q206 0 351 113q51 41 90 -25t-13 -105q-189 -131 -426 -131q-238 0 -378 168t-140 447q0 278 143 447t373 169z" />
    <glyph glyph-name="ccircumflex" unicode="&#x109;" 
d="M276 1094q0 18 16 32l277 232q23 18 55 18t55 -18l277 -232q16 -14 16 -32t-10 -34q-25 -41 -59 -21l-279 159l-279 -159q-34 -20 -59 21q-10 16 -10 34zM899 881q1 35 17 50t58 15t58 -15t17 -50v-290q-1 -35 -17 -50t-58 -15t-58 15t-17 55q0 88 -74 145t-213 57
q-140 0 -234 -96q-93 -96 -93 -241q0 -146 89 -241q89 -94 235 -94q191 0 336 111q53 41 93 -24t-17 -107q-173 -128 -401 -128t-361 137q-132 137 -132 346q0 210 134 348q134 137 333 137t305 -125v60z" />
    <glyph glyph-name="Cdotaccent" unicode="&#x10a;" 
d="M493 1490q0 29 11 55t30 45t45 30t55 11t55 -11t45 -30t30 -45t11 -55t-11 -55t-30 -45t-45 -30t-55 -11t-55 11t-45 30t-30 45t-11 55zM634 1209q186 0 290 -123v58q0 35 16 50t59 15t59 -15t16 -50v-330q0 -35 -16 -50t-59 -15t-59 15t-16 57q0 99 -71 170
q-71 70 -223 70q-151 0 -253 -127q-101 -127 -101 -342q0 -214 97 -340t261 -126q206 0 351 113q51 41 90 -25t-13 -105q-189 -131 -426 -131q-238 0 -378 168t-140 447q0 278 143 447t373 169z" />
    <glyph glyph-name="cdotaccent" unicode="&#x10b;" 
d="M899 881q1 35 17 50t58 15t58 -15t17 -50v-290q-1 -35 -17 -50t-58 -15t-58 15t-17 55q0 88 -74 145t-213 57q-140 0 -234 -96q-93 -96 -93 -241q0 -146 89 -241q89 -94 235 -94q191 0 336 111q53 41 93 -24t-17 -107q-173 -128 -401 -128t-361 137q-132 137 -132 346
q0 210 134 348q134 137 333 137t305 -125v60zM483 1220q0 29 11 55t30 45t45 30t55 11t55 -11t45 -30t30 -45t11 -55t-11 -55t-30 -45t-45 -30t-55 -11t-55 11t-45 30t-30 45t-11 55z" />
    <glyph glyph-name="Ccaron" unicode="&#x10c;" 
d="M634 1209q186 0 290 -123v58q0 35 16 50t59 15t59 -15t16 -50v-330q0 -35 -16 -50t-59 -15t-59 15t-16 57q0 99 -71 170q-71 70 -223 70q-151 0 -253 -127q-101 -127 -101 -342q0 -214 97 -340t261 -126q206 0 351 113q51 41 90 -25t-13 -105q-189 -131 -426 -131
q-238 0 -378 168t-140 447q0 278 143 447t373 169zM644 1307q-32 0 -55 18l-277 232q-16 14 -16 32t10 34q25 41 59 21l279 -159l279 159q34 20 59 -21q10 -16 10 -34t-16 -32l-277 -232q-23 -18 -55 -18z" />
    <glyph glyph-name="ccaron" unicode="&#x10d;" 
d="M899 881q1 35 17 50t58 15t58 -15t17 -50v-290q-1 -35 -17 -50t-58 -15t-58 15t-17 55q0 88 -74 145t-213 57q-140 0 -234 -96q-93 -96 -93 -241q0 -146 89 -241q89 -94 235 -94q191 0 336 111q53 41 93 -24t-17 -107q-173 -128 -401 -128t-361 137q-132 137 -132 346
q0 210 134 348q134 137 333 137t305 -125v60zM624 1047q-32 0 -55 18l-277 232q-16 14 -16 32t10 34q25 41 59 21l279 -159l279 159q34 20 59 -21q10 -16 10 -34t-16 -32l-277 -232q-23 -18 -55 -18z" />
    <glyph glyph-name="Dcaron" unicode="&#x10e;" 
d="M591 136q181 0 286 119t105 338q0 220 -105 339t-286 119h-186v-915h186zM255 1051h-112q-35 0 -49 15t-14 53t14 53t49 15h471q238 0 382 -160t144 -434q0 -275 -144 -434t-382 -159h-471q-35 0 -49 15t-14 53t14 53t49 15h112v915zM584 1297q-32 0 -55 18l-277 232
q-16 14 -16 32t10 34q25 41 59 21l279 -159l279 159q34 20 59 -21q10 -16 10 -34t-16 -32l-277 -232q-23 -18 -55 -18z" />
    <glyph glyph-name="dcaron" unicode="&#x10f;" 
d="M1117 862q-35 0 -49.5 15t-8.5 41l82 362q8 32 42 32h142q20 0 26.5 -14.5t-4.5 -36.5l-178 -364q-17 -35 -52 -35zM776 437q0 148 -69.5 229.5t-183.5 81.5q-115 0 -176.5 -86.5t-61.5 -224.5t61.5 -224.5t176.5 -86.5t184 81.5t69 229.5zM776 1176h-182q-34 0 -48.5 15
t-14.5 53t14.5 53t48.5 15h269q34 0 48.5 -15t14.5 -53v-1108h82q34 0 48.5 -15t14.5 -53t-14.5 -53t-48.5 -15h-159q-34 0 -48.5 15t-14.5 53v70q-101 -160 -272 -160t-279 123.5t-108 335.5t108 335.5t276 123.5t265 -141v421z" />
    <glyph glyph-name="Dcroat" unicode="&#x110;" 
d="M591 136q181 0 286 119t105 338q0 220 -105 339t-286 119h-186v-915h186zM255 1051h-112q-35 0 -49 15t-14 53t14 53t49 15h471q238 0 382 -160t144 -434q0 -275 -144 -434t-382 -159h-471q-35 0 -49 15t-14 53t14 53t49 15h112v915zM865 1516q35 0 49 -15t14 -53
t-14 -53t-49 -15h-562q-35 0 -49 15t-14 53t14 53t49 15h562z" />
    <glyph glyph-name="dcroat" unicode="&#x111;" 
d="M876 437q0 146 -86 228.5t-220 82.5q-135 0 -210 -86.5t-75 -224.5t75 -224.5t210 -86.5t220.5 82.5t85.5 228.5zM876 970h-303q-34 0 -48.5 15t-14.5 53t14.5 53t48.5 15h303v70h-202q-34 0 -48.5 15t-14.5 53t14.5 53t48.5 15h289q34 0 48.5 -15t14.5 -53v-138h109
q34 0 48.5 -15t14.5 -53t-14.5 -53t-48.5 -15h-109v-834h82q34 0 48.5 -15t14.5 -53t-14.5 -53t-48.5 -15h-159q-34 0 -48.5 15t-14.5 53v80q-130 -170 -323 -170t-314.5 124.5t-121.5 334.5t121 334.5t312 124.5t316 -156v230z" />
    <glyph glyph-name="Emacron" unicode="&#x112;" 
d="M916 1516q34 0 48 -15t15 -53q-1 -38 -15 -53t-48 -15h-562q-34 0 -48 15t-15 53q1 38 15 53t48 15h562zM245 1051h-102q-35 0 -49 15t-14 53t14 53t49 15h874q35 0 49 -15t14 -53v-254q0 -35 -16 -50t-59 -15t-59 15t-16 50v186h-535v-371h250v91q1 35 17 50t58 15
t58 -15t17 -50v-318q-1 -35 -17 -50t-58 -15t-58 15t-17 50v91h-250v-408h555v229q0 35 16 50t59 15t59 -15t16 -50v-297q0 -38 -14 -53t-49 -15h-894q-35 0 -49 15t-14 53t14 53t49 15h102v915z" />
    <glyph glyph-name="emacron" unicode="&#x113;" 
d="M915 1246q35 0 49 -15t14 -53t-14 -53t-49 -15h-562q-35 0 -49 15t-14 53t14 53t49 15h562zM925 565q-44 236 -302 236q-125 -1 -205 -63t-104 -173h611zM603 123q212 0 360 86q57 32 88 -44q29 -67 -35 -100q-179 -87 -405 -87t-345 129q-120 129 -120 350t133 355
t346 134t333 -125t133 -334q-1 -34 -15 -48t-48 -14h-724q16 -302 299 -302z" />
    <glyph glyph-name="Ebreve" unicode="&#x114;" 
d="M245 1051h-102q-35 0 -49 15t-14 53t14 53t49 15h874q35 0 49 -15t14 -53v-254q0 -35 -16 -50t-59 -15t-59 15t-16 50v186h-535v-371h250v91q1 35 17 50t58 15t58 -15t17 -50v-318q-1 -35 -17 -50t-58 -15t-58 15t-17 50v91h-250v-408h555v229q0 35 16 50t59 15t59 -15
t16 -50v-297q0 -38 -14 -53t-49 -15h-894q-35 0 -49 15t-14 53t14 53t49 15h102v915zM614 1485q102 -1 168 27t101 96q9 20 31 20q37 0 59 -18q23 -18 18 -42q-37 -162 -235 -211q-64 -16 -142 -16q-154 0 -253 61t-124 166q-6 25 12 38q29 22 58 22t38 -20q35 -68 101 -96
t168 -27z" />
    <glyph glyph-name="ebreve" unicode="&#x115;" 
d="M925 565q-44 236 -302 236q-125 -1 -205 -63t-104 -173h611zM603 123q212 0 360 86q57 32 88 -44q29 -67 -35 -100q-179 -87 -405 -87t-345 129q-120 129 -120 350t133 355t346 134t333 -125t133 -334q-1 -34 -15 -48t-48 -14h-724q16 -302 299 -302zM634 1215
q102 -1 168 27t101 96q9 20 31 20q37 0 59 -18q23 -18 18 -42q-37 -162 -235 -211q-64 -16 -142 -16q-154 0 -253 61t-124 166q-6 25 12 38q29 22 58 22t38 -20q35 -68 101 -96t168 -27z" />
    <glyph glyph-name="Edotaccent" unicode="&#x116;" 
d="M473 1490q0 29 11 55t30 45t45 30t55 11t55 -11t45 -30t30 -45t11 -55t-11 -55t-30 -45t-45 -30t-55 -11t-55 11t-45 30t-30 45t-11 55zM245 1051h-102q-35 0 -49 15t-14 53t14 53t49 15h874q35 0 49 -15t14 -53v-254q0 -35 -16 -50t-59 -15t-59 15t-16 50v186h-535v-371
h250v91q1 35 17 50t58 15t58 -15t17 -50v-318q-1 -35 -17 -50t-58 -15t-58 15t-17 50v91h-250v-408h555v229q0 35 16 50t59 15t59 -15t16 -50v-297q0 -38 -14 -53t-49 -15h-894q-35 0 -49 15t-14 53t14 53t49 15h102v915z" />
    <glyph glyph-name="edotaccent" unicode="&#x117;" 
d="M493 1220q0 29 11 55t30 45t45 30t55 11t55 -11t45 -30t30 -45t11 -55t-11 -55t-30 -45t-45 -30t-55 -11t-55 11t-45 30t-30 45t-11 55zM925 565q-44 236 -302 236q-125 -1 -205 -63t-104 -173h611zM603 123q212 0 360 86q57 32 88 -44q29 -67 -35 -100
q-179 -87 -405 -87t-345 129q-120 129 -120 350t133 355t346 134t333 -125t133 -334q-1 -34 -15 -48t-48 -14h-724q16 -302 299 -302z" />
    <glyph glyph-name="Eogonek" unicode="&#x118;" 
d="M691 -281q0 137 164 281h-712q-34 0 -48.5 15t-14.5 53t14.5 53t48.5 15h102v915h-102q-34 0 -48.5 15t-14.5 53t14.5 53t48.5 15h874q34 0 48.5 -15t14.5 -53v-254q0 -35 -16.5 -50t-58.5 -15t-58.5 15t-16.5 50v186h-535v-371h250v91q0 35 16.5 50t58.5 15t58.5 -15
t16.5 -50v-318q0 -35 -16.5 -50t-58.5 -15t-58.5 15t-16.5 50v91h-250v-408h555v229q0 35 16.5 50t58.5 15t58.5 -15t16.5 -50v-297q0 -38 -14.5 -53t-48.5 -15h-24q-166 -155 -166 -261q0 -37 21.5 -56t69.5 -19t83 6q36 6 49.5 -5t17.5 -41q8 -56 -30 -69
q-78 -27 -169 -27q-92 0 -145 51.5t-53 139.5z" />
    <glyph glyph-name="eogonek" unicode="&#x119;" 
d="M925 565q-44 236 -302 236q-125 0 -204.5 -62.5t-104.5 -173.5h611zM603 123q212 0 360 86q57 32 88 -44q29 -67 -35 -100q-31 -17 -82 -65q-167 -155 -167 -245q0 -91 77 -91q61 0 97 6t49.5 -5t17.5 -41q8 -56 -30 -69q-78 -27 -169 -27q-92 0 -145 51t-53 133
t41.5 148.5t112.5 130.5q-84 -13 -178 -13t-179 33.5t-173.5 129t-88.5 316.5t132.5 355t346.5 134q213 0 333.5 -125.5t132.5 -333.5q0 -34 -14.5 -48t-48.5 -14h-724q16 -302 299 -302z" />
    <glyph glyph-name="Ecaron" unicode="&#x11a;" 
d="M245 1051h-102q-35 0 -49 15t-14 53t14 53t49 15h874q35 0 49 -15t14 -53v-254q0 -35 -16 -50t-59 -15t-59 15t-16 50v186h-535v-371h250v91q1 35 17 50t58 15t58 -15t17 -50v-318q-1 -35 -17 -50t-58 -15t-58 15t-17 50v91h-250v-408h555v229q0 35 16 50t59 15t59 -15
t16 -50v-297q0 -38 -14 -53t-49 -15h-894q-35 0 -49 15t-14 53t14 53t49 15h102v915zM614 1297q-32 0 -55 18l-277 232q-16 14 -16 32t10 34q25 41 59 21l279 -159l279 159q34 20 59 -21q10 -16 10 -34t-16 -32l-277 -232q-23 -18 -55 -18z" />
    <glyph glyph-name="ecaron" unicode="&#x11b;" 
d="M925 565q-44 236 -302 236q-125 -1 -205 -63t-104 -173h611zM603 123q212 0 360 86q57 32 88 -44q29 -67 -35 -100q-179 -87 -405 -87t-345 129q-120 129 -120 350t133 355t346 134t333 -125t133 -334q-1 -34 -15 -48t-48 -14h-724q16 -302 299 -302zM630 1047
q-32 0 -55 18l-277 232q-16 14 -16 32t10 34q25 41 59 21l279 -159l279 159q34 20 59 -21q10 -16 10 -34t-16 -32l-277 -232q-23 -18 -55 -18z" />
    <glyph glyph-name="Gcircumflex" unicode="&#x11c;" 
d="M296 1364q0 18 16 32l277 232q23 18 55 18t55 -18l277 -232q16 -14 16 -32t-10 -34q-25 -41 -59 -21l-279 159l-279 -159q-34 -20 -59 21q-10 16 -10 34zM923 410h-247q-34 0 -48 15t-15 53q1 38 15 53t48 15h429q35 0 49 -15t14 -53t-14 -53t-49 -15h-32v-267
q0 -49 -36 -69q-166 -96 -408 -96t-386 169q-145 169 -145 445t148 446q148 171 378 171q187 0 288 -114v49q0 35 16 50t59 15t59 -15t16 -50v-290q0 -35 -16 -50t-59 -15t-59 15t-16 55q0 87 -73 144q-73 58 -181 58q-106 -1 -176 -33t-120 -93t-78 -147t-28 -195
q0 -214 100 -341q100 -126 271 -126t296 57v227z" />
    <glyph glyph-name="gcircumflex" unicode="&#x11d;" 
d="M886 856q0 38 14 53t49 15h159q34 0 48 -15t15 -53q-1 -38 -15 -53t-48 -15h-82v-823q0 -274 -238 -354q-78 -26 -170 -26q-189 0 -347 60q-55 22 -30 95t86 46q124 -53 286 -53q195 0 247 145q16 45 16 100v206q-125 -156 -316 -156t-312 124t-121 335q0 210 121 335
q121 124 315 124q193 0 323 -170v80zM876 487q0 146 -86 228q-86 83 -220 83q-135 0 -210 -86t-75 -225q0 -138 75 -225q75 -86 210 -86t220 83q86 82 86 228zM266 1094q0 18 16 32l277 232q23 18 55 18t55 -18l277 -232q16 -14 16 -32t-10 -34q-25 -41 -59 -21l-279 159
l-279 -159q-34 -20 -59 21q-10 16 -10 34z" />
    <glyph glyph-name="Gbreve" unicode="&#x11e;" 
d="M923 410h-247q-34 0 -48 15t-15 53q1 38 15 53t48 15h429q35 0 49 -15t14 -53t-14 -53t-49 -15h-32v-267q0 -49 -36 -69q-166 -96 -408 -96t-386 169q-145 169 -145 445t148 446q148 171 378 171q187 0 288 -114v49q0 35 16 50t59 15t59 -15t16 -50v-290q0 -35 -16 -50
t-59 -15t-59 15t-16 55q0 87 -73 144q-73 58 -181 58q-106 -1 -176 -33t-120 -93t-78 -147t-28 -195q0 -214 100 -341q100 -126 271 -126t296 57v227zM624 1485q102 -1 168 27t101 96q9 20 31 20q37 0 59 -18q23 -18 18 -42q-37 -162 -235 -211q-64 -16 -142 -16
q-154 0 -253 61t-124 166q-6 25 12 38q29 22 58 22t38 -20q35 -68 101 -96t168 -27z" />
    <glyph glyph-name="gbreve" unicode="&#x11f;" 
d="M886 856q0 38 14 53t49 15h159q34 0 48 -15t15 -53q-1 -38 -15 -53t-48 -15h-82v-823q0 -274 -238 -354q-78 -26 -170 -26q-189 0 -347 60q-55 22 -30 95t86 46q124 -53 286 -53q195 0 247 145q16 45 16 100v206q-125 -156 -316 -156t-312 124t-121 335q0 210 121 335
q121 124 315 124q193 0 323 -170v80zM876 487q0 146 -86 228q-86 83 -220 83q-135 0 -210 -86t-75 -225q0 -138 75 -225q75 -86 210 -86t220 83q86 82 86 228zM614 1215q102 -1 168 27t101 96q9 20 31 20q37 0 59 -18q23 -18 18 -42q-37 -162 -235 -211q-64 -16 -142 -16
q-154 0 -253 61t-124 166q-6 25 12 38q29 22 58 22t38 -20q35 -68 101 -96t168 -27z" />
    <glyph glyph-name="Gdotaccent" unicode="&#x120;" 
d="M483 1490q0 29 11 55t30 45t45 30t55 11t55 -11t45 -30t30 -45t11 -55t-11 -55t-30 -45t-45 -30t-55 -11t-55 11t-45 30t-30 45t-11 55zM923 410h-247q-34 0 -48 15t-15 53q1 38 15 53t48 15h429q35 0 49 -15t14 -53t-14 -53t-49 -15h-32v-267q0 -49 -36 -69
q-166 -96 -408 -96t-386 169q-145 169 -145 445t148 446q148 171 378 171q187 0 288 -114v49q0 35 16 50t59 15t59 -15t16 -50v-290q0 -35 -16 -50t-59 -15t-59 15t-16 55q0 87 -73 144q-73 58 -181 58q-106 -1 -176 -33t-120 -93t-78 -147t-28 -195q0 -214 100 -341
q100 -126 271 -126t296 57v227z" />
    <glyph glyph-name="gdotaccent" unicode="&#x121;" 
d="M886 856q0 38 14 53t49 15h159q34 0 48 -15t15 -53q-1 -38 -15 -53t-48 -15h-82v-823q0 -274 -238 -354q-78 -26 -170 -26q-189 0 -347 60q-55 22 -30 95t86 46q124 -53 286 -53q195 0 247 145q16 45 16 100v206q-125 -156 -316 -156t-312 124t-121 335q0 210 121 335
q121 124 315 124q193 0 323 -170v80zM876 487q0 146 -86 228q-86 83 -220 83q-135 0 -210 -86t-75 -225q0 -138 75 -225q75 -86 210 -86t220 83q86 82 86 228zM473 1220q0 29 11 55t30 45t45 30t55 11t55 -11t45 -30t30 -45t11 -55t-11 -55t-30 -45t-45 -30t-55 -11t-55 11
t-45 30t-30 45t-11 55z" />
    <glyph glyph-name="Gcommaaccent" unicode="&#x122;" 
d="M923 410h-247q-34 0 -48 15t-15 53q1 38 15 53t48 15h429q35 0 49 -15t14 -53t-14 -53t-49 -15h-32v-267q0 -49 -36 -69q-166 -96 -408 -96t-386 169q-145 169 -145 445t148 446q148 171 378 171q187 0 288 -114v49q0 35 16 50t59 15t59 -15t16 -50v-290q0 -35 -16 -50
t-59 -15t-59 15t-16 55q0 87 -73 144q-73 58 -181 58q-106 -1 -176 -33t-120 -93t-78 -147t-28 -195q0 -214 100 -341q100 -126 271 -126t296 57v227zM574 -146h142q20 0 26 -15t-4 -36l-154 -291q-20 -37 -56 -37q-68 0 -58 56l62 291q6 32 42 32z" />
    <glyph glyph-name="gcommaaccent" unicode="&#x123;" 
d="M886 856q0 38 14 53t49 15h159q34 0 48 -15t15 -53q-1 -38 -15 -53t-48 -15h-82v-823q0 -274 -238 -354q-78 -26 -170 -26q-189 0 -347 60q-55 22 -30 95t86 46q124 -53 286 -53q195 0 247 145q16 45 16 100v206q-125 -156 -316 -156t-312 124t-121 335q0 210 121 335
q121 124 315 124q193 0 323 -170v80zM876 487q0 146 -86 228q-86 83 -220 83q-135 0 -210 -86t-75 -225q0 -138 75 -225q75 -86 210 -86t220 83q86 82 86 228zM718 1443q68 0 58 -56l-62 -291q-6 -32 -42 -32h-142q-20 0 -26 15t4 36l154 291q19 37 56 37z" />
    <glyph glyph-name="Hcircumflex" unicode="&#x124;" 
d="M215 1051h-72q-35 0 -49 15t-14 53t14 53t49 15h314q35 0 49 -15t14 -53t-14 -53t-49 -15h-92v-371h498v371h-92q-35 0 -49 15t-14 53t14 53t49 15h314q35 0 49 -15t14 -53t-14 -53t-49 -15h-72v-915h72q35 0 49 -15t14 -53t-14 -53t-49 -15h-314q-35 0 -49 15t-14 53
t14 53t49 15h92v408h-498v-408h92q35 0 49 -15t14 -53t-14 -53t-49 -15h-314q-35 0 -49 15t-14 53t14 53t49 15h72v915zM266 1364q0 18 16 32l277 232q23 18 55 18t55 -18l277 -232q16 -14 16 -32t-10 -34q-25 -41 -59 -21l-279 159l-279 -159q-34 -20 -59 21q-10 16 -10 34
z" />
    <glyph glyph-name="hcircumflex" unicode="&#x125;" 
d="M256 1464q0 18 16 32l277 232q23 18 55 18t55 -18l277 -232q16 -14 16 -32t-10 -34q-25 -41 -59 -21l-279 159l-279 -159q-34 -20 -59 21q-10 16 -10 34zM717 946q137 0 217 -87t80 -239v-484h82q34 0 48 -15t15 -53q-1 -38 -15 -53t-48 -15h-324q-34 0 -48 15t-15 53
q1 38 15 53t48 15h92v469q0 137 -90 179q-30 14 -84 14q-52 0 -110 -28t-102 -78q-96 -109 -96 -270v-286h92q34 0 48 -15t15 -53q-1 -38 -15 -53t-48 -15h-324q-34 0 -48 15t-15 53q1 38 15 53t48 15h82v1040h-92q-34 0 -48 15t-15 53q1 38 15 53t48 15h179q35 0 49 -15
t14 -53v-498q134 200 335 200z" />
    <glyph glyph-name="Hbar" unicode="&#x126;" 
d="M863 680v108h-498v-108h498zM215 788h-122q-34 0 -48.5 15t-14.5 53t14.5 53t48.5 15h122v127h-72q-34 0 -48.5 15t-14.5 53t14.5 53t48.5 15h314q34 0 48.5 -15t14.5 -53t-14.5 -53t-48.5 -15h-92v-127h498v127h-92q-34 0 -48.5 15t-14.5 53t14.5 53t48.5 15h314
q34 0 48.5 -15t14.5 -53t-14.5 -53t-48.5 -15h-72v-127h122q34 0 48.5 -15t14.5 -53t-14.5 -53t-48.5 -15h-122v-652h72q34 0 48.5 -15t14.5 -53t-14.5 -53t-48.5 -15h-314q-34 0 -48.5 15t-14.5 53t14.5 53t48.5 15h92v408h-498v-408h92q34 0 48.5 -15t14.5 -53t-14.5 -53
t-48.5 -15h-314q-34 0 -48.5 15t-14.5 53t14.5 53t48.5 15h72v652z" />
    <glyph glyph-name="hbar" unicode="&#x127;" 
d="M717 946q137 0 217 -87.5t80 -238.5v-484h82q34 0 48.5 -15t14.5 -53t-14.5 -53t-48.5 -15h-324q-34 0 -48.5 15t-14.5 53t14.5 53t48.5 15h92v469q0 137 -61 165t-113 28t-110 -28t-128 -107.5t-70 -240.5v-286h92q34 0 48.5 -15t14.5 -53t-14.5 -53t-48.5 -15h-324
q-34 0 -48.5 15t-14.5 53t14.5 53t48.5 15h82v854h-149q-34 0 -48.5 15t-14.5 53t14.5 53t48.5 15h149v50h-92q-34 0 -48.5 15t-14.5 53t14.5 53t48.5 15h179q34 0 48.5 -15t14.5 -53v-118h263q34 0 48.5 -15t14.5 -53t-14.5 -53t-48.5 -15h-263v-244q134 200 335 200z" />
    <glyph glyph-name="Itilde" unicode="&#x128;" 
d="M481 1557q51 1 112 -21q119 -42 172 -42t123 42q35 21 62 -26q27 -46 -6 -73q-109 -91 -200 -91q-48 0 -109 22q-119 42 -172 41q-53 0 -123 -42q-35 -21 -62 26q-27 46 6 73q109 91 197 91zM539 1051h-256q-35 0 -49 15t-14 53t14 53t49 15h662q35 0 49 -15t14 -53
t-14 -53t-49 -15h-256v-915h276q35 0 49 -15t14 -53t-14 -53t-49 -15h-702q-35 0 -49 15t-14 53t14 53t49 15h276v915z" />
    <glyph glyph-name="itilde" unicode="&#x129;" 
d="M563 788h-253q-34 0 -48 15t-15 53q1 38 15 53t48 15h340q34 0 48 -15t15 -53v-720h321q34 0 48 -15t15 -53q-1 -38 -15 -53t-48 -15h-784q-34 0 -48 15t-15 53q1 38 15 53t48 15h313v652zM461 1297q51 1 112 -21q119 -42 172 -42t123 42q35 21 62 -26q27 -46 -6 -73
q-109 -91 -200 -91q-48 0 -109 22q-119 41 -172 41t-123 -42q-35 -21 -62 26q-27 46 6 73q109 91 197 91z" />
    <glyph glyph-name="Imacron" unicode="&#x12a;" 
d="M539 1051h-256q-35 0 -49 15t-14 53t14 53t49 15h662q35 0 49 -15t14 -53t-14 -53t-49 -15h-256v-915h276q35 0 49 -15t14 -53t-14 -53t-49 -15h-702q-35 0 -49 15t-14 53t14 53t49 15h276v915zM895 1516q35 0 49 -15t14 -53t-14 -53t-49 -15h-562q-35 0 -49 15t-14 53
t14 53t49 15h562z" />
    <glyph glyph-name="imacron" unicode="&#x12b;" 
d="M563 788h-253q-34 0 -48 15t-15 53q1 38 15 53t48 15h340q34 0 48 -15t15 -53v-720h321q34 0 48 -15t15 -53q-1 -38 -15 -53t-48 -15h-784q-34 0 -48 15t-15 53q1 38 15 53t48 15h313v652zM885 1246q35 0 49 -15t14 -53t-14 -53t-49 -15h-562q-35 0 -49 15t-14 53t14 53
t49 15h562z" />
    <glyph glyph-name="Ibreve" unicode="&#x12c;" 
d="M539 1051h-256q-35 0 -49 15t-14 53t14 53t49 15h662q35 0 49 -15t14 -53t-14 -53t-49 -15h-256v-915h276q35 0 49 -15t14 -53t-14 -53t-49 -15h-702q-35 0 -49 15t-14 53t14 53t49 15h276v915zM614 1485q102 -1 168 27t101 96q9 20 31 20q37 0 59 -18q23 -18 18 -42
q-37 -162 -235 -211q-64 -16 -142 -16q-154 0 -253 61t-124 166q-6 25 12 38q29 22 58 22t38 -20q35 -68 101 -96t168 -27z" />
    <glyph glyph-name="ibreve" unicode="&#x12d;" 
d="M563 788h-253q-34 0 -48 15t-15 53q1 38 15 53t48 15h340q34 0 48 -15t15 -53v-720h321q34 0 48 -15t15 -53q-1 -38 -15 -53t-48 -15h-784q-34 0 -48 15t-15 53q1 38 15 53t48 15h313v652zM604 1215q102 -1 168 27t101 96q9 20 31 20q37 0 59 -18q23 -18 18 -42
q-37 -162 -235 -211q-64 -16 -142 -16q-154 0 -253 61t-124 166q-6 25 12 38q29 22 58 22t38 -20q35 -68 101 -96t168 -27z" />
    <glyph glyph-name="Iogonek" unicode="&#x12e;" 
d="M371 -281q0 137 164 281h-272q-34 0 -48.5 15t-14.5 53t14.5 53t48.5 15h276v915h-256q-34 0 -48.5 15t-14.5 53t14.5 53t48.5 15h662q34 0 48.5 -15t14.5 -53t-14.5 -53t-48.5 -15h-256v-915h276q34 0 48.5 -15t14.5 -53t-14.5 -53t-48.5 -15h-272q-166 -155 -166 -261
q0 -37 21.5 -56t69.5 -19t83 6q36 6 49.5 -5t17.5 -41q8 -56 -30 -69q-78 -27 -169 -27q-92 0 -145 51.5t-53 139.5z" />
    <glyph glyph-name="iogonek" unicode="&#x12f;" 
d="M713 1168q0 -35 -19 -50t-76 -15t-76 15t-19 50v130q0 35 19 50t76 15t76 -15t19 -50v-130zM391 -281q0 137 164 281h-305q-34 0 -48.5 15t-14.5 53t14.5 53t48.5 15h313v652h-253q-34 0 -48.5 15t-14.5 53t14.5 53t48.5 15h340q34 0 48.5 -15t14.5 -53v-720h321
q34 0 48.5 -15t14.5 -53t-14.5 -53t-48.5 -15h-321q-166 -155 -166 -261q0 -37 21.5 -56t69.5 -19q47 0 83 6t49.5 -5t17.5 -41q8 -56 -30 -69q-78 -27 -169 -27q-92 0 -145 51.5t-53 139.5z" />
    <glyph glyph-name="Idotaccent" unicode="&#x130;" 
d="M539 1051h-256q-35 0 -49 15t-14 53t14 53t49 15h662q35 0 49 -15t14 -53t-14 -53t-49 -15h-256v-915h276q35 0 49 -15t14 -53t-14 -53t-49 -15h-702q-35 0 -49 15t-14 53t14 53t49 15h276v915zM473 1490q0 29 11 55t30 45t45 30t55 11t55 -11t45 -30t30 -45t11 -55
t-11 -55t-30 -45t-45 -30t-55 -11t-55 11t-45 30t-30 45t-11 55z" />
    <glyph glyph-name="dotlessi" unicode="&#x131;" 
d="M563 788h-253q-34 0 -48.5 15t-14.5 53t14.5 53t48.5 15h340q34 0 48.5 -15t14.5 -53v-720h321q34 0 48.5 -15t14.5 -53t-14.5 -53t-48.5 -15h-784q-34 0 -48.5 15t-14.5 53t14.5 53t48.5 15h313v652z" />
    <glyph glyph-name="IJ" unicode="&#x132;" 
d="M924 263v788h-141q-34 0 -48.5 15t-14.5 53t14.5 53t48.5 15h362q34 0 48.5 -15t14.5 -53t-14.5 -53t-48.5 -15h-71v-818q0 -255 -270 -255q-134 0 -233 101q-16 16 -16 51v285q0 35 16.5 50t58.5 15t58.5 -15t16.5 -50v-254q37 -35 100 -35t91 32.5t28 104.5zM179 1051
h-86q-34 0 -48.5 15t-14.5 53t14.5 53t48.5 15h322q34 0 48.5 -15t14.5 -53t-14.5 -53t-48.5 -15h-86v-915h96q34 0 48.5 -15t14.5 -53t-14.5 -53t-48.5 -15h-342q-34 0 -48.5 15t-14.5 53t14.5 53t48.5 15h96v915z" />
    <glyph glyph-name="ij" unicode="&#x133;" 
d="M1073 1168q0 -35 -19 -50t-76 -15t-76 15t-19 50v130q0 35 19 50t76 15t76 -15t19 -50v-130zM1073 -62q0 -353 -324 -353q-161 0 -298 73q-34 17 -34 40q0 42 17.5 74t39.5 32t58 -20q97 -53 214 -53q141 0 159 82.5t18 137.5v837h-223q-34 0 -48.5 15t-14.5 53t14.5 53
t48.5 15h310q34 0 48.5 -15t14.5 -53v-918zM433 1168q0 -35 -19 -50t-76 -15t-76 15t-19 50v130q0 35 19 50t76 15t76 -15t19 -50v-130zM283 788h-123q-34 0 -48.5 15t-14.5 53t14.5 53t48.5 15h210q34 0 48.5 -15t14.5 -53v-720h171q34 0 48.5 -15t14.5 -53t-14.5 -53
t-48.5 -15h-484q-34 0 -48.5 15t-14.5 53t14.5 53t48.5 15h163v652z" />
    <glyph glyph-name="Jcircumflex" unicode="&#x134;" 
d="M426 1364q0 18 16 32l277 232q23 18 55 18t55 -18l277 -232q16 -14 16 -32t-10 -34q-25 -41 -59 -21l-279 159l-279 -159q-34 -20 -59 21q-10 16 -10 34zM894 333q0 -355 -400 -355q-226 0 -363 151q-16 19 -16 51v285q1 35 17 50t58 15t58 -15t17 -50v-264
q83 -75 223 -75t198 59t58 178v688h-341q-35 0 -49 15t-14 53t14 53t49 15h692q35 0 49 -15t14 -53t-14 -53t-49 -15h-201v-718z" />
    <glyph glyph-name="jcircumflex" unicode="&#x135;" 
d="M376 1094q0 18 16 32l277 232q23 18 55 18t55 -18l277 -232q16 -14 16 -32t-10 -34q-25 -41 -59 -21l-279 159l-279 -159q-34 -20 -59 21q-10 16 -10 34zM753 788h-423q-34 0 -48 15t-15 53q1 38 15 53t48 15h510q34 0 48 -15t15 -53v-918q0 -264 -178 -330
q-62 -23 -127 -23q-202 0 -375 112q-53 34 -18 101q35 66 94 27q145 -94 282 -94q137 -1 163 123q9 42 9 97v837z" />
    <glyph glyph-name="Kcommaaccent" unicode="&#x136;" 
d="M255 1051h-112q-35 0 -49 15t-14 53t14 53t49 15h354q35 0 49 -15t14 -53t-14 -53t-49 -15h-92v-421l434 421h-68q-35 0 -49 15t-14 53t14 53t49 15h324q35 0 49 -15t14 -53t-14 -53t-49 -15h-57l-423 -405q147 11 233 -99q46 -61 77 -140t47 -123q56 -148 125 -148h28
q35 0 49 -15t14 -53t-14 -53t-49 -15h-82q-102 0 -172 139q-25 50 -67 162q-42 111 -71 153q-55 78 -146 78t-152 -59l-30 -29v-308h162q35 0 49 -15t14 -53t-14 -53t-49 -15h-424q-35 0 -49 15t-14 53t14 53t49 15h112v915zM574 -146h142q20 0 26 -15t-4 -36l-154 -291
q-20 -37 -56 -37q-68 0 -58 56l62 291q6 32 42 32z" />
    <glyph glyph-name="kcommaaccent" unicode="&#x137;" 
d="M348 1312q34 0 48 -15t15 -53v-792l381 336h-71q-35 0 -49 15t-14 53t14 53t49 15h334q35 0 49 -15t14 -53t-14 -53t-49 -15h-59l-294 -259l336 -393h58q34 0 48 -15t15 -53q-1 -38 -15 -53t-48 -15h-334q-34 0 -48 15t-15 53q1 38 15 53t48 15h82l-251 298l-182 -160
v-138h63q34 0 48 -15t15 -53q-1 -38 -15 -53t-48 -15h-324q-34 0 -48 15t-15 53q1 38 15 53t48 15h111v1040h-131q-34 0 -48 15t-15 53q1 38 15 53t48 15h218zM686 -146q20 0 26 -15t-4 -36l-154 -291q-20 -37 -56 -37q-68 0 -58 56l62 291q6 32 42 32h142z" />
    <glyph glyph-name="Lacute" unicode="&#x139;" 
d="M635 1633q29 16 50 7t44 -49q59 -104 7 -119l-481 -163q-37 -12 -54 31q-17 42 18 63zM305 1051h-162q-35 0 -49 15t-14 53t14 53t49 15h554q35 0 49 -15t14 -53t-14 -53t-49 -15h-242v-915h495v329q0 35 16 50t59 15t59 -15t16 -50v-397q0 -38 -14 -53t-49 -15h-894
q-35 0 -49 15t-14 53t14 53t49 15h162v915z" />
    <glyph glyph-name="lacute" unicode="&#x13a;" 
d="M805 1733q29 16 50 7t44 -49q59 -104 7 -119l-481 -163q-37 -12 -54 31q-17 42 18 63zM553 1176h-273q-34 0 -48 15t-15 53q1 38 15 53t48 15h360q34 0 48 -15t15 -53v-1108h321q34 0 48 -15t15 -53q-1 -38 -15 -53t-48 -15h-784q-34 0 -48 15t-15 53q1 38 15 53t48 15
h313v1040z" />
    <glyph glyph-name="Lcommaaccent" unicode="&#x13b;" 
d="M305 1051h-162q-35 0 -49 15t-14 53t14 53t49 15h554q35 0 49 -15t14 -53t-14 -53t-49 -15h-242v-915h495v329q0 35 16 50t59 15t59 -15t16 -50v-397q0 -38 -14 -53t-49 -15h-894q-35 0 -49 15t-14 53t14 53t49 15h162v915zM564 -146h142q20 0 26 -15t-4 -36l-154 -291
q-20 -37 -56 -37q-68 0 -58 56l62 291q6 32 42 32z" />
    <glyph glyph-name="lcommaaccent" unicode="&#x13c;" 
d="M553 1176h-273q-34 0 -48 15t-15 53q1 38 15 53t48 15h360q34 0 48 -15t15 -53v-1108h321q34 0 48 -15t15 -53q-1 -38 -15 -53t-48 -15h-784q-34 0 -48 15t-15 53q1 38 15 53t48 15h313v1040zM564 -146h142q20 0 26 -15t-4 -36l-154 -291q-20 -37 -56 -37q-68 0 -58 56
l62 291q6 32 42 32z" />
    <glyph glyph-name="Lcaron" unicode="&#x13d;" 
d="M305 1051h-162q-35 0 -49 15t-14 53t14 53t49 15h554q35 0 49 -15t14 -53t-14 -53t-49 -15h-242v-915h495v329q0 35 16 50t59 15t59 -15t16 -50v-397q0 -38 -14 -53t-49 -15h-894q-35 0 -49 15t-14 53t14 53t49 15h162v915zM829 716q-35 0 -50 15t-8 41l82 362
q7 32 42 32h142q20 0 27 -15q6 -15 -5 -36l-178 -364q-17 -35 -52 -35z" />
    <glyph glyph-name="lcaron" unicode="&#x13e;" 
d="M523 1176h-273q-34 0 -48 15t-15 53q1 38 15 53t48 15h360q34 0 48 -15t15 -53v-1108h321q34 0 48 -15t15 -53q-1 -38 -15 -53t-48 -15h-784q-34 0 -48 15t-15 53q1 38 15 53t48 15h313v1040zM821 799q-35 0 -50 15t-8 41l82 362q7 32 42 32h142q20 0 27 -15
q6 -15 -5 -36l-178 -364q-17 -35 -52 -35z" />
    <glyph glyph-name="Ldot" unicode="&#x13f;" 
d="M305 1051h-162q-35 0 -49 15t-14 53t14 53t49 15h554q35 0 49 -15t14 -53t-14 -53t-49 -15h-242v-915h495v329q0 35 16 50t59 15t59 -15t16 -50v-397q0 -38 -14 -53t-49 -15h-894q-35 0 -49 15t-14 53t14 53t49 15h162v915zM603 710q0 29 11 55t30 45t45 30t55 11t55 -11
t45 -30t30 -45t11 -55t-11 -55t-30 -45t-45 -30t-55 -11t-55 11t-45 30t-30 45t-11 55z" />
    <glyph glyph-name="ldot" unicode="&#x140;" 
d="M523 1176h-273q-34 0 -48 15t-15 53q1 38 15 53t48 15h360q34 0 48 -15t15 -53v-1108h321q34 0 48 -15t15 -53q-1 -38 -15 -53t-48 -15h-784q-34 0 -48 15t-15 53q1 38 15 53t48 15h313v1040zM833 720q0 29 11 55t30 45t45 30t55 11t55 -11t45 -30t30 -45t11 -55t-11 -55
t-30 -45t-45 -30t-55 -11t-55 11t-45 30t-30 45t-11 55z" />
    <glyph glyph-name="Lslash" unicode="&#x141;" 
d="M305 1051h-162q-34 0 -48.5 15t-14.5 53t14.5 53t48.5 15h554q34 0 48.5 -15t14.5 -53t-14.5 -53t-48.5 -15h-242v-336l206 140q53 35 91 -21q21 -32 17.5 -52t-31.5 -39l-283 -193v-414h495v329q0 35 16.5 50t58.5 15t58.5 -15t16.5 -50v-397q0 -38 -14.5 -53t-48.5 -15
h-894q-34 0 -48.5 15t-14.5 53t14.5 53t48.5 15h162v312l-136 -92q-53 -36 -91 20q-21 32 -17.5 52.5t31.5 39.5l213 145v438z" />
    <glyph glyph-name="lslash" unicode="&#x142;" 
d="M553 1176h-273q-34 0 -48.5 15t-14.5 53t14.5 53t48.5 15h360q34 0 48.5 -15t14.5 -53v-421l167 114q53 35 91 -21q21 -32 17.5 -52t-31.5 -39l-244 -166v-523h321q34 0 48.5 -15t14.5 -53t-14.5 -53t-48.5 -15h-784q-34 0 -48.5 15t-14.5 53t14.5 53t48.5 15h313v421
l-175 -119q-53 -36 -91 20q-21 32 -17.5 52.5t31.5 39.5l252 171v455z" />
    <glyph glyph-name="Nacute" unicode="&#x143;" 
d="M835 1633q29 16 50 7t44 -49q59 -104 7 -119l-481 -163q-37 -12 -54 31q-17 42 18 63zM1038 37q0 -59 -75 -59q-52 0 -84 55l-519 927v-824h137q35 0 49 -15t14 -53t-14 -53t-49 -15h-354q-35 0 -49 15t-14 53t14 53t49 15h67v915h-77q-35 0 -49 15t-14 53t14 53t49 15
h224q41 0 57 -28l474 -848v740h-117q-35 0 -49 15t-14 53t14 53t49 15h324q35 0 49 -15t14 -53t-14 -53t-49 -15h-57v-1014z" />
    <glyph glyph-name="nacute" unicode="&#x144;" 
d="M727 946q137 0 217 -87t80 -239v-484h82q34 0 48 -15t15 -53q-1 -38 -15 -53t-48 -15h-324q-34 0 -48 15t-15 53q1 38 15 53t48 15h92v469q0 137 -90 179q-30 14 -84 14q-52 0 -110 -28t-102 -78q-96 -109 -96 -270v-286h92q34 0 48 -15t15 -53q-1 -38 -15 -53t-48 -15
h-324q-34 0 -48 15t-15 53q1 38 15 53t48 15h82v652h-102q-34 0 -48 15t-15 53q1 38 15 53t48 15h179q35 0 49 -15t14 -53v-120q135 210 345 210zM835 1363q29 16 50 7t44 -49q59 -104 7 -119l-481 -163q-37 -12 -54 31q-17 42 18 63z" />
    <glyph glyph-name="Ncommaaccent" unicode="&#x145;" 
d="M1038 37q0 -59 -75 -59q-52 0 -84 55l-519 927v-824h137q35 0 49 -15t14 -53t-14 -53t-49 -15h-354q-35 0 -49 15t-14 53t14 53t49 15h67v915h-77q-35 0 -49 15t-14 53t14 53t49 15h224q41 0 57 -28l474 -848v740h-117q-35 0 -49 15t-14 53t14 53t49 15h324q35 0 49 -15
t14 -53t-14 -53t-49 -15h-57v-1014zM564 -146h142q20 0 26 -15t-4 -36l-154 -291q-20 -37 -56 -37q-68 0 -58 56l62 291q6 32 42 32z" />
    <glyph glyph-name="ncommaaccent" unicode="&#x146;" 
d="M727 946q137 0 217 -87t80 -239v-484h82q34 0 48 -15t15 -53q-1 -38 -15 -53t-48 -15h-324q-34 0 -48 15t-15 53q1 38 15 53t48 15h92v469q0 137 -90 179q-30 14 -84 14q-52 0 -110 -28t-102 -78q-96 -109 -96 -270v-286h92q34 0 48 -15t15 -53q-1 -38 -15 -53t-48 -15
h-324q-34 0 -48 15t-15 53q1 38 15 53t48 15h82v652h-102q-34 0 -48 15t-15 53q1 38 15 53t48 15h179q35 0 49 -15t14 -53v-120q135 210 345 210zM564 -146h142q20 0 26 -15t-4 -36l-154 -291q-20 -37 -56 -37q-68 0 -58 56l62 291q6 32 42 32z" />
    <glyph glyph-name="Ncaron" unicode="&#x147;" 
d="M1038 37q0 -59 -75 -59q-52 0 -84 55l-519 927v-824h137q35 0 49 -15t14 -53t-14 -53t-49 -15h-354q-35 0 -49 15t-14 53t14 53t49 15h67v915h-77q-35 0 -49 15t-14 53t14 53t49 15h224q41 0 57 -28l474 -848v740h-117q-35 0 -49 15t-14 53t14 53t49 15h324q35 0 49 -15
t14 -53t-14 -53t-49 -15h-57v-1014zM614 1297q-32 0 -55 18l-277 232q-16 14 -16 32t10 34q25 41 59 21l279 -159l279 159q34 20 59 -21q10 -16 10 -34t-16 -32l-277 -232q-23 -18 -55 -18z" />
    <glyph glyph-name="ncaron" unicode="&#x148;" 
d="M727 946q137 0 217 -87t80 -239v-484h82q34 0 48 -15t15 -53q-1 -38 -15 -53t-48 -15h-324q-34 0 -48 15t-15 53q1 38 15 53t48 15h92v469q0 137 -90 179q-30 14 -84 14q-52 0 -110 -28t-102 -78q-96 -109 -96 -270v-286h92q34 0 48 -15t15 -53q-1 -38 -15 -53t-48 -15
h-324q-34 0 -48 15t-15 53q1 38 15 53t48 15h82v652h-102q-34 0 -48 15t-15 53q1 38 15 53t48 15h179q35 0 49 -15t14 -53v-120q135 210 345 210zM614 1047q-32 0 -55 18l-277 232q-16 14 -16 32t10 34q25 41 59 21l279 -159l279 159q34 20 59 -21q10 -16 10 -34t-16 -32
l-277 -232q-23 -18 -55 -18z" />
    <glyph glyph-name="Omacron" unicode="&#x14c;" 
d="M246 593q0 -109 26 -195t75 -146q48 -60 116 -94q68 -32 151 -32t151 32t116 94q49 60 75 146t26 195t-26 195t-75 147q-48 61 -116 93t-151 33q-83 -1 -151 -33t-116 -93q-49 -61 -75 -147t-26 -195zM88 593q0 139 38 253t107 194q69 81 166 125t215 44t215 -44
t166 -125q69 -80 107 -194t38 -253t-38 -253t-107 -194t-166 -124t-215 -44t-215 44t-166 124t-107 194t-38 253zM895 1516q35 0 49 -15t14 -53t-14 -53t-49 -15h-562q-35 0 -49 15t-14 53t14 53t49 15h562z" />
    <glyph glyph-name="omacron" unicode="&#x14d;" 
d="M895 1246q35 0 49 -15t14 -53t-14 -53t-49 -15h-562q-35 0 -49 15t-14 53t14 53t49 15h562zM278 462q0 -72 24 -134t69 -107q44 -45 106 -70t137 -25t137 25t106 70q45 45 69 107t24 134t-24 134t-69 107q-44 45 -106 70t-137 25t-137 -25t-106 -70q-45 -45 -69 -107
t-24 -134zM120 462q0 106 38 194t103 154q67 64 157 100t196 36t196 -36t157 -100q65 -64 103 -154q38 -88 38 -194t-38 -194t-103 -154q-67 -64 -157 -100t-196 -36t-196 36t-157 100q-65 64 -103 154q-38 88 -38 194z" />
    <glyph glyph-name="Obreve" unicode="&#x14e;" 
d="M246 593q0 -109 26 -195t75 -146q48 -60 116 -94q68 -32 151 -32t151 32t116 94q49 60 75 146t26 195t-26 195t-75 147q-48 61 -116 93t-151 33q-83 -1 -151 -33t-116 -93q-49 -61 -75 -147t-26 -195zM88 593q0 139 38 253t107 194q69 81 166 125t215 44t215 -44
t166 -125q69 -80 107 -194t38 -253t-38 -253t-107 -194t-166 -124t-215 -44t-215 44t-166 124t-107 194t-38 253zM614 1485q102 -1 168 27t101 96q9 20 31 20q37 0 59 -18q23 -18 18 -42q-37 -162 -235 -211q-64 -16 -142 -16q-154 0 -253 61t-124 166q-6 25 12 38
q29 22 58 22t38 -20q35 -68 101 -96t168 -27z" />
    <glyph glyph-name="obreve" unicode="&#x14f;" 
d="M278 462q0 -72 24 -134t69 -107q44 -45 106 -70t137 -25t137 25t106 70q45 45 69 107t24 134t-24 134t-69 107q-44 45 -106 70t-137 25t-137 -25t-106 -70q-45 -45 -69 -107t-24 -134zM120 462q0 106 38 194t103 154q67 64 157 100t196 36t196 -36t157 -100
q65 -64 103 -154q38 -88 38 -194t-38 -194t-103 -154q-67 -64 -157 -100t-196 -36t-196 36t-157 100q-65 64 -103 154q-38 88 -38 194zM614 1215q102 -1 168 27t101 96q9 20 31 20q37 0 59 -18q23 -18 18 -42q-37 -162 -235 -211q-64 -16 -142 -16q-154 0 -253 61t-124 166
q-6 25 12 38q29 22 58 22t38 -20q35 -68 101 -96t168 -27z" />
    <glyph glyph-name="Ohungarumlaut" unicode="&#x150;" 
d="M246 593q0 -109 26 -195t75 -146q48 -60 116 -94q68 -32 151 -32t151 32t116 94q49 60 75 146t26 195t-26 195t-75 147q-48 61 -116 93t-151 33q-83 -1 -151 -33t-116 -93q-49 -61 -75 -147t-26 -195zM88 593q0 139 38 253t107 194q69 81 166 125t215 44t215 -44
t166 -125q69 -80 107 -194t38 -253t-38 -253t-107 -194t-166 -124t-215 -44t-215 44t-166 124t-107 194t-38 253zM352 1336q-20 14 -20 32t13 32l233 225q28 28 54 28q44 0 78 -24q35 -24 35 -50q0 -27 -22 -42l-288 -201q-18 -13 -40 -13q-23 -1 -43 13zM702 1336
q-20 14 -20 32t13 32l233 225q28 28 54 28q44 0 78 -24q35 -24 35 -50q0 -27 -22 -42l-288 -201q-18 -13 -40 -13q-23 -1 -43 13z" />
    <glyph glyph-name="ohungarumlaut" unicode="&#x151;" 
d="M352 1066q-20 14 -20 32t13 32l233 225q28 28 54 28q44 0 78 -24q35 -24 35 -50q0 -27 -22 -42l-288 -201q-18 -13 -40 -13q-23 -1 -43 13zM702 1066q-20 14 -20 32t13 32l233 225q28 28 54 28q44 0 78 -24q35 -24 35 -50q0 -27 -22 -42l-288 -201q-18 -13 -40 -13
q-23 -1 -43 13zM278 462q0 -72 24 -134t69 -107q44 -45 106 -70t137 -25t137 25t106 70q45 45 69 107t24 134t-24 134t-69 107q-44 45 -106 70t-137 25t-137 -25t-106 -70q-45 -45 -69 -107t-24 -134zM120 462q0 106 38 194t103 154q67 64 157 100t196 36t196 -36t157 -100
q65 -64 103 -154q38 -88 38 -194t-38 -194t-103 -154q-67 -64 -157 -100t-196 -36t-196 36t-157 100q-65 64 -103 154q-38 88 -38 194z" />
    <glyph glyph-name="OE" unicode="&#x152;" 
d="M313.5 260q93.5 -118 252.5 -124v914q-161 -6 -253.5 -124t-92.5 -333t93.5 -333zM988 136v229q0 35 16.5 50t58.5 15t58.5 -15t16.5 -50v-297q0 -38 -14.5 -53t-48.5 -15h-501q-234 0 -373 158.5t-139 434.5t139.5 435t372.5 159h489q34 0 48.5 -15t14.5 -53v-254
q0 -35 -16.5 -50t-58.5 -15t-58.5 15t-16.5 50v186h-260v-366h192q34 0 48.5 -15t14.5 -53t-14.5 -53t-48.5 -15h-192v-413h272z" />
    <glyph glyph-name="oe" unicode="&#x153;" 
d="M854 801q-68 0 -108 -51t-52 -170h300q-7 103 -39.5 162t-100.5 59zM228 462q0 -176 37.5 -256t116.5 -80t116.5 80t37.5 256t-37.5 256t-116.5 80t-116.5 -80t-37.5 -256zM853 946q224 0 259.5 -172t38.5 -272q0 -34 -14.5 -48t-48.5 -14h-399q4 -317 164 -317
q90 0 170 78q19 19 45.5 17t60 -44t-19.5 -93q-109 -103 -262 -103t-234 138q-75 -138 -231 -138q-232 0 -272 184.5t-40 358.5t79 299.5t234 125.5t230 -140q82 140 240 140z" />
    <glyph glyph-name="Racute" unicode="&#x154;" 
d="M815 1633q29 16 50 7t44 -49q59 -104 7 -119l-481 -163q-37 -12 -54 31q-17 42 18 63zM618 651q270 0 270 199q0 97 -68 149t-192 52h-213v-400h203zM265 1051h-122q-35 0 -49 15t-14 53t14 53t49 15h506q188 0 292 -91q105 -91 105 -255q0 -165 -162 -251
q-52 -28 -115 -41q87 -41 179 -197q20 -34 38 -67t38 -67q49 -82 102 -82h19q35 0 49 -15t14 -53t-14 -53t-49 -15h-70q-90 0 -176 139q-20 33 -39 68t-38 69q-72 130 -129 176t-114 55q-56 8 -102 8h-62v-379h130q35 0 49 -15t14 -53t-14 -53t-49 -15h-402q-35 0 -49 15
t-14 53t14 53t49 15h122v915z" />
    <glyph glyph-name="racute" unicode="&#x155;" 
d="M887 1363q29 16 50 7t44 -49q59 -104 7 -119l-481 -163q-37 -12 -54 31q-17 42 18 63zM367 788h-127q-34 0 -48 15t-15 53q1 38 15 53t48 15h204q34 0 48 -15t15 -53v-202q114 206 298 272q57 20 125 20t131 -37t34 -112q-29 -76 -82 -46q-52 29 -102 29q-51 0 -97 -16
t-90 -46q-89 -60 -148 -165q-59 -104 -59 -223v-194h337q34 0 48 -15t15 -53q-1 -38 -15 -53t-48 -15h-644q-34 0 -48 15t-15 53q1 38 15 53t48 15h157v652z" />
    <glyph glyph-name="Rcommaaccent" unicode="&#x156;" 
d="M618 651q270 0 270 199q0 97 -68 149t-192 52h-213v-400h203zM265 1051h-122q-35 0 -49 15t-14 53t14 53t49 15h506q188 0 292 -91q105 -91 105 -255q0 -165 -162 -251q-52 -28 -115 -41q87 -41 179 -197q20 -34 38 -67t38 -67q49 -82 102 -82h19q35 0 49 -15t14 -53
t-14 -53t-49 -15h-70q-90 0 -176 139q-20 33 -39 68t-38 69q-72 130 -129 176t-114 55q-56 8 -102 8h-62v-379h130q35 0 49 -15t14 -53t-14 -53t-49 -15h-402q-35 0 -49 15t-14 53t14 53t49 15h122v915zM594 -146h142q20 0 26 -15t-4 -36l-154 -291q-20 -37 -56 -37
q-68 0 -58 56l62 291q6 32 42 32z" />
    <glyph glyph-name="rcommaaccent" unicode="&#x157;" 
d="M444 -146h142q20 0 26 -15t-4 -36l-154 -291q-20 -37 -56 -37q-68 0 -58 56l62 291q6 32 42 32zM367 788h-127q-34 0 -48 15t-15 53q1 38 15 53t48 15h204q34 0 48 -15t15 -53v-202q114 206 298 272q57 20 125 20t131 -37t34 -112q-29 -76 -82 -46q-52 29 -102 29
q-51 0 -97 -16t-90 -46q-89 -60 -148 -165q-59 -104 -59 -223v-194h337q34 0 48 -15t15 -53q-1 -38 -15 -53t-48 -15h-644q-34 0 -48 15t-15 53q1 38 15 53t48 15h157v652z" />
    <glyph glyph-name="Rcaron" unicode="&#x158;" 
d="M618 651q270 0 270 199q0 97 -68 149t-192 52h-213v-400h203zM265 1051h-122q-35 0 -49 15t-14 53t14 53t49 15h506q188 0 292 -91q105 -91 105 -255q0 -165 -162 -251q-52 -28 -115 -41q87 -41 179 -197q20 -34 38 -67t38 -67q49 -82 102 -82h19q35 0 49 -15t14 -53
t-14 -53t-49 -15h-70q-90 0 -176 139q-20 33 -39 68t-38 69q-72 130 -129 176t-114 55q-56 8 -102 8h-62v-379h130q35 0 49 -15t14 -53t-14 -53t-49 -15h-402q-35 0 -49 15t-14 53t14 53t49 15h122v915zM594 1297q-32 0 -55 18l-277 232q-16 14 -16 32t10 34q25 41 59 21
l279 -159l279 159q34 20 59 -21q10 -16 10 -34t-16 -32l-277 -232q-23 -18 -55 -18z" />
    <glyph glyph-name="rcaron" unicode="&#x159;" 
d="M367 788h-127q-34 0 -48 15t-15 53q1 38 15 53t48 15h204q34 0 48 -15t15 -53v-202q114 206 298 272q57 20 125 20t131 -37t34 -112q-29 -76 -82 -46q-52 29 -102 29q-51 0 -97 -16t-90 -46q-89 -60 -148 -165q-59 -104 -59 -223v-194h337q34 0 48 -15t15 -53
q-1 -38 -15 -53t-48 -15h-644q-34 0 -48 15t-15 53q1 38 15 53t48 15h157v652zM644 1047q-32 0 -55 18l-277 232q-16 14 -16 32t10 34q25 41 59 21l279 -159l279 159q34 20 59 -21q10 -16 10 -34t-16 -32l-277 -232q-23 -18 -55 -18z" />
    <glyph glyph-name="Sacute" unicode="&#x15a;" 
d="M308 43q0 -35 -16 -50t-59 -15t-59 15t-16 50v300q0 35 16 50t60 15q42 0 57 -42q85 -240 351 -240q193 0 248 120q17 37 17 92q0 138 -225 188q-56 12 -166 35q-110 22 -163 46q-184 82 -184 255q0 165 108 256t281 91q91 -1 172 -35t138 -91v61q0 35 16 50t59 15
t59 -15t16 -50v-230q0 -35 -16 -50t-57 -15q-40 0 -54 26q-98 186 -334 186q-111 0 -171 -52t-59 -136q1 -110 175 -149q54 -12 166 -34q113 -22 171 -45q113 -45 170 -119q56 -74 56 -199q0 -159 -111 -254t-315 -95t-331 143v-78zM815 1633q29 16 50 7t44 -49
q59 -104 7 -119l-481 -163q-37 -12 -54 31q-17 42 18 63z" />
    <glyph glyph-name="sacute" unicode="&#x15b;" 
d="M179 283q0 65 65 65q32 0 44 -10t20 -31q70 -184 334 -184q130 1 190 43t60 111q0 91 -187 114q-58 7 -171 19t-171 35q-96 37 -138 90q-41 52 -41 127q0 138 99 211t273 73q175 0 298 -110v45q0 35 16 50t59 15t59 -15t16 -50v-190q0 -35 -16 -50t-55 -15q-38 0 -52 26
q-64 120 -224 142q-51 7 -129 7t-132 -34t-54 -97q0 -86 179 -106q56 -6 170 -18t171 -33q100 -37 144 -91t44 -133q0 -148 -102 -230q-102 -81 -300 -81t-319 121v-56q-1 -35 -17 -50t-58 -15t-58 15t-17 50v240zM815 1363q29 16 50 7t44 -49q59 -104 7 -119l-481 -163
q-37 -12 -54 31q-17 42 18 63z" />
    <glyph glyph-name="Scircumflex" unicode="&#x15c;" 
d="M262 1364q0 18 16 32l277 232q23 18 55 18t55 -18l277 -232q16 -14 16 -32t-10 -34q-25 -41 -59 -21l-279 159l-279 -159q-34 -20 -59 21q-10 16 -10 34zM308 43q0 -35 -16 -50t-59 -15t-59 15t-16 50v300q0 35 16 50t60 15q42 0 57 -42q85 -240 351 -240q193 0 248 120
q17 37 17 92q0 138 -225 188q-56 12 -166 35q-110 22 -163 46q-184 82 -184 255q0 165 108 256t281 91q91 -1 172 -35t138 -91v61q0 35 16 50t59 15t59 -15t16 -50v-230q0 -35 -16 -50t-57 -15q-40 0 -54 26q-98 186 -334 186q-111 0 -171 -52t-59 -136q1 -110 175 -149
q54 -12 166 -34q113 -22 171 -45q113 -45 170 -119q56 -74 56 -199q0 -159 -111 -254t-315 -95t-331 143v-78z" />
    <glyph glyph-name="scircumflex" unicode="&#x15d;" 
d="M256 1094q0 18 16 32l277 232q23 18 55 18t55 -18l277 -232q16 -14 16 -32t-10 -34q-25 -41 -59 -21l-279 159l-279 -159q-34 -20 -59 21q-10 16 -10 34zM179 283q0 65 65 65q32 0 44 -10t20 -31q70 -184 334 -184q130 1 190 43t60 111q0 91 -187 114q-58 7 -171 19
t-171 35q-96 37 -138 90q-41 52 -41 127q0 138 99 211t273 73q175 0 298 -110v45q0 35 16 50t59 15t59 -15t16 -50v-190q0 -35 -16 -50t-55 -15q-38 0 -52 26q-64 120 -224 142q-51 7 -129 7t-132 -34t-54 -97q0 -86 179 -106q56 -6 170 -18t171 -33q100 -37 144 -91
t44 -133q0 -148 -102 -230q-102 -81 -300 -81t-319 121v-56q-1 -35 -17 -50t-58 -15t-58 15t-17 50v240z" />
    <glyph glyph-name="Scedilla" unicode="&#x15e;" 
d="M734 -285q0 79 -145 68q-28 0 -34 14t-6 28v162q-145 26 -241 134v-78q0 -35 -16.5 -50t-58.5 -15t-58.5 15t-16.5 50v300q0 35 17 50t59 15t57 -42q85 -240 351 -240q193 0 229 78.5t36 133.5q0 138 -140.5 169.5t-250.5 53.5t-163 46q-184 82 -184 255q0 165 107.5 256
t281.5 91q91 0 172 -34.5t138 -91.5v61q0 35 16.5 50t58.5 15t58.5 -15t16.5 -50v-230q0 -35 -16.5 -50t-56.5 -15t-54 26q-98 186 -334 186q-111 0 -170.5 -52t-59.5 -136q0 -110 114 -135.5t227 -47.5t171 -45q113 -45 169.5 -119t56.5 -211q0 -136 -99 -231t-282 -105
v-92q149 3 177.5 -65t28.5 -106q0 -83 -63.5 -135.5t-196.5 -52.5q-132 0 -236 48q-36 16 -15 68t69 34q77 -30 181 -30q105 0 105 67z" />
    <glyph glyph-name="scedilla" unicode="&#x15f;" 
d="M179 283q0 65 65 65q32 0 44 -10t20 -31q70 -184 334 -184q130 0 190 42.5t60 111.5q0 91 -122.5 106t-235.5 27.5t-171 34.5q-96 37 -137.5 89.5t-41.5 127.5q0 138 99 211t273 73q175 0 298 -110v45q0 35 16.5 50t58.5 15t58.5 -15t16.5 -50v-190q0 -35 -16.5 -50
t-54.5 -15t-52 26q-64 120 -169.5 134.5t-183.5 14.5t-132 -34t-54 -97q0 -85 117.5 -98.5t231.5 -25.5t171 -33q100 -37 144 -91.5t44 -131.5q0 -142 -93 -222.5t-263 -88.5v-92q149 3 177.5 -65t28.5 -106q0 -83 -63.5 -135.5t-196.5 -52.5q-132 0 -236 48q-36 16 -15 68
t69 34q77 -30 181 -30q105 0 105 67q0 79 -145 68q-28 0 -34 14t-6 28v161q-140 21 -230 113v-56q0 -35 -16.5 -50t-58.5 -15t-58.5 15t-16.5 50v240z" />
    <glyph glyph-name="Scaron" unicode="&#x160;" 
d="M308 43q0 -35 -16 -50t-59 -15t-59 15t-16 50v300q0 35 16 50t60 15q42 0 57 -42q85 -240 351 -240q193 0 248 120q17 37 17 92q0 138 -225 188q-56 12 -166 35q-110 22 -163 46q-184 82 -184 255q0 165 108 256t281 91q91 -1 172 -35t138 -91v61q0 35 16 50t59 15
t59 -15t16 -50v-230q0 -35 -16 -50t-57 -15q-40 0 -54 26q-98 186 -334 186q-111 0 -171 -52t-59 -136q1 -110 175 -149q54 -12 166 -34q113 -22 171 -45q113 -45 170 -119q56 -74 56 -199q0 -159 -111 -254t-315 -95t-331 143v-78zM588 1307q-32 0 -54 18l-277 232
q-16 14 -16 32t10 34q25 41 59 21l279 -159l279 159q34 20 59 -21q10 -16 10 -34t-16 -32l-277 -232q-24 -18 -56 -18z" />
    <glyph glyph-name="scaron" unicode="&#x161;" 
d="M179 283q0 65 65 65q32 0 44 -10t20 -31q70 -184 334 -184q130 1 190 43t60 111q0 91 -187 114q-58 7 -171 19t-171 35q-96 37 -138 90q-41 52 -41 127q0 138 99 211t273 73q175 0 298 -110v45q0 35 16 50t59 15t59 -15t16 -50v-190q0 -35 -16 -50t-55 -15q-38 0 -52 26
q-64 120 -224 142q-51 7 -129 7t-132 -34t-54 -97q0 -86 179 -106q56 -6 170 -18t171 -33q100 -37 144 -91t44 -133q0 -148 -102 -230q-102 -81 -300 -81t-319 121v-56q-1 -35 -17 -50t-58 -15t-58 15t-17 50v240zM606 1047q-32 0 -54 18l-277 232q-16 14 -16 32t10 34
q25 41 59 21l279 -159l279 159q34 20 59 -21q10 -16 10 -34t-16 -32l-277 -232q-24 -18 -56 -18z" />
    <glyph glyph-name="Tcommaaccent" unicode="&#x162;" 
d="M539 1051h-267v-309q0 -35 -16 -50t-59 -15t-59 15t-16 50v377q0 38 14 53t49 15h858q35 0 49 -15t14 -53v-377q0 -35 -16 -50t-59 -15t-59 15t-16 50v309h-267v-915h236q35 0 49 -15t14 -53t-14 -53t-49 -15h-622q-35 0 -49 15t-14 53t14 53t49 15h236v915zM554 -146
h142q20 0 26 -15t-4 -36l-154 -291q-20 -37 -56 -37q-68 0 -58 56l62 291q6 32 42 32z" />
    <glyph glyph-name="tcommaaccent" unicode="&#x163;" 
d="M614 -146h142q20 0 26 -15t-4 -36l-154 -291q-20 -37 -56 -37q-68 0 -58 56l62 291q6 32 42 32zM383 844v300q1 35 17 50t58 15t58 -15t17 -50v-300h411q34 0 48 -15t15 -53q-1 -38 -15 -53t-48 -15h-411v-364q0 -170 93 -206q34 -14 94 -14q122 0 274 99q52 34 87 -32
t-18 -101q-177 -112 -353 -112q-252 0 -308 201q-18 66 -19 152v377h-203q-34 0 -48 15t-15 53q1 38 15 53t48 15h203z" />
    <glyph glyph-name="Tcaron" unicode="&#x164;" 
d="M539 1051h-267v-309q0 -35 -16 -50t-59 -15t-59 15t-16 50v377q0 38 14 53t49 15h858q35 0 49 -15t14 -53v-377q0 -35 -16 -50t-59 -15t-59 15t-16 50v309h-267v-915h236q35 0 49 -15t14 -53t-14 -53t-49 -15h-622q-35 0 -49 15t-14 53t14 53t49 15h236v915zM614 1297
q-32 0 -55 18l-277 232q-16 14 -16 32t10 34q25 41 59 21l279 -159l279 159q34 20 59 -21q10 -16 10 -34t-16 -32l-277 -232q-23 -18 -55 -18z" />
    <glyph glyph-name="tcaron" unicode="&#x165;" 
d="M383 844v300q1 35 17 50t58 15t58 -15t17 -50v-300h411q34 0 48 -15t15 -53q-1 -38 -15 -53t-48 -15h-411v-364q0 -170 93 -206q34 -14 94 -14q122 0 274 99q52 34 87 -32t-18 -101q-177 -112 -353 -112q-252 0 -308 201q-18 66 -19 152v377h-203q-34 0 -48 15t-15 53
q1 38 15 53t48 15h203zM844 1400h142q20 0 26 -15t-4 -36l-154 -291q-20 -37 -56 -37q-68 0 -58 56l62 291q6 32 42 32z" />
    <glyph glyph-name="Tbar" unicode="&#x166;" 
d="M539 586v465h-267v-309q0 -35 -16.5 -50t-58.5 -15t-58.5 15t-16.5 50v377q0 38 14.5 53t48.5 15h858q34 0 48.5 -15t14.5 -53v-377q0 -35 -16.5 -50t-58.5 -15t-58.5 15t-16.5 50v309h-267v-465h206q34 0 48.5 -15t14.5 -53t-14.5 -53t-48.5 -15h-206v-314h236
q34 0 48.5 -15t14.5 -53t-14.5 -53t-48.5 -15h-622q-34 0 -48.5 15t-14.5 53t14.5 53t48.5 15h236v314h-206q-34 0 -48.5 15t-14.5 53t14.5 53t48.5 15h206z" />
    <glyph glyph-name="tbar" unicode="&#x167;" 
d="M383 576v132h-203q-34 0 -48.5 15t-14.5 53t14.5 53t48.5 15h203v300q0 35 16.5 50t58.5 15t58.5 -15t16.5 -50v-300h411q34 0 48.5 -15t14.5 -53t-14.5 -53t-48.5 -15h-411v-132h272q34 0 48.5 -15t14.5 -53t-14.5 -53t-48.5 -15h-272v-96q0 -170 63.5 -195t123.5 -25
q122 0 274 99q52 34 87 -32.5t-18 -100.5q-177 -112 -353 -112q-252 0 -289.5 133.5t-37.5 219.5v109h-140q-34 0 -48.5 15t-14.5 53t14.5 53t48.5 15h140z" />
    <glyph glyph-name="Utilde" unicode="&#x168;" 
d="M481 1557q51 1 112 -21q119 -42 172 -42t123 42q35 21 62 -26q27 -46 -6 -73q-109 -91 -200 -91q-48 0 -109 22q-119 42 -172 41q-53 0 -123 -42q-35 -21 -62 26q-27 46 6 73q109 91 197 91zM133 1051q-35 0 -49 15t-14 53t14 53t49 15h324q35 0 49 -15t14 -53t-14 -53
t-49 -15h-112v-638q1 -225 151 -271q50 -16 118 -16q139 0 204 67t65 220v638h-112q-35 0 -49 15t-14 53t14 53t49 15h324q35 0 49 -15t14 -53t-14 -53t-49 -15h-62v-658q0 -312 -244 -390q-77 -25 -175 -25q-200 0 -310 103q-109 103 -109 312v658h-62z" />
    <glyph glyph-name="utilde" unicode="&#x169;" 
d="M217 304v484h-82q-35 0 -49 15t-14 53t14 53t49 15h169q34 0 48 -15t15 -53v-537q1 -137 91 -179q30 -14 82 -14t111 28q58 28 102 78q96 109 96 270v286h-142q-35 0 -49 15t-14 53t14 53t49 15h229q34 0 48 -15t15 -53v-720h82q35 0 49 -15t14 -53t-14 -53t-49 -15h-159
q-34 0 -48 14t-15 53v121q-135 -210 -345 -210q-137 0 -217 87q-80 88 -80 239zM453 1297q51 1 112 -21q119 -42 172 -42t123 42q35 21 62 -26q27 -46 -6 -73q-109 -91 -200 -91q-48 0 -109 22q-119 42 -172 41q-53 0 -123 -42q-35 -21 -62 26q-27 46 6 73q109 91 197 91z
" />
    <glyph glyph-name="Umacron" unicode="&#x16a;" 
d="M895 1516q35 0 49 -15t14 -53t-14 -53t-49 -15h-562q-35 0 -49 15t-14 53t14 53t49 15h562zM133 1051q-35 0 -49 15t-14 53t14 53t49 15h324q35 0 49 -15t14 -53t-14 -53t-49 -15h-112v-638q1 -225 151 -271q50 -16 118 -16q139 0 204 67t65 220v638h-112q-35 0 -49 15
t-14 53t14 53t49 15h324q35 0 49 -15t14 -53t-14 -53t-49 -15h-62v-658q0 -312 -244 -390q-77 -25 -175 -25q-200 0 -310 103q-109 103 -109 312v658h-62z" />
    <glyph glyph-name="umacron" unicode="&#x16b;" 
d="M895 1246q35 0 49 -15t14 -53t-14 -53t-49 -15h-562q-35 0 -49 15t-14 53t14 53t49 15h562zM217 304v484h-82q-35 0 -49 15t-14 53t14 53t49 15h169q34 0 48 -15t15 -53v-537q1 -137 91 -179q30 -14 82 -14t111 28q58 28 102 78q96 109 96 270v286h-142q-35 0 -49 15
t-14 53t14 53t49 15h229q34 0 48 -15t15 -53v-720h82q35 0 49 -15t14 -53t-14 -53t-49 -15h-159q-34 0 -48 14t-15 53v121q-135 -210 -345 -210q-137 0 -217 87q-80 88 -80 239z" />
    <glyph glyph-name="Ubreve" unicode="&#x16c;" 
d="M133 1051q-35 0 -49 15t-14 53t14 53t49 15h324q35 0 49 -15t14 -53t-14 -53t-49 -15h-112v-638q1 -225 151 -271q50 -16 118 -16q139 0 204 67t65 220v638h-112q-35 0 -49 15t-14 53t14 53t49 15h324q35 0 49 -15t14 -53t-14 -53t-49 -15h-62v-658q0 -312 -244 -390
q-77 -25 -175 -25q-200 0 -310 103q-109 103 -109 312v658h-62zM614 1485q102 -1 168 27t101 96q9 20 31 20q37 0 59 -18q23 -18 18 -42q-37 -162 -235 -211q-64 -16 -142 -16q-154 0 -253 61t-124 166q-6 25 12 38q29 22 58 22t38 -20q35 -68 101 -96t168 -27z" />
    <glyph glyph-name="ubreve" unicode="&#x16d;" 
d="M217 304v484h-82q-35 0 -49 15t-14 53t14 53t49 15h169q34 0 48 -15t15 -53v-537q1 -137 91 -179q30 -14 82 -14t111 28q58 28 102 78q96 109 96 270v286h-142q-35 0 -49 15t-14 53t14 53t49 15h229q34 0 48 -15t15 -53v-720h82q35 0 49 -15t14 -53t-14 -53t-49 -15h-159
q-34 0 -48 14t-15 53v121q-135 -210 -345 -210q-137 0 -217 87q-80 88 -80 239zM594 1215q102 -1 168 27t101 96q9 20 31 20q37 0 59 -18q23 -18 18 -42q-37 -162 -235 -211q-64 -16 -142 -16q-154 0 -253 61t-124 166q-6 25 12 38q29 22 58 22t38 -20q35 -68 101 -96
t168 -27z" />
    <glyph glyph-name="Uring" unicode="&#x16e;" 
d="M133 1051q-35 0 -49 15t-14 53t14 53t49 15h324q35 0 49 -15t14 -53t-14 -53t-49 -15h-112v-638q1 -225 151 -271q50 -16 118 -16q139 0 204 67t65 220v638h-112q-35 0 -49 15t-14 53t14 53t49 15h324q35 0 49 -15t14 -53t-14 -53t-49 -15h-62v-658q0 -312 -244 -390
q-77 -25 -175 -25q-200 0 -310 103q-109 103 -109 312v658h-62zM491 1551q0 -26 10 -49t27 -40t40 -27t49 -10t49 10t40 27t27 40t10 49t-10 49t-27 40t-40 27t-49 10t-49 -10t-40 -27t-27 -40t-10 -49zM371 1551q-1 51 19 96t53 78t78 53t96 19q51 1 96 -19t78 -53t53 -78
t19 -96q1 -51 -19 -96t-53 -78t-78 -53t-96 -19q-51 -1 -96 19t-78 53t-53 78t-19 96z" />
    <glyph glyph-name="uring" unicode="&#x16f;" 
d="M217 304v484h-82q-35 0 -49 15t-14 53t14 53t49 15h169q34 0 48 -15t15 -53v-537q1 -137 91 -179q30 -14 82 -14t111 28q58 28 102 78q96 109 96 270v286h-142q-35 0 -49 15t-14 53t14 53t49 15h229q34 0 48 -15t15 -53v-720h82q35 0 49 -15t14 -53t-14 -53t-49 -15h-159
q-34 0 -48 14t-15 53v121q-135 -210 -345 -210q-137 0 -217 87q-80 88 -80 239zM461 1311q0 -26 10 -49t27 -40t40 -27t49 -10t49 10t40 27t27 40t10 49t-10 49t-27 40t-40 27t-49 10t-49 -10t-40 -27t-27 -40t-10 -49zM341 1311q-1 51 19 96t53 78t78 53t96 19q51 1 96 -19
t78 -53t53 -78t19 -96q1 -51 -19 -96t-53 -78t-78 -53t-96 -19q-51 -1 -96 19t-78 53t-53 78t-19 96z" />
    <glyph glyph-name="Uhungarumlaut" unicode="&#x170;" 
d="M133 1051q-35 0 -49 15t-14 53t14 53t49 15h324q35 0 49 -15t14 -53t-14 -53t-49 -15h-112v-638q1 -225 151 -271q50 -16 118 -16q139 0 204 67t65 220v638h-112q-35 0 -49 15t-14 53t14 53t49 15h324q35 0 49 -15t14 -53t-14 -53t-49 -15h-62v-658q0 -312 -244 -390
q-77 -25 -175 -25q-200 0 -310 103q-109 103 -109 312v658h-62zM352 1336q-20 14 -20 32t13 32l233 225q28 28 54 28q44 0 78 -24q35 -24 35 -50q0 -27 -22 -42l-288 -201q-18 -13 -40 -13q-23 -1 -43 13zM702 1336q-20 14 -20 32t13 32l233 225q28 28 54 28q44 0 78 -24
q35 -24 35 -50q0 -27 -22 -42l-288 -201q-18 -13 -40 -13q-23 -1 -43 13z" />
    <glyph glyph-name="uhungarumlaut" unicode="&#x171;" 
d="M217 304v484h-82q-35 0 -49 15t-14 53t14 53t49 15h169q34 0 48 -15t15 -53v-537q1 -137 91 -179q30 -14 82 -14t111 28q58 28 102 78q96 109 96 270v286h-142q-35 0 -49 15t-14 53t14 53t49 15h229q34 0 48 -15t15 -53v-720h82q35 0 49 -15t14 -53t-14 -53t-49 -15h-159
q-34 0 -48 14t-15 53v121q-135 -210 -345 -210q-137 0 -217 87q-80 88 -80 239zM312 1066q-20 14 -20 32t13 32l233 225q28 28 54 28q44 0 78 -24q35 -24 35 -50q0 -27 -22 -42l-288 -201q-18 -13 -40 -13q-23 -1 -43 13zM662 1066q-20 14 -20 32t13 32l233 225q28 28 54 28
q44 0 78 -24q35 -24 35 -50q0 -27 -22 -42l-288 -201q-18 -13 -40 -13q-23 -1 -43 13z" />
    <glyph glyph-name="Uogonek" unicode="&#x172;" 
d="M491 -281q0 128 140 259h-17q-304 0 -361.5 154t-57.5 261v658h-62q-34 0 -48.5 15t-14.5 53t14.5 53t48.5 15h324q34 0 48.5 -15t14.5 -53t-14.5 -53t-48.5 -15h-112v-638q0 -225 100.5 -256t204 -31t168.5 67t65 220v638h-112q-34 0 -48.5 15t-14.5 53t14.5 53t48.5 15
h324q34 0 48.5 -15t14.5 -53t-14.5 -53t-48.5 -15h-62v-658q0 -277 -196 -371q-190 -171 -190 -265q0 -93 77 -93q61 0 97 6t49.5 -5t17.5 -41q8 -56 -30 -69q-78 -27 -169 -27q-92 0 -145 51.5t-53 139.5z" />
    <glyph glyph-name="uogonek" unicode="&#x173;" 
d="M217 304v484h-82q-34 0 -48.5 15t-14.5 53t14.5 53t48.5 15h169q34 0 48.5 -15t14.5 -53v-537q0 -137 60.5 -165t112.5 -28t110.5 28t128.5 107.5t70 240.5v286h-142q-34 0 -48.5 15t-14.5 53t14.5 53t48.5 15h229q34 0 48.5 -15t14.5 -53v-720h82q34 0 48.5 -15
t14.5 -53t-14.5 -53t-48.5 -15h-14q-166 -155 -166 -261q0 -37 21.5 -56t69.5 -19t83 6q36 6 49.5 -5t17.5 -41q8 -56 -30 -69q-78 -27 -169 -27q-92 0 -145 51.5t-53 139.5q0 138 165 281q-51 4 -51 67v121q-135 -210 -345 -210q-137 0 -217 87.5t-80 238.5z" />
    <glyph glyph-name="Wcircumflex" unicode="&#x174;" 
d="M53 1051q-35 0 -49 15t-14 53t14 53t49 15h344q35 0 49 -15t14 -53t-14 -53t-49 -15h-146l100 -801l188 588q14 47 74 47q59 0 71 -40l187 -595l104 801h-124q-35 0 -49 15t-14 53t14 53t49 15h324q35 0 49 -15t14 -53t-14 -53t-49 -15h-54l-138 -1008q-5 -37 -27 -51
t-59 -14q-82 0 -102 65l-185 581l-187 -581q-20 -65 -104 -65q-39 0 -59 14t-25 51l-133 1008h-49zM266 1364q0 18 16 32l277 232q23 18 55 18t55 -18l277 -232q16 -14 16 -32t-10 -34q-25 -41 -59 -21l-279 159l-279 -159q-34 -20 -59 21q-10 16 -10 34z" />
    <glyph glyph-name="wcircumflex" unicode="&#x175;" 
d="M53 788q-35 0 -49 15t-14 53t14 53t49 15h294q35 0 49 -15t14 -53t-14 -53t-49 -15h-123l144 -582l167 464q16 47 78 47q61 0 75 -40l166 -471l148 582h-101q-35 0 -49 15t-14 53t14 53t49 15h274q35 0 49 -15t14 -53t-14 -53t-49 -15h-24l-197 -745q-10 -37 -30 -51
t-60 -14q-79 0 -101 65l-153 434l-155 -434q-22 -65 -106 -65q-38 0 -57 15t-28 50l-193 745h-18zM266 1094q0 18 16 32l277 232q23 18 55 18t55 -18l277 -232q16 -14 16 -32t-10 -34q-25 -41 -59 -21l-279 159l-279 -159q-34 -20 -59 21q-10 16 -10 34z" />
    <glyph glyph-name="Ycircumflex" unicode="&#x176;" 
d="M123 1051q-35 0 -49 15t-14 53t14 53t49 15h334q35 0 49 -15t14 -53t-14 -53t-49 -15h-93l250 -409l252 409h-65q-35 0 -49 15t-14 53t14 53t49 15h304q35 0 49 -15t14 -53t-14 -53t-49 -15h-68l-348 -559v-356h226q35 0 49 -15t14 -53t-14 -53t-49 -15h-602
q-35 0 -49 15t-14 53t14 53t49 15h226v356l-346 559h-70zM276 1364q0 18 16 32l277 232q23 18 55 18t55 -18l277 -232q16 -14 16 -32t-10 -34q-25 -41 -59 -21l-279 159l-279 -159q-34 -20 -59 21q-10 16 -10 34z" />
    <glyph glyph-name="ycircumflex" unicode="&#x177;" 
d="M1115 924q35 0 49 -15t14 -53t-14 -53t-49 -15h-62l-409 -838q-98 -200 -195 -279q-98 -79 -260 -85q-65 -2 -72 72t52 79q138 8 205 68t168 265l-366 718h-63q-35 0 -49 15t-14 53t14 53t49 15h354q35 0 49 -15t14 -53t-14 -53t-49 -15h-128l282 -562l269 562h-89
q-35 0 -49 15t-14 53t14 53t49 15h314zM282 1094q0 18 16 32l277 232q23 18 55 18t55 -18l277 -232q16 -14 16 -32t-10 -34q-25 -41 -59 -21l-279 159l-279 -159q-34 -20 -59 21q-10 16 -10 34z" />
    <glyph glyph-name="Ydieresis" unicode="&#x178;" 
d="M123 1051q-35 0 -49 15t-14 53t14 53t49 15h334q35 0 49 -15t14 -53t-14 -53t-49 -15h-93l250 -409l252 409h-65q-35 0 -49 15t-14 53t14 53t49 15h304q35 0 49 -15t14 -53t-14 -53t-49 -15h-68l-348 -559v-356h226q35 0 49 -15t14 -53t-14 -53t-49 -15h-602
q-35 0 -49 15t-14 53t14 53t49 15h226v356l-346 559h-70zM709 1465q0 27 10 49t27 39q18 17 40 27t48 10t48 -10t40 -27q17 -17 27 -39t10 -49t-10 -49t-27 -39q-18 -17 -40 -27t-48 -10t-48 10t-40 27q-17 17 -27 39t-10 49zM269 1465q0 27 10 49t27 39q18 17 40 27t48 10
t48 -10t40 -27q17 -17 27 -39t10 -49t-10 -49t-27 -39q-18 -17 -40 -27t-48 -10t-48 10t-40 27q-17 17 -27 39t-10 49z" />
    <glyph glyph-name="Zacute" unicode="&#x179;" 
d="M987 1187q63 1 63 -61q0 -32 -10 -46l-663 -944h532v269q1 35 17 50t58 15t58 -15t17 -50v-337q-1 -38 -15 -53t-48 -15h-766q-63 0 -63 56q0 34 14 55l659 940h-502v-249q0 -35 -16 -50t-59 -15t-59 15t-16 50v317q0 38 14 53t49 15h736zM835 1633q29 16 50 7t44 -49
q59 -104 7 -119l-481 -163q-37 -12 -54 31q-17 42 18 63z" />
    <glyph glyph-name="zacute" unicode="&#x17a;" 
d="M900 136v172q0 35 16 50t59 15t59 -15t16 -50v-240q0 -38 -14 -53t-49 -15h-746q-35 0 -49 15t-14 49t14 49l611 675h-455v-149q0 -35 -16 -50t-59 -15t-59 15t-16 50v217q0 38 14 53t49 15h716q35 0 49 -15t14 -49t-15 -50l-610 -674h485zM825 1363q29 16 50 7t44 -49
q59 -104 7 -119l-481 -163q-37 -12 -54 31q-17 42 18 63z" />
    <glyph glyph-name="Zdotaccent" unicode="&#x17b;" 
d="M473 1490q0 29 11 55t30 45t45 30t55 11t55 -11t45 -30t30 -45t11 -55t-11 -55t-30 -45t-45 -30t-55 -11t-55 11t-45 30t-30 45t-11 55zM987 1187q63 1 63 -61q0 -32 -10 -46l-663 -944h532v269q1 35 17 50t58 15t58 -15t17 -50v-337q-1 -38 -15 -53t-48 -15h-766
q-63 0 -63 56q0 34 14 55l659 940h-502v-249q0 -35 -16 -50t-59 -15t-59 15t-16 50v317q0 38 14 53t49 15h736z" />
    <glyph glyph-name="zdotaccent" unicode="&#x17c;" 
d="M900 136v172q0 35 16 50t59 15t59 -15t16 -50v-240q0 -38 -14 -53t-49 -15h-746q-35 0 -49 15t-14 49t14 49l611 675h-455v-149q0 -35 -16 -50t-59 -15t-59 15t-16 50v217q0 38 14 53t49 15h716q35 0 49 -15t14 -49t-15 -50l-610 -674h485zM483 1220q0 29 11 55t30 45
t45 30t55 11t55 -11t45 -30t30 -45t11 -55t-11 -55t-30 -45t-45 -30t-55 -11t-55 11t-45 30t-30 45t-11 55z" />
    <glyph glyph-name="Zcaron" unicode="&#x17d;" 
d="M987 1187q63 1 63 -61q0 -32 -10 -46l-663 -944h532v269q1 35 17 50t58 15t58 -15t17 -50v-337q-1 -38 -15 -53t-48 -15h-766q-63 0 -63 56q0 34 14 55l659 940h-502v-249q0 -35 -16 -50t-59 -15t-59 15t-16 50v317q0 38 14 53t49 15h736zM622 1297q-32 0 -55 18
l-277 232q-16 14 -16 32t10 34q25 41 59 21l279 -159l279 159q34 20 59 -21q10 -16 10 -34t-16 -32l-277 -232q-23 -18 -55 -18z" />
    <glyph glyph-name="zcaron" unicode="&#x17e;" 
d="M900 136v172q0 35 16 50t59 15t59 -15t16 -50v-240q0 -38 -14 -53t-49 -15h-746q-35 0 -49 15t-14 49t14 49l611 675h-455v-149q0 -35 -16 -50t-59 -15t-59 15t-16 50v217q0 38 14 53t49 15h716q35 0 49 -15t14 -49t-15 -50l-610 -674h485zM624 1037q-32 0 -55 18
l-277 232q-16 14 -16 32t10 34q25 41 59 21l279 -159l279 159q34 20 59 -21q10 -16 10 -34t-16 -32l-277 -232q-23 -18 -55 -18z" />
    <glyph glyph-name="florin" unicode="&#x192;" 
d="M892 1171q-82 0 -125 -45t-53 -142l-14 -140h234q34 0 48.5 -15t14.5 -53t-14.5 -53t-48.5 -15h-248l-67 -667q-16 -155 -103.5 -237.5t-216.5 -82.5t-225 31q-54 17 -35 89q19 73 73 57q99 -31 181 -31t125 45t53 142l66 654h-197q-34 0 -48.5 15t-14.5 53t14.5 53
t48.5 15h210l16 153q16 155 103.5 237.5t216.5 82.5t225 -31q54 -17 35 -89q-19 -73 -73 -57q-99 31 -181 31z" />
    <glyph glyph-name="Scommaaccent" unicode="&#x218;" 
d="M308 43q0 -35 -16 -50t-59 -15t-59 15t-16 50v300q0 35 16 50t60 15q42 0 57 -42q85 -240 351 -240q193 0 248 120q17 37 17 92q0 138 -225 188q-56 12 -166 35q-110 22 -163 46q-184 82 -184 255q0 165 108 256t281 91q91 -1 172 -35t138 -91v61q0 35 16 50t59 15
t59 -15t16 -50v-230q0 -35 -16 -50t-57 -15q-40 0 -54 26q-98 186 -334 186q-111 0 -171 -52t-59 -136q1 -110 175 -149q54 -12 166 -34q113 -22 171 -45q113 -45 170 -119q56 -74 56 -199q0 -159 -111 -254t-315 -95t-331 143v-78zM564 -146h142q20 0 26 -15t-4 -36
l-154 -291q-20 -37 -56 -37q-68 0 -58 56l62 291q6 32 42 32z" />
    <glyph glyph-name="scommaaccent" unicode="&#x219;" 
d="M564 -146h142q20 0 26 -15t-4 -36l-154 -291q-20 -37 -56 -37q-68 0 -58 56l62 291q6 32 42 32zM179 283q0 65 65 65q32 0 44 -10t20 -31q70 -184 334 -184q130 1 190 43t60 111q0 91 -187 114q-58 7 -171 19t-171 35q-96 37 -138 90q-41 52 -41 127q0 138 99 211t273 73
q175 0 298 -110v45q0 35 16 50t59 15t59 -15t16 -50v-190q0 -35 -16 -50t-55 -15q-38 0 -52 26q-64 120 -224 142q-51 7 -129 7t-132 -34t-54 -97q0 -86 179 -106q56 -6 170 -18t171 -33q100 -37 144 -91t44 -133q0 -148 -102 -230q-102 -81 -300 -81t-319 121v-56
q-1 -35 -17 -50t-58 -15t-58 15t-17 50v240z" />
    <glyph glyph-name="dotlessj" unicode="&#x237;" 
d="M753 788h-423q-34 0 -48.5 15t-14.5 53t14.5 53t48.5 15h510q34 0 48.5 -15t14.5 -53v-918q0 -264 -120 -308.5t-185 -44.5q-202 0 -375 112q-53 34 -18 100.5t94 27.5q145 -94 282 -94t154.5 82.5t17.5 137.5v837z" />
    <glyph glyph-name="circumflex" unicode="&#x2c6;" 
d="M266 1094q0 18 16 32l277 232q23 18 55 18t55 -18l277 -232q16 -14 16 -32t-17.5 -46.5t-51.5 -8.5l-279 159l-279 -159q-34 -20 -51.5 8.5t-17.5 46.5z" />
    <glyph glyph-name="caron" unicode="&#x2c7;" 
d="M614 1037q-32 0 -55 18l-277 232q-16 14 -16 32t17.5 46.5t51.5 8.5l279 -159l279 159q34 20 51.5 -8.5t17.5 -46.5t-16 -32l-277 -232q-23 -18 -55 -18z" />
    <glyph glyph-name="breve" unicode="&#x2d8;" 
d="M614 1215q103 0 168.5 27.5t100.5 95.5q9 20 38 20t52.5 -17.5t17.5 -42.5q-37 -162 -168 -194.5t-247 -32.5t-215.5 61t-123.5 166q-6 25 17.5 42.5t52.5 17.5t38 -20q35 -68 100.5 -95.5t168.5 -27.5z" />
    <glyph glyph-name="dotaccent" unicode="&#x2d9;" 
d="M473 1220q0 29 11 55t30 45t45 30t55 11t55 -11t45 -30t30 -45t11 -55t-11 -55t-30 -45t-45 -30t-55 -11t-55 11t-45 30t-30 45t-11 55z" />
    <glyph glyph-name="ring" unicode="&#x2da;" 
d="M491 1311q0 -26 10 -49t27 -40t40 -27t49 -10t49 10t40 27t27 40t10 49t-10 49t-27 40t-40 27t-49 10t-49 -10t-40 -27t-27 -40t-10 -49zM371 1311q0 51 19.5 96t52.5 78t78 52.5t96 19.5t96 -19.5t78 -52.5t52.5 -78t19.5 -96t-19.5 -96t-52.5 -78t-78 -52.5t-96 -19.5
t-96 19.5t-78 52.5t-52.5 78t-19.5 96z" />
    <glyph glyph-name="ogonek" unicode="&#x2db;" 
d="M764 28q-197 -175 -197 -269q0 -95 77 -95q61 0 97 6t49.5 -5t17.5 -41q8 -56 -30 -69q-78 -27 -169 -27q-92 0 -145 51.5t-53 139.5q0 151 198 309h155z" />
    <glyph glyph-name="tilde" unicode="&#x2dc;" 
d="M481 1297q51 0 141 -31.5t143 -31.5t123 42q35 21 62.5 -25.5t-6.5 -73.5q-109 -91 -200 -91q-48 0 -138 31.5t-143 31.5t-123 -42q-35 -21 -62.5 25.5t6.5 73.5q109 91 197 91z" />
    <glyph glyph-name="hungarumlaut" unicode="&#x2dd;" 
d="M352 1066.5q-20 13.5 -20 31.5t13 32l233 225q28 28 54 28q44 0 78.5 -23.5t34.5 -50.5t-22 -42l-288 -201q-18 -13 -40 -13q-23 0 -43 13.5zM702 1066.5q-20 13.5 -20 31.5t13 32l233 225q28 28 54 28q44 0 78.5 -23.5t34.5 -50.5t-22 -42l-288 -201q-18 -13 -40 -13
q-23 0 -43 13.5z" />
    <glyph glyph-name="Wgrave" unicode="&#x1e80;" 
d="M53 1051q-35 0 -49 15t-14 53t14 53t49 15h344q35 0 49 -15t14 -53t-14 -53t-49 -15h-146l100 -801l188 588q14 47 74 47q59 0 71 -40l187 -595l104 801h-124q-35 0 -49 15t-14 53t14 53t49 15h324q35 0 49 -15t14 -53t-14 -53t-49 -15h-54l-138 -1008q-5 -37 -27 -51
t-59 -14q-82 0 -102 65l-185 581l-187 -581q-20 -65 -104 -65q-39 0 -59 14t-25 51l-133 1008h-49zM819 1403q36 -21 18 -63q-17 -42 -54 -31l-481 163q-51 15 0 107q29 52 51 61q21 9 50 -7z" />
    <glyph glyph-name="wgrave" unicode="&#x1e81;" 
d="M53 788q-35 0 -49 15t-14 53t14 53t49 15h294q35 0 49 -15t14 -53t-14 -53t-49 -15h-123l144 -582l167 464q16 47 78 47q61 0 75 -40l166 -471l148 582h-101q-35 0 -49 15t-14 53t14 53t49 15h274q35 0 49 -15t14 -53t-14 -53t-49 -15h-24l-197 -745q-10 -37 -30 -51
t-60 -14q-79 0 -101 65l-153 434l-155 -434q-22 -65 -106 -65q-38 0 -57 15t-28 50l-193 745h-18zM797 1133q36 -21 18 -63q-17 -42 -54 -31l-481 163q-51 15 0 107q29 52 51 61q21 9 50 -7z" />
    <glyph glyph-name="Wacute" unicode="&#x1e82;" 
d="M53 1051q-35 0 -49 15t-14 53t14 53t49 15h344q35 0 49 -15t14 -53t-14 -53t-49 -15h-146l100 -801l188 588q14 47 74 47q59 0 71 -40l187 -595l104 801h-124q-35 0 -49 15t-14 53t14 53t49 15h324q35 0 49 -15t14 -53t-14 -53t-49 -15h-54l-138 -1008q-5 -37 -27 -51
t-59 -14q-82 0 -102 65l-185 581l-187 -581q-20 -65 -104 -65q-39 0 -59 14t-25 51l-133 1008h-49zM855 1633q29 16 50 7t44 -49q59 -104 7 -119l-481 -163q-37 -12 -54 31q-17 42 18 63z" />
    <glyph glyph-name="wacute" unicode="&#x1e83;" 
d="M53 788q-35 0 -49 15t-14 53t14 53t49 15h294q35 0 49 -15t14 -53t-14 -53t-49 -15h-123l144 -582l167 464q16 47 78 47q61 0 75 -40l166 -471l148 582h-101q-35 0 -49 15t-14 53t14 53t49 15h274q35 0 49 -15t14 -53t-14 -53t-49 -15h-24l-197 -745q-10 -37 -30 -51
t-60 -14q-79 0 -101 65l-153 434l-155 -434q-22 -65 -106 -65q-38 0 -57 15t-28 50l-193 745h-18zM857 1363q29 16 50 7t44 -49q59 -104 7 -119l-481 -163q-37 -12 -54 31q-17 42 18 63z" />
    <glyph glyph-name="Wdieresis" unicode="&#x1e84;" 
d="M53 1051q-35 0 -49 15t-14 53t14 53t49 15h344q35 0 49 -15t14 -53t-14 -53t-49 -15h-146l100 -801l188 588q14 47 74 47q59 0 71 -40l187 -595l104 801h-124q-35 0 -49 15t-14 53t14 53t49 15h324q35 0 49 -15t14 -53t-14 -53t-49 -15h-54l-138 -1008q-5 -37 -27 -51
t-59 -14q-82 0 -102 65l-185 581l-187 -581q-20 -65 -104 -65q-39 0 -59 14t-25 51l-133 1008h-49zM709 1465q0 27 10 49t27 39q18 17 40 27t48 10t48 -10t40 -27q17 -17 27 -39t10 -49t-10 -49t-27 -39q-18 -17 -40 -27t-48 -10t-48 10t-40 27q-17 17 -27 39t-10 49z
M269 1465q0 27 10 49t27 39q18 17 40 27t48 10t48 -10t40 -27q17 -17 27 -39t10 -49t-10 -49t-27 -39q-18 -17 -40 -27t-48 -10t-48 10t-40 27q-17 17 -27 39t-10 49z" />
    <glyph glyph-name="wdieresis" unicode="&#x1e85;" 
d="M53 788q-35 0 -49 15t-14 53t14 53t49 15h294q35 0 49 -15t14 -53t-14 -53t-49 -15h-123l144 -582l167 464q16 47 78 47q61 0 75 -40l166 -471l148 582h-101q-35 0 -49 15t-14 53t14 53t49 15h274q35 0 49 -15t14 -53t-14 -53t-49 -15h-24l-197 -745q-10 -37 -30 -51
t-60 -14q-79 0 -101 65l-153 434l-155 -434q-22 -65 -106 -65q-38 0 -57 15t-28 50l-193 745h-18zM709 1195q0 27 10 49t27 39q18 17 40 27t48 10t48 -10t40 -27q17 -17 27 -39t10 -49t-10 -49t-27 -39q-18 -17 -40 -27t-48 -10t-48 10t-40 27q-17 17 -27 39t-10 49z
M269 1195q0 27 10 49t27 39q18 17 40 27t48 10t48 -10t40 -27q17 -17 27 -39t10 -49t-10 -49t-27 -39q-18 -17 -40 -27t-48 -10t-48 10t-40 27q-17 17 -27 39t-10 49z" />
    <glyph glyph-name="Ygrave" unicode="&#x1ef2;" 
d="M123 1051q-35 0 -49 15t-14 53t14 53t49 15h334q35 0 49 -15t14 -53t-14 -53t-49 -15h-93l250 -409l252 409h-65q-35 0 -49 15t-14 53t14 53t49 15h304q35 0 49 -15t14 -53t-14 -53t-49 -15h-68l-348 -559v-356h226q35 0 49 -15t14 -53t-14 -53t-49 -15h-602
q-35 0 -49 15t-14 53t14 53t49 15h226v356l-346 559h-70zM827 1403q36 -21 18 -63q-17 -42 -54 -31l-481 163q-51 15 0 107q29 52 51 61q21 9 50 -7z" />
    <glyph glyph-name="ygrave" unicode="&#x1ef3;" 
d="M1115 924q35 0 49 -15t14 -53t-14 -53t-49 -15h-62l-409 -838q-98 -200 -195 -279q-98 -79 -260 -85q-65 -2 -72 72t52 79q138 8 205 68t168 265l-366 718h-63q-35 0 -49 15t-14 53t14 53t49 15h354q35 0 49 -15t14 -53t-14 -53t-49 -15h-128l282 -562l269 562h-89
q-35 0 -49 15t-14 53t14 53t49 15h314zM817 1133q36 -21 18 -63q-17 -42 -54 -31l-481 163q-51 15 0 107q29 52 51 61q21 9 50 -7z" />
    <glyph glyph-name="endash" unicode="&#x2013;" 
d="M995 650q34 0 48.5 -15t14.5 -53t-14.5 -53t-48.5 -15h-762q-34 0 -48.5 15t-14.5 53t14.5 53t48.5 15h762z" />
    <glyph glyph-name="emdash" unicode="&#x2014;" 
d="M1195 650q34 0 48.5 -15t14.5 -53t-14.5 -53t-48.5 -15h-1162q-34 0 -48.5 15t-14.5 53t14.5 53t48.5 15h1162z" />
    <glyph glyph-name="quoteleft" unicode="&#x2018;" 
d="M714 1247q44 0 62 -18.5t10 -50.5l-101 -446q-9 -40 -52 -40h-175q-25 0 -33 18.5t5 44.5l220 449q20 43 64 43z" />
    <glyph glyph-name="quoteright" unicode="&#x2019;" 
d="M510 654q-43 0 -61 18.5t-10 50.5l101 446q9 40 52 40h175q25 0 33 -18.5t-5 -44.5l-220 -449q-22 -43 -65 -43z" />
    <glyph glyph-name="quotesinglbase" unicode="&#x201a;" 
d="M510 -261q-43 0 -61 18.5t-10 50.5l101 446q9 40 52 40h175q25 0 33 -18.5t-5 -44.5l-220 -449q-22 -43 -65 -43z" />
    <glyph glyph-name="quotedblleft" unicode="&#x201c;" 
d="M920 1247q44 0 61.5 -18.5t9.5 -50.5l-101 -446q-9 -40 -52 -40h-175q-25 0 -33 18.5t5 44.5l220 449q21 43 65 43zM510 1247q44 0 61.5 -18.5t9.5 -50.5l-101 -446q-9 -40 -52 -40h-175q-25 0 -33 18.5t5 44.5l220 449q21 43 65 43z" />
    <glyph glyph-name="quotedblright" unicode="&#x201d;" 
d="M715 654q-43 0 -61 18.5t-10 50.5l101 446q9 40 52 40h175q25 0 33 -18.5t-5 -44.5l-220 -449q-22 -43 -65 -43zM305 654q-43 0 -61 18.5t-10 50.5l101 446q9 40 52 40h175q25 0 33 -18.5t-5 -44.5l-220 -449q-22 -43 -65 -43z" />
    <glyph glyph-name="quotedblbase" unicode="&#x201e;" 
d="M715 -261q-43 0 -61 18.5t-10 50.5l101 446q9 40 52 40h175q25 0 33 -18.5t-5 -44.5l-220 -449q-22 -43 -65 -43zM305 -261q-43 0 -61 18.5t-10 50.5l101 446q9 40 52 40h175q25 0 33 -18.5t-5 -44.5l-220 -449q-22 -43 -65 -43z" />
    <glyph glyph-name="dagger" unicode="&#x2020;" 
d="M353 788q-34 0 -48.5 15t-14.5 53t14.5 53t48.5 15h193v222q0 34 15 48.5t53 14.5t53 -14.5t15 -48.5v-222h193q34 0 48.5 -15t14.5 -53t-14.5 -53t-48.5 -15h-193v-444q0 -34 -15 -48.5t-53 -14.5t-53 14.5t-15 48.5v444h-193z" />
    <glyph glyph-name="daggerdbl" unicode="&#x2021;" 
d="M353 456q-34 0 -48.5 15t-14.5 53t14.5 53t48.5 15h193v246h-193q-34 0 -48.5 15t-14.5 53t14.5 53t48.5 15h193v172q0 34 15 48.5t53 14.5t53 -14.5t15 -48.5v-172h193q34 0 48.5 -15t14.5 -53t-14.5 -53t-48.5 -15h-193v-246h193q34 0 48.5 -15t14.5 -53t-14.5 -53
t-48.5 -15h-193v-172q0 -34 -15 -48.5t-53 -14.5t-53 14.5t-15 48.5v172h-193z" />
    <glyph glyph-name="bullet" unicode="&#x2022;" 
d="M350 599q0 55 20.5 103t56.5 84t84 56.5t103 20.5t103 -20.5t84 -56.5t56.5 -84t20.5 -103t-20.5 -103t-56.5 -84t-84 -56.5t-103 -20.5t-103 20.5t-84 56.5t-56.5 84t-20.5 103z" />
    <glyph glyph-name="ellipsis" unicode="&#x2026;" 
d="M882 111q0 27 10.5 51.5t28.5 42.5t42.5 28.5t51.5 10.5t51.5 -10.5t42.5 -28.5t28.5 -42.5t10.5 -51.5t-10.5 -51.5t-28.5 -42.5t-42.5 -28.5t-51.5 -10.5t-51.5 10.5t-42.5 28.5t-28.5 42.5t-10.5 51.5zM80 111q0 27 10.5 51.5t28.5 42.5t42.5 28.5t51.5 10.5
t51.5 -10.5t42.5 -28.5t28.5 -42.5t10.5 -51.5t-10.5 -51.5t-28.5 -42.5t-42.5 -28.5t-51.5 -10.5t-51.5 10.5t-42.5 28.5t-28.5 42.5t-10.5 51.5zM481 111q0 27 10.5 51.5t28.5 42.5t42.5 28.5t51.5 10.5t51.5 -10.5t42.5 -28.5t28.5 -42.5t10.5 -51.5t-10.5 -51.5
t-28.5 -42.5t-42.5 -28.5t-51.5 -10.5t-51.5 10.5t-42.5 28.5t-28.5 42.5t-10.5 51.5z" />
    <glyph glyph-name="perthousand" unicode="&#x2030;" 
d="M1003 1059q48 45 96 -5t0 -95l-874 -830q-48 -45 -96 5t0 95zM1178 252q0 -30 11.5 -56t31 -45.5t45.5 -31t56 -11.5t56 11.5t45.5 31t31 45.5t11.5 56t-11.5 56t-31 45.5t-45.5 31t-56 11.5t-56 -11.5t-45.5 -31t-31 -45.5t-11.5 -56zM180 935q0 -30 11.5 -56t31 -45.5
t45.5 -31t56 -11.5t56 11.5t45.5 31t31 45.5t11.5 56t-11.5 56t-31 45.5t-45.5 31t-56 11.5t-56 -11.5t-45.5 -31t-31 -45.5t-11.5 -56zM760 252q0 -30 11.5 -56t31 -45.5t45.5 -31t56 -11.5t56 11.5t45.5 31t31 45.5t11.5 56t-11.5 56t-31 45.5t-45.5 31t-56 11.5
t-56 -11.5t-45.5 -31t-31 -45.5t-11.5 -56zM50 935q0 57 21.5 106.5t59 87t87 59t106.5 21.5t106.5 -21.5t87 -59t59 -87t21.5 -106.5t-21.5 -106.5t-59 -87t-87 -59t-106.5 -21.5t-106.5 21.5t-87 59t-59 87t-21.5 106.5zM1113 82q-78 -104 -200 -104t-202.5 80.5
t-80.5 193.5t80.5 193.5t202.5 80.5t200 -105q77 105 199 105q123 0 203.5 -80.5t80.5 -193.5t-80.5 -193.5t-203.5 -80.5t-199 104z" />
    <glyph glyph-name="guilsinglleft" unicode="&#x2039;" 
d="M452 548q-14 24 0 48l198 326q13 22 39 24t45 -6q76 -34 46 -83l-174 -285l174 -285q29 -48 -40 -80q-25 -11 -51 -9t-39 24z" />
    <glyph glyph-name="guilsinglright" unicode="&#x203a;" 
d="M578 222q-13 -22 -39 -24t-45 6q-76 34 -46 83l174 285l-174 285q-29 48 40 80q25 11 51 9t39 -24l198 -326q14 -24 0 -48z" />
    <glyph glyph-name="fraction" unicode="&#x2044;" 
d="M111 262q0 18 14 27l918 561q30 19 60 -24q14 -20 14 -38t-14 -27l-918 -561q-30 -19 -60 24q-14 20 -14 38z" />
    <glyph glyph-name="foursuperior" unicode="&#x2074;" 
d="M916 832q48 0 48 -62.5t-48 -62.5h-109v-184q1 -48 -67 -48t-68 48v184h-376q-54 0 -54 78q0 30 17 53l379 452q36 44 87 44t66.5 -22t15.5 -34v-446h109zM678 1151l-265 -319h259z" />
    <glyph glyph-name="franc" unicode="&#x20a3;" 
d="M425 564v-144h440q34 0 48.5 -15t14.5 -53t-14.5 -53t-48.5 -15h-440v-148h232q34 0 48.5 -15t14.5 -53t-14.5 -53t-48.5 -15h-514q-34 0 -48.5 15t-14.5 53t14.5 53t48.5 15h132v148h-172q-34 0 -48.5 15t-14.5 53t14.5 53t48.5 15h172v631h-132q-34 0 -48.5 15
t-14.5 53t14.5 53t48.5 15h904q34 0 48.5 -15t14.5 -53v-264q0 -35 -16.5 -50t-58.5 -15t-58.5 15t-16.5 50v196h-535v-351h345q34 0 48.5 -15t14.5 -53t-14.5 -53t-48.5 -15h-345z" />
    <glyph glyph-name="Euro" unicode="&#x20ac;" 
d="M123 374q-34 0 -48.5 15t-14.5 53t14.5 53t48.5 15h80q-8 85 1 174h-81q-34 0 -48.5 15t-14.5 53t14.5 53t48.5 15h100q65 280 206.5 334.5t224.5 54.5q167 0 270 -122v57q0 35 16.5 50t58.5 15t58.5 -15t16.5 -50v-330q0 -35 -16.5 -50t-58.5 -15t-58.5 15t-16.5 57
q0 97 -68 168.5t-182 71.5q-218 0 -289 -241h290q34 0 48.5 -15t14.5 -53t-14.5 -53t-48.5 -15h-313q-9 -92 -1 -174h314q34 0 48.5 -15t14.5 -53t-14.5 -53t-48.5 -15h-294q65 -248 273 -248q186 0 331 113q51 41 90 -25t-13 -105q-189 -131 -408 -131q-170 0 -281.5 103.5
t-152.5 292.5h-97z" />
    <glyph glyph-name="trademark" unicode="&#x2122;" 
d="M123 1193q-34 0 -48.5 12.5t-14.5 46.5t14.5 47t48.5 13h382q34 0 48.5 -13t14.5 -47t-14.5 -46.5t-48.5 -12.5h-129v-380q0 -35 -13.5 -50t-48.5 -15t-48.5 15t-13.5 50v380h-129zM722 748q-35 0 -47 15t-10 50l30 444q3 65 63 65q54 0 68 -26l142 -299l142 299
q13 26 55 26t58 -15t18 -50l30 -444q2 -35 -10 -50t-47 -15t-48 15t-15 50l-18 259l-93 -192q-24 -48 -73 -48t-71 48l-94 192l-17 -259q-2 -35 -15 -50t-48 -15z" />
    <glyph glyph-name="Delta" unicode="&#x2206;" 
d="M907 136l-291 886l-295 -886h586zM1145 136q34 0 48.5 -15t14.5 -53t-14.5 -53t-48.5 -15h-1062q-34 0 -48.5 15t-14.5 53t14.5 53t48.5 15h80l351 1008q24 65 103 65t101 -65l346 -1008h81z" />
    <glyph glyph-name="summation" unicode="&#x2211;" 
d="M300 -753h628v-85h-628v85zM300 1797h628v-85h-628v85z" />
    <glyph glyph-name="minus" unicode="&#x2212;" 
d="M995 650q34 0 48.5 -15t14.5 -53t-14.5 -53t-48.5 -15h-762q-34 0 -48.5 15t-14.5 53t14.5 53t48.5 15h762z" />
    <glyph glyph-name="integral" unicode="&#x222b;" 
d="M689 -7q0 -186 -97.5 -297t-254.5 -111t-294 58q-52 21 -30 89t68 50q134 -51 239 -51q106 0 162.5 71t56.5 203v1104q0 186 97.5 297t254.5 111t294 -58q52 -21 30 -89t-68 -50q-134 51 -239 51q-106 0 -162.5 -71t-56.5 -203v-1104z" />
    <glyph glyph-name="approxequal" unicode="&#x2248;" 
d="M410 500q74 0 167 -29.5t143 -43t96 -13.5q94 0 174 58q17 13 36.5 3.5t33.5 -33.5q32 -53 -2 -81q-115 -99 -242 -99q-72 0 -165 29.5t-143 43t-96 13.5q-94 0 -174 -58q-17 -13 -36.5 -3.5t-33.5 33.5q-32 53 2 81q113 99 240 99zM410 900q74 0 167 -29.5t143 -43
t96 -13.5q94 0 174 58q17 13 36.5 3.5t33.5 -33.5q32 -53 -2 -81q-115 -99 -242 -99q-72 0 -165 29.5t-143 43t-96 13.5q-94 0 -174 -58q-17 -13 -36.5 -3.5t-33.5 33.5q-32 53 2 81q113 99 240 99z" />
    <glyph glyph-name="notequal" unicode="&#x2260;" 
d="M233 714q-34 0 -48.5 15t-14.5 53t14.5 53t48.5 15h450l125 211q32 55 91 21t25 -91l-83 -141h154q34 0 48.5 -15t14.5 -53t-14.5 -53t-48.5 -15h-225l-155 -264h380q34 0 48.5 -15t14.5 -53t-14.5 -53t-48.5 -15h-451l-124 -211q-32 -55 -91 -21t-25 91l83 141h-154
q-34 0 -48.5 15t-14.5 53t14.5 53t48.5 15h224l156 264h-380z" />
    <glyph glyph-name="lessequal" unicode="&#x2264;" 
d="M170 755q0 54 52 75l738 290q64 24 90 -42t-41 -91l-613 -232l613 -232q66 -25 41 -91q-26 -66 -90 -42l-738 290q-52 21 -52 75zM995 250q34 0 48.5 -15t14.5 -53t-14.5 -53t-48.5 -15h-762q-34 0 -48.5 15t-14.5 53t14.5 53t48.5 15h762z" />
    <glyph glyph-name="greaterequal" unicode="&#x2265;" 
d="M1058 755q0 -54 -52 -75l-738 -290q-64 -24 -90 42t41 91l613 232l-613 232q-66 25 -41 91q26 66 90 42l738 -290q52 -21 52 -75zM995 250q34 0 48.5 -15t14.5 -53t-14.5 -53t-48.5 -15h-762q-34 0 -48.5 15t-14.5 53t14.5 53t48.5 15h762z" />
    <glyph glyph-name="commaaccent" unicode="&#xf6c3;" 
d="M564 -146h142q20 0 26.5 -15t-4.5 -36l-154 -291q-20 -37 -56 -37q-68 0 -58 56l62 291q6 32 42 32z" />
    <glyph glyph-name="fi" unicode="&#xfb01;" 
d="M600 1171q-202 0 -202 -217v-30h552q34 0 48.5 -15t14.5 -53v-720h121q34 0 48.5 -15t14.5 -53t-14.5 -53t-48.5 -15h-384q-34 0 -48.5 15t-14.5 53t14.5 53t48.5 15h113v652h-465v-652h116q34 0 48.5 -15t14.5 -53t-14.5 -53t-48.5 -15h-394q-34 0 -48.5 15t-14.5 53
t14.5 53t48.5 15h128v652h-128q-34 0 -48.5 15t-14.5 53t14.5 53t48.5 15h128v43q0 252 134 301t242 49t242 -51q61 -25 44 -95t-74 -48q-125 48 -236 48z" />
    <glyph glyph-name="fl" unicode="&#xfb02;" 
d="M605 1176q-207 0 -207 -218v-114h216q34 0 48.5 -15t14.5 -53t-14.5 -53t-48.5 -15h-216v-572h116q34 0 48.5 -15t14.5 -53t-14.5 -53t-48.5 -15h-394q-34 0 -48.5 15t-14.5 53t14.5 53t48.5 15h128v572h-128q-34 0 -48.5 15t-14.5 53t14.5 53t48.5 15h128v123
q0 165 89 255t258 90h355q34 0 48.5 -15t14.5 -53v-1108h121q34 0 48.5 -15t14.5 -53t-14.5 -53t-48.5 -15h-384q-34 0 -48.5 15t-14.5 53t14.5 53t48.5 15h113v1040h-258z" />
    <glyph glyph-name="period.alt" 
d="M745 147q0 35 13.5 65.5t36.5 53.5t53.5 36.5t65.5 13.5t65.5 -13.5t53.5 -36.5t36.5 -53.5t13.5 -65.5t-13.5 -65.5t-36.5 -53.5t-53.5 -36.5t-65.5 -13.5t-65.5 13.5t-53.5 36.5t-36.5 53.5t-13.5 65.5z" />
    <glyph glyph-name="comma.alt" 
d="M800 -253q-21 -41 -68 -41q-46 0 -53.5 25t-4.5 41l104 482q9 40 52 40h194q25 0 33.5 -18.5t-5.5 -44.5z" />
    <glyph glyph-name="colon.alt" 
d="M745 777q0 35 13.5 65.5t36.5 53.5t53.5 36.5t65.5 13.5t65.5 -13.5t53.5 -36.5t36.5 -53.5t13.5 -65.5t-13.5 -65.5t-36.5 -53.5t-53.5 -36.5t-65.5 -13.5t-65.5 13.5t-53.5 36.5t-36.5 53.5t-13.5 65.5zM745 147q0 35 13.5 65.5t36.5 53.5t53.5 36.5t65.5 13.5
t65.5 -13.5t53.5 -36.5t36.5 -53.5t13.5 -65.5t-13.5 -65.5t-36.5 -53.5t-53.5 -36.5t-65.5 -13.5t-65.5 13.5t-53.5 36.5t-36.5 53.5t-13.5 65.5z" />
    <glyph glyph-name="semicolon.alt" 
d="M800 -253q-21 -41 -68 -41q-46 0 -53.5 25t-4.5 41l104 482q9 40 52 40h194q25 0 33.5 -18.5t-5.5 -44.5zM745 777q0 35 13.5 65.5t36.5 53.5t53.5 36.5t65.5 13.5t65.5 -13.5t53.5 -36.5t36.5 -53.5t13.5 -65.5t-13.5 -65.5t-36.5 -53.5t-53.5 -36.5t-65.5 -13.5
t-65.5 13.5t-53.5 36.5t-36.5 53.5t-13.5 65.5z" />
    <glyph glyph-name="ellipsis.alt1" 
d="M1345 147q0 35 13.5 65.5t36.5 53.5t53.5 36.5t65.5 13.5t65.5 -13.5t53.5 -36.5t36.5 -53.5t13.5 -65.5t-13.5 -65.5t-36.5 -53.5t-53.5 -36.5t-65.5 -13.5t-65.5 13.5t-53.5 36.5t-36.5 53.5t-13.5 65.5zM445 147q0 35 13.5 65.5t36.5 53.5t53.5 36.5t65.5 13.5
t65.5 -13.5t53.5 -36.5t36.5 -53.5t13.5 -65.5t-13.5 -65.5t-36.5 -53.5t-53.5 -36.5t-65.5 -13.5t-65.5 13.5t-53.5 36.5t-36.5 53.5t-13.5 65.5zM-455 147q0 35 13.5 65.5t36.5 53.5t53.5 36.5t65.5 13.5t65.5 -13.5t53.5 -36.5t36.5 -53.5t13.5 -65.5t-13.5 -65.5
t-36.5 -53.5t-53.5 -36.5t-65.5 -13.5t-65.5 13.5t-53.5 36.5t-36.5 53.5t-13.5 65.5z" />
    <glyph glyph-name="ellipsis.alt2" horiz-adv-x="3684" 
d="M2573 147q0 35 13.5 65.5t36.5 53.5t53.5 36.5t65.5 13.5t65.5 -13.5t53.5 -36.5t36.5 -53.5t13.5 -65.5t-13.5 -65.5t-36.5 -53.5t-53.5 -36.5t-65.5 -13.5t-65.5 13.5t-53.5 36.5t-36.5 53.5t-13.5 65.5zM1673 147q0 35 13.5 65.5t36.5 53.5t53.5 36.5t65.5 13.5
t65.5 -13.5t53.5 -36.5t36.5 -53.5t13.5 -65.5t-13.5 -65.5t-36.5 -53.5t-53.5 -36.5t-65.5 -13.5t-65.5 13.5t-53.5 36.5t-36.5 53.5t-13.5 65.5zM773 147q0 35 13.5 65.5t36.5 53.5t53.5 36.5t65.5 13.5t65.5 -13.5t53.5 -36.5t36.5 -53.5t13.5 -65.5t-13.5 -65.5
t-36.5 -53.5t-53.5 -36.5t-65.5 -13.5t-65.5 13.5t-53.5 36.5t-36.5 53.5t-13.5 65.5z" />
    <glyph glyph-name="ellipsis.alt3" 
d="M1362 111q0 27 10.5 51.5t28.5 42.5t42.5 28.5t51.5 10.5t51.5 -10.5t42.5 -28.5t28.5 -42.5t10.5 -51.5t-10.5 -51.5t-28.5 -42.5t-42.5 -28.5t-51.5 -10.5t-51.5 10.5t-42.5 28.5t-28.5 42.5t-10.5 51.5zM280 111q0 27 10.5 51.5t28.5 42.5t42.5 28.5t51.5 10.5
t51.5 -10.5t42.5 -28.5t28.5 -42.5t10.5 -51.5t-10.5 -51.5t-28.5 -42.5t-42.5 -28.5t-51.5 -10.5t-51.5 10.5t-42.5 28.5t-28.5 42.5t-10.5 51.5zM821 111q0 27 10.5 51.5t28.5 42.5t42.5 28.5t51.5 10.5t51.5 -10.5t42.5 -28.5t28.5 -42.5t10.5 -51.5t-10.5 -51.5
t-28.5 -42.5t-42.5 -28.5t-51.5 -10.5t-51.5 10.5t-42.5 28.5t-28.5 42.5t-10.5 51.5z" />
    <glyph glyph-name="ellipsis.alt4" 
d="M882 111q0 27 10.5 51.5t28.5 42.5t42.5 28.5t51.5 10.5t51.5 -10.5t42.5 -28.5t28.5 -42.5t10.5 -51.5t-10.5 -51.5t-28.5 -42.5t-42.5 -28.5t-51.5 -10.5t-51.5 10.5t-42.5 28.5t-28.5 42.5t-10.5 51.5zM-480 111q0 27 10.5 51.5t28.5 42.5t42.5 28.5t51.5 10.5
t51.5 -10.5t42.5 -28.5t28.5 -42.5t10.5 -51.5t-10.5 -51.5t-28.5 -42.5t-42.5 -28.5t-51.5 -10.5t-51.5 10.5t-42.5 28.5t-28.5 42.5t-10.5 51.5zM201 111q0 27 10.5 51.5t28.5 42.5t42.5 28.5t51.5 10.5t51.5 -10.5t42.5 -28.5t28.5 -42.5t10.5 -51.5t-10.5 -51.5
t-28.5 -42.5t-42.5 -28.5t-51.5 -10.5t-51.5 10.5t-42.5 28.5t-28.5 42.5t-10.5 51.5z" />
    <glyph glyph-name="ellipsis.alt5" horiz-adv-x="3684" 
d="M2873 147q0 35 13.5 65.5t36.5 53.5t53.5 36.5t65.5 13.5t65.5 -13.5t53.5 -36.5t36.5 -53.5t13.5 -65.5t-13.5 -65.5t-36.5 -53.5t-53.5 -36.5t-65.5 -13.5t-65.5 13.5t-53.5 36.5t-36.5 53.5t-13.5 65.5zM1823 147q0 35 13.5 65.5t36.5 53.5t53.5 36.5t65.5 13.5
t65.5 -13.5t53.5 -36.5t36.5 -53.5t13.5 -65.5t-13.5 -65.5t-36.5 -53.5t-53.5 -36.5t-65.5 -13.5t-65.5 13.5t-53.5 36.5t-36.5 53.5t-13.5 65.5zM773 147q0 35 13.5 65.5t36.5 53.5t53.5 36.5t65.5 13.5t65.5 -13.5t53.5 -36.5t36.5 -53.5t13.5 -65.5t-13.5 -65.5
t-36.5 -53.5t-53.5 -36.5t-65.5 -13.5t-65.5 13.5t-53.5 36.5t-36.5 53.5t-13.5 65.5z" />
    <glyph glyph-name="emdash.alt1" 
d="M1595 650q34 0 48.5 -15t14.5 -53t-14.5 -53t-48.5 -15h-1962q-34 0 -48.5 15t-14.5 53t14.5 53t48.5 15h1962z" />
    <glyph glyph-name="emdash.alt2" horiz-adv-x="2456" 
d="M2409 650q34 0 48.5 -15t14.5 -53t-14.5 -53t-48.5 -15h-2362q-34 0 -48.5 15t-14.5 53t14.5 53t48.5 15h2362z" />
    <glyph glyph-name="emdash.alt3" horiz-adv-x="2456" 
d="M2109 650q34 0 48.5 -15t14.5 -53t-14.5 -53t-48.5 -15h-1762q-34 0 -48.5 15t-14.5 53t14.5 53t48.5 15h1762z" />
    <glyph glyph-name="emdash.alt4" 
d="M1395 650q34 0 48.5 -15t14.5 -53t-14.5 -53t-48.5 -15h-1562q-34 0 -48.5 15t-14.5 53t14.5 53t48.5 15h1562z" />
    <glyph glyph-name="hyphen.alt" 
d="M895 660q34 0 48.5 -16.5t14.5 -61.5t-14.5 -61.5t-48.5 -16.5h-562q-34 0 -48.5 16.5t-14.5 61.5t14.5 61.5t48.5 16.5h562z" />
  </font>
</defs>
</svg>
