<?xml version="1.0" encoding="utf-8"?>
<!-- Generator: Adobe Illustrator 18.0.0, SVG Export Plug-In . SVG Version: 6.00 Build 0)  -->
<!DOCTYPE svg PUBLIC "-//W3C//DTD SVG 1.1//EN" "http://www.w3.org/Graphics/SVG/1.1/DTD/svg11.dtd">
<svg version="1.1" id="Layer_1" xmlns="http://www.w3.org/2000/svg" xmlns:xlink="http://www.w3.org/1999/xlink" x="0px" y="0px"
	 viewBox="0 0 175.2 175.2" enable-background="new 0 0 175.2 175.2" xml:space="preserve">
<g>
	<path fill="#F8E9C0" d="M87.4,20.6c38.6,0,70,31.4,70,70c0,38.6-31.4,70-70,70c-38.6,0-70-31.4-70-70C17.4,52,48.8,20.6,87.4,20.6z
		"/>
	<path fill="#F8E9C0" d="M19,77.4c2.6,0,0,4.8,0,10.8s2.6,11,0,11c-6,0-11-5-11-11S13,77.4,19,77.4z M156.2,77.4
		c6,0,10.8,4.8,10.8,10.8s-4.8,11-10.8,11c-2.6,0-0.4-5-0.4-11S153.2,77.4,156.2,77.4z"/>
	<path fill="#F8E9C0" d="M38.4,104.6c5,0,9,4,9,9c0,5-4,9-9,9c-5,0-9-4-9-9C29.4,108.6,33.4,104.6,38.4,104.6z M136.8,104.6
		c5,0,9,4,9,9c0,5-4,9-9,9c-5,0-9-4-9-9C127.8,108.6,131.8,104.6,136.8,104.6z"/>
	<path fill="#BE1E2D" d="M161.4,79c-0.2,1-7.4,2.2-8,3.4c-2,6.6-1.4,12.8-7,18.4c-4.8,4.8-28,2.8-32-1.2
		c-11.2-11.2-7.2-20.2-28.2-20.2c-18.6,0-15.6,11.8-24.8,21.8c-4,4-28.4,3-33.8-1.2C25,97.4,24,88.4,22.4,82.8
		c-0.6-1.6-7.8-2.8-8-4.2c-0.4-2.4,0.4-5.2,0.8-6.8c10-3.6,30-4,41.8-1.8c5.8,1.2,14.6,4.8,29,4.8c18.8,0,25.4-2.2,33-4.6
		c12.2-3.6,30.8-2.6,42.4,1.6C161.4,73.8,162,76.6,161.4,79z M30.6,97.4c2.8,2.8,25.4,3.6,28.2,0.8c3-2.6,9.4-13.2,6.4-19.2
		c-2.8-5.8-18.2-6.2-23-6c-8.8,0-15,2-15,8C27,85.8,28.2,95,30.6,97.4z M116.6,96.6c3,3.2,23.6,4.4,27.2,1
		c2.6-2.8,4.8-10.6,4.8-17.2c0-7.8-11-8.2-17-8c-8,0.2-18.6,2.6-20.6,7.4C108.4,85.8,112.4,92.6,116.6,96.6z"/>
	<path fill="#007F77" d="M44.2,82c2.6,0,5,2.2,5,4.8s-2.4,5-5,5c-2.6,0-4.8-2.4-4.8-5S41.6,82,44.2,82z M131.6,82
		c2.6,0,4.8,2.2,4.8,4.8s-2.2,5-4.8,5c-2.8,0-5-2.4-5-5S128.8,82,131.6,82z"/>
	<path fill="#F0EC71" d="M74.6,77.4l-9-26.2l-6,26L18,77.4c-3.6,0-2.8-3-2.4-4.6c11.6-51.2,49.6-57.4,71-66.4
		c22.6,8.8,60.2,13.8,71.8,62.6c0.6,2.6,1.8,8.2-5,8.2L74.6,77.4z M17.4,95.2h0.2c2,30.8,23.8,56,52.8,63.4l-0.6,11.2H34.2
		l-3.4-15.6L28,169.8H17.4V95.2z M100.8,159.4c30.6-6,54.2-32.2,56.4-64.2h0.2v74.6H149l-5-22l-12,22h-30.2L100.8,159.4z"/>
	<path fill="#FDCC9A" d="M93.2,100.6c-2.8,0.2-9.4,0-11,0c-0.8,0-2.2-1.6-1.6-2.8l5-8.8c1-1.6,3-0.8,3.4-0.2c1.8,3,4.2,6,5.6,8.6
		C95.6,99,94.4,100.6,93.2,100.6z"/>
	<path fill="#DA5EA3" d="M72.2,117c1.6,8.4,9.2,11,15.2,11c6.6,0,13.6-4.2,14.4-11.2c0.4-3.2,5.6-2.2,5,1C105,127,97.2,133,87.4,133
		c-11,0-17.4-5-20-14.6C66.6,115.2,71.6,114.2,72.2,117z"/>
</g>
</svg>
