<?xml version="1.0" standalone="no"?>
<!DOCTYPE svg PUBLIC "-//W3C//DTD SVG 1.1//EN" "http://www.w3.org/Graphics/SVG/1.1/DTD/svg11.dtd" >
<svg xmlns="http://www.w3.org/2000/svg">
<metadata>
Created by FontPrep 20130207 at Tue Sep 22 20:04:28 2015
 By Gianna Fusaro
Copyright (c) 2014 by Fontfabric LLC. All rights reserved.
</metadata>
<defs>
<font id="4961777f2e19d02da24a7e0282764278" horiz-adv-x='1024' >
  <font-face 
    font-family="GloberSemiBoldFree"
    font-weight="600"
    font-stretch="normal"
    units-per-em="2048"
    panose-1="0 0 0 0 0 0 0 0 0 0"
    ascent="1536"
    descent="-512"
    x-height="1077"
    cap-height="1475"
    bbox="-338 -584 1927 2157.47"
    underline-thickness="102"
    underline-position="-102"
    unicode-range="U+0020-FB02"
  />
<missing-glyph horiz-adv-x="1265" 
d="M600 342q-46 0 -94 -12v-154q25 -10 84 -10l86 10v154q-30 12 -76 12zM590 469q39 0 63 16q0 128 103 207q43 33 87 69q103 84 103 237t-90 226t-242 72q-74 0 -140 -14t-93 -29l-29 -14q-6 -76 51 -117q70 39 187 39q188 0 188 -157q0 -116 -89 -189q-38 -31 -75 -65
q-88 -82 -88 -265q25 -16 64 -16zM1178 0h-1102v1475h1102v-1475z" />
    <glyph glyph-name=".notdef" horiz-adv-x="1265" 
d="M600 342q-46 0 -94 -12v-154q25 -10 84 -10l86 10v154q-30 12 -76 12zM590 469q39 0 63 16q0 128 103 207q43 33 87 69q103 84 103 237t-90 226t-242 72q-74 0 -140 -14t-93 -29l-29 -14q-6 -76 51 -117q70 39 187 39q188 0 188 -157q0 -116 -89 -189q-38 -31 -75 -65
q-88 -82 -88 -265q25 -16 64 -16zM1178 0h-1102v1475h1102v-1475z" />
    <glyph glyph-name=".null" horiz-adv-x="0" 
 />
    <glyph glyph-name="nonmarkingreturn" horiz-adv-x="681" 
 />
    <glyph glyph-name="space" unicode=" " horiz-adv-x="460" 
 />
    <glyph glyph-name="exclam" unicode="!" horiz-adv-x="548" 
d="M255 221q54 0 124 -14v-193q-35 -14 -87 -14t-122 14v193q31 14 85 14zM350 393q-27 -16 -73 -16t-78 16l-35 1067q33 14 104 15t105 -13l12 -2z" />
    <glyph glyph-name="ampersand" unicode="&#x26;" horiz-adv-x="1314" 
d="M283 358q0 -96 63 -154t188 -59q125 0 252 93q-209 178 -331 393q-172 -115 -172 -273zM776 1126q0 80 -34 115t-101 35t-107 -48t-40 -151t57 -233q225 133 225 282zM88 332q0 248 303 422q-76 166 -76 322t85 246q84 91 240 91t240 -68q83 -69 83 -198q1 -129 -89 -226
t-260 -200q113 -186 301 -342q57 78 105 217q100 12 158 -61q-49 -127 -144 -246q119 -76 236 -127q2 -47 -24 -94t-66 -70q-129 51 -277 149q-168 -168 -418 -167q-165 0 -281 89t-116 263z" />
    <glyph glyph-name="parenleft" unicode="(" horiz-adv-x="600" 
d="M307 655q0 -394 149 -758q34 -83 56 -124l25 -41q-26 -57 -107 -75q-23 -5 -33 -5l-12 -2q-34 51 -90 174q-55 122 -92 233t-67 275t-30 324t29 321q29 162 90 337t131 300l29 47q65 3 125 -49q19 -16 27 -33q-28 -39 -74 -148q-45 -108 -76 -208t-55 -255t-25 -313z" />
    <glyph glyph-name="parenright" unicode=")" horiz-adv-x="602" 
d="M295 655q0 403 -150 759q-35 83 -59 124l-23 41q27 50 110 76q22 6 32 6h12q35 -52 90 -174q55 -123 92 -234t67 -275t30 -323t-29 -321t-91 -339t-130 -298l-29 -47q-102 0 -154 82q27 38 74 147t78 209t55 254t25 313z" />
    <glyph glyph-name="comma" unicode="," horiz-adv-x="481" 
d="M223 221q53 0 123 -14v-129q0 -98 -37 -181t-73 -118l-37 -35l-74 51q66 72 76 205q-26 0 -68 14v193q37 14 90 14z" />
    <glyph glyph-name="hyphen" unicode="-" horiz-adv-x="733" 
d="M592 604q0 -38 -12 -86h-426q-20 49 -16 78t16 74h426q12 -28 12 -66z" />
    <glyph glyph-name="period" unicode="." horiz-adv-x="479" 
d="M221 221q55 0 125 -14v-193q-37 -14 -90 -14t-123 14v193q33 14 88 14z" />
    <glyph glyph-name="slash" unicode="/" horiz-adv-x="972" 
d="M727 1522q37 14 100 14t93 -12l10 -2l-684 -1604q-36 -14 -102 -14t-101 14z" />
    <glyph glyph-name="zero" unicode="0" horiz-adv-x="1265" 
d="M922 697q0 306 -70 424t-220 118q-152 0 -222 -119t-70 -424t71 -424q71 -118 221 -118t220 118t70 425zM631 -20q-252 0 -380 172t-128 544q0 717 508 717q252 0 382 -172t130 -545q0 -372 -130 -544t-382 -172z" />
    <glyph glyph-name="one" unicode="1" horiz-adv-x="847" 
d="M653 14q-31 -14 -97 -14t-97 12l-13 2v840q0 154 11 266q-133 -133 -346 -186q-70 66 -50 170q248 66 392 274q31 14 97 15t93 -13l10 -2v-1364z" />
    <glyph glyph-name="two" unicode="2" horiz-adv-x="1089" 
d="M522 1413q210 0 332 -91q123 -91 123 -284q0 -135 -65 -240q-46 -74 -190 -169q-54 -36 -150 -93q-94 -57 -116 -70t-59 -43q-100 -81 -100 -194q0 -29 4 -45h639q20 -33 20 -88t-20 -96h-829q-56 306 104 477q106 113 279 217q112 74 158 112q114 94 114 226
q0 98 -67 154t-202 57q-135 0 -249 -39l-39 -12q-70 55 -57 147q160 74 370 74z" />
    <glyph glyph-name="three" unicode="3" horiz-adv-x="1075" 
d="M958 373q0 -393 -505 -393q-99 0 -189 17t-129 36l-39 18q-4 96 51 152q125 -47 288 -47t239 58t76 185q0 246 -289 246h-152q-33 86 0 164h152q246 0 246 216t-265 216q-137 0 -233 -33l-31 -12q-74 51 -63 145q133 72 347 72t333 -94t118 -268q0 -240 -182 -318
q227 -81 227 -360z" />
    <glyph glyph-name="four" unicode="4" horiz-adv-x="1185" 
d="M723 514v596l-440 -596h440zM838 0q-45 0 -115 14v336h-645q-16 29 -17 79t17 85l637 864q35 14 101 15t93 -13l9 -2v-864h182q14 -28 14 -68t-14 -96h-182v-336q-35 -14 -80 -14z" />
    <glyph glyph-name="five" unicode="5" horiz-adv-x="1069" 
d="M379 1212v-393q49 6 106 6q475 0 476 -424q0 -422 -525 -421q-106 0 -191 16t-118 33l-33 18q-6 94 51 152q113 -43 271 -43q334 0 334 245q0 139 -77 197t-261 57q-68 0 -234 -12v750h723q37 -94 0 -181h-522z" />
    <glyph glyph-name="six" unicode="6" horiz-adv-x="1130" 
d="M825 416q0 274 -245 274q-104 0 -248 -59q-4 -35 -4 -113q0 -381 250 -381q115 0 181 70t66 209zM612 852q190 0 308 -106t116 -327q0 -220 -122 -330q-122 -109 -336 -109t-337 134q-122 134 -122 412q0 818 774 867q35 -78 0 -164q-227 -25 -357 -125t-178 -301
q133 49 254 49z" />
    <glyph glyph-name="seven" unicode="7" horiz-adv-x="1015" 
d="M70 1301q0 56 16 92h848q16 -47 12 -115q-7 -233 -184 -467q-74 -98 -147 -206q-73 -109 -123 -261t-50 -334q-45 -10 -99 -10t-99 10q0 194 45 352t111 264t137 197q174 224 204 387h-655q-16 35 -16 91z" />
    <glyph glyph-name="eight" unicode="8" horiz-adv-x="1189" 
d="M313 354q0 -98 73 -156t205 -57q132 -1 206 57q73 58 73 145t-43 132q-25 27 -48 50t-141 75q-117 52 -132 57q-193 -123 -193 -303zM834 1061q0 95 -64 147t-176 52q-113 0 -174 -50t-62 -135q0 -137 206 -227q32 -14 70 -32t50 -21q150 117 150 266zM594 -20
q-227 0 -352 96t-125 268q0 238 260 379q-219 125 -219 340q0 160 116 255q117 95 317 95q199 0 313 -88t114 -246q0 -209 -201 -346q121 -63 191 -149t69 -222q0 -182 -128 -282t-355 -100z" />
    <glyph glyph-name="nine" unicode="9" horiz-adv-x="1130" 
d="M305 977q0 -274 246 -275q111 0 248 58q4 74 4 114q0 381 -250 381q-115 1 -181 -69t-67 -209zM518 541q-190 0 -307 106q-117 107 -117 327t122 330t337 110t337 -135q122 -134 122 -413q0 -817 -772 -866q-33 86 -2 164q225 25 356 124t178 302q-133 -49 -254 -49z" />
    <glyph glyph-name="question" unicode="?" horiz-adv-x="892" 
d="M348 221q55 0 125 -14v-193q-37 -14 -90 -14t-123 14v193q33 14 88 14zM367 379q-54 0 -80 20q0 121 32 205q33 84 78 127t91 81q112 93 112 235q0 197 -233 196q-140 0 -207 -35l-27 -12q-74 51 -63 145q121 72 318 72t310 -90t113 -266q0 -111 -38 -190t-92 -123
q-53 -44 -107 -85q-130 -99 -130 -260q-23 -20 -77 -20z" />
    <glyph glyph-name="at" unicode="@" horiz-adv-x="1869" 
d="M921 838q-87 0 -137 -56t-49 -210q0 -153 50 -211q51 -58 137 -58t133 47t51 119v201q-4 72 -51 120t-134 48zM1278 451q0 -139 113 -140q88 0 141 78t53 232q0 291 -167 465t-467 174t-479 -184t-179 -505q0 -172 54 -304q98 -240 355 -326q115 -39 248 -39
q281 0 541 155q57 -31 61 -102q-279 -193 -615 -193t-576 197q-116 96 -183 255q-68 159 -67 357q0 377 237 599q238 222 608 222t582 -209q211 -210 211 -562q0 -213 -96 -330t-282 -117t-241 125q-72 -125 -262 -125q-322 0 -322 396t322 397q160 0 238 -88v79
q27 16 86 16t86 -16v-507z" />
    <glyph glyph-name="A" unicode="A" horiz-adv-x="1339" 
d="M666 1247h-7q-18 -82 -53 -184l-188 -518h487l-186 518zM1307 14q-37 -14 -106 -14t-99 12l-10 2l-127 361h-607l-129 -361q-35 -14 -95 -14t-91 12l-10 2l514 1446q94 26 188 10l58 -10z" />
    <glyph glyph-name="B" unicode="B" horiz-adv-x="1286" 
d="M391 162h309q260 0 261 254q1 129 -63 191t-200 63h-307v-508zM391 825h295q119 0 176 66t58 178q0 244 -236 244h-293v-488zM182 1475h549q193 0 297 -112q104 -113 104 -307t-163 -298q207 -106 207 -342q0 -188 -116 -302t-321 -114h-557v1475z" />
    <glyph glyph-name="C" unicode="C" horiz-adv-x="1150" 
d="M119 736q0 374 150 567q151 193 446 192q100 0 188 -17t125 -36l37 -17q4 -82 -61 -155q-119 47 -265 47q-195 0 -299 -130t-104 -457t110 -449q110 -121 281 -120t262 36l35 12q59 -57 63 -160q-133 -70 -372 -69q-293 0 -445 191q-151 191 -151 565z" />
    <glyph glyph-name="D" unicode="D" horiz-adv-x="1359" 
d="M391 174h232q95 0 163 24t122 84q108 120 108 456t-108 455q-54 60 -122 84t-163 23h-232v-1126zM182 1475h455q297 0 449 -172q152 -171 153 -565q0 -394 -153 -566t-449 -172h-455v1475z" />
    <glyph glyph-name="E" unicode="E" 
d="M182 1475h832q16 -49 16 -88t-16 -82h-623v-476h520q30 -91 0 -167h-520v-492h643q16 -53 16 -89t-16 -81h-852v1475z" />
    <glyph glyph-name="F" unicode="F" horiz-adv-x="1089" 
d="M391 635v-621q-35 -14 -103 -14t-95 12l-11 2v1461h815q37 -85 0 -170h-606v-500h537q16 -33 16 -82t-16 -88h-537z" />
    <glyph glyph-name="G" unicode="G" horiz-adv-x="1288" 
d="M643 734q0 54 16 85h494v-770q-152 -70 -405 -69q-307 0 -468 192t-161 564t161 566t468 193q110 0 204 -17t138 -36l40 -17q0 -96 -61 -153q-137 47 -299 47q-206 0 -320 -131t-114 -457t119 -449q119 -124 315 -122q113 0 186 16v473h-297q-16 31 -16 85z" />
    <glyph glyph-name="H" unicode="H" horiz-adv-x="1396" 
d="M391 846h615v614q72 27 208 0v-1446q-34 -14 -86 -14t-122 14v652h-615v-652q-37 -14 -107 -14t-91 12l-11 2v1446q70 28 209 0v-614z" />
    <glyph glyph-name="I" unicode="I" horiz-adv-x="573" 
d="M391 14q-37 -14 -107 -14t-91 12l-11 2v1446q70 28 209 0v-1446z" />
    <glyph glyph-name="J" unicode="J" horiz-adv-x="907" 
d="M735 391q0 -203 -106 -307t-289 -104q-74 0 -149 15t-113 30l-37 16q-4 96 55 158q94 -37 199 -37q231 0 231 223v1075q61 30 209 0v-1069z" />
    <glyph glyph-name="K" unicode="K" horiz-adv-x="1263" 
d="M391 850h150l422 610q61 14 103 14t114 -14l-465 -672l526 -774q-43 -14 -118 -14t-111 12l-15 2l-456 668h-150v-668q-31 -14 -81 -14t-128 14v1446q72 27 209 0v-610z" />
    <glyph glyph-name="L" unicode="L" horiz-adv-x="1062" 
d="M391 180h613q16 -39 16 -88t-16 -92h-822v1460q70 28 209 0v-1280z" />
    <glyph glyph-name="M" unicode="M" horiz-adv-x="1710" 
d="M1530 14q-35 -14 -100 -14t-95 12l-12 2v656q0 455 12 547h-10q-23 -82 -182 -412l-240 -451q-27 -10 -59 -10t-62 10l-235 443q-160 319 -187 420h-8q20 -102 21 -517v-686q-33 -14 -93 -14t-87 12l-11 2v1446q112 32 232 2l18 -2l270 -512q117 -231 142 -317h8
q31 92 76 182q164 307 334 647q68 14 115 14t153 -14v-1446z" />
    <glyph glyph-name="N" unicode="N" horiz-adv-x="1433" 
d="M1251 14q-39 -14 -117 -14t-114 12l-14 2l-517 932q-67 120 -108 228l-12 36h-9q14 -137 15 -344v-852q-31 -14 -96 -14t-86 12l-11 2v1446q43 14 120 15t116 -13l12 -2l510 -923q64 -114 113 -234l14 -39h6q-14 152 -14 342v854q68 31 192 0v-1446z" />
    <glyph glyph-name="O" unicode="O" horiz-adv-x="1392" 
d="M1055 737q0 322 -91 453q-92 131 -268 131t-267 -131t-91 -453q0 -323 91 -453t267 -130t268 130t91 453zM119 737q0 383 151 571q152 187 426 187t426 -186t152 -572q0 -758 -578 -757q-577 -1 -577 757z" />
    <glyph glyph-name="P" unicode="P" horiz-adv-x="1241" 
d="M391 750h299q121 0 186 72t64 202q0 131 -64 204q-65 73 -186 72h-299v-550zM391 575v-561q-35 -14 -103 -14t-95 12l-11 2v1461h535q201 0 321 -124t119 -326q0 -202 -120 -326t-320 -124h-326z" />
    <glyph glyph-name="Q" unicode="Q" horiz-adv-x="1392" 
d="M1055 737q0 322 -91 453q-92 131 -268 131t-267 -131t-91 -453q0 -323 91 -453t267 -130t268 130t91 453zM119 737q0 383 151 571q152 187 426 187t426 -186t152 -572q0 -444 -201 -628q109 -94 275 -129q-6 -54 -38 -104t-77 -73q-180 59 -299 222q-102 -45 -238 -45
q-577 -1 -577 757z" />
    <glyph glyph-name="R" unicode="R" horiz-adv-x="1282" 
d="M391 1300v-514h289q118 0 184 68t66 190t-66 189q-66 68 -184 67h-289zM182 1475h525q201 0 321 -119t119 -314q0 -152 -77 -260t-212 -149l356 -619q-43 -14 -117 -14t-110 12l-14 2l-340 598h-242v-598q-35 -14 -103 -14t-95 12l-11 2v1461z" />
    <glyph glyph-name="S" unicode="S" horiz-adv-x="1163" 
d="M113 1075q0 195 128 307t371 113q109 0 209 -14t146 -29l47 -14q0 -104 -58 -164q-139 45 -315 45q-322 0 -322 -234q0 -55 27 -92t59 -55q89 -50 216 -88t195 -72q68 -35 130 -83q124 -96 123 -295q0 -199 -132 -310t-382 -110q-121 0 -231 22t-160 43l-51 21
q-4 86 49 165q193 -63 383 -63q311 0 311 233q0 98 -65 150q-66 51 -193 92q-18 5 -80 25t-87 29q-26 9 -79 32t-78 41q-91 65 -117 118q-44 88 -44 187z" />
    <glyph glyph-name="T" unicode="T" horiz-adv-x="1120" 
d="M1067 1392q0 -46 -16 -98h-381v-1280q-37 -14 -88 -14t-121 14v1280h-391q-33 73 0 181h981q16 -37 16 -83z" />
    <glyph glyph-name="U" unicode="U" horiz-adv-x="1376" 
d="M379 467q0 -147 82 -229t229 -82t229 82q81 82 80 229v993q33 14 96 15t97 -13l12 -2v-960q0 -248 -140 -384t-377 -136t-376 138t-139 382v960q69 28 207 0v-993z" />
    <glyph glyph-name="V" unicode="V" horiz-adv-x="1310" 
d="M776 14q-49 -14 -117 -14t-110 12l-14 2l-494 1442q39 18 109 19t104 -17l338 -983q41 -122 59 -213l6 -31h7q18 106 65 244l340 983q29 16 90 17t113 -17z" />
    <glyph glyph-name="W" unicode="W" horiz-adv-x="1978" 
d="M578 0q-62 0 -123 14l-402 1446q35 14 100 15t99 -13l10 -2l268 -962q27 -99 52 -232l6 -39h8q16 135 49 271l246 962q33 14 104 15t105 -13l10 -2l244 -962q24 -93 43 -236l4 -35h6q18 123 57 271l269 962q69 26 145 10q25 -4 35 -8l12 -2l-399 -1446q-47 -14 -115 -14
t-113 12l-16 2l-235 938q-37 175 -46 269l-2 32h-8q-6 -111 -49 -301l-235 -938q-67 -14 -129 -14z" />
    <glyph glyph-name="X" unicode="X" horiz-adv-x="1282" 
d="M1247 18q-43 -18 -112 -18t-125 16l-375 598l-379 -600q-48 -14 -116 -14t-111 14l477 752l-428 694q41 14 110 15t115 -13l12 -2l334 -534l340 534q121 32 221 0l-438 -682z" />
    <glyph glyph-name="Y" unicode="Y" horiz-adv-x="1298" 
d="M665 0q-52 0 -122 14v598l-504 848q45 14 118 15t113 -13l15 -2l374 -633l385 633q71 27 169 10l57 -10l-518 -844v-602q-35 -14 -87 -14z" />
    <glyph glyph-name="Z" unicode="Z" horiz-adv-x="1216" 
d="M1104 1388q0 -54 -14 -96l-771 -1108h797q12 -45 12 -86t-12 -98h-1026q-16 45 -16 95t16 89l760 1108h-705q-12 54 -12 96t12 87h945q14 -33 14 -87z" />
    <glyph glyph-name="grave" unicode="`" horiz-adv-x="487" 
d="M317 1305l-256 276q23 35 76 59t103 17l194 -289q-35 -49 -117 -63z" />
    <glyph glyph-name="a" unicode="a" horiz-adv-x="1054" 
d="M502 504q-209 0 -209 -183t178 -184q115 0 176 82t62 201v72q-141 12 -207 12zM528 1098q210 0 297 -96q88 -96 88 -302v-686q-23 -14 -73 -14t-78 12l-10 2l-31 131q-82 -166 -322 -165q-147 0 -232 87t-85 255q0 322 393 321q127 0 234 -12v76q-1 109 -49 163t-167 56
q-119 0 -233 -37l-37 -15q-35 35 -47 63t-12 85q154 76 364 76z" />
    <glyph glyph-name="b" unicode="b" 
d="M823 539q0 221 -58 306q-59 85 -175 85t-176 -75t-60 -183v-262q0 -111 60 -187t176 -76q117 -1 175 85t58 307zM233 1536q50 0 121 -14v-557q90 133 286 133t294 -130q100 -130 100 -429t-99 -429t-295 -130t-286 133v-99q-34 -14 -84 -14t-120 14v1508q33 14 83 14z
" />
    <glyph glyph-name="c" unicode="c" horiz-adv-x="915" 
d="M588 930q-145 0 -210 -94t-65 -296t68 -294t215 -92q89 0 170 26l22 8q55 -49 60 -147q-90 -61 -304 -61t-328 142t-114 416t114 417q114 142 337 143q88 0 157 -12t93 -25l24 -14q0 -92 -59 -148q-71 31 -180 31z" />
    <glyph glyph-name="d" unicode="d" 
d="M548 930q-116 0 -174 -85t-58 -306t58 -307t174 -85q116 0 177 76q59 76 59 187v264q-2 108 -61 182t-175 74zM869 1536q50 0 120 -14v-1508q-35 -14 -85 -14t-81 12l-12 2l-14 111q-96 -145 -295 -145t-298 130t-100 429q0 299 100 429t292 130q194 0 288 -133v557
q35 14 85 14z" />
    <glyph glyph-name="e" unicode="e" horiz-adv-x="1052" 
d="M758 713q0 223 -201 223q-221 0 -244 -315h439q6 49 6 92zM102 545q0 281 121 417t324 136t309 -106t107 -306q0 -80 -17 -186l-6 -25h-627q12 -176 82 -249t203 -72q66 0 126 15t87 30l29 14q61 -55 65 -147q-38 -32 -140 -60q-101 -27 -200 -26q-463 0 -463 565z" />
    <glyph glyph-name="f" unicode="f" horiz-adv-x="720" 
d="M322 0q-57 0 -113 14v910h-135q-18 97 0 153h135v123q0 160 79 248t263 88q136 0 199 -33l26 -10q-2 -84 -53 -143q-63 22 -153 22t-123 -39q-34 -39 -33 -123v-133h256q10 -37 10 -77t-10 -76h-256v-910q-35 -14 -92 -14z" />
    <glyph glyph-name="g" unicode="g" horiz-adv-x="1087" 
d="M827 -182q0 59 -51 92t-114 41l-160 20t-150 29q-94 -76 -94 -186q0 -82 61 -131t200 -49t223 50t85 134zM715 729q-1 113 -55 169t-150 56t-152 -56t-55 -168q0 -112 55 -168q56 -56 152 -56t150 55t55 168zM1038 1018q0 -47 -14 -82l-170 8q57 -84 57 -215
q0 -174 -103 -271t-298 -98q-51 0 -90 7q-45 -59 -39 -111q11 -93 181 -106t299 -60q69 -26 115 -90t46 -162q0 -154 -141 -252t-373 -98t-341 78q-108 78 -108 194q1 116 59 186q58 71 124 109q-45 45 -45 119q0 113 98 227q-186 86 -186 328q0 174 103 271t298 98
q137 0 227 -47l287 47q14 -33 14 -80z" />
    <glyph glyph-name="h" unicode="h" horiz-adv-x="1124" 
d="M232 1536q51 0 122 -14v-553q113 129 310 129q152 0 234 -84t83 -226v-774q-35 -14 -85 -14t-120 14v738q0 180 -190 180q-145 0 -232 -131v-787q-38 -14 -86 -14t-118 14v1508q31 14 82 14z" />
    <glyph glyph-name="i" unicode="i" horiz-adv-x="512" 
d="M237 1077q52 0 121 -14v-1049q-34 -14 -84 -14t-120 14v1049q31 14 83 14zM238 1491q55 0 124 -14v-193q-38 -14 -90 -14t-122 14v193q33 14 88 14z" />
    <glyph glyph-name="j" unicode="j" horiz-adv-x="512" 
d="M237 1077q52 0 121 -14v-1243q0 -162 -76 -247t-221 -85q-92 0 -137 18q-6 20 -6 65t21 87q33 -8 75 -8q140 0 140 162v1251q31 14 83 14zM255 1493q72 0 107 -14v-193q-37 -14 -107 -14t-105 14v193q33 14 105 14z" />
    <glyph glyph-name="k" unicode="k" horiz-adv-x="1026" 
d="M266 0q-46 0 -116 14v1512q41 10 104 10l100 -10v-887h117l279 424q40 14 104 14t100 -12l-315 -490l362 -561q-45 -16 -111 -16t-114 16l-307 471h-115v-471q-42 -14 -88 -14z" />
    <glyph glyph-name="l" unicode="l" horiz-adv-x="516" 
d="M238 1536q52 0 122 -14v-1508q-36 -14 -92 -14t-112 14v1508q30 14 82 14z" />
    <glyph glyph-name="m" unicode="m" horiz-adv-x="1697" 
d="M231 1077q50 0 121 -14v-92q111 127 297 127t264 -150q125 150 336 150q143 0 225 -84t80 -226v-774q-34 -14 -84 -14t-120 14v738q0 180 -179 180q-137 0 -219 -131v-787q-34 -14 -90 -14t-112 14v738q0 180 -179 180q-133 0 -219 -129v-789q-36 -14 -84 -14t-118 14
v1049q31 14 81 14z" />
    <glyph glyph-name="n" unicode="n" horiz-adv-x="1124" 
d="M232 1077q51 0 122 -14v-94q113 129 310 129q152 0 234 -84t83 -226v-774q-35 -14 -85 -14t-120 14v738q0 180 -190 180q-145 0 -232 -131v-787q-38 -14 -86 -14t-118 14v1049q31 14 82 14z" />
    <glyph glyph-name="o" unicode="o" horiz-adv-x="1114" 
d="M801 539q1 223 -61 312t-183 89t-183 -89t-62 -312t62 -313t183 -89q121 -1 183 89t61 313zM102 539q0 559 455 559q221 0 338 -133t117 -426q0 -559 -455 -559t-455 559z" />
    <glyph glyph-name="p" unicode="p" horiz-adv-x="1140" 
d="M823 539q0 221 -58 306q-59 85 -175 85t-176 -75t-60 -183v-262q0 -111 60 -187t176 -76q117 -1 175 85t58 307zM233 1077q50 0 121 -14v-98q90 133 286 133t294 -130q100 -130 100 -429t-99 -429t-295 -130t-286 133v-574q-36 -12 -90 -12t-114 12v1524q33 14 83 14z
" />
    <glyph glyph-name="q" unicode="q" horiz-adv-x="1140" 
d="M317 539q1 -221 59 -307t172 -85q114 0 175 73q59 73 63 179v273q0 110 -60 184t-176 74t-174 -85t-59 -306zM905 -473q-53 0 -119 12v574q-94 -133 -287 -133t-293 130q-99 130 -100 429q0 299 100 429t293 130q194 0 287 -133v98q31 14 97 14t96 -12l12 -2v-1524
q-33 -12 -86 -12z" />
    <glyph glyph-name="r" unicode="r" horiz-adv-x="806" 
d="M232 1077q51 0 122 -14v-141q104 174 250 174q98 0 178 -52q-8 -106 -90 -172q-59 43 -127 43q-123 0 -211 -155v-746q-34 -14 -84 -14t-120 14v1049q31 14 82 14z" />
    <glyph glyph-name="s" unicode="s" horiz-adv-x="913" 
d="M487 1098q90 0 162 -14t101 -27l26 -15q0 -96 -53 -145q-98 33 -215 33q-209 0 -209 -148q1 -43 23 -63t43 -36t97 -39q77 -23 95 -30q127 -40 200 -106t73 -212t-99 -232q-98 -84 -291 -84q-96 0 -181 18t-124 37l-37 18q0 98 56 152q133 -51 276 -51q197 0 197 147
q0 49 -33 83t-90 55t-115 37q-113 29 -200 92t-87 210q0 148 98 234t287 86z" />
    <glyph glyph-name="t" unicode="t" horiz-adv-x="776" 
d="M702 1017q0 -33 -12 -93h-266v-537q0 -137 47 -189t158 -53l86 9q14 -35 14 -82l-10 -74q-66 -18 -148 -18q-184 0 -268 98t-84 299v547h-158q-12 29 -12 79t12 74h158v187q82 51 205 41v-228h266q12 -27 12 -60z" />
    <glyph glyph-name="u" unicode="u" horiz-adv-x="1122" 
d="M890 0q-52 0 -122 14v95q-113 -129 -309 -129q-152 0 -235 84t-83 225v774q35 14 85 14t120 -14v-737q0 -180 191 -181q145 0 231 131v787q37 14 86 14t119 -14v-1049q-31 -14 -83 -14z" />
    <glyph glyph-name="v" unicode="v" horiz-adv-x="1056" 
d="M825 1063q33 14 91 14t88 -12l10 -2l-361 -1049q-51 -14 -120 -14t-111 12l-14 2l-369 1049q39 14 106 14t97 -12l10 -2l221 -645q35 -111 51 -189l6 -30h9q25 100 63 219z" />
    <glyph glyph-name="w" unicode="w" horiz-adv-x="1632" 
d="M480 0q-71 0 -120 14l-309 1049q37 14 102 14t83 -12l6 -2l194 -653q27 -90 43 -201h6q23 125 45 201l189 653q49 14 110 14t91 -12l10 -2l182 -649q33 -111 41 -205h6q18 92 51 203l193 651q33 14 89 14t81 -12l8 -2l-309 -1049q-51 -14 -116 -14t-120 14l-157 555
q-47 168 -56 295h-8q-8 -131 -57 -295l-162 -555q-45 -14 -116 -14z" />
    <glyph glyph-name="x" unicode="x" horiz-adv-x="1030" 
d="M57 1063q41 14 109 14t104 -12l13 -2l241 -363l244 363q35 14 85 14t120 -14l-340 -504l364 -545q-41 -14 -98 -14t-127 14l-264 396l-266 -396q-37 -14 -87 -14t-120 14l362 537z" />
    <glyph glyph-name="y" unicode="y" horiz-adv-x="1077" 
d="M270 -512q-66 0 -98 16l-14 4l-2 5q0 9 -6 25t-7 64q0 48 17 64q46 -8 106 -8t102 40t85 177l43 125q-43 4 -66 14l-389 1049q39 14 105 14t96 -12l12 -2l233 -623q44 -122 66 -211l6 -28h8q20 96 66 237l203 625q34 14 94 14t90 -12l12 -2l-395 -1221
q-61 -188 -137 -271t-230 -83z" />
    <glyph glyph-name="z" unicode="z" horiz-adv-x="956" 
d="M113 986q0 42 12 91h725q12 -27 12 -81t-12 -87l-543 -741h543q12 -28 12 -74t-12 -94h-760q-12 49 -12 88t12 80l545 741h-510q-12 35 -12 77z" />
    <glyph glyph-name="dieresis" unicode="&#xa8;" horiz-adv-x="931" 
d="M632 1442q64 0 93 -12v-166q-60 -22 -145 -10q-23 3 -31 8l-10 2v166q29 12 93 12zM284 1442q63 0 93 -12v-166q-58 -21 -113 -14q-56 7 -63 12l-11 2v166q31 12 94 12z" />
    <glyph glyph-name="uni00AD" unicode="&#xad;" horiz-adv-x="512" 
 />
    <glyph glyph-name="acute" unicode="&#xb4;" horiz-adv-x="458" 
d="M416 1581l-256 -276q-82 14 -117 63l195 289q49 7 102 -17t76 -59z" />
    <glyph glyph-name="cedilla" unicode="&#xb8;" horiz-adv-x="606" 
d="M526 -248q0 -100 -66 -152t-181 -53q-53 1 -101 13t-67 24l-19 13q-4 59 43 86q57 -29 133 -29q129 0 129 104q0 94 -114 95h-74l-27 28l41 219l113 -26l-23 -127q213 0 213 -195z" />
    <glyph glyph-name="Agrave" unicode="&#xc0;" horiz-adv-x="1339" 
d="M666 1247h-7q-18 -82 -53 -184l-188 -518h487l-186 518zM1307 14q-37 -14 -106 -14t-99 12l-10 2l-127 361h-607l-129 -361q-35 -14 -95 -14t-91 12l-10 2l514 1446q94 26 188 10l58 -10zM604 1890l195 -288q-35 -49 -117 -64l-256 277q23 35 76 58t102 17z" />
    <glyph glyph-name="Aacute" unicode="&#xc1;" horiz-adv-x="1339" 
d="M666 1247h-7q-18 -82 -53 -184l-188 -518h487l-186 518zM1307 14q-37 -14 -106 -14t-99 12l-10 2l-127 361h-607l-129 -361q-35 -14 -95 -14t-91 12l-10 2l514 1446q94 26 188 10l58 -10zM557 1604l195 288q49 6 102 -18t76 -57l-256 -277q-82 15 -117 64z" />
    <glyph glyph-name="Acircumflex" unicode="&#xc2;" horiz-adv-x="1339" 
d="M666 1247h-7q-18 -82 -53 -184l-188 -518h487l-186 518zM1307 14q-37 -14 -106 -14t-99 12l-10 2l-127 361h-607l-129 -361q-35 -14 -95 -14t-91 12l-10 2l514 1446q94 26 188 10l58 -10zM688 1874l283 -234q-33 -72 -94 -90l-215 146l-213 -146q-59 20 -95 90l281 234
h53z" />
    <glyph glyph-name="Atilde" unicode="&#xc3;" horiz-adv-x="1339" 
d="M666 1247h-7q-18 -82 -53 -184l-188 -518h487l-186 518zM1307 14q-37 -14 -106 -14t-99 12l-10 2l-127 361h-607l-129 -361q-35 -14 -95 -14t-91 12l-10 2l514 1446q94 26 188 10l58 -10zM679 1719q69 -38 111 -37t76 55q72 -14 99 -70q-19 -37 -73 -74t-114 -40t-125 34
q-67 37 -99 35q-65 -4 -89 -53q-72 10 -92 65q6 12 17 30t56 52q44 33 104 37t129 -34z" />
    <glyph glyph-name="Adieresis" unicode="&#xc4;" horiz-adv-x="1339" 
d="M666 1247h-7q-18 -82 -53 -184l-188 -518h487l-186 518zM1307 14q-37 -14 -106 -14t-99 12l-10 2l-127 361h-607l-129 -361q-35 -14 -95 -14t-91 12l-10 2l514 1446q94 26 188 10l58 -10zM932 1561q-33 -13 -98 -13t-89 13v165q29 12 86 12t101 -12v-165zM584 1561
q-33 -13 -98 -13t-89 13v165q29 12 84 12t103 -12v-165z" />
    <glyph glyph-name="Aring" unicode="&#xc5;" horiz-adv-x="1339" 
d="M905 545l-186 518l-53 184h-7q-18 -82 -53 -184l-188 -518h487zM795 1606q0 49 -35 85q-35 35 -96 35t-95 -35q-33 -36 -33 -86t34 -86q32 -36 94 -36t96 37q35 37 35 86zM1307 14q-37 -14 -106 -14t-99 12l-10 2l-127 361h-607l-129 -361q-35 -14 -95 -14t-91 12l-10 2
l497 1399q-111 59 -110 193q0 104 73 164t172 60t174 -58t75 -176t-107 -177z" />
    <glyph glyph-name="AE" unicode="&#xc6;" horiz-adv-x="1771" 
d="M909 537v616l-368 -616h368zM1102 1305v-476h442q33 -88 0 -170h-442v-489h565q37 -94 0 -170h-758v367h-469l-209 -351q-45 -16 -117 -16t-104 16l887 1459h750q39 -80 0 -170h-545z" />
    <glyph glyph-name="Ccedilla" unicode="&#xc7;" horiz-adv-x="1150" 
d="M1087 61v-12q-129 -68 -360 -69l-12 -74q213 0 213 -195q0 -100 -66 -152q-66 -53 -176 -53t-174 37l-18 13q-4 59 43 86q57 -29 133 -29q129 0 129 104q0 94 -115 95h-74l-26 28l26 148q-492 66 -491 749q0 373 151 566q152 193 447 192q100 0 187 -17t124 -36l39 -17
q6 -35 -13 -82t-50 -71q-117 47 -265 47q-193 0 -297 -131t-104 -453q0 -323 103 -449t298 -126q153 0 250 37l35 10q46 -36 59 -113q4 -23 4 -33z" />
    <glyph glyph-name="Egrave" unicode="&#xc8;" 
d="M182 1475h832q16 -49 16 -88t-16 -82h-623v-476h520q30 -91 0 -167h-520v-492h643q16 -53 16 -89t-16 -81h-852v1475zM608 1538l-256 277q23 35 76 59t102 16l195 -288q-35 -50 -117 -64z" />
    <glyph glyph-name="Eacute" unicode="&#xc9;" 
d="M182 1475h832q16 -49 16 -88t-16 -82h-623v-476h520q30 -91 0 -167h-520v-492h643q16 -53 16 -89t-16 -81h-852v1475zM811 1819l-256 -277q-82 14 -117 64l195 288q49 6 102 -17t76 -58z" />
    <glyph glyph-name="Ecircumflex" unicode="&#xca;" 
d="M182 1475h832q16 -49 16 -88t-16 -82h-623v-476h520q30 -91 0 -167h-520v-492h643q16 -53 16 -89t-16 -81h-852v1475zM623 1874l282 -234q-37 -74 -94 -90l-215 146l-213 -146q-61 20 -96 90l282 234h54z" />
    <glyph glyph-name="Edieresis" unicode="&#xcb;" 
d="M182 1475h832q16 -49 16 -88t-16 -82h-623v-476h520q30 -91 0 -167h-520v-492h643q16 -53 16 -89t-16 -81h-852v1475zM676 1726q29 12 86 12t100 -12v-165q-33 -13 -99 -13t-87 13v165zM328 1726q29 12 86 12t100 -12v-165q-33 -13 -99 -13t-87 13v165z" />
    <glyph glyph-name="Igrave" unicode="&#xcc;" horiz-adv-x="573" 
d="M391 14q-37 -14 -107 -14t-91 12l-11 2v1446q70 28 209 0v-1446zM311 1538l-256 277q23 35 76 59t102 16l195 -288q-35 -50 -117 -64z" />
    <glyph glyph-name="Iacute" unicode="&#xcd;" horiz-adv-x="573" 
d="M391 14q-37 -14 -107 -14t-91 12l-11 2v1446q70 28 209 0v-1446zM494 1819l-256 -277q-82 14 -117 64l194 288q49 6 103 -17t76 -58z" />
    <glyph glyph-name="Icircumflex" unicode="&#xce;" horiz-adv-x="573" 
d="M391 14q-37 -14 -107 -14t-91 12l-11 2v1446q70 28 209 0v-1446zM313 1874l283 -234q-37 -74 -94 -90l-215 146l-213 -146q-61 20 -97 90l283 234h53z" />
    <glyph glyph-name="Idieresis" unicode="&#xcf;" horiz-adv-x="573" 
d="M391 14q-37 -14 -107 -14t-91 12l-11 2v1446q70 28 209 0v-1446zM369 1726q29 12 86 12t100 -12v-165q-33 -13 -99 -13t-87 13v165zM20 1726q31 12 87 12t100 -12v-165q-33 -13 -98 -13t-89 13v165z" />
    <glyph glyph-name="Eth" unicode="&#xd0;" horiz-adv-x="1386" 
d="M416 1300v-499h291q25 -66 0 -142h-291v-485h231q96 0 164 24t122 84q109 121 108 457t-108 454q-54 60 -122 84t-164 23h-231zM207 1475h455q298 0 450 -172q152 -171 152 -565t-153 -566t-449 -172h-455v659h-162q-23 76 0 142h162v674z" />
    <glyph glyph-name="Ntilde" unicode="&#xd1;" horiz-adv-x="1433" 
d="M1251 14q-39 -14 -101 -14t-146 14l-515 932q-67 120 -108 228l-12 36h-9q14 -137 15 -344v-852q-31 -14 -96 -14t-86 12l-11 2v1446q43 14 120 15t116 -13l12 -2l508 -923q71 -127 115 -234l14 -39h6q-14 152 -14 342v854q68 31 192 0v-1446zM627 1616q-61 0 -103 -53
q-63 33 -75 92q22 37 76 69q55 31 113 31q58 -1 124 -35t113 -34q48 0 86 53q61 -23 75 -94q-27 -40 -81 -69q-54 -28 -111 -28q-56 0 -120 34t-97 34z" />
    <glyph glyph-name="Ograve" unicode="&#xd2;" horiz-adv-x="1392" 
d="M1055 737q0 322 -91 453q-92 131 -268 131t-267 -131t-91 -453q0 -323 91 -453t267 -130t268 130t91 453zM119 737q0 383 151 571q152 187 426 187t426 -186t152 -572q0 -758 -578 -757q-577 -1 -577 757zM674 1890l188 -282q-35 -51 -117 -64l-249 271q23 35 76 58
t102 17z" />
    <glyph glyph-name="Oacute" unicode="&#xd3;" horiz-adv-x="1392" 
d="M1055 737q0 322 -91 453q-92 131 -268 131t-267 -131t-91 -453q0 -323 91 -453t267 -130t268 130t91 453zM119 737q0 383 151 571q152 187 426 187t426 -186t152 -572q0 -758 -578 -757q-577 -1 -577 757zM647 1651l191 282q49 3 102 -19t76 -56l-252 -273
q-82 15 -117 66z" />
    <glyph glyph-name="Ocircumflex" unicode="&#xd4;" horiz-adv-x="1392" 
d="M1055 737q0 322 -91 453q-92 131 -268 131t-267 -131t-91 -453q0 -323 91 -453t267 -130t268 130t91 453zM119 737q0 383 151 571q152 187 426 187t426 -186t152 -572q0 -758 -578 -757q-577 -1 -577 757zM725 1874l283 -234q-37 -74 -95 -90l-215 146l-213 -146
q-59 20 -94 90l281 234h53z" />
    <glyph glyph-name="Otilde" unicode="&#xd5;" horiz-adv-x="1392" 
d="M696 1321q-176 0 -267 -131t-91 -453q0 -323 91 -453t267 -130t268 131q91 131 91 453t-91 452q-92 131 -268 131zM696 -20q-578 0 -577 757q0 383 151 571q152 187 426 187t426 -186t152 -572q0 -757 -578 -757zM823 1718q60 0 95 58q28 -10 50 -36t27 -54
q-18 -36 -72 -71q-53 -34 -107 -35t-124 30q-70 30 -104 30t-57 -14q-24 -14 -31 -29l-11 -14q-61 29 -77 90q6 9 19 27t59 47q100 63 231 2q65 -31 102 -31z" />
    <glyph glyph-name="Odieresis" unicode="&#xd6;" horiz-adv-x="1392" 
d="M1055 737q0 322 -91 453q-92 131 -268 131t-267 -131t-91 -453q0 -323 91 -453t267 -130t268 130t91 453zM119 737q0 383 151 571q152 187 426 187t426 -186t152 -572q0 -758 -578 -757q-577 -1 -577 757zM873 1569q-61 0 -93 12v166q29 12 75 12t112 -12v-166
q-33 -12 -94 -12zM524 1569q-62 0 -92 12v166q29 12 77 12t109 -12v-166q-32 -12 -94 -12z" />
    <glyph glyph-name="Oslash" unicode="&#xd8;" horiz-adv-x="1390" 
d="M991 1106l-516 -877q78 -76 219 -75q176 0 268 131q91 131 91 452q-1 236 -62 369zM694 1321q-176 0 -267 -131t-91 -453q0 -225 51 -348l514 871q-78 61 -207 61zM1272 737q0 -758 -578 -757q-186 0 -319 86l-94 -162q-94 4 -146 67l123 205q-141 188 -141 566t151 566
q152 187 426 187q176 0 303 -76l90 152q86 -6 144 -68l-115 -190q156 -190 156 -576z" />
    <glyph glyph-name="Ugrave" unicode="&#xd9;" horiz-adv-x="1376" 
d="M379 467q0 -147 82 -229t229 -82t229 82q81 82 80 229v993q33 14 96 15t97 -13l12 -2v-960q0 -248 -140 -384t-377 -136t-376 138t-139 382v960q69 28 207 0v-993zM690 1544l-250 271q23 35 76 59t102 16l189 -280q-35 -52 -117 -66z" />
    <glyph glyph-name="Uacute" unicode="&#xda;" horiz-adv-x="1376" 
d="M379 467q0 -147 82 -229t229 -82t229 82q81 82 80 229v993q33 14 96 15t97 -13l12 -2v-960q0 -248 -140 -384t-377 -136t-376 138t-139 382v960q69 28 207 0v-993zM920 1819l-256 -277q-82 14 -117 64l194 288q49 6 103 -17t76 -58z" />
    <glyph glyph-name="Ucircumflex" unicode="&#xdb;" horiz-adv-x="1376" 
d="M379 467q0 -147 82 -229t229 -82t229 82q81 82 80 229v993q33 14 96 15t97 -13l12 -2v-960q0 -248 -140 -384t-377 -136t-376 138t-139 382v960q69 28 207 0v-993zM731 1874l283 -234q-37 -74 -94 -90l-215 146l-213 -146q-61 20 -97 90l283 234h53z" />
    <glyph glyph-name="Udieresis" unicode="&#xdc;" horiz-adv-x="1376" 
d="M379 467q0 -147 82 -229t229 -82t229 82q81 82 80 229v993q33 14 96 15t97 -13l12 -2v-960q0 -248 -140 -384t-377 -136t-376 138t-139 382v960q69 28 207 0v-993zM849 1751q48 0 109 -12v-168q-33 -12 -79 -12t-107 12v168q29 12 77 12zM502 1751q48 0 108 -12v-168
q-33 -12 -80 -12t-106 12v168q30 12 78 12z" />
    <glyph glyph-name="Yacute" unicode="&#xdd;" horiz-adv-x="1298" 
d="M665 0q-52 0 -122 14v598l-504 848q45 14 118 15t113 -13l15 -2l374 -633l385 633q71 27 169 10l57 -10l-518 -844v-602q-35 -14 -87 -14zM522 1606l195 288q49 6 102 -18t76 -57l-256 -277q-82 15 -117 64z" />
    <glyph glyph-name="Thorn" unicode="&#xde;" horiz-adv-x="1245" 
d="M391 1024v-526h299q121 0 186 68t64 194q0 124 -64 194t-186 70h-299zM391 1198h326q201 0 321 -120t119 -318q0 -198 -120 -318q-120 -119 -320 -118h-326v-310q-37 -14 -107 -14t-91 12l-11 2v1446q70 28 209 0v-262z" />
    <glyph glyph-name="germandbls" unicode="&#xdf;" horiz-adv-x="1171" 
d="M270 0q-50 0 -120 14v1125q0 397 436 397q195 0 298 -103t101 -253q0 -98 -43 -193q-17 0 -60 -15q-42 -14 -68 -32t-48 -53t-21 -85q0 -50 37 -95t88 -79q52 -34 104 -74t89 -108t37 -157q0 -152 -93 -231q-93 -78 -238 -78t-220 28l-25 10q-8 84 43 142q68 -23 154 -23
t135 38q49 37 49 101t-37 110t-89 82t-104 75t-89 101t-37 132t26 134q26 63 111 117q31 19 51 26l23 8q53 162 -31 256q-49 55 -145 55q-229 0 -230 -233v-1125q-34 -14 -84 -14z" />
    <glyph glyph-name="agrave" unicode="&#xe0;" horiz-adv-x="1054" 
d="M502 504q-209 0 -209 -183t178 -184q115 0 176 82t62 201v72q-141 12 -207 12zM528 1098q210 0 297 -96q88 -96 88 -302v-686q-23 -14 -73 -14t-78 12l-10 2l-31 131q-82 -166 -322 -165q-147 0 -232 87t-85 255q0 322 393 321q127 0 234 -12v86q1 104 -49 156
q-50 53 -168 53t-232 -37l-37 -15q-35 35 -47 63t-12 85q154 76 364 76zM426 1589l195 -289q-35 -49 -117 -63l-256 276q23 35 76 59t102 17z" />
    <glyph glyph-name="aacute" unicode="&#xe1;" horiz-adv-x="1054" 
d="M502 504q-209 0 -209 -183t178 -184q115 0 176 82t62 201v72q-141 12 -207 12zM528 1098q210 0 297 -96q88 -96 88 -302v-686q-23 -14 -73 -14t-78 12l-10 2l-31 131q-82 -166 -322 -165q-147 0 -232 87t-85 255q0 322 393 321q127 0 234 -12v84q-1 106 -49 158
q-48 53 -167 53t-233 -37l-37 -15q-35 35 -47 63t-12 85q154 76 364 76zM373 1300l192 289q49 5 103 -17t77 -59l-256 -276q-81 12 -116 63z" />
    <glyph glyph-name="acircumflex" unicode="&#xe2;" horiz-adv-x="1054" 
d="M502 504q-209 0 -209 -183t178 -184q115 0 176 82t62 201v72q-141 12 -207 12zM528 1098q210 0 297 -96q88 -96 88 -302v-686q-23 -14 -73 -14t-78 12l-10 2l-31 131q-82 -166 -322 -165q-147 0 -232 87t-85 255q0 322 393 321q127 0 234 -12v90q1 105 -49 155t-168 50
t-232 -37l-37 -15q-35 35 -47 63t-12 85q154 76 364 76zM559 1548l277 -225q-35 -70 -93 -90l-211 141l-208 -139q-57 20 -93 88l277 225h51z" />
    <glyph glyph-name="atilde" unicode="&#xe3;" horiz-adv-x="1054" 
d="M502 504q-209 0 -209 -183t178 -184q115 0 176 82t62 201v72q-141 12 -207 12zM528 1098q210 0 297 -96q88 -96 88 -302v-686q-23 -14 -73 -14t-78 12l-10 2l-31 131q-82 -166 -322 -165q-147 0 -232 87t-85 255q0 322 393 321q127 0 234 -12v94q1 105 -49 153t-168 48
t-232 -37l-37 -15q-35 35 -47 62t-12 86q154 76 364 76zM402 1327q-46 0 -89 -55q-61 33 -73 92q19 39 76 70q112 61 236 -4q66 -35 114 -35t84 53q61 -23 75 -92q-18 -36 -76 -68q-57 -31 -114 -31t-122 35t-111 35z" />
    <glyph glyph-name="adieresis" unicode="&#xe4;" horiz-adv-x="1054" 
d="M502 504q-209 0 -209 -183t178 -184q115 0 176 82t62 201v72q-141 12 -207 12zM528 1098q210 0 297 -96q88 -96 88 -302v-686q-23 -14 -73 -14t-78 12l-10 2l-31 131q-82 -166 -322 -165q-147 0 -232 87t-85 255q0 322 393 321q127 0 234 -12v88q1 102 -49 154
q-50 53 -168 53t-232 -37l-37 -15q-35 35 -47 63t-12 85q154 76 364 76zM706 1266q-62 0 -94 12v166q31 12 85 12t102 -12v-166q-31 -12 -93 -12zM355 1266q-65 0 -89 12v166q29 12 75 12t112 -12v-166q-33 -12 -98 -12z" />
    <glyph glyph-name="aring" unicode="&#xe5;" horiz-adv-x="1054" 
d="M502 504q-209 0 -209 -183t178 -184q115 0 176 82t62 201v72q-141 12 -207 12zM528 1098q210 0 297 -96q88 -96 88 -302v-686q-23 -14 -73 -14t-78 12l-10 2l-31 131q-82 -166 -322 -165q-147 0 -232 87t-85 255q0 322 393 321q127 0 234 -12v82q-1 109 -49 161t-167 52
t-233 -37l-37 -15q-35 35 -47 63t-12 85q154 76 364 76zM649 1421q0 45 -32 76t-88 31t-87 -32q-30 -32 -30 -77t30 -77t87 -32q56 0 88 34q32 32 32 77zM289 1418q0 101 71 159q72 57 170 57t171 -56t73 -158t-71 -162q-71 -58 -175 -58t-172 58q-67 59 -67 160z" />
    <glyph glyph-name="ae" unicode="&#xe6;" horiz-adv-x="1574" 
d="M678 489h-189q-106 1 -153 -39t-47 -133q0 -180 157 -180q111 0 171 76t61 195v81zM1282 713q0 223 -184 223q-201 0 -224 -303h402q6 31 6 80zM1096 1098q186 0 287 -104t102 -308q0 -113 -17 -174l-6 -23h-590q14 -180 80 -262t185 -82q61 -1 119 13t85 28l27 15
q51 -41 62 -135q-12 -10 -35 -24t-106 -39q-83 -23 -203 -23t-205 66q-86 66 -119 149q-29 -84 -117 -150q-89 -65 -243 -65t-238 87t-84 252t95 239t288 75h215v92q0 105 -45 153t-159 48t-218 -37l-35 -15q-55 53 -59 148q145 76 354 76t287 -160q107 160 293 160z" />
    <glyph glyph-name="ccedilla" unicode="&#xe7;" horiz-adv-x="913" 
d="M760 -303q0 -101 -66 -151t-178 -50t-172 37l-18 12q-4 59 43 86q57 -29 133 -28q129 0 129 100q0 92 -115 92h-74l-26 29l30 166q-344 66 -344 549q0 274 114 416t337 143q88 0 157 -12t93 -25l24 -14q-4 -86 -59 -140q-72 31 -180 31q-145 0 -210 -98t-65 -301t68 -298
t215 -96q86 0 170 27l22 8q53 -47 60 -139q-86 -59 -287 -61l-14 -93q213 0 213 -190z" />
    <glyph glyph-name="egrave" unicode="&#xe8;" horiz-adv-x="1052" 
d="M758 713q0 223 -201 223q-221 0 -244 -315h439q6 49 6 92zM102 545q0 281 121 417t324 136t309 -106t107 -306q0 -80 -17 -186l-6 -25h-627q12 -176 82 -249t203 -72q66 0 126 15t87 30l29 14q61 -55 65 -147q-38 -32 -140 -60q-101 -27 -200 -26q-463 0 -463 565z
M567 1237l-256 276q23 35 76 59t102 17l195 -289q-35 -49 -117 -63z" />
    <glyph glyph-name="eacute" unicode="&#xe9;" horiz-adv-x="1052" 
d="M758 713q0 223 -201 223q-221 0 -244 -315h439q6 49 6 92zM102 545q0 281 121 417t324 136t309 -106t107 -306q0 -80 -17 -186l-6 -25h-627q12 -176 82 -249t203 -72q66 0 126 15t87 30l29 14q61 -55 65 -147q-38 -32 -140 -60q-101 -27 -200 -26q-463 0 -463 565z
M752 1513l-256 -276q-82 14 -117 63l194 289q49 7 103 -17t76 -59z" />
    <glyph glyph-name="ecircumflex" unicode="&#xea;" horiz-adv-x="1052" 
d="M758 713q0 223 -201 223q-221 0 -244 -315h439q6 49 6 92zM102 545q0 281 121 417t324 136t309 -106t107 -306q0 -80 -17 -186l-6 -25h-627q12 -176 82 -249t203 -72q66 0 126 15t87 30l29 14q61 -55 65 -147q-38 -32 -140 -60q-101 -27 -200 -26q-463 0 -463 565z
M575 1548l277 -225q-31 -70 -92 -90l-209 141l-209 -139q-59 20 -94 88l276 225h51z" />
    <glyph glyph-name="edieresis" unicode="&#xeb;" horiz-adv-x="1052" 
d="M758 713q0 223 -201 223q-221 0 -244 -315h439q6 49 6 92zM102 545q0 281 121 417t324 136t309 -106t107 -306q0 -80 -17 -186l-6 -25h-627q12 -176 82 -249t203 -72q66 0 126 15t87 30l29 14q61 -55 65 -147q-38 -32 -140 -60q-101 -27 -200 -26q-463 0 -463 565z
M710 1448q48 0 107 -12v-168q-76 -28 -186 0v168q31 12 79 12zM363 1448q49 0 108 -12v-168q-60 -22 -145 -10q-23 3 -31 8l-10 2v168q29 12 78 12z" />
    <glyph glyph-name="igrave" unicode="&#xec;" horiz-adv-x="512" 
d="M237 1077q52 0 121 -14v-1049q-34 -14 -84 -14t-120 14v1049q31 14 83 14zM268 1241l-256 277q23 34 76 58t102 17l195 -288q-35 -50 -117 -64z" />
    <glyph glyph-name="iacute" unicode="&#xed;" horiz-adv-x="512" 
d="M237 1077q52 0 121 -14v-1049q-34 -14 -84 -14t-120 14v1049q31 14 83 14zM483 1513l-256 -276q-82 14 -116 63l194 289q49 7 102 -17t76 -59z" />
    <glyph glyph-name="icircumflex" unicode="&#xee;" horiz-adv-x="512" 
d="M237 1077q52 0 121 -14v-1049q-34 -14 -84 -14t-120 14v1049q31 14 83 14zM283 1548l278 -225q-35 -70 -94 -90l-209 141l-209 -139q-57 18 -92 88l274 225h52z" />
    <glyph glyph-name="idieresis" unicode="&#xef;" horiz-adv-x="512" 
d="M237 1077q52 0 121 -14v-1049q-34 -14 -84 -14t-120 14v1049q31 14 83 14zM409 1452q48 0 109 -12v-168q-34 -10 -90 -10t-96 10v168q29 12 77 12zM62 1452q48 0 108 -12v-168q-33 -10 -92 -10l-94 10v168q30 12 78 12z" />
    <glyph glyph-name="eth" unicode="&#xf0;" horiz-adv-x="1136" 
d="M559 137q121 0 184 83t63 297t-64 296t-186 82t-182 -83t-60 -296t62 -296t183 -83zM1030 629q0 -361 -118 -505t-353 -144q-457 0 -457 536t437 537q166 0 260 -101q-53 186 -193 301l-235 -149q-59 49 -72 110l182 115q-98 53 -211 76q-6 86 43 131q172 -27 318 -113
l164 105q53 -39 69 -109l-121 -76q287 -254 287 -714z" />
    <glyph glyph-name="ntilde" unicode="&#xf1;" horiz-adv-x="1124" 
d="M232 1077q51 0 122 -14v-94q113 129 310 129q152 0 234 -84t83 -226v-774q-35 -14 -85 -14t-120 14v738q0 180 -190 180q-145 0 -232 -131v-787q-38 -14 -86 -14t-118 14v1049q31 14 82 14zM424 1329q-48 0 -88 -57q-68 35 -76 94q23 38 77 69q108 63 237 -2
q65 -34 111 -34t87 57q63 -27 78 -94q-23 -38 -78 -70q-55 -30 -114 -30q-58 0 -122 34t-112 33z" />
    <glyph glyph-name="ograve" unicode="&#xf2;" horiz-adv-x="1114" 
d="M801 539q1 223 -61 312t-183 89t-183 -89t-62 -312t62 -313t183 -89q121 -1 183 89t61 313zM102 539q0 559 455 559q221 0 338 -133t117 -426q0 -559 -455 -559t-455 559zM446 1589l193 -289q-35 -49 -117 -63l-256 276q23 37 77 59t103 17z" />
    <glyph glyph-name="oacute" unicode="&#xf3;" horiz-adv-x="1114" 
d="M801 539q1 223 -61 312t-183 89t-183 -89t-62 -312t62 -313t183 -89q121 -1 183 89t61 313zM102 539q0 559 455 559q221 0 338 -133t117 -426q0 -559 -455 -559t-455 559zM375 1300l194 289q49 7 103 -17t76 -59l-256 -276q-82 14 -117 63z" />
    <glyph glyph-name="ocircumflex" unicode="&#xf4;" horiz-adv-x="1114" 
d="M801 539q1 223 -61 312t-183 89t-183 -89t-62 -312t62 -313t183 -89q121 -1 183 89t61 313zM102 539q0 559 455 559q221 0 338 -133t117 -426q0 -559 -455 -559t-455 559zM573 1548l277 -225q-35 -70 -92 -90l-211 141l-209 -139q-57 20 -92 88l276 225h51z" />
    <glyph glyph-name="otilde" unicode="&#xf5;" horiz-adv-x="1114" 
d="M801 539q1 223 -61 312t-183 89t-183 -89t-62 -312t62 -313t183 -89q121 -1 183 89t61 313zM102 539q0 559 455 559q221 0 338 -133t117 -426q0 -559 -455 -559t-455 559zM650 1255q-60 0 -124 34t-110 34q-47 0 -88 -57q-68 33 -76 94q6 10 20 28t62 45t107 27
q58 0 124 -34t112 -34t87 58q66 -27 76 -94q-23 -38 -77 -69q-53 -32 -113 -32z" />
    <glyph glyph-name="odieresis" unicode="&#xf6;" horiz-adv-x="1114" 
d="M801 539q1 223 -61 312t-183 89t-183 -89t-62 -312t62 -313t183 -89q121 -1 183 89t61 313zM102 539q0 559 455 559q221 0 338 -133t117 -426q0 -559 -455 -559t-455 559zM730 1266q-52 0 -101 10v168q29 12 77 12t109 -12v-168q-33 -10 -85 -10zM360 1456q48 0 107 -12
v-168q-33 -10 -92 -10l-94 10v168q31 12 79 12z" />
    <glyph glyph-name="oslash" unicode="&#xf8;" horiz-adv-x="1116" 
d="M559 137q121 0 182 89t62 313q0 141 -33 227l-348 -590q49 -39 137 -39zM559 940q-123 0 -185 -89t-63 -312q0 -145 39 -230l348 590q-55 41 -139 41zM1014 539q0 -559 -455 -559q-129 0 -227 47l-74 -125q-74 2 -121 57l88 147q-123 139 -123 433q0 559 457 559
q137 0 227 -49l76 125q63 -2 119 -58l-88 -147q121 -137 121 -430z" />
    <glyph glyph-name="ugrave" unicode="&#xf9;" horiz-adv-x="1122" 
d="M226 1077q50 0 120 -14v-737q0 -180 191 -181q145 0 231 131v787q37 14 86 14t119 -14v-1049q-31 -14 -83 -14t-122 14v95q-113 -129 -309 -129q-152 0 -235 84t-83 225v774q35 14 85 14zM489 1589l195 -289q-35 -49 -117 -63l-256 276q23 35 76 59t102 17z" />
    <glyph glyph-name="uacute" unicode="&#xfa;" horiz-adv-x="1122" 
d="M890 0q-52 0 -122 14v95q-113 -129 -309 -129q-152 0 -235 84t-83 225v774q35 14 85 14t120 -14v-737q0 -180 191 -181q145 0 231 131v787q37 14 86 14t119 -14v-1049q-31 -14 -83 -14zM768 1513l-256 -276q-82 14 -117 63l195 289q49 7 102 -17t76 -59z" />
    <glyph glyph-name="ucircumflex" unicode="&#xfb;" horiz-adv-x="1122" 
d="M890 0q-52 0 -122 14v95q-113 -129 -309 -129q-152 0 -235 84t-83 225v774q35 14 85 14t120 -14v-737q0 -180 191 -181q145 0 231 131v787q37 14 86 14t119 -14v-1049q-31 -14 -83 -14zM588 1548l276 -225q-35 -70 -92 -90l-209 141l-209 -139q-59 20 -94 88l277 225h51z
" />
    <glyph glyph-name="udieresis" unicode="&#xfc;" horiz-adv-x="1122" 
d="M226 1077q50 0 120 -14v-737q0 -180 191 -181q145 0 231 131v787q37 14 86 14t119 -14v-1049q-31 -14 -83 -14t-122 14v95q-113 -129 -309 -129q-152 0 -235 84t-83 225v774q35 14 85 14zM733 1266q-61 0 -92 12v168q29 12 93 12q63 0 93 -12v-168q-33 -12 -94 -12z
M385 1266q-61 0 -92 12v168q29 12 92 12t94 -12v-168q-33 -12 -94 -12z" />
    <glyph glyph-name="yacute" unicode="&#xfd;" horiz-adv-x="1077" 
d="M270 -512q-66 0 -98 16l-14 4l-2 5q0 9 -6 25t-7 64q0 48 17 64q46 -8 106 -8t102 40t85 177l43 125q-43 4 -66 14l-389 1049q39 14 105 14t96 -12l12 -2l233 -623q44 -122 66 -211l6 -28h8q20 96 66 237l203 625q34 14 94 14t90 -12l12 -2l-395 -1221
q-61 -188 -137 -271t-230 -83zM764 1513l-256 -276q-82 14 -117 63l195 289q49 7 102 -17t76 -59z" />
    <glyph glyph-name="thorn" unicode="&#xfe;" horiz-adv-x="1140" 
d="M823 539q0 221 -58 306q-59 85 -175 85t-176 -75t-60 -183v-262q0 -111 60 -187t176 -76q117 -1 175 85t58 307zM264 -473q-54 0 -114 12v1983q33 14 83 14t121 -14v-557q90 133 286 133t294 -130q100 -130 100 -429t-99 -429t-295 -130t-286 133v-574q-36 -12 -90 -12z
" />
    <glyph glyph-name="ydieresis" unicode="&#xff;" horiz-adv-x="1077" 
d="M270 -512q-66 0 -98 16l-14 4l-2 5q0 9 -6 25t-7 64q0 48 17 64q46 -8 106 -8t102 40t85 177l43 125q-43 4 -66 14l-389 1049q39 14 105 14t96 -12l12 -2l233 -623q44 -122 66 -211l6 -28h8q20 96 66 237l203 625q34 14 94 14t90 -12l12 -2l-395 -1221
q-61 -188 -137 -271t-230 -83zM728 1458q64 0 93 -12v-166q-33 -12 -85 -12t-101 12v166q29 12 93 12zM380 1458q64 0 93 -12v-166q-33 -12 -85 -12t-101 12v166q29 12 93 12z" />
    <glyph glyph-name="Amacron" unicode="&#x100;" horiz-adv-x="1339" 
d="M666 1247h-7q-18 -82 -53 -184l-188 -518h487l-186 518zM1307 14q-37 -14 -106 -14t-99 12l-10 2l-127 361h-607l-129 -361q-35 -14 -95 -14t-91 12l-10 2l514 1446q94 26 188 10l58 -10zM358 1726h605q18 -57 0 -124h-605q-18 63 0 124z" />
    <glyph glyph-name="amacron" unicode="&#x101;" horiz-adv-x="1054" 
d="M502 504q-209 0 -209 -183t178 -184q115 0 176 82t62 201v72q-141 12 -207 12zM528 1098q210 0 297 -96q88 -96 88 -302v-686q-23 -14 -73 -14t-78 12l-10 2l-31 131q-82 -166 -322 -165q-147 0 -232 87t-85 255q0 322 393 321q127 0 234 -12v84q-1 109 -49 159t-167 52
q-119 0 -233 -37l-37 -15q-35 35 -47 63t-12 85q154 76 364 76zM244 1421h579q23 -53 0 -118h-579q-16 65 0 118z" />
    <glyph glyph-name="Abreve" unicode="&#x102;" horiz-adv-x="1339" 
d="M666 1247h-7q-18 -82 -53 -184l-188 -518h487l-186 518zM1307 14q-37 -14 -106 -14t-99 12l-10 2l-127 361h-607l-129 -361q-35 -14 -95 -14t-91 12l-10 2l514 1446q94 26 188 10l58 -10zM662 1739q63 0 119 16t81 33l25 16q70 -23 90 -94q-120 -120 -315 -123
q-94 0 -174 31t-111 61l-33 31q25 72 92 94q85 -65 226 -65z" />
    <glyph glyph-name="abreve" unicode="&#x103;" horiz-adv-x="1054" 
d="M502 504q-209 0 -209 -183t178 -184q115 0 176 82t62 201v72q-141 12 -207 12zM528 1098q210 0 297 -96q88 -96 88 -302v-686q-23 -14 -73 -14t-78 12l-10 2l-31 131q-82 -166 -322 -165q-147 0 -232 87t-85 255q0 322 393 321q127 0 234 -12v92q0 203 -211 203
q-124 0 -238 -37l-37 -15q-35 35 -47 63t-12 85q154 76 364 76zM526 1411q62 0 116 16t79 33l24 17q66 -18 89 -97q-12 -14 -35 -36t-103 -57q-80 -36 -170 -36t-167 32t-109 65l-31 32q20 74 88 97q82 -66 219 -66z" />
    <glyph glyph-name="Aogonek" unicode="&#x104;" horiz-adv-x="1339" 
d="M905 545l-186 518l-53 184h-7q-18 -82 -53 -184l-188 -518h487zM1158 -379q-84 0 -140 51q-57 51 -57 140q0 139 137 200l-6 2l-127 361h-607l-129 -361q-35 -14 -95 -14t-91 12l-10 2l514 1446q94 26 188 10l58 -10l514 -1446q-12 -4 -39 -8q-172 -49 -172 -174
q0 -106 110 -106l66 12q35 -25 31 -80q-61 -37 -145 -37z" />
    <glyph glyph-name="aogonek" unicode="&#x105;" horiz-adv-x="1054" 
d="M502 504q-209 0 -209 -183t178 -184q115 0 176 84t62 201v70q-141 12 -207 12zM817 -276q44 0 72 14q33 -27 33 -92q-60 -37 -150 -37t-148 48t-58 122t47 137q48 63 139 104l-31 125q-82 -166 -322 -165q-147 0 -232 87t-85 255q0 322 393 321q127 0 234 -12v80
q0 115 -47 165t-167 50t-235 -37l-37 -15q-35 35 -47 63t-12 85q154 76 364 76t297 -96q88 -96 88 -302v-688q-94 -27 -148 -81t-54 -117q0 -90 106 -90z" />
    <glyph glyph-name="Cacute" unicode="&#x106;" horiz-adv-x="1150" 
d="M717 -20q-295 0 -447 191t-152 565t152 567t447 192q100 0 187 -17t124 -36l39 -17q4 -84 -63 -155q-117 47 -265 47q-193 0 -297 -130t-104 -452q0 -321 103 -447t298 -126q158 0 250 35l35 12q63 -59 63 -160q-132 -69 -370 -69zM934 1819l-256 -277q-82 14 -117 64
l195 288q49 6 102 -17t76 -58z" />
    <glyph glyph-name="cacute" unicode="&#x107;" horiz-adv-x="915" 
d="M588 930q-145 0 -210 -94t-65 -296t68 -294t215 -92q89 0 170 26l22 8q55 -49 60 -147q-90 -61 -304 -61t-328 142t-114 416t114 417q114 142 337 143q88 0 157 -12t93 -25l24 -14q0 -92 -59 -148q-71 31 -180 31zM739 1513l-256 -276q-82 14 -116 63l194 289
q49 7 102 -17t76 -59z" />
    <glyph glyph-name="Ccircumflex" unicode="&#x108;" horiz-adv-x="1150" 
d="M717 -20q-295 0 -447 191t-152 565t152 567t447 192q100 0 187 -17t124 -36l39 -17q6 -84 -63 -155q-117 47 -265 47q-193 0 -297 -130t-104 -452q0 -321 103 -447t298 -126q158 0 250 35l35 12q63 -59 63 -160q-132 -69 -370 -69zM752 1862l284 -232q-37 -72 -96 -92
l-215 145l-213 -143q-61 20 -94 90l280 232h54z" />
    <glyph glyph-name="ccircumflex" unicode="&#x109;" horiz-adv-x="915" 
d="M588 930q-145 0 -210 -94t-65 -296t68 -294t215 -92q89 0 170 26l22 8q55 -49 60 -147q-90 -61 -304 -61t-328 142t-114 416t114 417q114 142 337 143q88 0 157 -12t93 -25l24 -14q0 -92 -59 -148q-71 31 -180 31zM555 1550l276 -225q-37 -74 -94 -90l-209 141l-209 -139
q-59 18 -92 88l277 225h51z" />
    <glyph glyph-name="Cdotaccent" unicode="&#x10a;" horiz-adv-x="1153" 
d="M717 -20q-295 0 -447 191t-152 565t152 567t447 192q100 0 187 -17t124 -36l39 -17q6 -84 -63 -155q-117 47 -265 47q-193 0 -297 -130t-104 -452q0 -321 103 -447t298 -126q158 0 250 35l35 12q63 -59 63 -160q-132 -69 -370 -69zM720 1786q67 0 97 -12v-177
q-35 -12 -100 -12t-96 12v177q31 12 99 12z" />
    <glyph glyph-name="cdotaccent" unicode="&#x10b;" horiz-adv-x="915" 
d="M588 930q-145 0 -210 -94t-65 -296t68 -294t215 -92q89 0 170 26l22 8q55 -49 60 -147q-90 -61 -304 -61t-328 142t-114 416t114 417q114 142 337 143q88 0 157 -12t93 -25l24 -14q0 -92 -59 -148q-71 31 -180 31zM537 1466q68 0 98 -12v-174q-33 -12 -100 -12t-84 10
l-11 2v174q29 12 97 12z" />
    <glyph glyph-name="Ccaron" unicode="&#x10c;" horiz-adv-x="1153" 
d="M717 -20q-295 0 -447 191t-152 565t152 567t447 192q100 0 187 -17t124 -36l39 -17q4 -84 -63 -155q-117 47 -265 47q-193 0 -297 -130t-104 -452q0 -321 103 -447t298 -126q158 0 250 35l35 12q63 -59 63 -160q-132 -69 -370 -69zM692 1550l-282 232q37 72 94 92
l217 -145l213 143q59 -20 94 -90l-283 -232h-53z" />
    <glyph glyph-name="ccaron" unicode="&#x10d;" horiz-adv-x="915" 
d="M588 930q-145 0 -210 -94t-65 -296t68 -294t215 -92q89 0 170 26l22 8q55 -49 60 -147q-90 -61 -304 -61t-328 142t-114 416t114 417q114 142 337 143q88 0 157 -12t93 -25l24 -14q0 -92 -59 -148q-71 31 -180 31zM530 1233l-260 213q33 70 86 86l197 -133l197 131
q55 -16 86 -84l-258 -213h-48z" />
    <glyph glyph-name="Dcaron" unicode="&#x10e;" horiz-adv-x="1359" 
d="M391 174h232q95 0 163 24t122 84q108 120 108 456t-108 455q-54 60 -122 84t-163 23h-232v-1126zM182 1475h455q297 0 449 -172q152 -171 153 -565q0 -394 -153 -566t-449 -172h-455v1475zM571 1550l-282 232q37 74 94 92l215 -145l213 143q59 -20 94 -90l-280 -232h-54z
" />
    <glyph glyph-name="dcaron" unicode="&#x10f;" horiz-adv-x="1167" 
d="M548 930q-116 0 -174 -85t-58 -306t58 -307t174 -85q116 0 177 76q59 76 59 187v264q-2 108 -61 182t-175 74zM869 1536q50 0 120 -14v-1508q-35 -14 -85 -14t-81 12l-12 2l-14 111q-96 -145 -295 -145t-298 130t-100 429q0 299 100 429t292 130q194 0 288 -133v557
q35 14 85 14zM1079 1235q59 69 81 135t14 160q111 23 174 -23q-6 -104 -54 -193t-125 -128q-63 6 -90 49z" />
    <glyph glyph-name="Dcroat" unicode="&#x110;" horiz-adv-x="1386" 
d="M416 1300v-499h291q23 -63 0 -142h-291v-485h231q96 0 164 24t122 84q109 121 108 457t-108 454q-54 60 -122 84t-164 23h-231zM207 1475h455q298 0 450 -172q152 -171 152 -565t-153 -566t-449 -172h-455v659h-162q-20 74 0 142h162v674z" />
    <glyph glyph-name="dcroat" unicode="&#x111;" 
d="M784 410v264q-2 108 -61 182t-175 74t-174 -85t-58 -306t58 -307t174 -85q116 0 177 76q59 76 59 187zM869 1536q50 0 120 -14v-140h139q10 -23 11 -63l-11 -64h-139v-1241q-35 -14 -85 -14t-81 12l-12 2l-14 111q-96 -145 -295 -145t-298 130t-100 429q0 299 100 429
t292 130q194 0 288 -133v290h-245q-10 23 -11 64l11 63h245v140q35 14 85 14z" />
    <glyph glyph-name="Emacron" unicode="&#x112;" 
d="M182 1475h832q16 -49 16 -88t-16 -82h-623v-476h520q30 -91 0 -167h-520v-492h643q16 -53 16 -89t-16 -81h-852v1475zM893 1602h-602q-18 63 0 124h602q20 -56 0 -124z" />
    <glyph glyph-name="emacron" unicode="&#x113;" horiz-adv-x="1052" 
d="M758 713q0 223 -201 223q-221 0 -244 -315h439q6 49 6 92zM102 545q0 281 121 417t324 136t309 -106t107 -306q0 -80 -17 -186l-6 -25h-627q12 -176 82 -249t203 -72q66 0 126 15t87 30l29 14q61 -55 65 -147q-38 -32 -140 -60q-101 -27 -200 -26q-463 0 -463 565z
M825 1290h-530q-16 68 0 125h530q23 -66 0 -125z" />
    <glyph glyph-name="Ebreve" unicode="&#x114;" 
d="M182 1475h832q16 -49 16 -88t-16 -82h-623v-476h520q30 -91 0 -167h-520v-492h643q16 -53 16 -89t-16 -81h-852v1475zM905 1716q-120 -120 -315 -123q-94 0 -174 31t-113 62l-31 30q20 72 90 94q86 -66 228 -65q64 0 120 16t81 33l24 16q65 -22 90 -94z" />
    <glyph glyph-name="ebreve" unicode="&#x115;" horiz-adv-x="1052" 
d="M758 713q0 223 -201 223q-221 0 -244 -315h439q6 49 6 92zM102 545q0 281 121 417t324 136t309 -106t107 -306q0 -80 -17 -186l-6 -25h-627q12 -176 82 -249t203 -72q66 0 126 15t87 30l29 14q61 -55 65 -147q-38 -32 -140 -60q-101 -27 -200 -26q-463 0 -463 565z
M553 1251q-90 0 -167 32t-107 65l-33 32q20 74 88 97q82 -66 219 -66q61 0 115 16t80 33l24 17q65 -19 88 -97q-12 -14 -35 -36t-103 -57q-80 -36 -169 -36z" />
    <glyph glyph-name="Edotaccent" unicode="&#x116;" 
d="M182 1475h832q16 -49 16 -88t-16 -82h-623v-476h520q30 -91 0 -167h-520v-492h643q16 -53 16 -89t-16 -81h-852v1475zM599 1786q68 0 97 -12v-177q-32 -12 -98 -12t-96 12v177q29 12 97 12z" />
    <glyph glyph-name="edotaccent" unicode="&#x117;" horiz-adv-x="1052" 
d="M758 713q0 223 -201 223q-221 0 -244 -315h439q6 49 6 92zM102 545q0 281 121 417t324 136t309 -106t107 -306q0 -80 -17 -186l-6 -25h-627q12 -176 82 -249t203 -72q66 0 126 15t87 30l29 14q61 -55 65 -147q-38 -32 -140 -60q-101 -27 -200 -26q-463 0 -463 565z
M551 1462q67 0 98 -12v-176q-35 -12 -103 -12t-91 12v176q29 12 96 12z" />
    <glyph glyph-name="Eogonek" unicode="&#x118;" 
d="M182 1475h832q16 -49 16 -88t-16 -82h-623v-476h520q30 -91 0 -167h-520v-492h643q16 -53 16 -89t-16 -81q-225 -47 -225 -182q0 -53 31 -80t78 -27l65 13q35 -25 31 -80q-59 -37 -142 -37t-141 51q-57 51 -57 139q0 137 137 203h-629v1475z" />
    <glyph glyph-name="eogonek" unicode="&#x119;" horiz-adv-x="1052" 
d="M758 713q0 223 -201 223q-221 0 -244 -315h439q6 49 6 92zM633 -387q-203 0 -203 166q0 127 105 201q-433 20 -433 565q0 281 121 417t324 136t309 -106t107 -306q0 -80 -17 -186l-6 -25h-627q12 -176 82 -249t203 -72q66 0 126 15t87 30l29 14q61 -55 65 -147
q-51 -39 -149 -64q-88 -27 -140 -81q-52 -55 -51 -113q0 -58 28 -72t70 -14t76 16q37 -27 33 -86q-61 -39 -139 -39z" />
    <glyph glyph-name="Ecaron" unicode="&#x11a;" 
d="M182 1475h832q16 -49 16 -88t-16 -82h-623v-476h520q30 -91 0 -167h-520v-492h643q16 -53 16 -89t-16 -81h-852v1475zM543 1550l-285 232q37 72 96 92l215 -145l213 143q59 -20 95 -90l-281 -232h-53z" />
    <glyph glyph-name="ecaron" unicode="&#x11b;" horiz-adv-x="1052" 
d="M758 713q0 223 -201 223q-221 0 -244 -315h439q6 49 6 92zM102 545q0 281 121 417t324 136t309 -106t107 -306q0 -80 -17 -186l-6 -25h-627q12 -176 82 -249t203 -72q66 0 126 15t87 30l29 14q61 -55 65 -147q-38 -32 -140 -60q-101 -27 -200 -26q-463 0 -463 565z
M526 1233l-270 219q35 72 90 88l207 -139l203 137q55 -18 90 -86l-268 -219h-52z" />
    <glyph glyph-name="Gcircumflex" unicode="&#x11c;" horiz-adv-x="1290" 
d="M643 734q0 54 16 85h494v-770q-151 -69 -405 -69q-305 0 -467 192t-162 564t162 566t467 193q108 0 204 -17t138 -36l43 -17q-4 -96 -64 -153q-137 47 -297 47q-206 0 -320 -131t-114 -453q0 -323 113 -449t321 -126q119 0 184 16v473h-297q-16 31 -16 85zM795 1874
l282 -234q-37 -74 -94 -90l-215 146l-213 -146q-59 20 -94 90l280 234h54z" />
    <glyph glyph-name="gcircumflex" unicode="&#x11d;" horiz-adv-x="1087" 
d="M258 -186q0 -82 62 -132t200 -49t222 51t85 134q0 59 -51 92t-114 41l-160 20t-150 29q-94 -76 -94 -186zM510 954q-96 0 -152 -56t-55 -168q0 -112 55 -168q56 -56 152 -56t150 55t55 168q-1 113 -55 169t-150 56zM109 729q0 174 103 271t298 98q137 0 227 -47l287 47
q14 -33 14 -80t-14 -82l-170 8q57 -84 57 -215q0 -174 -103 -271t-298 -98q-51 0 -90 7q-45 -59 -39 -111q11 -93 181 -106t299 -60q69 -26 115 -90t46 -162q0 -154 -141 -252t-373 -98t-341 78q-108 78 -108 194q1 116 59 186q58 71 124 109q-45 45 -45 119q0 112 98 227
q-186 86 -186 328zM530 1548l279 -225q-35 -70 -94 -90l-209 141l-209 -139q-57 18 -92 88l274 225h51z" />
    <glyph glyph-name="Gbreve" unicode="&#x11e;" horiz-adv-x="1290" 
d="M643 734q0 54 16 85h494v-770q-151 -69 -405 -69q-305 0 -467 192t-162 564t162 566t467 193q108 0 204 -17t138 -36l43 -17q-4 -96 -64 -153q-137 47 -297 47q-206 0 -320 -131t-114 -453q0 -323 113 -449t321 -126q119 0 184 16v473h-297q-16 31 -16 85zM1073 1710
q-120 -120 -315 -123q-94 0 -173 31t-110 61l-33 31q20 72 90 94q84 -66 226 -65q64 0 120 16t80 33l25 16q67 -22 90 -94z" />
    <glyph glyph-name="gbreve" unicode="&#x11f;" horiz-adv-x="1087" 
d="M258 -186q0 -82 62 -132t200 -49t222 51t85 134q0 59 -51 92t-114 41l-160 20t-150 29q-94 -76 -94 -186zM510 954q-96 0 -152 -56t-55 -168q0 -112 55 -168q56 -56 152 -56t150 55t55 168q-1 113 -55 169t-150 56zM109 729q0 174 103 271t298 98q137 0 227 -47l287 47
q14 -33 14 -80t-14 -82l-170 8q57 -84 57 -215q0 -174 -103 -271t-298 -98q-51 0 -90 7q-45 -59 -39 -111q11 -93 181 -106t299 -60q69 -26 115 -90t46 -162q0 -154 -141 -252t-373 -98t-341 78q-108 78 -108 194q1 116 59 186q58 71 124 109q-45 45 -45 119q0 112 98 227
q-186 86 -186 328zM516 1251q-90 0 -167 32t-107 65l-33 32q20 74 88 97q82 -66 219 -66q62 0 116 16t79 33l24 17q65 -19 88 -97q-12 -14 -35 -36q-22 -22 -102 -57q-80 -36 -170 -36z" />
    <glyph glyph-name="Gdotaccent" unicode="&#x120;" horiz-adv-x="1290" 
d="M643 734q0 54 16 85h494v-770q-151 -69 -405 -69q-305 0 -467 192t-162 564t162 566t467 193q108 0 204 -17t138 -36l43 -17q-4 -96 -64 -153q-137 47 -297 47q-206 0 -320 -131t-114 -453q0 -323 113 -449t321 -126q119 0 184 16v473h-297q-16 31 -16 85zM751 1786
q67 0 97 -12v-177q-34 -12 -98 -12t-97 12v177q31 12 98 12z" />
    <glyph glyph-name="gdotaccent" unicode="&#x121;" horiz-adv-x="1087" 
d="M258 -186q0 -82 62 -132t200 -49t222 51t85 134q0 59 -51 92t-114 41l-160 20t-150 29q-94 -76 -94 -186zM510 954q-96 0 -152 -56t-55 -168q0 -112 55 -168q56 -56 152 -56t150 55t55 168q-1 113 -55 169t-150 56zM109 729q0 174 103 271t298 98q137 0 227 -47l287 47
q14 -33 14 -80t-14 -82l-170 8q57 -84 57 -215q0 -174 -103 -271t-298 -98q-51 0 -90 7q-45 -59 -39 -111q11 -93 181 -106t299 -60q69 -26 115 -90t46 -162q0 -154 -141 -252t-373 -98t-341 78q-108 78 -108 194q1 116 59 186q58 71 124 109q-45 45 -45 119q0 112 98 227
q-186 86 -186 328zM504 1460q53 0 112 -12v-174q-34 -12 -100 -12t-96 12v174q31 12 84 12z" />
    <glyph glyph-name="Gcommaaccent" unicode="&#x122;" horiz-adv-x="1290" 
d="M750 -84q72 0 114 -14v-119q0 -92 -39 -170t-77 -111l-39 -32l-78 49q70 66 78 190l-72 12v181q41 14 113 14zM643 734q0 54 16 85h494v-770q-151 -69 -405 -69q-305 0 -467 192t-162 564t162 566t467 193q108 0 204 -17t138 -36l43 -17q-4 -96 -64 -153q-137 47 -297 47
q-206 0 -320 -131t-114 -453q0 -323 113 -449t321 -126q119 0 184 16v473h-297q-16 31 -16 85z" />
    <glyph glyph-name="gcommaaccent" unicode="&#x123;" horiz-adv-x="1087" 
d="M258 -186q0 -82 62 -132t200 -49t222 51t85 134q0 59 -51 92t-114 41l-160 20t-150 29q-94 -76 -94 -186zM510 954q-96 0 -152 -56t-55 -168q0 -112 55 -168q56 -56 152 -56t150 55t55 168q-1 113 -55 169t-150 56zM109 729q0 174 103 271t298 98q137 0 227 -47l287 47
q14 -33 14 -80t-14 -82l-170 8q57 -84 57 -215q0 -174 -103 -271t-298 -98q-51 0 -90 7q-45 -59 -39 -111q11 -93 181 -106t299 -60q69 -26 115 -90t46 -162q0 -154 -141 -252t-373 -98t-341 78q-108 78 -108 194q1 116 59 186q58 71 124 109q-45 45 -45 119q0 112 98 227
q-186 86 -186 328zM403 1360q0 86 38 160t75 104l37 31l76 -45q-70 -63 -78 -180l70 -13v-172q-37 -10 -109 -10l-109 10v115z" />
    <glyph glyph-name="Hcircumflex" unicode="&#x124;" horiz-adv-x="1396" 
d="M391 846h615v614q72 27 208 0v-1446q-34 -14 -86 -14t-122 14v652h-615v-652q-37 -14 -107 -14t-91 12l-11 2v1446q70 28 209 0v-614zM737 1874l283 -234q-37 -74 -94 -90l-215 146l-213 -146q-59 20 -95 90l281 234h53z" />
    <glyph glyph-name="hcircumflex" unicode="&#x125;" horiz-adv-x="1124" 
d="M232 1536q51 0 122 -14v-553q113 129 310 129q152 0 234 -84t83 -226v-774q-35 -14 -85 -14t-120 14v738q0 180 -190 180q-145 0 -232 -131v-787q-38 -14 -86 -14t-118 14v1508q31 14 82 14zM283 1880l272 -225q-37 -70 -92 -86l-207 139l-203 -139q-59 18 -92 86
l270 225h52z" />
    <glyph glyph-name="Hbar" unicode="&#x126;" horiz-adv-x="1435" 
d="M412 1110v-264h614v264h-614zM1235 1239h154q18 -59 0 -129h-154v-1096q-35 -14 -87 -14t-122 14v652h-614v-652q-37 -14 -88 -14t-121 14v1096h-133q-18 70 0 129h133v221q65 26 209 0v-221h614v221q72 27 209 0v-221z" />
    <glyph glyph-name="hbar" unicode="&#x127;" horiz-adv-x="1124" 
d="M262 0q-52 0 -115 14v1239h-139q-20 72 0 129h139v140q31 14 97 14t96 -12l12 -2v-140h353q18 -59 0 -129h-353v-284q113 129 310 129q152 0 234 -84t83 -226v-774q-35 -14 -85 -14t-120 14v738q0 180 -190 180q-145 0 -232 -131v-787q-38 -14 -90 -14z" />
    <glyph glyph-name="Itilde" unicode="&#x128;" horiz-adv-x="573" 
d="M391 14q-37 -14 -107 -14t-91 12l-11 2v1446q70 28 209 0v-1446zM390 1548q-56 0 -118 33t-110 33q-47 0 -84 -51q-59 33 -72 90q21 35 73 65q52 31 109 31t120 -33t112 -33t84 52q57 -25 71 -88q-18 -35 -73 -67q-56 -32 -112 -32z" />
    <glyph glyph-name="itilde" unicode="&#x129;" horiz-adv-x="512" 
d="M237 1077q52 0 121 -14v-1049q-34 -14 -84 -14t-120 14v1049q31 14 83 14zM149 1319q-40 0 -69 -51q-55 33 -62 90q2 8 18 27t53 43q38 24 85 24t98 -33t91 -33t69 56q53 -29 64 -90q-19 -38 -65 -68q-46 -29 -92 -29t-98 32t-92 32z" />
    <glyph glyph-name="Imacron" unicode="&#x12a;" horiz-adv-x="573" 
d="M391 14q-37 -14 -107 -14t-91 12l-11 2v1446q70 28 209 0v-1446zM592 1550h-604q-18 63 0 125h604q18 -57 0 -125z" />
    <glyph glyph-name="imacron" unicode="&#x12b;" horiz-adv-x="512" 
d="M237 1077q52 0 121 -14v-1049q-34 -14 -84 -14t-120 14v1049q31 14 83 14zM457 1307h-398q-12 63 0 118h398q12 -55 0 -118z" />
    <glyph glyph-name="Ibreve" unicode="&#x12c;" horiz-adv-x="573" 
d="M391 14q-37 -14 -107 -14t-91 12l-11 2v1446q70 28 209 0v-1446zM598 1710q-120 -120 -315 -123q-94 0 -173 31t-112 61l-33 31q25 72 92 94q84 -66 226 -65q63 0 119 16t81 33l25 16q70 -22 90 -94z" />
    <glyph glyph-name="ibreve" unicode="&#x12d;" horiz-adv-x="512" 
d="M237 1077q52 0 121 -14v-1049q-34 -14 -84 -14t-120 14v1049q31 14 83 14zM254 1253q-90 0 -167 33t-107 66l-33 30q20 72 88 97q82 -66 219 -66q62 1 116 17t79 32l24 17q65 -19 88 -97q-12 -14 -35 -36q-22 -22 -102 -57q-80 -36 -170 -36z" />
    <glyph glyph-name="Iogonek" unicode="&#x12e;" horiz-adv-x="573" 
d="M391 14q-215 -54 -215 -174q0 -60 31 -88q31 -27 80 -26l65 12q35 -25 31 -80q-59 -37 -143 -37t-142 51q-57 51 -57 140q0 139 141 204v1444q70 28 209 0v-1446z" />
    <glyph glyph-name="iogonek" unicode="&#x12f;" horiz-adv-x="512" 
d="M239 -393q-85 0 -151 47q-66 46 -66 122q1 152 132 230v1057q31 14 83 14t121 -14v-1049q-182 -61 -182 -207q0 -84 111 -83q37 0 65 14q35 -29 31 -94q-59 -37 -144 -37zM272 1241q-52 0 -122 14v193q33 14 88 14t124 -14v-193q-38 -14 -90 -14z" />
    <glyph glyph-name="Idotaccent" unicode="&#x130;" horiz-adv-x="573" 
d="M391 14q-37 -14 -107 -14t-91 12l-11 2v1446q70 28 209 0v-1446zM395 1565q-37 -13 -107 -13t-106 13v194q76 27 213 0v-194z" />
    <glyph glyph-name="dotlessi" unicode="&#x131;" horiz-adv-x="512" 
d="M237 1077q52 0 121 -14v-1049q-34 -14 -84 -14t-120 14v1049q31 14 83 14z" />
    <glyph glyph-name="IJ" unicode="&#x132;" horiz-adv-x="1413" 
d="M1239 385q0 -203 -105 -304t-290 -101q-72 0 -147 15t-113 30l-39 16q-4 96 57 158q94 -37 199 -37q231 0 231 223v1075q61 29 207 0v-1075zM391 14q-37 -14 -107 -14t-91 12l-11 2v1446q70 28 209 0v-1446z" />
    <glyph glyph-name="ij" unicode="&#x133;" horiz-adv-x="995" 
d="M637 -188v1251q31 14 99 14t95 -12l11 -2v-1243q0 -162 -76 -247t-221 -85q-95 0 -137 18q-15 49 -7 85t21 67q33 -8 76 -8q139 0 139 162zM739 1493q73 0 107 -14v-193q-38 -14 -108 -14t-105 14v193q33 14 106 14zM237 1077q52 0 121 -14v-1049q-34 -14 -84 -14
t-120 14v1049q31 14 83 14zM238 1491q55 0 124 -14v-193q-38 -14 -90 -14t-122 14v193q33 14 88 14z" />
    <glyph glyph-name="Jcircumflex" unicode="&#x134;" horiz-adv-x="907" 
d="M735 391q0 -203 -106 -307t-289 -104q-74 0 -149 15t-113 30l-37 16q-4 96 55 158q94 -37 199 -37q231 0 231 223v1075q61 30 209 0v-1069zM655 1874l283 -234q-37 -74 -94 -90l-215 146l-213 -146q-59 20 -94 90l280 234h53z" />
    <glyph glyph-name="jcircumflex" unicode="&#x135;" horiz-adv-x="512" 
d="M237 1077q52 0 121 -14v-1243q0 -162 -76 -247t-221 -85q-92 0 -137 18q-6 20 -6 65t21 87q33 -8 75 -8q140 0 140 162v1251q31 14 83 14zM283 1509l276 -225q-35 -70 -92 -90l-211 143l-209 -141q-61 23 -92 88l274 225h54z" />
    <glyph glyph-name="Kcommaaccent" unicode="&#x136;" horiz-adv-x="1263" 
d="M557 -96q37 14 104 14t97 -12l12 -2v-127q0 -98 -37 -181t-74 -118l-36 -35l-74 51q66 72 76 203l-68 14v193zM391 850h150l422 610q61 14 103 14t114 -14l-465 -672l526 -774q-43 -14 -118 -14t-111 12l-15 2l-456 668h-150v-668q-31 -14 -81 -14t-128 14v1446
q72 27 209 0v-610z" />
    <glyph glyph-name="kcommaaccent" unicode="&#x137;" horiz-adv-x="1026" 
d="M459 -96q37 14 105 14t95 -12l13 -2v-129q0 -153 -95 -280q-22 -28 -36 -40l-17 -14l-73 51q68 72 75 205l-67 14v193zM266 0q-46 0 -116 14v1512q41 10 104 10l100 -10v-887h117l279 424q40 14 104 14t100 -12l-315 -490l362 -561q-45 -16 -111 -16t-114 16l-307 471
h-115v-471q-42 -14 -88 -14z" />
    <glyph glyph-name="kgreenlandic" unicode="&#x138;" horiz-adv-x="1048" 
d="M1028 23q-44 -23 -112 -23t-128 16l-305 455l-129 -154v-303q-43 -14 -103 -14t-101 14v1053q51 10 105 10t99 -10v-494l412 494q55 10 109 10t106 -14l-360 -428z" />
    <glyph glyph-name="Lacute" unicode="&#x139;" horiz-adv-x="1062" 
d="M391 180h613q16 -39 16 -88t-16 -92h-822v1460q70 28 209 0v-1280zM524 1819l-256 -277q-82 14 -116 64l194 288q49 6 102 -17t76 -58z" />
    <glyph glyph-name="lacute" unicode="&#x13a;" horiz-adv-x="516" 
d="M238 1536q52 0 122 -14v-1508q-36 -14 -92 -14t-112 14v1508q30 14 82 14zM483 1862l-256 -277q-82 14 -116 64l194 288q49 6 102 -17t76 -58z" />
    <glyph glyph-name="Lcommaaccent" unicode="&#x13b;" horiz-adv-x="1062" 
d="M500 -96q37 14 105 14t95 -12l13 -2v-127q0 -98 -37 -181t-74 -118l-35 -35l-73 51q66 72 73 203l-67 14v193zM391 180h613q16 -39 16 -88t-16 -92h-822v1460q70 28 209 0v-1280z" />
    <glyph glyph-name="lcommaaccent" unicode="&#x13c;" horiz-adv-x="516" 
d="M241 -82q50 0 126 -14v-127q0 -98 -37 -181t-74 -118l-37 -35l-74 51q68 72 76 203l-67 14v193q37 14 87 14zM238 1536q52 0 122 -14v-1508q-36 -14 -92 -14t-112 14v1508q30 14 82 14z" />
    <glyph glyph-name="Lcaron" unicode="&#x13d;" horiz-adv-x="1062" 
d="M391 180h613q16 -39 16 -88t-16 -92h-822v1460q70 28 209 0v-1280zM612 1192q-61 12 -84 57q66 63 95 127t30 158q111 10 170 -41q-17 -102 -75 -186t-136 -115z" />
    <glyph glyph-name="lcaron" unicode="&#x13e;" horiz-adv-x="538" 
d="M238 1536q52 0 122 -14v-1508q-36 -14 -92 -14t-112 14v1508q30 14 82 14zM541 1186q-63 6 -90 49q59 71 81 135t15 160q109 23 172 -23q-6 -104 -54 -193t-124 -128z" />
    <glyph glyph-name="Ldot" unicode="&#x13f;" horiz-adv-x="1081" 
d="M776 782q45 0 115 -14v-166q-33 -14 -92 -14t-97 14v166q29 14 74 14zM391 180h613q16 -39 16 -88t-16 -92h-822v1460q70 28 209 0v-1280z" />
    <glyph glyph-name="ldot" unicode="&#x140;" horiz-adv-x="745" 
d="M620 782q44 0 113 -14v-166q-33 -14 -92 -14t-94 14v166q29 14 73 14zM238 1536q52 0 122 -14v-1508q-36 -14 -92 -14t-112 14v1508q30 14 82 14z" />
    <glyph glyph-name="Lslash" unicode="&#x141;" horiz-adv-x="1112" 
d="M440 180h613q16 -39 16 -88t-16 -92h-822v635l-151 -86q-45 39 -66 110l217 125v676q70 28 209 0v-555l271 158q51 -51 65 -113l-336 -194v-576z" />
    <glyph glyph-name="lslash" unicode="&#x142;" horiz-adv-x="702" 
d="M368 0q-50 0 -120 14v676l-137 -78q-10 0 -37 45t-27 66l201 115v684q31 14 99 14t95 -12l11 -2v-564l143 82q8 0 41 -47q23 -43 22 -63l-206 -121v-795q-35 -14 -85 -14z" />
    <glyph glyph-name="Nacute" unicode="&#x143;" horiz-adv-x="1433" 
d="M1251 14q-39 -14 -101 -14t-146 14l-515 932q-67 120 -108 228l-12 36h-9q14 -137 15 -344v-852q-31 -14 -96 -14t-86 12l-11 2v1446q43 14 120 15t116 -13l12 -2l508 -923q71 -127 115 -234l14 -39h6q-14 152 -14 342v854q68 31 192 0v-1446zM1006 1819l-256 -277
q-82 14 -117 64l194 288q49 6 103 -17t76 -58z" />
    <glyph glyph-name="nacute" unicode="&#x144;" horiz-adv-x="1124" 
d="M232 1077q51 0 122 -14v-94q113 129 310 129q152 0 234 -84t83 -226v-774q-35 -14 -85 -14t-120 14v738q0 180 -190 180q-145 0 -232 -131v-787q-38 -14 -86 -14t-118 14v1049q31 14 82 14zM756 1513l-256 -276q-82 14 -117 63l195 289q49 7 102 -17t76 -59z" />
    <glyph glyph-name="Ncommaaccent" unicode="&#x145;" horiz-adv-x="1433" 
d="M716 -82q50 0 126 -14v-127q0 -98 -37 -181t-74 -118l-37 -35l-73 51q66 72 75 203l-67 14v193q37 14 87 14zM1251 14q-39 -14 -101 -14t-146 14l-515 932q-67 120 -108 228l-12 36h-9q14 -137 15 -344v-852q-31 -14 -96 -14t-86 12l-11 2v1446q43 14 120 15t116 -13
l12 -2l508 -923q71 -127 115 -234l14 -39h6q-14 152 -14 342v854q68 31 192 0v-1446z" />
    <glyph glyph-name="ncommaaccent" unicode="&#x146;" horiz-adv-x="1124" 
d="M571 -76q67 0 109 -14v-129q0 -98 -37 -181t-74 -116l-34 -35l-74 49q66 74 74 205l-68 14v193q37 14 104 14zM232 1077q51 0 122 -14v-94q113 129 310 129q152 0 234 -84t83 -226v-774q-35 -14 -85 -14t-120 14v738q0 180 -190 180q-145 0 -232 -131v-787
q-38 -14 -86 -14t-118 14v1049q31 14 82 14z" />
    <glyph glyph-name="Ncaron" unicode="&#x147;" horiz-adv-x="1433" 
d="M1251 14q-39 -14 -101 -14t-146 14l-515 932q-67 120 -108 228l-12 36h-9q14 -137 15 -344v-852q-31 -14 -96 -14t-86 12l-11 2v1446q43 14 120 15t116 -13l12 -2l508 -923q71 -127 115 -234l14 -39h6q-14 152 -14 342v854q68 31 192 0v-1446zM705 1550l-283 232
q37 74 94 92l215 -145l213 143q59 -20 94 -90l-280 -232h-53z" />
    <glyph glyph-name="ncaron" unicode="&#x148;" horiz-adv-x="1124" 
d="M268 0q-48 0 -118 14v1049q31 14 82 14t122 -14v-94q113 129 310 129q152 0 234 -84t83 -226v-774q-35 -14 -85 -14t-120 14v738q0 180 -190 180q-145 0 -232 -131v-787q-38 -14 -86 -14zM578 1403l194 131q51 -14 86 -82l-258 -215h-47l-258 215q27 66 86 84z" />
    <glyph glyph-name="napostrophe" unicode="&#x149;" horiz-adv-x="1124" 
d="M232 1077q51 0 122 -14v-94q113 129 310 129q152 0 234 -84t83 -226v-774q-35 -14 -85 -14t-120 14v738q0 180 -190 180q-145 0 -232 -131v-787q-38 -14 -86 -14t-118 14v1049q31 14 82 14zM233 1192q-61 12 -83 57q66 63 94 127t30 158q111 10 170 -41
q-16 -102 -74 -186t-137 -115z" />
    <glyph glyph-name="Eng" unicode="&#x14a;" horiz-adv-x="1433" 
d="M1251 -88q0 -156 -60 -245t-196 -134q-74 49 -67 150q66 25 94 75t27 152v96l-45 8l-515 932q-67 120 -108 228l-12 36h-9q14 -137 15 -344v-852q-31 -14 -96 -14t-86 12l-11 2v1446q43 14 120 15t116 -13l12 -2l508 -923q71 -127 115 -234l14 -39h6q-14 152 -14 342v854
q68 31 192 0v-1548z" />
    <glyph glyph-name="eng" unicode="&#x14b;" horiz-adv-x="1124" 
d="M232 1077q51 0 122 -14v-94q113 129 310 129q152 0 234 -84t83 -226v-876q0 -156 -60 -245t-198 -134q-72 51 -68 148q66 25 94 77t27 152v842q0 180 -190 180q-145 0 -232 -131v-787q-38 -14 -86 -14t-118 14v1049q31 14 82 14z" />
    <glyph glyph-name="Omacron" unicode="&#x14c;" horiz-adv-x="1392" 
d="M1055 737q0 322 -91 453q-92 131 -268 131t-267 -131t-91 -453q0 -323 91 -453t267 -130t268 130t91 453zM119 737q0 383 151 571q152 187 426 187t426 -186t152 -572q0 -758 -578 -757q-577 -1 -577 757zM414 1733h573q18 -57 0 -125h-573q-16 59 0 125z" />
    <glyph glyph-name="omacron" unicode="&#x14d;" horiz-adv-x="1114" 
d="M801 539q1 223 -61 312t-183 89t-183 -89t-62 -312t62 -313t183 -89q121 -1 183 89t61 313zM102 539q0 559 455 559q221 0 338 -133t117 -426q0 -559 -455 -559t-455 559zM299 1419h512q23 -53 0 -123h-512q-16 68 0 123z" />
    <glyph glyph-name="Obreve" unicode="&#x14e;" horiz-adv-x="1392" 
d="M1055 737q0 322 -91 453q-92 131 -268 131t-267 -131t-91 -453q0 -323 91 -453t267 -130t268 130t91 453zM119 737q0 383 151 571q152 187 426 187t426 -186t152 -572q0 -758 -578 -757q-577 -1 -577 757zM700 1739q64 0 120 16t81 33l25 16q70 -23 90 -94
q-120 -120 -316 -123q-94 0 -173 31t-111 61l-33 31q25 72 92 94q84 -65 225 -65z" />
    <glyph glyph-name="obreve" unicode="&#x14f;" horiz-adv-x="1114" 
d="M801 539q1 223 -61 312t-183 89t-183 -89t-62 -312t62 -313t183 -89q121 -1 183 89t61 313zM102 539q0 559 455 559q221 0 338 -133t117 -426q0 -559 -455 -559t-455 559zM555 1417q61 1 115 17t80 32l24 17q68 -23 88 -97q-12 -14 -35 -36t-103 -57q-80 -36 -169 -36
q-90 0 -167 33t-109 66l-31 30q20 72 88 97q82 -66 219 -66z" />
    <glyph glyph-name="Ohungarumlaut" unicode="&#x150;" horiz-adv-x="1392" 
d="M1055 737q0 322 -91 453q-92 131 -268 131t-267 -131t-91 -453q0 -323 91 -453t267 -130t268 130t91 453zM119 737q0 383 151 571q152 187 426 187t426 -186t152 -572q0 -758 -578 -757q-577 -1 -577 757zM754 1610l176 268q49 6 100 -16t74 -56l-238 -258
q-81 15 -112 62zM432 1610l174 268q50 6 102 -16t74 -56l-239 -258q-80 15 -111 62z" />
    <glyph glyph-name="ohungarumlaut" unicode="&#x151;" horiz-adv-x="1114" 
d="M801 539q1 223 -61 312t-183 89t-183 -89t-62 -312t62 -313t183 -89q121 -1 183 89t61 313zM102 539q0 559 455 559q221 0 338 -133t117 -426q0 -559 -455 -559t-455 559zM641 1288l174 240q47 4 96 -14t72 -48l-235 -229q-78 10 -107 51zM332 1288l176 240q45 4 94 -14
t72 -48l-236 -229q-73 10 -106 51z" />
    <glyph glyph-name="OE" unicode="&#x152;" horiz-adv-x="1787" 
d="M711 1321q-181 0 -277 -131t-96 -453q0 -323 96 -453t277 -130q117 0 196 36v1096q-92 35 -196 35zM119 738q0 386 153 572q154 185 439 185q92 0 178 -20h774q16 -43 16 -85t-16 -85h-549v-476h447q16 -39 16 -81t-16 -86h-447v-492h569q32 -90 0 -170h-796
q-86 -20 -176 -20q-283 0 -438 186q-154 186 -154 572z" />
    <glyph glyph-name="oe" unicode="&#x153;" horiz-adv-x="1669" 
d="M1374 713q0 223 -194 223q-98 0 -152 -75t-65 -240h405q6 49 6 92zM554 940q-118 0 -179 -89t-61 -312t60 -313q62 -90 180 -89q118 0 170 87q52 88 52 316t-52 314t-170 86zM555 -20q-453 0 -453 559t453 559q225 0 315 -180q98 180 298 180t306 -106t105 -306
q0 -119 -16 -186l-7 -25h-595q14 -180 74 -255t185 -75t212 41l28 15q55 -43 62 -135q-39 -33 -137 -60q-97 -27 -197 -26q-223 0 -318 174q-102 -174 -315 -174z" />
    <glyph glyph-name="Racute" unicode="&#x154;" horiz-adv-x="1282" 
d="M391 1300v-514h289q118 0 184 68t66 190t-66 189q-66 68 -184 67h-289zM182 1475h525q201 0 321 -119t119 -314q0 -152 -77 -260t-212 -149l356 -619q-43 -14 -117 -14t-110 12l-14 2l-340 598h-242v-598q-35 -14 -103 -14t-95 12l-11 2v1461zM438 1606l195 288
q49 6 102 -18t76 -57l-256 -277q-82 15 -117 64z" />
    <glyph glyph-name="racute" unicode="&#x155;" horiz-adv-x="806" 
d="M232 1077q51 0 122 -14v-141q104 174 250 174q98 0 178 -52q-8 -106 -90 -172q-59 43 -127 43q-125 0 -211 -155v-746q-34 -14 -84 -14t-120 14v1049q31 14 82 14zM281 1300l194 289q49 7 103 -17t75 -59l-256 -276q-81 14 -116 63z" />
    <glyph glyph-name="Rcommaaccent" unicode="&#x156;" horiz-adv-x="1282" 
d="M557 -96q37 14 104 14t97 -12l12 -2v-127q0 -98 -37 -181t-74 -118l-36 -35l-74 51q66 72 76 203l-68 14v193zM391 1300v-514h289q118 0 184 68t66 190t-66 189q-66 68 -184 67h-289zM182 1475h525q201 0 321 -119t119 -314q0 -152 -77 -260t-212 -149l356 -619
q-43 -14 -117 -14t-110 12l-14 2l-340 598h-242v-598q-35 -14 -103 -14t-95 12l-11 2v1461z" />
    <glyph glyph-name="rcommaaccent" unicode="&#x157;" horiz-adv-x="806" 
d="M236 -82q52 0 122 -14v-127q0 -98 -36 -181t-72 -118l-37 -35l-74 51q66 72 76 203l-68 14v193q37 14 89 14zM232 1077q51 0 122 -14v-141q115 174 250 174q98 0 178 -52q-8 -106 -90 -172q-59 43 -127 43q-115 0 -211 -155v-746q-34 -14 -84 -14t-120 14v1049
q31 14 82 14z" />
    <glyph glyph-name="Rcaron" unicode="&#x158;" horiz-adv-x="1282" 
d="M391 1300v-514h289q118 0 184 68t66 190t-66 189q-66 68 -184 67h-289zM182 1475h525q201 0 321 -119t119 -314q0 -152 -77 -260t-212 -149l356 -619q-43 -14 -117 -14t-110 12l-14 2l-340 598h-242v-598q-35 -14 -103 -14t-95 12l-11 2v1461zM598 1729l213 143
q59 -20 94 -90l-280 -232h-54l-282 232q37 74 94 92z" />
    <glyph glyph-name="rcaron" unicode="&#x159;" horiz-adv-x="806" 
d="M232 1077q51 0 122 -14v-141q115 174 250 174q98 0 178 -52q-8 -106 -90 -172q-59 43 -127 43q-115 0 -211 -155v-746q-34 -14 -84 -14t-120 14v1049q31 14 82 14zM414 1399l196 131q55 -16 86 -84l-258 -213h-47l-260 213q33 70 86 86z" />
    <glyph glyph-name="Sacute" unicode="&#x15a;" horiz-adv-x="1165" 
d="M641 1319q-322 0 -322 -234q0 -73 47 -116t100 -64q53 -22 133 -49q79 -26 106 -35q170 -57 267 -147t97 -282t-132 -302q-132 -111 -382 -110q-121 0 -231 22t-160 43l-51 21q-6 100 49 165q193 -63 383 -63q311 0 311 233q0 103 -74 157t-253 110t-255 104
q-162 102 -162 300t129 310q128 112 371 113q109 0 209 -14t146 -29l47 -14q0 -106 -58 -164q-139 45 -315 45zM850 1823l-264 -256q-80 16 -111 71l201 273q50 1 102 -25t72 -63z" />
    <glyph glyph-name="sacute" unicode="&#x15b;" horiz-adv-x="913" 
d="M487 1098q90 0 162 -14t101 -27l26 -15q0 -96 -53 -145q-98 33 -215 33q-209 0 -209 -148q0 -59 61 -96t179 -63q124 -39 195 -93q97 -74 96 -228t-99 -238t-291 -84q-96 0 -181 18t-124 37l-37 18q0 98 56 152q133 -51 276 -51q197 0 197 147q0 51 -34 85t-89 55
t-117 36q-109 28 -197 92t-88 210q0 147 98 233t287 86zM674 1513l-256 -276q-82 14 -117 63l195 289q49 7 102 -17t76 -59z" />
    <glyph glyph-name="Scircumflex" unicode="&#x15c;" horiz-adv-x="1163" 
d="M641 1319q-322 0 -322 -234q1 -71 47 -114q46 -44 99 -66q71 -29 185 -64q194 -59 306 -155q113 -96 113 -291q0 -194 -132 -305t-382 -110q-121 0 -231 22t-160 43l-51 21q-6 100 49 165q193 -63 383 -63q311 0 311 233q0 89 -65 151q-25 24 -79 50t-163 58
q-109 33 -172 61q-63 27 -131 72q-135 89 -134 283t129 306t371 113q109 0 209 -14t146 -29l47 -14q0 -104 -58 -164q-139 45 -315 45zM635 1888l283 -231q-37 -74 -95 -90l-215 143l-213 -143q-59 20 -94 90l281 231h53z" />
    <glyph glyph-name="scircumflex" unicode="&#x15d;" horiz-adv-x="913" 
d="M487 1098q90 0 162 -14t101 -27l26 -15q0 -96 -53 -145q-98 33 -215 33q-209 0 -209 -148q1 -43 23 -63t45 -36t98 -39q76 -23 94 -30q127 -40 199 -106t72 -212t-99 -232q-98 -84 -291 -84q-96 0 -181 18t-124 37l-37 18q0 98 56 152q133 -51 276 -51q197 0 197 147
q0 84 -90 125q-44 19 -126 42q-81 24 -123 42t-89 52q-97 70 -97 217t98 233t287 86zM496 1526l278 -226q-35 -72 -94 -88l-209 140l-209 -140q-57 18 -92 88l274 226h52z" />
    <glyph glyph-name="Scedilla" unicode="&#x15e;" horiz-adv-x="1163" 
d="M1069 398q0 -184 -115 -293q-115 -110 -331 -123l-19 -101q213 0 213 -194q0 -100 -65 -153q-66 -52 -179 -52t-172 37l-18 12q-4 59 43 86q57 -29 133 -29q129 0 129 105q0 94 -115 94h-73l-27 29l31 166q-106 4 -204 24t-144 39l-43 21q-6 100 49 165q193 -63 383 -63
q311 0 311 233q0 118 -90 170t-198 85q-109 32 -150 46t-111 50q-71 36 -105 74t-62 103t-27 146q0 195 128 307t371 113q109 0 209 -14t146 -29l47 -14q0 -106 -58 -164q-139 45 -315 45q-322 0 -322 -234q0 -109 122 -167q71 -34 154 -61q83 -28 112 -38q170 -57 266 -147
t96 -274z" />
    <glyph glyph-name="scedilla" unicode="&#x15f;" horiz-adv-x="913" 
d="M487 1098q90 0 162 -14t101 -27l26 -15q0 -96 -53 -145q-98 33 -215 33q-209 0 -209 -148q0 -72 89 -109q49 -22 130 -45t125 -44q45 -20 92 -56q96 -72 95 -219t-85 -231t-247 -96l-17 -95q209 0 209 -186q0 -96 -64 -146q-64 -51 -171 -51q-106 0 -172 33l-19 12
q0 55 41 86q61 -31 133 -30q125 0 125 102q0 90 -110 90h-74l-25 27l29 158q-80 6 -152 23t-102 32l-31 16q0 98 56 152q133 -51 276 -51q197 0 197 147q0 49 -33 83t-90 55t-115 37q-113 29 -200 92t-87 210q0 148 98 234t287 86z" />
    <glyph glyph-name="Scaron" unicode="&#x160;" horiz-adv-x="1163" 
d="M641 1319q-322 0 -322 -234q0 -86 67 -135q68 -47 124 -65q57 -19 152 -50t160 -62q165 -78 216 -196q31 -73 31 -169q0 -207 -132 -318t-382 -110q-121 0 -231 22t-160 43l-51 21q0 88 49 165q193 -63 383 -63q311 0 311 233q0 117 -99 174q-76 45 -175 76
q-100 31 -130 41t-84 32q-191 78 -233 218q-22 74 -22 133q0 195 128 307t371 113q109 0 209 -14t146 -29l47 -14q0 -96 -58 -164q-139 45 -315 45zM594 1575l-283 221q31 70 95 90l215 -145l213 143q59 -16 94 -88l-281 -221h-53z" />
    <glyph glyph-name="scaron" unicode="&#x161;" horiz-adv-x="913" 
d="M102 776q0 150 98 236t287 86q90 0 162 -14t101 -27l26 -15q0 -96 -53 -145q-98 33 -215 33q-209 0 -209 -148q-1 -48 27 -70l42 -30t53 -24q40 -14 108 -33q67 -21 110 -39t92 -54q100 -74 99 -229t-99 -239t-291 -84q-96 0 -181 18t-124 37l-37 18q0 98 56 152
q133 -51 276 -51q197 0 197 147q1 71 -51 103q-74 45 -179 69q-215 59 -270 176q-25 53 -25 127zM446 1237l-256 209q33 66 86 82l195 -131l193 131q53 -16 86 -82l-254 -209h-50z" />
    <glyph glyph-name="Tcommaaccent" unicode="&#x162;" horiz-adv-x="1120" 
d="M570 -94q70 0 106 -12v-130q0 -98 -37 -181t-74 -118l-35 -34l-73 51q66 72 73 205l-67 12v195q37 12 107 12zM1067 1392q0 -46 -16 -98h-381v-1280q-37 -14 -88 -14t-121 14v1280h-391q-33 73 0 181h981q16 -37 16 -83z" />
    <glyph glyph-name="Tcommaaccent" unicode="&#x21a;" horiz-adv-x="1120" 
d="M570 -94q70 0 106 -12v-130q0 -98 -37 -181t-74 -118l-35 -34l-73 51q66 72 73 205l-67 12v195q37 12 107 12zM1067 1392q0 -46 -16 -98h-381v-1280q-37 -14 -88 -14t-121 14v1280h-391q-33 73 0 181h981q16 -37 16 -83z" />
    <glyph glyph-name="tcommaaccent" unicode="&#x163;" horiz-adv-x="774" 
d="M494 -109q52 0 124 -12v-129q0 -98 -36 -182t-74 -117l-35 -35l-74 52q66 72 74 204l-67 13v194q36 12 88 12zM702 1017q0 -33 -12 -93h-266v-537q0 -137 47 -189t158 -53l86 9q14 -35 14 -82l-10 -74q-66 -18 -148 -18q-184 0 -268 98t-84 299v547h-158q-12 29 -12 79
t12 74h158v187q82 51 205 41v-228h266q12 -27 12 -60z" />
    <glyph glyph-name="tcommaaccent" unicode="&#x21b;" horiz-adv-x="774" 
d="M494 -109q52 0 124 -12v-129q0 -98 -36 -182t-74 -117l-35 -35l-74 52q66 72 74 204l-67 13v194q36 12 88 12zM702 1017q0 -33 -12 -93h-266v-537q0 -137 47 -189t158 -53l86 9q14 -35 14 -82l-10 -74q-66 -18 -148 -18q-184 0 -268 98t-84 299v547h-158q-12 29 -12 79
t12 74h158v187q82 51 205 41v-228h266q12 -27 12 -60z" />
    <glyph glyph-name="Tcaron" unicode="&#x164;" horiz-adv-x="1120" 
d="M1067 1392q0 -46 -16 -98h-381v-1280q-37 -14 -88 -14t-121 14v1280h-391q-33 73 0 181h981q16 -37 16 -83zM541 1550l-283 232q37 74 94 92l215 -145l213 143q59 -20 94 -90l-280 -232h-53z" />
    <glyph glyph-name="tcaron" unicode="&#x165;" horiz-adv-x="776" 
d="M702 1017q0 -33 -12 -93h-266v-537q0 -137 47 -189t158 -53l86 9q14 -35 14 -82l-10 -74q-66 -18 -148 -18q-184 0 -268 98t-84 299v547h-158q-12 29 -12 79t12 74h158v187q82 51 205 41v-228h266q12 -27 12 -60zM635 1192q-61 12 -84 57q67 63 95 127t30 158
q111 10 170 -41q-16 -102 -74 -186t-137 -115z" />
    <glyph glyph-name="Tbar" unicode="&#x166;" horiz-adv-x="1157" 
d="M1085 1392q0 -46 -16 -98h-381v-526h270q18 -59 0 -129h-270v-625q-37 -14 -95 -14t-114 14v625h-278q-18 70 0 129h278v526h-391q-16 35 -16 82t16 99h981q16 -37 16 -83z" />
    <glyph glyph-name="tbar" unicode="&#x167;" horiz-adv-x="778" 
d="M426 924v-279h248q18 -59 0 -127h-248v-131q0 -137 47 -189t158 -53l86 9q14 -35 14 -82l-10 -74q-66 -18 -148 -18q-184 0 -268 98t-84 299v141h-137q-16 68 0 127h137v279h-158q-12 29 -12 67t12 86h158v187q82 51 205 41v-228h266q12 -27 12 -74t-12 -79h-266z" />
    <glyph glyph-name="Utilde" unicode="&#x168;" horiz-adv-x="1376" 
d="M379 467q0 -147 82 -229t229 -82t229 82q81 82 80 229v993q33 14 96 15t97 -13l12 -2v-960q0 -248 -140 -384t-377 -136t-376 138t-139 382v960q69 28 207 0v-993zM600 1751q60 -1 124 -33t112 -32t86 53q61 -27 75 -90q-20 -33 -74 -64q-55 -31 -114 -31t-123 33t-97 33
q-66 0 -91 -41l-11 -14q-63 33 -75 90q21 34 75 65t113 31z" />
    <glyph glyph-name="utilde" unicode="&#x169;" horiz-adv-x="1122" 
d="M226 1077q50 0 120 -14v-737q0 -180 191 -181q145 0 231 131v787q37 14 86 14t119 -14v-1049q-31 -14 -83 -14t-122 14v95q-113 -129 -309 -129q-152 0 -235 84t-83 225v774q35 14 85 14zM431 1329q-49 0 -89 -57q-64 33 -76 94q23 38 77 69q109 63 238 -2q65 -34 97 -34
q64 0 92 41l10 14q61 -27 76 -94q-22 -36 -83 -71q-103 -59 -229 7q-64 34 -113 33z" />
    <glyph glyph-name="Umacron" unicode="&#x16a;" horiz-adv-x="1376" 
d="M379 467q0 -147 82 -229t229 -82t229 82q81 82 80 229v993q33 14 96 15t97 -13l12 -2v-960q0 -248 -140 -384t-377 -136t-376 138t-139 382v960q69 28 207 0v-993zM993 1616h-604q-20 66 0 125h604q18 -55 0 -125z" />
    <glyph glyph-name="umacron" unicode="&#x16b;" horiz-adv-x="1122" 
d="M226 1077q50 0 120 -14v-737q0 -180 191 -181q145 0 231 131v787q37 14 86 14t119 -14v-1049q-31 -14 -83 -14t-122 14v95q-113 -129 -309 -129q-152 0 -235 84t-83 225v774q35 14 85 14zM315 1432h494q18 -49 0 -117h-494q-12 66 0 117z" />
    <glyph glyph-name="Ubreve" unicode="&#x16c;" horiz-adv-x="1376" 
d="M379 467q0 -147 82 -229t229 -82t229 82q81 82 80 229v993q33 14 96 15t97 -13l12 -2v-960q0 -248 -140 -384t-377 -136t-376 138t-139 382v960q69 28 207 0v-993zM1010 1710q-120 -120 -316 -123q-94 0 -173 31t-111 61l-33 31q25 72 92 94q84 -66 225 -65q64 0 120 16
t81 33l25 16q67 -22 90 -94z" />
    <glyph glyph-name="ubreve" unicode="&#x16d;" horiz-adv-x="1122" 
d="M226 1077q50 0 120 -14v-737q0 -180 191 -181q145 0 231 131v787q37 14 86 14t119 -14v-1049q-31 -14 -83 -14t-122 14v95q-113 -129 -309 -129q-152 0 -235 84t-83 225v774q35 14 85 14zM557 1415q61 1 115 17t80 32l24 17q63 -23 88 -97q-9 -13 -43 -41
q-111 -88 -254 -89q-102 -1 -179 32t-109 66l-31 32q25 74 90 97q82 -66 219 -66z" />
    <glyph glyph-name="Uring" unicode="&#x16e;" horiz-adv-x="1376" 
d="M379 467q0 -147 82 -229t229 -82t229 82q81 82 80 229v993q33 14 96 15t97 -13l12 -2v-960q0 -248 -140 -384t-377 -136t-376 138t-139 382v960q69 28 207 0v-993zM825 1792q0 49 -34 85q-35 36 -97 36t-94 -36q-33 -36 -33 -86t33 -86t94 -36t97 37q34 37 34 86z
M694 1563q-106 0 -175 61q-69 60 -69 166t73 167q73 60 173 60t174 -59q74 -60 74 -166t-72 -168t-178 -61z" />
    <glyph glyph-name="uring" unicode="&#x16f;" horiz-adv-x="1122" 
d="M226 1077q50 0 120 -14v-737q0 -180 191 -181q145 0 231 131v787q37 14 86 14t119 -14v-1049q-31 -14 -83 -14t-122 14v95q-113 -129 -309 -129q-152 0 -235 84t-83 225v774q35 14 85 14zM688 1436q0 49 -35 85q-35 35 -96 35t-94 -36t-33 -85q0 -50 33 -86t94 -36t96 37
t35 86zM313 1435q0 105 73 165t173 61q100 0 174 -59q74 -60 74 -166t-72 -168t-178 -62t-175 62t-69 167z" />
    <glyph glyph-name="Uhungarumlaut" unicode="&#x170;" horiz-adv-x="1376" 
d="M379 467q0 -147 82 -229t229 -82t229 82q81 82 80 229v993q33 14 96 15t97 -13l12 -2v-960q0 -248 -140 -384t-377 -136t-376 138t-139 382v960q69 28 207 0v-993zM1116 1810l-244 -264q-80 10 -112 64l180 274q49 6 100 -16t76 -58zM791 1810l-244 -264q-80 10 -113 64
l180 274q48 6 100 -16t77 -58z" />
    <glyph glyph-name="uhungarumlaut" unicode="&#x171;" horiz-adv-x="1122" 
d="M890 0q-52 0 -122 14v95q-113 -129 -309 -129q-152 0 -235 84t-83 225v774q35 14 85 14t120 -14v-737q0 -180 191 -181q145 0 231 131v787q37 14 86 14t119 -14v-1049q-31 -14 -83 -14zM961 1489l-236 -252q-78 10 -109 59l177 263q47 5 96 -15t72 -55zM649 1489
l-235 -252q-74 10 -107 59l176 263q47 5 95 -15t71 -55z" />
    <glyph glyph-name="Uogonek" unicode="&#x172;" horiz-adv-x="1376" 
d="M379 467q0 -147 82 -229t229 -82t229 82q81 82 80 229v993q33 14 96 15t97 -13l12 -2v-960q0 -199 -93 -328t-257 -172q-207 -64 -207 -174q0 -59 31 -86t79 -27t64 13q37 -29 33 -80q-61 -37 -144 -37t-141 51q-57 51 -57 139q0 119 106 183q-206 24 -326 158t-120 360
v960q69 28 207 0v-993z" />
    <glyph glyph-name="uogonek" unicode="&#x173;" horiz-adv-x="1122" 
d="M226 1077q50 0 120 -14v-737q0 -180 191 -181q145 0 231 131v787q37 14 86 14t119 -14v-1051q-88 -29 -138 -83q-51 -54 -51 -130t119 -75q38 0 66 14q33 -27 32 -92q-61 -37 -145 -37t-145 46t-62 130q0 141 125 219l-6 105q-113 -129 -309 -129q-152 0 -235 84t-83 225
v774q35 14 85 14z" />
    <glyph glyph-name="Wcircumflex" unicode="&#x174;" horiz-adv-x="1978" 
d="M578 0q-62 0 -123 14l-402 1446q35 14 100 15t99 -13l10 -2l268 -962q27 -99 52 -232l6 -39h8q16 135 49 271l246 962q33 14 104 15t105 -13l10 -2l244 -962q24 -93 43 -236l4 -35h6q18 123 57 271l269 962q69 26 145 10q25 -4 35 -8l12 -2l-399 -1446q-47 -14 -115 -14
t-113 12l-16 2l-235 938q-37 175 -46 269l-2 32h-8q-6 -111 -49 -301l-235 -938q-67 -14 -129 -14zM1028 1874l283 -234q-37 -74 -94 -90l-216 146l-213 -146q-59 20 -94 90l281 234h53z" />
    <glyph glyph-name="wcircumflex" unicode="&#x175;" horiz-adv-x="1632" 
d="M480 0q-71 0 -120 14l-309 1049q37 14 102 14t83 -12l6 -2l194 -653q27 -90 43 -201h6q23 125 45 201l189 653q49 14 110 14t91 -12l10 -2l182 -649q33 -111 41 -205h6q18 92 51 203l193 651q33 14 89 14t81 -12l8 -2l-309 -1049q-51 -14 -116 -14t-120 14l-157 555
q-47 168 -56 295h-8q-8 -131 -57 -295l-162 -555q-45 -14 -116 -14zM856 1548l277 -225q-35 -70 -93 -90l-209 141l-208 -139q-59 20 -95 88l277 225h51z" />
    <glyph glyph-name="Ycircumflex" unicode="&#x176;" horiz-adv-x="1298" 
d="M665 0q-52 0 -122 14v598l-504 848q45 14 118 15t113 -13l15 -2l374 -633l385 633q71 27 169 10l57 -10l-518 -844v-602q-35 -14 -87 -14zM694 1874l283 -234q-37 -74 -94 -90l-215 146l-213 -146q-63 20 -95 90l281 234h53z" />
    <glyph glyph-name="ycircumflex" unicode="&#x177;" horiz-adv-x="1077" 
d="M270 -512q-66 0 -98 16l-14 4l-2 5q0 9 -6 25t-7 64q0 48 17 64q46 -8 106 -8t102 40t85 177l43 125q-43 4 -66 14l-389 1049q39 14 105 14t96 -12l12 -2l233 -623q44 -122 66 -211l6 -28h8q20 96 66 237l203 625q34 14 94 14t90 -12l12 -2l-395 -1221
q-61 -188 -137 -271t-230 -83zM567 1548l277 -225q-35 -70 -92 -90l-209 141l-209 -139q-59 20 -94 88l276 225h51z" />
    <glyph glyph-name="Ydieresis" unicode="&#x178;" horiz-adv-x="1298" 
d="M665 0q-52 0 -122 14v598l-504 848q45 14 118 15t113 -13l15 -2l374 -633l385 633q71 27 169 10l57 -10l-518 -844v-602q-35 -14 -87 -14zM832 1561q-64 0 -91 12v168q29 12 93 12t94 -12v-168q-32 -12 -96 -12zM482 1561q-65 0 -89 12v168q31 12 93 12t94 -12v-168
q-33 -12 -98 -12z" />
    <glyph glyph-name="Zacute" unicode="&#x179;" horiz-adv-x="1216" 
d="M1104 1388q0 -54 -14 -96l-771 -1108h797q12 -45 12 -86t-12 -98h-1026q-16 45 -16 95t16 89l760 1108h-705q-12 54 -12 96t12 87h945q14 -33 14 -87zM481 1614l191 280q49 6 102 -18t76 -57l-252 -271q-82 15 -117 66z" />
    <glyph glyph-name="zacute" unicode="&#x17a;" horiz-adv-x="956" 
d="M113 986q0 42 12 91h725q12 -27 12 -81t-12 -87l-543 -741h543q12 -28 12 -74t-12 -94h-760q-12 49 -12 88t12 80l545 741h-510q-12 35 -12 77zM733 1513l-256 -276q-82 12 -117 63l193 289q49 5 103 -17t77 -59z" />
    <glyph glyph-name="Zdotaccent" unicode="&#x17b;" horiz-adv-x="1216" 
d="M1104 1388q0 -54 -14 -96l-771 -1108h797q12 -45 12 -86t-12 -98h-1026q-16 45 -16 95t16 89l760 1108h-705q-12 54 -12 96t12 87h945q14 -33 14 -87zM605 1585q-69 0 -93 12v177q31 12 97 12t100 -12v-177q-35 -12 -104 -12z" />
    <glyph glyph-name="zdotaccent" unicode="&#x17c;" horiz-adv-x="956" 
d="M113 986q0 42 12 91h725q12 -27 12 -81t-12 -87l-543 -741h543q12 -28 12 -74t-12 -94h-760q-12 49 -12 88t12 80l545 741h-510q-12 35 -12 77zM485 1468q53 0 113 -12v-176q-35 -12 -89 -12t-108 12v176q31 12 84 12z" />
    <glyph glyph-name="Zcaron" unicode="&#x17d;" horiz-adv-x="1216" 
d="M1104 1388q0 -54 -14 -96l-771 -1108h797q12 -45 12 -86t-12 -98h-1026q-16 45 -16 95t16 89l760 1108h-705q-12 54 -12 96t12 87h945q14 -33 14 -87zM616 1729l213 143q59 -20 95 -90l-281 -232h-53l-283 232q37 74 94 92z" />
    <glyph glyph-name="zcaron" unicode="&#x17e;" horiz-adv-x="956" 
d="M113 986q0 42 12 91h725q12 -27 12 -81t-12 -87l-543 -741h543q12 -28 12 -74t-12 -94h-760q-12 49 -12 88t12 80l545 741h-510q-12 35 -12 77zM473 1233l-256 209q31 63 86 84l193 -131l194 129q51 -14 84 -82l-254 -209h-47z" />
    <glyph glyph-name="longs" unicode="&#x17f;" horiz-adv-x="604" 
d="M322 0q-57 0 -113 14v910h-139q-16 82 0 153h139v123q0 160 79 248t263 88q136 0 199 -33l26 -10q-2 -84 -53 -143q-63 22 -153 22t-122 -39q-34 -39 -34 -123v-1196q-35 -14 -92 -14z" />
    <glyph glyph-name="Aringacute" unicode="&#x1fa;" horiz-adv-x="1339" 
d="M905 545l-186 518l-53 184h-7q-18 -82 -53 -184l-188 -518h487zM795 1606q0 49 -35 85q-35 35 -96 35t-95 -35q-33 -36 -33 -86t34 -86q32 -36 94 -36t96 37q35 37 35 86zM1307 14q-37 -14 -106 -14t-99 12l-10 2l-127 361h-607l-129 -361q-35 -14 -95 -14t-91 12l-10 2
l497 1399q-111 53 -110 193q0 104 72 164t172 60t174 -58t74 -176t-105 -177zM936 2099l-240 -203q-76 10 -106 48l180 213q46 3 96 -13t70 -45z" />
    <glyph glyph-name="aringacute" unicode="&#x1fb;" horiz-adv-x="1054" 
d="M502 504q-209 0 -209 -183t178 -184q115 0 176 82t62 201v72q-141 12 -207 12zM528 1098q210 0 297 -96q88 -96 88 -302v-686q-23 -14 -73 -14t-78 12l-10 2l-31 131q-82 -166 -322 -165q-147 0 -232 87t-85 255q0 322 393 321q127 0 234 -12v84q-1 113 -49 162t-167 49
t-233 -37l-37 -15q-35 35 -47 62t-12 86q154 76 364 76zM651 1384q0 45 -31 78q-32 33 -88 33t-88 -33q-30 -33 -30 -78q0 -46 30 -78t87 -32q56 0 88 32t32 78zM776 1384q0 -104 -70 -163t-176 -59q-104 0 -172 58q-68 60 -67 163q0 103 71 162q72 59 170 59t171 -58
t73 -162zM397 1694l181 213q47 3 96 -13t69 -45l-239 -202q-76 10 -107 47z" />
    <glyph glyph-name="AEacute" unicode="&#x1fc;" horiz-adv-x="1771" 
d="M911 537v616l-368 -616h368zM114 0q-70 0 -104 16l887 1459h752q33 -88 0 -170h-545v-476h442q31 -94 0 -170h-442v-489h565q31 -86 0 -170h-760v367h-469l-207 -351q-49 -16 -119 -16zM1481 1819l-256 -277q-82 12 -117 64l192 288q50 6 104 -16t77 -59z" />
    <glyph glyph-name="aeacute" unicode="&#x1fd;" horiz-adv-x="1574" 
d="M678 489h-189q-106 1 -153 -39t-47 -133q0 -180 157 -180q111 0 171 76t61 195v81zM1282 713q0 223 -184 223q-201 0 -224 -303h402q6 31 6 80zM1096 1098q186 0 287 -104t102 -308q0 -113 -17 -174l-6 -23h-590q14 -180 80 -262t185 -82q61 -1 119 13t85 28l27 15
q51 -41 62 -135q-12 -10 -35 -24t-106 -39q-83 -23 -203 -23t-205 66q-86 66 -119 149q-29 -84 -117 -150q-89 -65 -243 -65t-238 87t-84 252t95 239t288 75h215v92q0 105 -45 153t-159 48t-218 -37l-35 -15q-55 53 -59 148q145 76 354 76t287 -160q107 160 293 160z
M1004 1513l-256 -276q-82 14 -117 63l194 289q49 7 103 -17t76 -59z" />
    <glyph glyph-name="Oslashacute" unicode="&#x1fe;" horiz-adv-x="1392" 
d="M1055 712q0 296 -72 433l-510 -914q84 -78 223 -77q176 0 268 131q91 131 91 427zM696 1321q-176 0 -267 -131t-91 -453q0 -217 51 -348l494 885q-76 47 -187 47zM1274 737q0 -758 -578 -757q-193 0 -317 86l-82 -148q-35 -14 -86 -14t-86 14l141 250q-147 190 -147 571
t151 569q152 187 426 187q158 0 275 -61l69 122q46 24 135 12q21 -3 39 -12l-120 -213q180 -190 180 -606zM997 1858l-256 -277q-82 14 -116 64l194 288q51 4 103 -18t75 -57z" />
    <glyph glyph-name="oslashacute" unicode="&#x1ff;" horiz-adv-x="1116" 
d="M559 137q121 0 182 89t62 313q0 141 -33 227l-348 -590q49 -39 137 -39zM559 940q-123 0 -185 -89t-63 -312q0 -145 39 -230l348 590q-55 41 -139 41zM1014 539q0 -559 -455 -559q-129 0 -227 47l-74 -125q-74 2 -121 57l88 147q-123 139 -123 433q0 559 457 559
q137 0 227 -49l76 125q63 -2 119 -58l-88 -147q121 -137 121 -430zM752 1513l-256 -276q-82 14 -117 63l194 289q49 7 103 -17t76 -59z" />
    <glyph glyph-name="Scommaaccent" unicode="&#x218;" horiz-adv-x="1165" 
d="M578 -94q70 0 106 -12v-130q0 -98 -37 -181t-74 -118l-34 -34l-74 51q66 72 74 205l-68 12v195q37 12 107 12zM641 1319q-322 0 -322 -234q0 -84 65 -130t125 -68q59 -21 145 -47q176 -53 296 -146q119 -93 119 -293t-132 -311t-382 -110q-121 0 -231 22t-160 43l-51 21
q-6 100 49 165q193 -63 383 -63q311 0 311 233q0 86 -49 133q-27 26 -57 49t-165 65q-135 43 -181 60t-108 51q-62 35 -97 73t-61 102t-25 141q0 195 128 307t371 113q109 0 209 -14t146 -29l47 -14q0 -106 -58 -164q-139 45 -315 45z" />
    <glyph glyph-name="scommaaccent" unicode="&#x219;" horiz-adv-x="913" 
d="M437 -109q52 0 124 -12v-129q0 -98 -37 -182t-73 -117l-35 -35l-74 52q66 72 74 204l-68 13v194q37 12 89 12zM487 1098q90 0 162 -14t101 -27l26 -15q0 -96 -53 -145q-98 33 -215 33q-209 0 -209 -148q0 -60 59 -93t144 -56q149 -41 239 -109t89 -221q-1 -155 -99 -239
t-291 -84q-96 0 -181 18t-124 37l-37 18q0 98 56 152q133 -51 276 -51q197 0 197 147q0 75 -66 111q-59 32 -145 56q-86 26 -129 44t-90 51q-95 67 -95 215t98 234t287 86z" />
    <glyph glyph-name="dotlessj" unicode="&#x237;" horiz-adv-x="512" 
d="M237 1077q52 0 121 -14v-1243q0 -162 -76 -247t-221 -85q-92 0 -137 18q-6 20 -6 65t21 87q33 -8 75 -8q140 0 140 162v1251q31 14 83 14z" />
    <glyph glyph-name="circumflex" unicode="&#x2c6;" horiz-adv-x="811" 
d="M430 1473l283 -232q-37 -74 -95 -92l-215 145l-213 -143q-61 20 -94 90l281 232h53z" />
    <glyph glyph-name="caron" unicode="&#x2c7;" horiz-adv-x="827" 
d="M379 1126l-283 232q35 72 94 92l216 -145l212 143q57 -16 95 -90l-281 -232h-53z" />
    <glyph glyph-name="breve" unicode="&#x2d8;" horiz-adv-x="663" 
d="M328 1239q-90 0 -167 32t-108 64l-33 33q20 74 89 96q82 -66 219 -65q61 0 115 16t79 33l25 16q65 -18 88 -96q-12 -14 -35 -36q-22 -22 -102 -58t-170 -35z" />
    <glyph glyph-name="dotaccent" unicode="&#x2d9;" horiz-adv-x="360" 
d="M176 1237q-66 0 -96 12v174q56 22 151 10q25 -3 35 -8l10 -2v-174q-34 -12 -100 -12z" />
    <glyph glyph-name="ring" unicode="&#x2da;" horiz-adv-x="704" 
d="M479 1260q0 49 -35 85q-35 35 -96 35t-94 -36t-33 -85q0 -51 33 -87t94 -36t96 38q35 37 35 86zM348 1030q-106 0 -175 62t-69 166q0 106 73 166t173 60t174 -58q74 -60 74 -166t-72 -168t-178 -62z" />
    <glyph glyph-name="ogonek" unicode="&#x2db;" horiz-adv-x="579" 
d="M385 -61q-213 -61 -213 -175q0 -60 31 -88q31 -27 78 -26l65 12q35 -29 31 -80q-59 -37 -142 -37q-83 -1 -141 51t-57 149q0 97 87 163t245 72z" />
    <glyph glyph-name="tilde" unicode="&#x2dc;" horiz-adv-x="669" 
d="M211 1333q-47 0 -88 -57q-63 33 -76 94q23 38 77 69q108 63 237 -2q65 -34 98 -34q65 0 92 41l10 14q61 -27 76 -94q-21 -35 -76 -67q-55 -31 -114 -31t-124 34t-112 33z" />
    <glyph glyph-name="hungarumlaut" unicode="&#x2dd;" horiz-adv-x="790" 
d="M735 1581l-256 -276q-82 14 -117 63l191 289q51 5 105 -17t77 -59zM399 1581l-256 -276q-82 14 -116 63l190 289q49 5 103 -17t79 -59z" />
    <glyph glyph-name="pi" unicode="&#x3c0;" horiz-adv-x="1261" 
d="M333 0q-50 0 -120 14v883l-137 -23q-16 39 -16 87t16 81q116 35 370 35h738q16 -39 16 -84t-16 -84h-144v-424q0 -137 14 -247t31 -152l15 -41q-44 -45 -118 -45t-95 10q-51 111 -51 473v426h-418v-895q-35 -14 -85 -14z" />
    <glyph glyph-name="uni0401" unicode="&#x401;" horiz-adv-x="1136" 
d="M182 1475h830q16 -39 16 -87t-16 -83h-623v-476h520q17 -39 17 -85t-17 -82h-520v-492h643q34 -92 0 -170h-850v1475zM786 1614q-64 0 -90 12v166q31 12 76 12t111 -12v-166q-33 -12 -97 -12zM438 1614q-66 0 -90 12v166q31 12 95 12t81 -10l11 -2v-166q-31 -12 -97 -12z
" />
    <glyph glyph-name="uni0410" unicode="&#x410;" horiz-adv-x="1339" 
d="M666 1247h-7q-18 -82 -53 -184l-188 -518h487l-186 518zM1307 14q-37 -14 -106 -14t-99 12l-10 2l-127 361h-607l-129 -361q-35 -14 -95 -14t-91 12l-10 2l514 1446q94 26 188 10l58 -10z" />
    <glyph glyph-name="uni0411" unicode="&#x411;" horiz-adv-x="1267" 
d="M391 707v-545h316q127 0 193 72t67 201q0 128 -66 200t-194 72h-316zM391 1294v-426h354q199 0 318 -118t119 -316t-119 -316t-318 -118h-563v1475h848q16 -33 16 -84t-16 -97h-639z" />
    <glyph glyph-name="uni0412" unicode="&#x412;" horiz-adv-x="1286" 
d="M391 162h309q260 0 261 254q1 129 -63 191t-200 63h-307v-508zM391 825h295q119 0 176 66t58 178q0 244 -236 244h-293v-488zM182 1475h549q193 0 297 -112q104 -113 104 -307t-163 -298q207 -106 207 -342q0 -188 -116 -302t-321 -114h-557v1475z" />
    <glyph glyph-name="uni0413" unicode="&#x413;" horiz-adv-x="1038" 
d="M993 1395q0 -49 -16 -101h-586v-1280q-37 -14 -104 -14t-94 12l-11 2v1461h795q16 -31 16 -80z" />
    <glyph glyph-name="uni0414" unicode="&#x414;" horiz-adv-x="1429" 
d="M977 170v1147h-416l-41 -578q-29 -387 -127 -569h584zM1184 170h159v-453q-53 -16 -99 -16t-89 16v283h-926v-283q-47 -14 -95 -14t-91 14v453h113q131 115 166 582l55 723h807v-1305z" />
    <glyph glyph-name="uni0415" unicode="&#x415;" 
d="M182 1475h832q16 -49 16 -88t-16 -82h-623v-471h520q17 -53 17 -89t-17 -81h-520v-494h643q16 -53 16 -89t-16 -81h-852v1475z" />
    <glyph glyph-name="uni0416" unicode="&#x416;" horiz-adv-x="1892" 
d="M1870 14q-40 -14 -100 -14t-144 14l-432 668h-143v-668q-31 -14 -98 -14t-97 12l-12 2v668h-148l-432 -668q-43 -14 -118 -14t-111 12l-12 2l501 774l-438 672q68 14 111 14t104 -14l399 -610h144v610q35 14 101 15t95 -13l11 -2v-610h141l399 610q61 14 105 14t110 -14
l-438 -669z" />
    <glyph glyph-name="uni0417" unicode="&#x417;" horiz-adv-x="1132" 
d="M484 1495q238 0 365 -102q126 -102 126 -291q0 -131 -52 -217t-132 -123v-6q99 -39 163 -129t64 -238q0 -190 -135 -300t-422 -109q-115 0 -212 16t-136 33l-39 18q-4 100 59 160q143 -45 299 -45q371 0 371 250q0 143 -88 198t-250 56h-139q-35 90 0 172h139
q143 0 221 54t78 181t-81 187t-232 59q-151 0 -254 -37l-37 -10q-70 51 -66 151q152 72 390 72z" />
    <glyph glyph-name="uni0418" unicode="&#x418;" horiz-adv-x="1415" 
d="M1148 0q-52 0 -122 14v672q0 310 12 451l4 47h-6q-37 -106 -190 -408l-414 -762l-6 -2q-6 0 -16 -2l-25 -5q-70 -15 -203 9v1446q70 28 209 0v-676q0 -304 -10 -456l-4 -62h6q33 115 199 439l411 755q73 28 240 0v-1446q-33 -14 -85 -14z" />
    <glyph glyph-name="uni0419" unicode="&#x419;" horiz-adv-x="1415" 
d="M1148 0q-52 0 -122 14v672q0 310 12 451l4 47h-6q-37 -106 -190 -408l-414 -762l-6 -2q-6 0 -16 -2l-25 -5q-70 -15 -203 9v1446q70 28 209 0v-676q0 -304 -10 -456l-4 -62h6q33 115 199 439l411 755q73 28 240 0v-1446q-33 -14 -85 -14zM717 1815q66 0 126 18t87 37
l28 18q68 -23 95 -106q-11 -16 -49 -44q-127 -93 -287 -93t-281 88q-35 24 -55 49q29 84 96 106q95 -73 240 -73z" />
    <glyph glyph-name="uni041A" unicode="&#x41a;" horiz-adv-x="1263" 
d="M391 850h150l422 610q61 14 103 14t114 -14l-465 -672l526 -774q-43 -14 -118 -14t-111 12l-15 2l-456 668h-150v-668q-31 -14 -81 -14t-128 14v1446q72 27 209 0v-610z" />
    <glyph glyph-name="uni041B" unicode="&#x41b;" horiz-adv-x="1378" 
d="M1082 0q-79 0 -93 14v1299h-397l-39 -502q-44 -580 -217 -744q-53 -49 -94 -63t-93 -14t-96 14q-14 39 -14 79t14 77q37 -4 68 0q188 20 235 655l52 660h788v-1461q-35 -14 -114 -14z" />
    <glyph glyph-name="uni041C" unicode="&#x41c;" horiz-adv-x="1710" 
d="M1530 14q-35 -14 -100 -14t-95 12l-12 2v656q0 455 12 547h-10q-23 -82 -182 -412l-240 -451q-27 -10 -59 -10t-62 10l-235 443q-160 319 -187 420h-8q20 -102 21 -517v-686q-33 -14 -93 -14t-87 12l-11 2v1446q112 32 232 2l18 -2l270 -512q117 -231 142 -317h8
q31 92 76 182q164 307 334 647q68 14 115 14t153 -14v-1446z" />
    <glyph glyph-name="uni041D" unicode="&#x41d;" horiz-adv-x="1396" 
d="M391 846h615v614q72 27 208 0v-1446q-34 -14 -86 -14t-122 14v652h-615v-652q-37 -14 -107 -14t-91 12l-11 2v1446q70 28 209 0v-614z" />
    <glyph glyph-name="uni041E" unicode="&#x41e;" horiz-adv-x="1392" 
d="M1055 737q0 322 -91 453q-92 131 -268 131t-267 -131t-91 -453q0 -323 91 -453t267 -130t268 130t91 453zM119 737q0 383 151 571q152 187 426 187t426 -186t152 -572q0 -758 -578 -757q-577 -1 -577 757z" />
    <glyph glyph-name="uni041F" unicode="&#x41f;" horiz-adv-x="1370" 
d="M1101 0q-52 0 -122 14v1280h-590v-1280q-37 -14 -106 -14t-90 12l-11 2v1461h1006v-1461q-35 -14 -87 -14z" />
    <glyph glyph-name="uni0420" unicode="&#x420;" horiz-adv-x="1241" 
d="M391 750h299q121 0 186 72t64 202q0 131 -64 204q-65 73 -186 72h-299v-550zM391 575v-561q-35 -14 -103 -14t-95 12l-11 2v1461h535q201 0 321 -124t119 -326q0 -202 -120 -326t-320 -124h-326z" />
    <glyph glyph-name="uni0421" unicode="&#x421;" horiz-adv-x="1150" 
d="M119 736q0 374 150 567q151 193 446 192q100 0 188 -17t125 -36l37 -17q4 -82 -61 -155q-119 47 -265 47q-195 0 -299 -130t-104 -457t110 -449q110 -121 281 -120t262 36l35 12q59 -57 63 -160q-133 -70 -372 -69q-293 0 -445 191q-151 191 -151 565z" />
    <glyph glyph-name="uni0422" unicode="&#x422;" horiz-adv-x="1120" 
d="M1067 1392q0 -46 -16 -98h-381v-1280q-37 -14 -88 -14t-121 14v1280h-391q-33 73 0 181h981q16 -37 16 -83z" />
    <glyph glyph-name="uni0423" unicode="&#x423;" horiz-adv-x="1247" 
d="M334 0q-88 0 -101 23q0 8 -6 26t-6 67t10 70q51 -6 113 -6t123 43t119 172h-47l-502 1065q37 14 111 15t108 -13l10 -2l330 -698q38 -81 53 -130q16 -49 17 -50h6q16 68 61 186l271 692q35 14 94 15t98 -13l12 -2l-405 -1065q-123 -325 -331 -381q-50 -14 -138 -14z" />
    <glyph glyph-name="uni0424" unicode="&#x424;" horiz-adv-x="1648" 
d="M928 1184v-828q198 0 308 91t110 323t-110 324q-110 90 -308 90zM719 356v828q-199 0 -309 -91t-109 -323q-1 -232 109 -324q110 -90 309 -90zM839 0q-50 0 -120 14v183q-295 0 -462 132t-167 441t167 441t462 132v144q35 14 105 14t104 -14v-144q631 0 631 -573
t-631 -573v-183q-39 -14 -89 -14z" />
    <glyph glyph-name="uni0425" unicode="&#x425;" horiz-adv-x="1282" 
d="M1247 18q-43 -18 -112 -18t-125 16l-375 598l-379 -600q-48 -14 -116 -14t-111 14l477 752l-428 694q41 14 110 15t115 -13l12 -2l334 -534l340 534q121 32 221 0l-438 -682z" />
    <glyph glyph-name="uni0426" unicode="&#x426;" horiz-adv-x="1439" 
d="M1194 180h158v-463q-43 -16 -94 -16t-93 16v283h-983v1460q64 29 209 0v-1280h594v1280q64 29 209 0v-1280z" />
    <glyph glyph-name="uni0427" unicode="&#x427;" horiz-adv-x="1310" 
d="M1042 0q-52 0 -122 14v617q-133 -63 -349 -63t-338 108q-121 109 -120 366v418q65 26 209 0v-418q0 -164 70 -230t232 -64q163 0 296 63v649q72 27 208 0v-1446q-34 -14 -86 -14z" />
    <glyph glyph-name="uni0428" unicode="&#x428;" horiz-adv-x="1951" 
d="M1769 0h-1587v1460q64 29 209 0v-1280h481v1280q61 30 209 0v-1280h482v1280q60 29 206 0v-1460z" />
    <glyph glyph-name="uni0429" unicode="&#x429;" horiz-adv-x="2015" 
d="M1769 180h158v-463q-35 -16 -90 -16t-96 16v283h-1559v1460q64 29 209 0v-1280h481v1280q64 29 209 0v-1280h482v1280q63 29 206 0v-1280z" />
    <glyph glyph-name="uni042A" unicode="&#x42a;" horiz-adv-x="1466" 
d="M588 700v-526h323q121 0 187 70t66 194t-66 194q-66 69 -187 68h-323zM47 1376q0 47 16 99h525v-601h350q203 0 324 -120q120 -120 120 -316q0 -198 -120 -318t-324 -120h-559v1294h-316q-16 35 -16 82z" />
    <glyph glyph-name="uni042B" unicode="&#x42b;" horiz-adv-x="1789" 
d="M391 700v-526h324q121 0 187 70t65 194q0 124 -66 194q-66 69 -186 68h-324zM1515 0q-58 0 -114 14v1446q62 26 207 0v-1446q-35 -14 -93 -14zM391 874h350q203 0 324 -120t121 -316q0 -198 -121 -318t-324 -120h-559v1460q64 29 209 0v-586z" />
    <glyph glyph-name="uni042C" unicode="&#x42c;" horiz-adv-x="1269" 
d="M391 174h324q121 0 187 70t65 194q0 124 -66 194q-66 69 -186 68h-324v-526zM391 874h350q203 0 324 -120t121 -316q0 -198 -121 -318t-324 -120h-559v1460q64 29 209 0v-586z" />
    <glyph glyph-name="uni042D" unicode="&#x42d;" horiz-adv-x="1200" 
d="M440 1319q-145 0 -247 -37l-37 -10q-62 55 -62 153q135 70 371 70q303 -1 460 -193t157 -566t-158 -565q-156 -191 -459 -191q-111 0 -209 17t-141 36l-41 16q0 102 61 158q133 -47 315 -47t290 112t120 392h-528q-16 35 -16 83t16 87h528q-16 264 -126 374t-294 111z
" />
    <glyph glyph-name="uni042E" unicode="&#x42e;" horiz-adv-x="1951" 
d="M1255 1321q-176 0 -268 -131t-92 -453q0 -323 92 -453t268 -130t268 131q91 131 91 453t-91 452q-92 131 -268 131zM391 823h289q16 340 164 506t411 166q578 0 578 -758t-578 -757q-543 0 -575 671h-289v-637q-39 -14 -108 -14t-90 12l-11 2v1446q70 28 209 0v-637z" />
    <glyph glyph-name="uni042F" unicode="&#x42f;" horiz-adv-x="1286" 
d="M895 1300h-299q-118 0 -184 -70t-66 -198q0 -126 66 -196t184 -70h299v534zM1019 0q-54 0 -124 14v576h-256l-322 -576q-43 -14 -115 -14t-108 12l-12 2l336 598q-137 41 -213 152t-76 268q0 201 120 322t320 121h535v-1461q-31 -14 -85 -14z" />
    <glyph glyph-name="uni0430" unicode="&#x430;" horiz-adv-x="1054" 
d="M502 504q-209 0 -209 -183t178 -184q115 0 176 82t62 201v72q-141 12 -207 12zM528 1098q210 0 297 -96q88 -96 88 -302v-686q-23 -14 -73 -14t-78 12l-10 2l-31 131q-82 -166 -322 -165q-147 0 -232 87t-85 255q0 322 393 321q127 0 234 -12v82q0 109 -47 161t-167 52
t-235 -37l-37 -15q-35 35 -47 63t-12 85q154 76 364 76z" />
    <glyph glyph-name="uni0431" unicode="&#x431;" horiz-adv-x="1165" 
d="M604 895q-121 0 -184 -81q-64 -81 -64 -297t64 -298t184 -82q121 0 184 82t64 297q0 215 -64 297t-184 82zM160 350q-34 150 -33 382q0 232 30 327q30 96 54 147q39 80 158 158q88 58 382 112q78 14 99 27q20 12 43 47q96 -10 135 -75q-20 -82 -68 -120q-48 -39 -152 -57
q-102 -18 -162 -31q-172 -37 -235 -87q-91 -73 -116 -176q-14 -59 -23 -146h9q88 195 342 195q440 0 440 -537t-459 -536q-114 0 -194 32t-148 110t-102 228z" />
    <glyph glyph-name="uni0432" unicode="&#x432;" horiz-adv-x="1056" 
d="M352 147h228q170 0 170 162t-170 162h-228v-324zM352 616h215q74 0 113 43t39 115t-39 114t-113 42h-215v-314zM621 1077q137 0 217 -78t80 -208q0 -166 -121 -236q162 -70 161 -254q0 -141 -87 -221t-242 -80h-479v1077h471z" />
    <glyph glyph-name="uni0433" unicode="&#x433;" horiz-adv-x="831" 
d="M270 0q-50 0 -120 14v1063h626q16 -35 16 -82t-16 -86h-422v-895q-34 -14 -84 -14z" />
    <glyph glyph-name="uni0434" unicode="&#x434;" horiz-adv-x="1193" 
d="M784 152v768h-319l-25 -338q-23 -285 -92 -430h436zM51 152h78q98 74 127 438l39 487h692v-925h129v-400q-33 -14 -87 -14t-101 14v248h-690v-248q-35 -14 -97 -14t-90 14v400z" />
    <glyph glyph-name="uni0435" unicode="&#x435;" horiz-adv-x="1052" 
d="M758 713q0 223 -201 223q-221 0 -244 -315h439q6 49 6 92zM102 545q0 281 121 417t324 136t309 -106t107 -306q0 -80 -17 -186l-6 -25h-627q12 -176 82 -249t203 -72q66 0 127 15t90 30l29 14q57 -51 61 -147q-38 -32 -140 -60q-101 -27 -200 -26q-463 0 -463 565z" />
    <glyph glyph-name="uni0436" unicode="&#x436;" horiz-adv-x="1556" 
d="M796 0q-48 0 -118 14v471h-143l-279 -471q-41 -14 -112 -14t-111 16l332 562l-285 485q41 14 104 14t90 -12l13 -2l248 -424h143v424q37 14 95 14t95 -12l13 -2v-424h143l250 424q39 14 99 14t93 -12l13 -2l-285 -485l332 -564q-35 -14 -106 -14t-107 12l-13 2l-278 471
h-141v-471q-37 -14 -85 -14z" />
    <glyph glyph-name="uni0437" unicode="&#x437;" horiz-adv-x="940" 
d="M418 1098q393 0 393 -303q0 -182 -137 -242v-6q166 -61 166 -248q0 -319 -449 -319q-90 0 -172 15t-117 30l-36 16q0 86 57 141q98 -39 262 -39q246 0 246 166q0 160 -223 160h-144q-14 33 -14 74t12 71l2 9h144q197 0 196 157q0 160 -221 160q-128 0 -209 -25l-29 -8
q-51 48 -55 140q96 51 328 51z" />
    <glyph glyph-name="uni0438" unicode="&#x438;" horiz-adv-x="1177" 
d="M823 1063q37 14 98 14t97 -12l12 -2v-1049q-40 -14 -98 -14t-94 12l-13 2v418q0 358 11 369h-7q6 -2 -44 -95t-123 -214l-308 -478q-40 -14 -102 -14t-92 12l-13 2v1049q37 14 100 14t93 -12l12 -2v-422q0 -360 -12 -365h6q39 92 94 185z" />
    <glyph glyph-name="uni0439" unicode="&#x439;" horiz-adv-x="1177" 
d="M823 1063q37 14 98 14t97 -12l12 -2v-1049q-40 -14 -98 -14t-94 12l-13 2v418q0 358 11 369h-7q-35 -88 -96 -189l-379 -598q-40 -14 -102 -14t-92 12l-13 2v1049q37 14 100 14t93 -12l12 -2v-422q0 -365 -12 -365h6q39 92 94 185zM590 1411q62 0 116 16t78 33l25 17
q66 -18 88 -97q-12 -14 -35 -36q-22 -22 -102 -57q-80 -36 -170 -36t-167 32t-108 65l-32 32q20 74 88 97q82 -66 219 -66z" />
    <glyph glyph-name="uni043A" unicode="&#x43a;" horiz-adv-x="1026" 
d="M226 1077q42 0 126 -14v-424h117l276 424q43 14 107 14t100 -12l-315 -490l360 -561q-39 -14 -97 -14t-128 14l-307 471h-113v-471q-42 -14 -102 -14t-90 12l-13 2v1049q37 14 79 14z" />
    <glyph glyph-name="uni043B" unicode="&#x43b;" horiz-adv-x="1136" 
d="M902 0q-41 0 -118 14v906h-295l-26 -326q-32 -376 -120 -500q-109 -152 -282 -94l-10 2q-14 27 -14 56t14 85q33 -6 70 0q121 18 155 459l37 475h674v-1063q-43 -14 -85 -14z" />
    <glyph glyph-name="uni043C" unicode="&#x43c;" horiz-adv-x="1363" 
d="M991 1063q47 14 108 14t103 -12l15 -2v-1049q-31 -14 -93 -14t-92 12l-12 2v488q0 242 16 307h-8q0 -2 -4 -10q-4 -9 -9 -23q-24 -70 -65 -137l-225 -408q-18 -10 -49 -10l-49 10l-217 396q-45 86 -84 182h-7q14 -72 15 -309v-486q-40 -14 -92 -14t-82 12l-13 2v1049
q51 14 115 14t98 -12l11 -2l243 -449q16 -33 64 -141h6q35 92 61 141z" />
    <glyph glyph-name="uni043D" unicode="&#x43d;" horiz-adv-x="1142" 
d="M270 0q-46 0 -123 14v1049q33 14 98 14t95 -12l12 -2v-426h439v426q41 14 101 14q61 0 91 -12l12 -2v-1049q-35 -14 -99 -14q-63 0 -93 12l-12 2v457h-439v-457q-36 -14 -82 -14z" />
    <glyph glyph-name="uni043E" unicode="&#x43e;" horiz-adv-x="1114" 
d="M801 539q1 223 -61 312t-183 89t-183 -89t-62 -312t62 -313t183 -89q121 -1 183 89t61 313zM102 539q0 559 455 559q221 0 338 -133t117 -426q0 -559 -455 -559t-455 559z" />
    <glyph glyph-name="uni043F" unicode="&#x43f;" horiz-adv-x="1126" 
d="M897 0q-41 0 -125 14v893h-418v-893q-42 -14 -88 -14t-116 14v1063h827v-1063q-39 -14 -80 -14z" />
    <glyph glyph-name="uni0440" unicode="&#x440;" 
d="M823 539q0 221 -58 306q-59 85 -175 85t-176 -75t-60 -183v-262q0 -111 60 -187t176 -76q117 -1 175 85t58 307zM233 1077q50 0 121 -14v-98q90 133 286 133t294 -130q100 -130 100 -429t-99 -429t-295 -130t-286 133v-574q-36 -12 -90 -12t-114 12v1524q33 14 83 14z
" />
    <glyph glyph-name="uni0441" unicode="&#x441;" horiz-adv-x="915" 
d="M588 930q-145 0 -210 -94t-65 -296t68 -294t215 -92q89 0 170 26l22 8q55 -49 60 -147q-90 -61 -304 -61t-328 142t-114 416t114 417q114 142 337 143q88 0 157 -12t93 -25l24 -14q0 -92 -59 -148q-71 31 -180 31z" />
    <glyph glyph-name="uni0442" unicode="&#x442;" horiz-adv-x="931" 
d="M569 905v-891q-35 -14 -91 -14t-113 14v891h-306q-18 33 -18 91t18 81h815q16 -33 16 -89t-16 -83h-305z" />
    <glyph glyph-name="uni0443" unicode="&#x443;" horiz-adv-x="1077" 
d="M270 -512q-66 0 -98 16l-14 4l-2 5q0 9 -6 25t-7 64q0 48 17 64q46 -8 106 -8t102 40t85 177l43 125q-43 4 -66 14l-389 1049q39 14 105 14t96 -12l12 -2l233 -623q44 -122 66 -211l6 -28h8q20 96 66 237l203 625q34 14 94 14t90 -12l12 -2l-395 -1221
q-61 -188 -137 -271t-230 -83z" />
    <glyph glyph-name="uni0444" unicode="&#x444;" horiz-adv-x="1593" 
d="M1076 940q-106 0 -187 -41v-711q73 -49 183 -49q110 1 161 93t51 307t-51 308t-157 93zM525 940q-116 0 -167 -94t-51 -307t51 -307t155 -93q104 0 169 37l20 12v711q-61 41 -177 41zM777 1536q52 0 122 -14v-463q80 39 203 39q203 -2 295 -142t92 -418q0 -280 -92 -419
t-295 -139q-103 0 -180 32l-23 13v-523q-35 -14 -104 -14t-90 12l-11 2v523q-80 -45 -202 -45q-203 0 -295 139t-93 420q0 281 92 419t296 140q89 0 180 -29l22 -10v463q31 14 83 14z" />
    <glyph glyph-name="uni0445" unicode="&#x445;" horiz-adv-x="1030" 
d="M57 1063q41 14 109 14t104 -12l13 -2l241 -363l244 363q35 14 85 14t120 -14l-340 -504l364 -545q-41 -14 -98 -14t-127 14l-264 396l-266 -396q-37 -14 -87 -14t-120 14l362 537z" />
    <glyph glyph-name="uni0446" unicode="&#x446;" horiz-adv-x="1185" 
d="M240 1077q56 0 112 -14v-893h422v893q37 14 85 14t118 -14v-893h129v-418q-38 -14 -98 -14t-88 14v248h-770v1063q34 14 90 14z" />
    <glyph glyph-name="uni0447" unicode="&#x447;" horiz-adv-x="1071" 
d="M840 0q-51 0 -121 14v416q-72 -41 -234 -41q-391 0 -391 344v330q39 14 101 14t92 -12l12 -2v-332q0 -94 49 -137q48 -43 178 -43t193 45v467q35 14 101 14t93 -12l11 -2v-1049q-33 -14 -84 -14z" />
    <glyph glyph-name="uni0448" unicode="&#x448;" horiz-adv-x="1554" 
d="M1282 1077q53 0 123 -14v-1063h-1255v1063q29 14 81 14t123 -14v-893h320v893q31 14 79 14t126 -14v-893h321v893q29 14 82 14z" />
    <glyph glyph-name="uni0449" unicode="&#x449;" horiz-adv-x="1611" 
d="M1282 1077q53 0 123 -14v-893h129v-418q-35 -14 -96 -14t-92 14v248h-1196v1063q29 14 81 14t123 -14v-893h320v893q31 14 79 14t126 -14v-893h321v893q29 14 82 14z" />
    <glyph glyph-name="uni044A" unicode="&#x44a;" horiz-adv-x="1183" 
d="M506 147h231q80 1 122 47t42 128t-42 129t-122 47h-231v-351zM506 647h268q154 0 245 -89t91 -235q0 -147 -91 -235t-245 -88h-473v905h-238q-20 41 -20 89t20 83h443v-430z" />
    <glyph glyph-name="uni044B" unicode="&#x44b;" horiz-adv-x="1482" 
d="M354 498v-351h232q80 1 122 47t42 128t-42 129t-122 47h-232zM1233 1077q66 0 102 -14v-1049q-37 -14 -102 -14t-103 14v1049q37 14 103 14zM252 1077q66 0 102 -14v-416h269q155 0 245 -89t90 -235q0 -147 -91 -235t-244 -88h-473v1063q36 14 102 14z" />
    <glyph glyph-name="uni044C" unicode="&#x44c;" horiz-adv-x="1032" 
d="M354 147h232q80 1 122 47t42 128t-42 129t-122 47h-232v-351zM354 647h269q155 0 245 -89t90 -235q0 -147 -91 -235t-244 -88h-473v1063q36 14 102 14t102 -14v-416z" />
    <glyph glyph-name="uni044D" unicode="&#x44d;" horiz-adv-x="937" 
d="M344 940q-107 0 -176 -22l-25 -9q-51 49 -55 138q96 51 307 51t326 -142t115 -417t-117 -417t-340 -142q-90 0 -168 15t-111 30l-32 16q4 94 57 139q92 -35 211 -35q266 0 291 322h-389q-14 13 -14 69t14 85h387q-25 319 -281 319z" />
    <glyph glyph-name="uni044E" unicode="&#x44e;" horiz-adv-x="1593" 
d="M1280 539q0 223 -62 312t-184 89t-186 -89t-64 -312t64 -313t185 -89q122 0 185 89q62 90 62 313zM1491 539q0 -559 -457 -559q-418 0 -454 464h-228v-430q-37 -14 -102 -14t-103 14v1049q37 14 103 14t102 -14v-447h228q31 481 454 482q457 0 457 -559z" />
    <glyph glyph-name="uni044F" unicode="&#x44f;" horiz-adv-x="1073" 
d="M508 930q-86 0 -131 -49t-45 -135t45 -134q45 -49 131 -49h211v367h-211zM186 0q-66 0 -114 14l245 428q-94 35 -144 115t-50 188q0 150 93 241t255 91h453v-1063q-37 -14 -103 -14t-102 14v400h-199l-221 -400q-47 -14 -113 -14z" />
    <glyph glyph-name="uni0451" unicode="&#x451;" horiz-adv-x="1052" 
d="M758 713q0 223 -201 223q-221 0 -244 -315h439q6 49 6 92zM102 545q0 281 121 417t324 136t309 -106t107 -306q0 -80 -17 -186l-6 -25h-627q12 -178 82 -254t203 -76q66 1 127 15t90 28l29 15q55 -45 61 -137q-39 -33 -138 -60t-202 -26q-463 0 -463 565zM720 1262
q-64 0 -89 12v166q29 12 78 12t108 -12v-166q-33 -12 -97 -12zM372 1262q-64 0 -89 12v166q31 12 78 12t108 -12v-166q-33 -12 -97 -12z" />
    <glyph glyph-name="Wgrave" unicode="&#x1e80;" horiz-adv-x="1978" 
d="M578 0q-62 0 -123 14l-402 1446q35 14 100 15t99 -13l10 -2l268 -962q27 -99 52 -232l6 -39h8q16 135 49 271l246 962q33 14 104 15t105 -13l10 -2l244 -962q24 -93 43 -236l4 -35h6q18 123 57 271l269 962q69 26 145 10q25 -4 35 -8l12 -2l-399 -1446q-47 -14 -115 -14
t-113 12l-16 2l-235 938q-37 175 -46 269l-2 32h-8q-6 -111 -49 -301l-235 -938q-67 -14 -129 -14zM989 1544l-250 271q23 35 76 59t103 16l188 -282q-35 -52 -117 -64z" />
    <glyph glyph-name="wgrave" unicode="&#x1e81;" horiz-adv-x="1632" 
d="M480 0q-71 0 -120 14l-309 1049q37 14 102 14t83 -12l6 -2l194 -653q27 -90 43 -201h6q23 125 45 201l189 653q49 14 110 14t91 -12l10 -2l182 -649q33 -111 41 -205h6q18 92 51 203l193 651q33 14 89 14t81 -12l8 -2l-309 -1049q-51 -14 -116 -14t-120 14l-157 555
q-47 168 -56 295h-8q-8 -131 -57 -295l-162 -555q-45 -14 -116 -14zM795 1237l-256 276q23 35 75 59t103 17l194 -289q-34 -49 -116 -63z" />
    <glyph glyph-name="Wacute" unicode="&#x1e82;" horiz-adv-x="1978" 
d="M578 0q-62 0 -123 14l-402 1446q35 14 100 15t99 -13l10 -2l268 -962q27 -99 52 -232l6 -39h8q16 135 49 271l246 962q33 14 104 15t105 -13l10 -2l244 -962q24 -93 43 -236l4 -35h6q18 123 57 271l269 962q69 26 145 10q25 -4 35 -8l12 -2l-399 -1446q-47 -14 -115 -14
t-113 12l-16 2l-235 938q-37 175 -46 269l-2 32h-8q-6 -111 -49 -301l-235 -938q-67 -14 -129 -14zM1198 1819l-252 -271q-82 10 -117 64l191 282q49 6 102 -17t76 -58z" />
    <glyph glyph-name="wacute" unicode="&#x1e83;" horiz-adv-x="1632" 
d="M480 0q-71 0 -120 14l-309 1049q37 14 102 14t83 -12l6 -2l194 -653q27 -90 43 -201h6q23 125 45 201l189 653q49 14 110 14t91 -12l10 -2l182 -649q33 -111 41 -205h6q18 92 51 203l193 651q33 14 89 14t81 -12l8 -2l-309 -1049q-51 -14 -116 -14t-120 14l-157 555
q-47 168 -56 295h-8q-8 -131 -57 -295l-162 -555q-45 -14 -116 -14zM1010 1513l-256 -276q-82 14 -117 63l194 289q49 7 103 -17t76 -59z" />
    <glyph glyph-name="Wdieresis" unicode="&#x1e84;" horiz-adv-x="1978" 
d="M578 0q-62 0 -123 14l-402 1446q35 14 100 15t99 -13l10 -2l268 -962q27 -99 52 -232l6 -39h8q16 135 49 271l246 962q33 14 104 15t105 -13l10 -2l244 -962q24 -93 43 -236l4 -35h6q18 123 57 271l269 962q69 26 145 10q25 -4 35 -8l12 -2l-399 -1446q-47 -14 -115 -14
t-113 12l-16 2l-235 938q-37 175 -46 269l-2 32h-8q-6 -111 -49 -301l-235 -938q-67 -14 -129 -14zM1266 1602q-33 -12 -96 -12t-91 12v165q52 21 143 10q24 -3 33 -8l11 -2v-165zM918 1602q-33 -12 -97 -12t-90 12v165q56 22 143 10q23 -3 33 -8l11 -2v-165z" />
    <glyph glyph-name="wdieresis" unicode="&#x1e85;" horiz-adv-x="1632" 
d="M480 0q-71 0 -120 14l-309 1049q37 14 102 14t83 -12l6 -2l194 -653q27 -90 43 -201h6q23 125 45 201l189 653q49 14 110 14t91 -12l10 -2l182 -649q33 -111 41 -205h6q18 92 51 203l193 651q33 14 89 14t81 -12l8 -2l-309 -1049q-51 -14 -116 -14t-120 14l-157 555
q-47 168 -56 295h-8q-8 -131 -57 -295l-162 -555q-45 -14 -116 -14zM985 1452q45 0 111 -12v-166q-32 -12 -96 -12t-91 12v166q31 12 76 12zM651 1262q-66 0 -90 12v166q31 12 95 12t81 -10l11 -2v-166q-31 -12 -97 -12z" />
    <glyph glyph-name="Ygrave" unicode="&#x1ef2;" horiz-adv-x="1298" 
d="M665 0q-52 0 -122 14v598l-504 848q45 14 118 15t113 -13l15 -2l374 -633l385 633q71 27 169 10l57 -10l-518 -844v-602q-35 -14 -87 -14zM573 1890l195 -288q-35 -49 -117 -64l-256 277q23 35 76 58t102 17z" />
    <glyph glyph-name="ygrave" unicode="&#x1ef3;" horiz-adv-x="1077" 
d="M270 -512q-66 0 -98 16l-14 4l-2 5q0 9 -6 25t-7 64q0 48 17 64q46 -8 106 -8t102 40t85 177l43 125q-43 4 -66 14l-389 1049q39 14 105 14t96 -12l12 -2l233 -623q44 -122 66 -211l6 -28h8q20 96 66 237l203 625q34 14 94 14t90 -12l12 -2l-395 -1221
q-61 -188 -137 -271t-230 -83zM508 1237l-256 276q23 35 76 59t102 17l195 -289q-35 -49 -117 -63z" />
    <glyph glyph-name="fraction" unicode="&#x2044;" horiz-adv-x="278" 
d="M-182 -8q-30 -12 -78 -12t-78 12l791 1433q45 22 96 14t61 -14z" />
    <glyph glyph-name="uni2113" unicode="&#x2113;" horiz-adv-x="956" 
d="M702 1231q0 162 -120 162q-74 1 -110 -57t-36 -212v-381q266 261 266 488zM233 1098q0 206 75 322t270 116q156 0 236 -82t79 -223q0 -181 -121 -363t-336 -338v-223q0 -154 129 -153q55 0 109 28t84 54l26 26q82 -23 99 -100q-49 -65 -144 -123q-96 -59 -232 -59
t-205 80t-69 276v67q-47 -27 -122 -65q-61 45 -60 135q86 41 182 105v520z" />
    <glyph glyph-name="uni2117" unicode="&#x2117;" horiz-adv-x="1640" 
d="M739 950v-280h150q133 0 133 139q0 69 -35 105t-98 36h-150zM598 1071h305q121 0 194 -73q73 -74 73 -192t-74 -190q-72 -72 -193 -71h-164v-248q-70 -31 -141 0v774zM1393 696q0 238 -167 405t-405 167q-237 0 -405 -167t-168 -405t168 -406t406 -167q238 -1 404 167
q167 168 167 406zM113 696q0 293 208 500q209 207 501 207t499 -207t207 -500q0 -292 -207 -500t-500 -208t-501 208t-207 500z" />
    <glyph glyph-name="Omega" unicode="&#x2126;" horiz-adv-x="1488" 
d="M154 778q0 367 155 542q157 175 437 175t436 -175t155 -542q0 -319 -231 -598h258q16 -49 16 -92t-16 -88h-494q-39 90 0 182q248 209 248 596q0 297 -96 420t-276 123t-277 -123q-96 -123 -96 -420q0 -387 248 -596q33 -86 0 -182h-494q-18 47 -18 92t18 88h258
q-231 270 -231 598z" />
    <glyph glyph-name="estimated" unicode="&#x212e;" horiz-adv-x="1634" 
d="M837 1333q-212 0 -397 -137v-455h787v453q-178 139 -390 139zM844 -20q-307 0 -519 210t-212 510q0 299 212 510t509 211q296 0 508 -211t212 -510v-49h-1114v-446q184 -137 390 -137t387 127h137q-203 -215 -510 -215z" />
    <glyph glyph-name="partialdiff" unicode="&#x2202;" horiz-adv-x="1140" 
d="M555 895q-121 0 -181 -82t-60 -296t62 -297t187 -83t186 89q60 89 60 286t-8 283q-74 100 -246 100zM1020 676q0 -394 -117 -546t-344 -150q-457 0 -457 536t437 537q137 0 235 -74q-45 160 -164 254t-334 127q-27 106 25 176q385 -37 552 -251q167 -215 167 -609z" />
    <glyph glyph-name="product" unicode="&#x220f;" horiz-adv-x="1460" 
d="M292 -424q-58 0 -97 16v1827h1071v-1827q-33 -16 -88 -16t-99 16v1651h-698v-1651q-31 -16 -89 -16z" />
    <glyph glyph-name="summation" unicode="&#x2211;" horiz-adv-x="1218" 
d="M102 1421h1010q14 -33 14 -81t-12 -78l-2 -11h-758l389 -719l-419 -782h800q25 -59 11 -132q-4 -22 -9 -32l-2 -10h-1056v102l464 857l-430 794v92z" />
    <glyph glyph-name="minus" unicode="&#x2212;" horiz-adv-x="954" 
d="M805 686q0 -40 -12 -88h-631q-12 30 -12 66t12 90h631q12 -28 12 -68z" />
    <glyph glyph-name="uni2219" unicode="&#x2219;" horiz-adv-x="503" 
d="M252 571q-49 0 -84 31t-35 86t35 86t84 31t84 -31t35 -86t-35 -86t-84 -31z" />
    <glyph glyph-name="radical" unicode="&#x221a;" horiz-adv-x="1318" 
d="M635 -31l-320 740l-209 -91q-68 45 -55 132l359 157l295 -698l436 1286q86 14 141 -35l-502 -1491h-145z" />
    <glyph glyph-name="infinity" unicode="&#x221e;" horiz-adv-x="1658" 
d="M1198 858q-88 0 -151 -48t-89 -97l-26 -47q95 -190 254 -193q100 0 151 57q51 58 51 136t-50 135q-52 57 -140 57zM461 473q88 0 151 48t88 97l27 48l-10 20q-53 107 -153 152q-44 20 -91 20q-100 0 -151 -57q-52 -57 -52 -135t52 -136t139 -57zM1184 317q-128 0 -228 80
q-88 74 -112 123l-15 23q-13 -25 -51 -71t-77 -76q-38 -30 -99 -54t-127 -25q-172 -1 -268 103t-96 246t96 244q96 103 268 104q66 0 127 -24t123 -76t90 -103l14 -25q7 18 50 69q43 50 81 80q38 31 98 55q62 24 126 24q172 0 268 -104t96 -244q0 -141 -96 -245t-268 -104z
" />
    <glyph glyph-name="integral" unicode="&#x222b;" horiz-adv-x="1019" 
d="M418 -31v1145q0 170 83 265t242 96q62 -1 115 -19q54 -18 72 -28t30 -17l37 -20q-12 -80 -69 -125q-102 72 -203 59q-145 -14 -145 -209v-1147q0 -362 -316 -362q-100 0 -179 50q-19 11 -39 23t-21 13q14 84 69 123q102 -72 191 -62q133 14 133 215z" />
    <glyph glyph-name="notequal" unicode="&#x2260;" horiz-adv-x="1007" 
d="M123 416q0 39 12 69h227l119 215h-346q-12 37 -12 77t12 77h432l90 164q41 12 73 12t69 -12l-92 -164h161q12 -29 12 -75t-12 -79h-245l-119 -215h364q12 -31 12 -75t-12 -78h-450l-101 -180q-61 -27 -139 0l101 180h-144q-12 45 -12 84z" />
    <glyph glyph-name="lessequal" unicode="&#x2264;" horiz-adv-x="950" 
d="M788 346q12 -29 12 -73t-12 -78h-634q-20 48 -16 77t16 74h634zM788 442l-634 234q-20 58 -13 101q6 42 11 50l2 11l634 233q31 -64 0 -156l-446 -161l446 -156q31 -64 0 -156z" />
    <glyph glyph-name="greaterequal" unicode="&#x2265;" horiz-adv-x="950" 
d="M809 280q0 -37 -12 -85h-635q-12 29 -12 66t12 85h635q12 -29 12 -66zM162 442q-12 29 -12 80t10 68l2 8l446 156l-446 161q-12 29 -12 75t12 81l635 -233q12 -30 12 -66t-12 -96z" />
    <glyph glyph-name="lozenge" unicode="&#x25ca;" horiz-adv-x="1124" 
d="M858 719l-295 485l-291 -485l291 -486zM516 14l-438 707l438 704h88l445 -704l-445 -707h-88z" />
    <glyph glyph-name="commaaccentcomb" unicode="&#xf6c3;" horiz-adv-x="0" 
d="M82 207q31 14 101 14t100 -12l12 -2v-129q0 -98 -37 -181t-74 -118l-37 -35l-73 51q66 72 76 205q-26 0 -68 14v193z" />
    <glyph glyph-name="fi" unicode="&#xfb01;" horiz-adv-x="1183" 
d="M321 0q-56 0 -112 14v910h-131q-10 31 -10 77l10 76h131v123q0 336 387 336q111 0 216 -16t155 -33l49 -17q-4 -88 -53 -143q-145 45 -353 45q-104 0 -151 -39t-47 -123v-133h512q52 0 78 -6t28 -6v-1051q-35 -14 -104 -14t-90 12l-11 2v910h-413v-910q-35 -14 -91 -14z
" />
    <glyph glyph-name="fl" unicode="&#xfb02;" horiz-adv-x="1183" 
d="M326 0q-49 0 -119 14v910h-131q-10 54 -10 86t10 67h131v123q0 160 94 248t287 88q104 0 214 -17t169 -36l57 -17v-1452q-35 -14 -92 -14t-113 14v1338q-111 20 -216 20t-151 -40t-46 -122v-133h198q10 -37 10 -77t-10 -76h-198v-910q-35 -14 -84 -14z" />
    <glyph glyph-name="CR" horiz-adv-x="659" 
 />
    <glyph glyph-name="_0020" horiz-adv-x="0" 
 />
    <glyph glyph-name="commaaccentcomb.alt" horiz-adv-x="0" 
d="M61 1141q0 98 36 181t73 118l37 35l74 -52q-66 -72 -76 -206l69 -11v-194q-33 -12 -102 -12t-111 12v129z" />
    <glyph glyph-name="g.alt" horiz-adv-x="1140" 
d="M317 539q1 -221 59 -307t174 -85q116 0 175 75q57 75 61 177v271q0 106 -58 183t-176 77t-176 -85t-59 -306zM871 1077q50 0 120 -14v-1010q1 -297 -111 -431t-364 -134q-94 0 -174 18t-113 37l-32 19q4 90 57 137q104 -45 248 -45t214 82t70 317v60q-94 -133 -287 -133
t-293 130q-99 130 -100 429q0 299 100 429t293 130q194 0 287 -133v98q35 14 85 14z" />
    <glyph glyph-name="gbreve.alt" 
d="M315 539q1 -221 59 -307t174 -85q116 0 175 75q57 75 61 177v271q0 106 -58 183t-176 77t-176 -85t-59 -306zM869 1077q50 0 120 -14v-1010q1 -297 -111 -431t-364 -134q-94 0 -174 18t-113 37l-32 19q4 90 57 137q104 -45 248 -45t214 82t70 317v60q-94 -133 -288 -133
t-292 130q-99 130 -100 429q0 299 100 429t292 130q194 0 288 -133v98q35 14 85 14zM588 1251q-90 0 -167 32t-110 65l-30 32q20 74 88 97q82 -66 219 -66q61 0 115 16t79 33l25 17q65 -19 88 -97q-12 -14 -35 -36q-22 -22 -102 -57q-80 -36 -170 -36z" />
    <glyph glyph-name="gcircumflex.alt" 
d="M315 539q1 -221 59 -307t174 -85q116 0 175 75q57 75 61 177v271q0 106 -58 183t-176 77t-176 -85t-59 -306zM869 1077q50 0 120 -14v-1010q1 -297 -111 -431t-364 -134q-94 0 -174 18t-113 37l-32 19q4 90 57 137q104 -45 248 -45t214 82t70 317v60q-94 -133 -288 -133
t-292 130q-99 130 -100 429q0 299 100 429t292 130q194 0 288 -133v98q35 14 85 14zM580 1554l276 -225q-33 -74 -92 -90l-209 141l-209 -139q-61 16 -94 88l276 225h52z" />
    <glyph glyph-name="gcommaaccent.alt" 
d="M315 539q1 -221 59 -307t174 -85q116 0 175 75q57 75 61 177v271q0 106 -58 183t-176 77t-176 -85t-59 -306zM869 1077q50 0 120 -14v-1010q1 -297 -111 -431t-364 -134q-94 0 -174 18t-113 37l-32 19q4 90 57 137q104 -45 248 -45t214 82t70 317v60q-94 -133 -288 -133
t-292 130q-99 130 -100 429q0 299 100 429t292 130q194 0 288 -133v98q35 14 85 14zM572 1229q-69 0 -105 12v113q0 88 37 164t74 106l34 31l74 -47q-66 -63 -74 -185l66 -12v-170q-37 -12 -106 -12z" />
    <glyph glyph-name="gdotaccent.alt" 
d="M315 539q1 -221 59 -307t174 -85q116 0 175 75q57 75 61 177v271q0 106 -58 183t-176 77t-176 -85t-59 -306zM869 1077q50 0 120 -14v-1010q1 -297 -111 -431t-364 -134q-94 0 -174 18t-113 37l-32 19q4 90 57 137q104 -45 248 -45t214 82t70 317v60q-94 -133 -288 -133
t-292 130q-99 130 -100 429q0 299 100 429t292 130q194 0 288 -133v98q35 14 85 14zM599 1466q68 0 97 -12v-174q-35 -12 -84 -12t-110 12v174q29 12 97 12z" />
    <glyph glyph-name="_300" horiz-adv-x="0" 
 />
    </font>
</defs>
</svg>
