<?xml version="1.0" encoding="utf-8"?>
<!-- Generator: Adobe Illustrator 18.0.0, SVG Export Plug-In . SVG Version: 6.00 Build 0)  -->
<!DOCTYPE svg PUBLIC "-//W3C//DTD SVG 1.1//EN" "http://www.w3.org/Graphics/SVG/1.1/DTD/svg11.dtd">
<svg version="1.1" id="Layer_1" xmlns="http://www.w3.org/2000/svg" xmlns:xlink="http://www.w3.org/1999/xlink" x="0px" y="0px"
	 viewBox="0 0 201.5 203.3" enable-background="new 0 0 201.5 203.3" xml:space="preserve">
<g display="none">
	<path display="inline" d="M4.2,102.7c-0.4-7.1,0.3-14.1,1.9-20.9c1.4-5.8,3.1-11.6,5.3-17.1c4.2-10.9,10.8-20.5,18.9-28.8
		c7.1-7.3,14.7-14.3,24-18.8c8.2-4,16.4-7.7,25.5-8.8c1.3-0.2,2.6-0.6,3.8-1c3.2-1.1,6.5-1.7,9.9-1.7c4.5,0,9.1-0.4,13.6,0.1
		c8.1,0.9,16.3,1.7,23.9,5.2c0.9,0.4,1.9,0.8,2.9,1c8.6,2,15.9,6.6,23,11.5c3.2,2.3,6.1,5,9.1,7.5c2.8,2.4,5.4,4.9,7.4,8
		c0.5,0.9,1.3,1.6,2,2.3c2.9,2.6,5,5.7,7,8.9c6.2,9.8,10.9,20.4,13.4,31.7c2.2,10,3.5,20.2,1.7,30.4c-0.9,4.9-2,9.7-3,14.6
		c-2.2,10.8-7,20.4-13.1,29.4c-2.7,3.9-5.6,7.5-9.1,10.6c-0.9,0.8-1.7,1.7-2.4,2.6c-4,5.4-9.1,9.4-14.6,13.1
		c-7.5,5.1-15.6,9.1-24.6,11c-2.4,0.5-4.7,1.5-7.1,2.3c-4.4,1.7-9,2.5-13.7,2.8c-2.2,0.1-4.4,0.3-6.6,0.4c-6,0.3-11.9-0.7-17.9-1.4
		c-1-0.1-2-0.4-2.9-0.8c-4.2-1.7-8.7-2.6-13.1-3.4c-2-0.4-3.9-1.1-5.8-1.8c-8.6-3.5-16.4-8.3-23.5-14.3c-1.2-1-2.5-2.1-3.5-3.3
		c-2.7-3.3-5.9-6.1-9-8.9c-1.4-1.3-2.6-2.7-3.8-4.2c-5.2-7-9.5-14.4-12.7-22.5c-0.9-2.3-1.8-4.7-2.2-7.1c-0.5-3.4-1.4-6.6-2.6-9.7
		c-1.3-3.8-2-7.6-2.1-11.6C4.2,107.6,4.2,105.2,4.2,102.7z M99.8,197.1c3.2,0,5.7,0.2,8.2-0.4c11.4-2.5,22.9-4.7,33.8-9.2
		c5-2.1,9.9-4.5,14-8.1c8-7.2,16-14.5,22.7-23.1c4.1-5.2,7.5-10.8,9.4-17.2c2.3-8,4.7-16,6.9-24c2.4-8.8,2.5-17.6,0.1-26.4
		c-2-7.3-4.1-14.6-6-22c-0.8-3.2-2.2-6-4-8.7c-3.7-5.3-7.3-10.6-11-15.8c-0.8-1.2-1.8-2.3-2.8-3.3c-3.7-3.7-7.5-7.4-11.2-11.1
		c-2.5-2.5-5.4-4.4-8.6-5.9c-5.5-2.5-10.9-5-16.3-7.5c-1.3-0.6-2.7-1.2-4.1-1.6c-5.7-1.5-11.3-2.9-17-4.3c-3.7-0.9-7.5-1.2-11.3-0.6
		c-4,0.6-8.1,0.8-12.2,1.4C86,9.7,81.9,9.7,78,11c-4.7,1.5-9.5,2.8-14.3,4.3c-3.1,0.9-6.1,2.1-8.7,4.1C45,26.9,34.4,33.8,26.6,44
		c-0.5,0.7-1.2,1.3-1.8,1.9c-2.7,3-4.9,6.2-6.4,9.9c-2.1,5.4-4.4,10.8-6.6,16.2c-0.9,2-1.5,4.1-2,6.3c-1,4.3-1.9,8.6-2.9,12.8
		c-1.2,5.2-1.3,10.4-0.3,15.7c0.5,2.6,0.8,5.2,1.3,7.8c1,5.2,1.4,10.4,2.9,15.5c1.1,3.5,2.1,7,3.3,10.5c1.7,5,4,9.8,7.4,13.9
		c7.1,8.6,14.3,17,22.9,24.2c4.3,3.6,8.9,6.7,14.2,8.6c10,3.6,20.1,7.1,30.7,8.9C93,196.7,96.7,197.4,99.8,197.1z"/>
	<path display="inline" d="M14.6,103.5c-0.4-39.3,26.9-76.7,67.8-86c19.9-4.6,39.2-2,57.1,7.7c25.3,13.7,40.9,35,45.9,63.5
		c4.2,24.1-1.6,46.2-16.1,65.8c-12.3,16.6-28.5,27.8-48.6,32.8c-25.5,6.2-49,1.2-70-14.2c-18.7-13.7-30.2-32.2-34.7-55
		C14.9,113,14.4,107.8,14.6,103.5z M100.4,183.5c5.5-0.2,10.9-0.5,16.2-1.8c24.6-5.8,42.7-20.1,54.6-42.3
		c8.1-15.2,10.9-31.4,8.2-48.4c-3.4-22.1-14.1-40.3-32.2-53.4c-24.8-18.1-51.8-21.2-79.8-8.2c-19.3,8.9-32.7,23.8-40.8,43.5
		c-5.7,13.9-7.3,28.3-4.7,43.1c3.1,17.7,11.3,32.7,24.2,45.1C61.4,175.6,79.5,183.1,100.4,183.5z"/>
	<path display="inline" d="M107.5,78c1.5,0,2.3-0.9,3.3-1.5c5.3-3.1,11-4.5,17.2-4.4c8.6,0.1,17,4.8,21,14.6
		c1.8,4.5,2.5,9.3,2.6,14.2c0.2,4.1,0.1,8.2,0.1,12.3c0,11,0,21.9,0,32.9c0,2.1-0.1,4.1-0.7,6.1c-0.8,2.7-2.5,4.2-5.3,4.5
		c-1.3,0.1-2.6,0.2-3.9,0.2c-2.5,0-5-0.2-7.5-0.2c-1.9,0-3-0.9-3.6-2.6c-0.7-1.8-0.9-3.7-0.9-5.6c-0.1-5.3,0.1-10.5,0.5-15.8
		c0.6-8.2,1.3-16.3,0.6-24.5c-0.2-2.2-0.5-4.4-1.2-6.5c-1.6-4.8-4.1-6.6-9.1-6.5c-5,0.1-8.7,2.3-10.9,6.8c-1.7,3.5-2.4,7.2-2.7,11
		c-0.5,7.2-0.1,14.3,0.5,21.5c0.4,5.1,0.7,10.2,0.5,15.3c-0.2,5.2-1,6.9-7.4,7.6c-3.2,0.4-6.4,0.3-9.5-0.8c-1-0.3-1.9-0.7-2.8-1.3
		c-1.3-0.8-2.1-2-2.1-3.6c0-1,0-2,0-3.1c0-23.2,0-46.5,0-69.7c0-0.9,0-1.8,0-2.6c-0.1-2,1-3.4,2.8-4c5-1.8,10-1.7,14.8,0.8
		C105.7,74.1,106.8,76,107.5,78z M92.5,114.3c0,10.5,0,21,0,31.6c0,4.3,0.2,4.4,4.4,4.4c0.6,0,1.2,0,1.8-0.1c2-0.2,2.5-0.8,2.5-2.8
		c-0.2-4.5-0.4-9.1-0.7-13.6c-0.4-6.1-0.6-12.3-0.3-18.4c0.2-4.1,0.9-8.1,2.2-12c2.7-7.7,8.3-12.2,16-14.1c2.7-0.7,5.5-0.7,8.2,0.2
		c5.1,1.6,7.9,5.3,9.3,10.2c0.8,3,1,6,1,9.1c0,11.7-0.1,23.4-0.1,35.1c0,1.5,0,2.9,0.2,4.4c0.2,1.4,1,2.1,2.3,2.2
		c1.3,0,2.6,0,3.9-0.2c1.3-0.1,1.8-0.6,1.9-1.9c0.1-0.6,0.1-1.2,0.1-1.8c0.1-10.7,0.3-21.3,0.4-32c0-5.8-0.1-11.7-0.9-17.5
		c-0.4-3.4-1.5-6.5-3.3-9.5c-4.2-6.8-11.8-10.1-19.6-8.5c-4.1,0.8-7.7,2.6-11,5.2c-1,0.8-1.9,1.8-3,2.6c-1,0.8-2.1,1.6-3.3,2.1
		c-2,0.9-3.6,0.1-3.8-2.1c-0.1-1.3-0.1-2.6-0.1-3.9c0-4.9,0.2-4.5-4.5-4.5c-3.8,0-3.9,0-3.9,3.8C92.5,92.9,92.5,103.6,92.5,114.3z"
		/>
	<path display="inline" d="M60.2,113.2c0-8.8,0-17.5,0-26.3c0-2.5-0.1-5-0.2-7.4c0-0.6-0.1-1.2-0.1-1.8c0.2-3.7,1.7-5.3,5.4-5.6
		c2.9-0.2,5.8-0.3,8.8-0.3c1,0,2,0.2,3,0.3c2.3,0.3,3.7,1.6,4.4,3.7c0.7,1.8,0.9,3.7,0.9,5.6c0,5.3,0,10.5,0,15.8
		c0,11.8,0,23.7,0,35.5c0,4.2,0.2,8.5,0.3,12.7c0,1.7,0.1,3.5-0.2,5.2c-0.5,3.5-2.5,5.5-6,6c-3.6,0.5-7.3,0.4-10.9-0.1
		c-2.8-0.3-4.5-2.1-5-4.8c-0.4-2.1-0.5-4.4-0.5-6.5C60.1,134.6,60.2,123.9,60.2,113.2z M66.3,114.5c0.1,0,0.1,0,0.2,0
		c0,10.2,0,20.5,0,30.7c0,1,0,2,0,3.1c0,0.6,0.3,1.2,1,1.2c2,0,4.1,0.1,6.1-0.1c1.8-0.2,2.5-1.1,2.6-2.9c0.1-1,0-2,0-3.1
		c-0.1-3.5-0.2-7-0.2-10.5c0-15.5,0-31,0-46.5c0-1,0-2,0-3.1c-0.1-3.7-1-5-4.7-4.2c-0.1,0-0.3,0-0.4,0c-4.6,0.4-4.6,0.4-4.6,5.1
		C66.3,94.3,66.3,104.4,66.3,114.5z"/>
	<path display="inline" d="M82.4,56.1c-0.5,5.5-2.8,10.1-7.6,13c-3.5,2.2-7,1.8-10-1.1c-3.4-3.3-5.5-7.1-5.3-12
		c0.3-6.2,5.9-10.7,12-9.7c3.1,0.5,5.7,2,8.1,4C81.5,51.8,82.4,53.7,82.4,56.1z M70.7,62.7c2.6-0.1,4.9-1.6,5.6-3.7
		c0.7-2-0.1-4.2-2-5.8c-0.9-0.8-2-1.2-3.1-1.5c-2.7-0.6-5.5,1-6.6,3.8c-0.8,2.1,0.1,4.5,2.3,6C68,62.3,69.3,62.8,70.7,62.7z"/>
</g>
<path display="none" d="M85.8,65.5c0-0.5,0-1,0-1.5c0.3-8,3.9-12.1,11.8-13.5c3.5-0.6,7.1-0.5,10.5,0.5c3.9,1.2,6.3,3.7,7.2,7.7
	c0.9,4.2,1.1,8.3,0,12.5c-1.3,5.2-4.6,8.3-10,9.3c-3.9,0.7-7.7,0.5-11.5-0.3c-3.2-0.6-5.4-2.6-6.7-5.7
	C85.9,71.6,85.8,68.5,85.8,65.5z M106,65.1c0.2-1.8,0.3-2.4,0.3-3.1c0.1-1.8-0.4-2.2-2.2-2.4c-4.8-0.7-9.5,3-7.2,9.8
	c0.8,2.4,3,3.5,5.4,2.8c1.3-0.4,2.3-0.7,3.7-0.4c1.7,0.4,3.1-0.6,4-2.2c1.5-2.6,2.1-5.4,1.8-8.4c-0.3-2.6-1.6-4.5-3.9-5.8
	C99.7,51,92.2,57,91.5,63.7c-0.9,8.5,4.9,14.7,13.3,13.6c2.2-0.3,4.1-1,5.3-3c0.2-0.3,0.2-1-0.1-1.3c-0.2-0.3-0.9-0.5-1.2-0.4
	c-1.1,0.4-2,1.1-3.1,1.4c-3.1,0.9-7.5,1-9.7-2.3c-1.3-2.1-2.2-4.3-2.1-6.8c0.1-3.3,1.5-5.9,4.6-7.3c2.8-1.3,5.5-1.4,8.2,0.6
	c2.7,2.1,3.1,4.8,2.2,7.8c-0.3,0.9-0.5,2.2-1.6,2.1c-1.2,0-1.1-1.3-1.3-2.2C105.9,65.2,106,64.6,106,65.1z"/>
<path display="none" d="M103.7,64.4c-0.1,1.3-0.2,2.4-0.9,3.4c-0.4,0.5-1,0.9-1.6,0.8c-0.9-0.1-1.4-0.8-1.5-1.7
	c-0.1-1.4,0.5-2.5,1.3-3.5c0.4-0.5,1-0.8,1.7-0.7C103.9,62.9,103.5,63.9,103.7,64.4z"/>
<path display="none" d="M280.9,331.6c0,4.5,0.1,9.1-0.9,13.5c-1,4.4-2,8.8-3.1,13.2c-0.4,1.7-1,3.4-1.7,5c-1.2,2.8-2.5,5.6-3.9,8.3
	c-2.5,5-5.4,9.7-9.3,13.7c-2.9,3.1-5.7,6.3-8.4,9.6c-2.2,2.6-4.6,4.9-7.4,6.8c-2,1.4-4.1,2.8-6.1,4.2c-4.3,2.9-8.8,5.2-13.7,6.7
	c-3.9,1.2-7.8,2.4-11.6,3.9c-9.1,3.6-18.6,3.6-28.1,3.2c-3.6-0.2-7.2-1.3-10.7-2.1c-3.6-0.7-7.1-1.5-10.7-2.2
	c-2.6-0.5-5.1-1.3-7.5-2.4c-2.8-1.4-5.5-2.7-8.2-4.1c-4.3-2.3-8.3-4.9-11.8-8.3c-3.4-3.3-6.9-6.3-10.4-9.4c-2.2-1.9-4.1-4.1-5.8-6.5
	c-2.9-4-5.6-8.3-7.9-12.6c-0.9-1.7-1.6-3.5-2.2-5.2c-1.4-4.3-2.6-8.7-4.2-12.9c-2.6-6.8-3.3-13.9-3.4-21.1
	c-0.1-5.4,0.4-10.8,1.8-16.1c1.2-4.4,2.1-8.8,3.1-13.2c0.7-3.3,1.8-6.5,3.4-9.5c1-1.9,2-3.9,3.1-5.8c2.7-5.1,6-9.7,10.1-13.7
	c2.7-2.7,5.3-5.4,7.8-8.3c2.6-3,5.7-5.5,9-7.6c2-1.3,4-2.5,5.9-3.7c4.4-2.7,9-4.8,14-6.1c3.7-0.9,7.3-2,10.9-3.2
	c9.5-3.2,19.3-3.1,29.1-2.1c4.2,0.4,8.2,1.9,12.4,2.9c1.6,0.4,3.1,0.9,4.7,1.2c9.8,1.8,17.9,7,25.9,12.4c1.6,1.1,2.8,2.5,4.2,3.9
	c4,3.9,7.9,7.8,11.9,11.7c2.1,2.1,3.7,4.5,5.3,7c2.5,3.8,4.7,7.7,6.6,11.9c0.7,1.5,1.2,3,1.6,4.5c1.7,6.2,3.4,12.4,5.1,18.6
	c0.6,2.3,1,4.6,1,6.9C280.7,327,280.8,329.3,280.9,331.6z M191.2,408.8c5.1,0.3,9.9-0.1,14.6-1c4.9-1,9.8-1.9,14.4-3.9
	c8.3-3.6,16.2-7.9,23.1-14.1c10.1-9.1,17.7-19.8,22-32.7c3.7-10.9,5.7-22,4-33.6c-0.3-2-0.7-4-1-6.1c-1.8-11.2-6.2-21.4-12.7-30.5
	c-5.4-7.5-11.8-14.1-19.6-19.3c-7.6-5.1-15.8-8.8-24.6-11.1c-2.1-0.5-4.2-1.3-6.4-1.5c-9.6-1.2-19.2-1.3-28.8,0.7
	c-10.5,2.3-20.1,6.4-28.7,12.5c-9.5,6.7-17.3,15.3-22.9,25.6c-1.1,1.9-2.2,3.8-3,5.8c-3.5,8.6-6.2,17.3-6.6,26.7
	c-0.2,5.4-0.4,10.8,0.6,16.2c1.1,5.6,2.1,11.2,4.2,16.5c3.8,9.3,8.9,17.7,15.7,25.1c6.9,7.4,14.9,13.3,24,17.4
	C169.6,406.3,180.2,409.2,191.2,408.8z"/>
<g id="cfDo8F_1_" display="none">
	<g display="inline">
		<path d="M-84.6,169.9c-1-0.5-2.1-0.4-3.2-0.5c-3.3-0.1-6.4-1.1-9.5-2.2c-2.3-0.8-4.7-1.1-7-1.6c-1.9-0.4-3.7-1.2-5.4-2
			c-6.4-2.8-12.2-6.4-17.2-11.2c-3-2.8-5.8-5.8-8.8-8.7c-1.9-1.8-3.2-4.2-4.7-6.4c-3.3-5-6.1-10.4-7.5-16.2
			c-0.9-3.8-2.1-7.5-3.1-11.3c-0.7-2.5-0.7-5.1-0.8-7.7c-0.1-1.8-0.2-3.7-0.3-5.5c0-0.1,0-0.1,0-0.2c0.2-1.5,0.4-3,0.5-4.5
			c0.3-3.2,0.8-6.4,1.5-9.5c0.1-0.4,0.2-0.9,0.4-1.2c1-2.2,1.7-4.6,2.2-7c0.7-3.2,2.4-6,3.8-8.9c2.9-5.9,7.1-10.9,11.3-15.8
			c0.3-0.3,0.6-0.6,0.9-0.8c2.1-1.4,3.7-3.2,5.3-5c1.8-1.9,4-3.2,6.1-4.6c6.4-4.3,13.3-7.4,20.7-9c3.7-0.8,7.2-2.2,11-2.4
			c4.8-0.3,9.6-0.6,14.4,0.1c3.9,0.6,7.9,1.2,11.8,2.2c0.6,0.2,1.2,0.3,1.8,0.6c1.9,1,4,1.6,6.1,2.1c2.1,0.5,3.9,1.6,5.8,2.5
			c7.1,3.4,13.1,8.3,18.6,13.9c2.2,2.3,4.3,4.8,6.3,7.3c3,3.8,5.4,8,7.4,12.3c2.8,6.2,5.2,12.5,6,19.3c0.4,3.1,0.7,6.1,1,9.2
			c0,0.3-0.1,0.6,0.2,0.9c0,0.5,0,1,0,1.5c-0.4,1.1-0.4,2.3-0.5,3.5c-0.3,4.4-1.6,8.6-2.4,12.9c-1.3,7.3-4.4,13.8-8.2,20
			c-1.9,3.2-4.1,6.3-6.9,8.8c-1.5,1.3-2.8,2.8-4,4.3c-2.2,3-5.1,5.2-8.1,7.3c-1.8,1.3-3.6,2.7-5.6,3.7c-4.6,2.5-9.3,4.7-14.5,5.7
			c-1.7,0.3-3.2,1-4.8,1.6c-3.7,1.4-7.5,1.9-11.3,2.2c-0.4,0-0.8,0-1.2,0.2C-79.2,169.9-81.9,169.9-84.6,169.9z M-150.3,99.3
			c-0.1,1,0.1,3,0.3,4.9c0.1,1.8,0.2,3.6,0.6,5.3c1.1,3.8,2.1,7.6,3.1,11.4c1.4,5.5,4,10.6,7.2,15.4c1.5,2.2,2.8,4.6,4.7,6.4
			c2.7,2.6,5.4,5.2,8,7.9c4.5,4.5,9.7,7.9,15.4,10.6c2.8,1.3,5.7,2.7,8.8,3.2c2,0.3,4,0.6,5.8,1.4c4.7,2,9.8,2.1,14.8,2.4
			c2.2,0.1,4.4,0,6.6-0.2c3.6-0.3,7.3-0.8,10.7-2.2c1.6-0.6,3.1-1.3,4.8-1.6c4.9-0.9,9.3-3,13.5-5.3c2.8-1.5,5.4-3.5,8-5.4
			c1.9-1.4,3.6-3,5.1-4.8c1-1.3,2-2.6,3.3-3.7c3.2-2.8,5.7-6.2,8-9.7c2.6-4,4.9-8.3,6.3-12.8c2.1-6.8,3.7-13.7,4.4-20.7
			c0.1-1.1,0.3-2.1,0.3-3.2c-0.1-2.2-0.4-4.3-0.6-6.5c-0.5-4.7-1.3-9.3-2.8-13.7c-2.4-7.2-5.7-14-10.2-20.2c-2-2.8-4.4-5.4-6.8-7.9
			c-4.2-4.3-8.8-8.3-14.1-11.3c-3.2-1.8-6.3-3.8-9.9-4.7c-1.1-0.3-2.3-0.4-3.3-0.9c-5.3-2.7-11.2-3.1-16.9-4
			c-3.9-0.6-7.9-0.2-11.9,0c-1.5,0.1-3,0.3-4.5,0.8c-1.3,0.4-2.6,1-4,1.1c-2.6,0.2-5.1,0.9-7.5,1.7c-7.4,2.4-14.2,6-20.3,10.8
			c-2.6,2.1-4.9,4.5-7.3,6.8c-3.8,3.8-7.2,8.1-9.9,12.9c-2.1,3.7-4.3,7.4-5.2,11.7c-0.5,2.2-1.1,4.4-2.1,6.5
			c-0.2,0.4-0.3,0.8-0.4,1.2C-149.5,88.1-150.3,93.1-150.3,99.3z"/>
	</g>
</g>
<path display="none" d="M5613.2,1361.8c-0.1-3.9,0.3-7.9,1.3-11.8c0.9-3.9,2.1-7.7,3.5-11.4c1.9-4.9,4.7-9.4,8.1-13.4
	c1.8-2.1,3.4-4.3,5.7-5.9c0.4-0.3,0.8-0.7,1.2-1.1c3.5-4,8.1-6.7,12.8-9c2.9-1.5,6-2.7,9.2-3.5c0.7-0.2,1.4-0.4,2.1-0.5
	c2.3-0.3,4.5-0.9,6.7-1.5c0.3-0.1,0.7-0.2,1-0.2c4.6-0.3,9.2-0.6,13.8,0.1c2.5,0.4,5,0.6,7.3,1.3c4.1,1.2,8.2,2.4,12,4.2
	c5,2.3,9.3,5.5,13.4,9.2c1.8,1.6,3.6,3.1,4.9,5.2c0.3,0.4,0.7,0.8,1.1,1.2c2,1.8,3.5,4,4.9,6.3c3.8,6.1,6.5,12.6,8,19.6
	c0.8,3.6,1.1,7.2,1.3,10.8c0.2,2.8-0.3,5.7-0.8,8.5c-0.6,3.1-1.3,6.1-2,9.1c-1.4,5.6-4,10.6-7.1,15.4c-1.7,2.6-3.7,5-6,7.1
	c-0.9,0.8-1.7,1.8-2.5,2.8c-1.5,1.8-3.2,3.3-5,4.7c-3.7,2.8-7.6,5.3-11.9,6.9c-1.3,0.5-2.7,1.1-4,1.4c-1.9,0.4-3.8,0.9-5.6,1.7
	c-3.7,1.5-7.6,1.7-11.5,2.1c-3.8,0.3-7.6-0.3-11.4-0.7c-0.8-0.1-1.6-0.3-2.3-0.6c-2.8-1.1-5.8-1.7-8.7-2.3c-0.7-0.1-1.4-0.3-2-0.6
	c-5.8-2.3-11.2-5.5-15.9-9.7c-2.9-2.6-5.7-5.3-8.3-8.3c-2.7-3.1-5-6.7-6.8-10.5c-0.7-1.4-1.3-2.9-1.9-4.4c-0.6-1.5-1.1-3-1.4-4.6
	c-0.2-1.3-0.5-2.6-1-3.9C5613.6,1371.2,5613.2,1366.6,5613.2,1361.8z M5671.1,1419.6c2.1,0,3.7,0.1,5.3-0.2
	c6.9-1.5,13.9-2.8,20.5-5.5c3.1-1.3,6.2-2.7,8.7-5c4.8-4.4,9.6-8.7,13.6-13.9c2.5-3.2,4.6-6.6,5.7-10.5c1.5-4.9,2.9-9.9,4.2-14.9
	c0.7-2.5,1.1-5.1,1.1-7.6c0-2.6-0.3-5.3-1-7.9c-1.3-4.5-2.5-9.1-3.7-13.6c-0.5-1.9-1.3-3.7-2.5-5.3c-2.3-3.2-4.4-6.4-6.7-9.6
	c-0.6-0.8-1.2-1.5-1.9-2.2c-2.2-2.2-4.4-4.4-6.7-6.5c-1.5-1.4-3.1-2.6-5-3.5c-3.4-1.5-6.8-3.1-10.2-4.7c-0.9-0.4-1.8-0.8-2.7-1
	c-3.3-0.9-6.7-1.7-10.1-2.5c-2.1-0.5-4.2-0.7-6.3-0.4c-2.5,0.4-5,0.5-7.4,0.8c-2.5,0.3-5,0.3-7.4,1c-3.1,0.9-6.1,1.8-9.2,2.8
	c-2.4,0.8-4.6,1.9-6.6,3.4c-2.7,2.1-5.4,4-8.1,6.1c-0.9,0.7-1.8,1.4-2.6,2.3c-2.1,2.2-4.3,4.5-6.4,6.8c-1.6,1.8-2.9,3.8-3.8,6
	c-1.1,2.7-2.2,5.4-3.3,8.1c-1,2.4-1.8,4.8-2.3,7.3c-0.4,2.1-0.9,4.2-1.4,6.2c-0.6,2.6-0.8,5.3-0.3,7.9c0.2,1.1,0.4,2.3,0.6,3.4
	c0.9,5.8,1.8,11.6,3.8,17.1c0.2,0.4,0.3,0.8,0.4,1.3c1.1,3.3,2.7,6.4,5,9.1c4.1,4.9,8.3,9.7,13.2,13.9c2.7,2.3,5.6,4.2,8.9,5.3
	c6.3,2.3,12.6,4.4,19.2,5.5C5667.7,1419.4,5669.6,1419.6,5671.1,1419.6z"/>
<path display="none" d="M5725.9,1362.6c0,2.7,0.1,5.5-0.6,8.2c-0.6,2.7-1.2,5.4-1.9,8.1c-0.3,1-0.6,2.1-1,3
	c-0.7,1.7-1.5,3.4-2.4,5.1c-1.5,3-3.3,5.9-5.7,8.4c-1.8,1.9-3.4,3.8-5.1,5.8c-1.3,1.6-2.8,3-4.5,4.1c-1.2,0.9-2.5,1.7-3.7,2.6
	c-2.6,1.7-5.3,3.2-8.3,4.1c-2.4,0.7-4.8,1.5-7.1,2.4c-5.5,2.2-11.3,2.2-17.1,1.9c-2.2-0.1-4.4-0.8-6.5-1.3c-2.2-0.4-4.3-0.9-6.5-1.4
	c-1.6-0.3-3.1-0.8-4.5-1.5c-1.7-0.8-3.4-1.6-5-2.5c-2.6-1.4-5-3-7.2-5c-2-2-4.2-3.8-6.3-5.7c-1.3-1.2-2.5-2.5-3.5-4
	c-1.8-2.5-3.4-5-4.8-7.7c-0.5-1-1-2.1-1.3-3.2c-0.9-2.6-1.6-5.3-2.5-7.9c-1.6-4.1-2-8.4-2.1-12.8c-0.1-3.3,0.2-6.6,1.1-9.8
	c0.7-2.7,1.3-5.4,1.9-8c0.4-2,1.1-3.9,2-5.8c0.6-1.2,1.2-2.4,1.9-3.5c1.6-3.1,3.6-5.9,6.1-8.3c1.7-1.6,3.2-3.3,4.8-5
	c1.6-1.8,3.4-3.3,5.5-4.6c1.2-0.8,2.4-1.5,3.6-2.3c2.7-1.6,5.5-2.9,8.5-3.7c2.2-0.6,4.5-1.2,6.6-1.9c5.8-2,11.7-1.9,17.7-1.3
	c2.5,0.3,5,1.2,7.5,1.8c0.9,0.2,1.9,0.6,2.8,0.7c5.9,1.1,10.9,4.3,15.7,7.6c0.9,0.6,1.7,1.5,2.5,2.3c2.4,2.4,4.8,4.7,7.2,7.1
	c1.3,1.3,2.2,2.8,3.2,4.2c1.5,2.3,2.9,4.7,4,7.2c0.4,0.9,0.7,1.8,1,2.7c1.1,3.8,2.1,7.5,3.1,11.3c0.4,1.4,0.6,2.8,0.6,4.2
	C5725.7,1359.7,5725.8,1361.1,5725.9,1362.6z M5671.3,1409.4c3.1,0.2,6,0,8.9-0.6c3-0.6,6-1.2,8.7-2.4c5.1-2.2,9.9-4.8,14-8.5
	c6.2-5.5,10.7-12,13.4-19.9c2.2-6.6,3.5-13.4,2.5-20.4c-0.2-1.2-0.4-2.5-0.6-3.7c-1.1-6.8-3.8-13-7.7-18.5
	c-3.3-4.6-7.2-8.5-11.9-11.7c-4.6-3.1-9.6-5.4-15-6.7c-1.3-0.3-2.6-0.8-3.9-0.9c-5.8-0.7-11.6-0.8-17.5,0.5
	c-6.4,1.4-12.2,3.9-17.4,7.6c-5.8,4.1-10.5,9.3-13.9,15.6c-0.6,1.2-1.3,2.3-1.8,3.5c-2.1,5.2-3.8,10.5-4,16.2
	c-0.1,3.3-0.3,6.6,0.4,9.8c0.7,3.4,1.3,6.8,2.6,10c2.3,5.6,5.4,10.8,9.6,15.3c4.2,4.5,9,8.1,14.6,10.6
	C5658.2,1408,5664.7,1409.7,5671.3,1409.4z"/>
<path display="none" d="M5685.9,1401.4c0.3-0.1,0.5-0.5,0.5-0.9c0-0.4-0.2-0.7-0.6-0.8c-0.4-0.2-0.9-0.2-1.3-0.4
	c-0.6-0.3-1-0.7-1.3-1.3c-0.2-0.6,0-1.4,0.7-1.5c1-0.2,2.1-0.3,3.2-0.3c3.1-0.1,5.7-1.2,8-3.2c1.8-1.5,2.7-3.5,3.3-5.7
	c0.1-0.4,0-0.7-0.4-0.9c-0.5-0.3-0.9-0.1-1.2,0.2c-0.5,0.6-0.9,1.3-1.3,2c-1.8,3-4.6,4-8,3.7c-1.1-0.1-2.1-0.3-3.1-0.7
	c-1.7-0.6-2.7-1.7-3-3.4c-0.2-1.3-0.7-2.3-1.4-3.4c-1-1.5-0.4-3.3,1.2-4c0.6-0.3,1.4-0.4,2-0.6c1.6-0.4,3.1-0.9,4.5-1.6
	c1.3-0.7,2.3-1.6,2.8-3.1c0.4-1.3,1.1-2.4,1.7-3.6c1.7-3.3,2.4-6.9,2.1-10.6c-0.1-1.5-0.7-2.9-1.4-4.3c-0.3-0.5-0.6-1.1-1-1.6
	c-1-1.3-1.3-2.7-0.6-4.2c0.9-2.2,0.7-4.3,0.2-6.5c-0.3-1.4-0.7-1.6-2-1.5c-2.2,0.2-4.1,1-6,2.1c-1.3,0.7-2.5,0.9-4,0.4
	c-4.9-1.6-9.9-2.2-15-1.2c-1.4,0.3-2.6,0.1-3.7-0.9c-1.2-1-2.5-1.7-3.8-2.5c-1.1-0.6-2.3-1-3.5-1.3c-1.1-0.2-1.7,0.1-2,1.1
	c-0.5,1.4-0.7,2.8-0.4,4.2c0.1,0.8,0.3,1.6,0.5,2.4c0.2,1.1,0,2.1-0.7,3c-0.1,0.1-0.2,0.3-0.3,0.4c-2.7,3.5-3.5,7.5-2.9,11.8
	c0.3,2.6,0.9,5.1,2.1,7.4c0.7,1.4,1.5,2.8,1.9,4.4c0.4,1.3,1.4,2,2.5,2.6c1.6,0.9,3.3,1.4,5,1.8c0.8,0.2,1.6,0.3,2.2,0.8
	c1.1,0.8,1.8,2,0.6,3.4c-0.9,1.1-1.4,2.2-1.6,3.6c-0.4,1.9-1.6,3.1-3.5,3.6c-1.2,0.3-2.5,0.5-3.7,0.5c-2.8,0-5-1-6.6-3.4
	c-0.6-0.9-1.2-1.8-1.8-2.6c-0.2-0.3-0.6-0.3-1-0.1c-0.2,0.1-0.4,0.4-0.4,0.6c0,0.4,0.1,0.9,0.2,1.3c1.6,4.6,5,7,9.6,7.8
	c1,0.2,2.1,0.2,3.2,0.2c0.5,0,1.1,0.1,1.5,0.3c0.6,0.3,0.8,1,0.5,1.6c-0.3,0.6-0.7,1-1.4,1.2c-0.3,0.1-0.7,0.2-1,0.3
	c-0.4,0.1-0.6,0.4-0.7,0.7c-0.1,0.5,0.2,0.9,0.6,1.1c1,0.4,2,0.7,3,1c0.6,0.2,1.2,0.3,1.8,0.6c0.4,0.2,0.4,0.6,0.3,0.9
	c-0.1,0.2-0.4,0.4-0.6,0.4c-0.7-0.1-1.4-0.2-2.1-0.4c-4.4-1.3-8.5-3.2-12.2-5.9c-0.9-0.6-1.8-1.2-1.7-2.5c0-0.4-0.4-0.8-0.6-1.2
	c-0.5-1.1-1.1-2.2-1.5-3.4c-0.7-2.1-1.8-3.8-3.2-5.5c-0.8-1-1.6-1.9-2.2-3c-0.6-1-0.9-2.1,0-3.2c0.9-1.1,2.1-1.6,3.6-1.1
	c1.9,0.6,3.5,1.7,4.6,3.4c0.6,1,1.1,2,1.7,3c1.9,2.9,4.6,4.7,8.2,4.5c1.5-0.1,2.8-0.6,3.4-2.1c0.5-1.3,0.4-2.7-1.2-3.2
	c-1-0.3-2-0.8-3-1.2c-1.8-0.7-3.4-1.6-4.9-2.7c-1.5-1-2.8-2.2-3.7-3.8c-2.1-3.7-3.8-7.6-4-12c-0.1-2.3-0.3-4.6-0.1-6.9
	c0.3-3.9,1.2-7.7,3-11.2c1.1-2.2,1.6-4.5,1.6-6.9c-0.1-2.4,0.4-4.8,1-7.1c0.1-0.4,0.2-0.9,0.4-1.3c0.7-1.5,2.1-2.2,3.7-1.9
	c1.8,0.4,3.4,1,4.9,2c1.3,0.8,2.6,1.6,3.8,2.4c0.9,0.5,1.8,0.7,2.8,0.6c2.2-0.3,4.4-0.5,6.6-0.7c2.3-0.3,4.6-0.1,6.9,0.4
	c1.7,0.4,3.3,0.6,5,1c2,0.5,3.9,0.2,5.7-0.8c2.3-1.3,4.9-2.1,7.4-2.9c1.2-0.4,2.1-0.1,2.9,0.6c0.3,0.3,0.7,0.6,1,0.9
	c0.3,0.2,0.5,0.6,0.4,0.9c-0.3,1.2,0.1,2.3,0.1,3.7c0.2,1.8,0.3,3.8-0.1,5.9c-0.3,1.4,0.1,2.6,0.6,3.9c1.1,2.3,2.2,4.7,2.3,7.3
	c0.3,4.9,0.3,9.8-0.9,14.6c-0.6,2.2-1.4,4.2-2.5,6.2c-2.3,4.2-5.8,7.1-10.2,9c-1.3,0.6-2.6,1-4,1.6c-1.1,0.5-1.4,1.2-1.2,2.3
	c0.4,1.7,1.7,2.8,3.7,2.8c3.6,0.1,6.3-1.5,8.2-4.5c0.6-1,1.1-2,1.8-3c1.2-1.8,2.9-2.8,5-3.4c0.8-0.2,1.6-0.2,2.3,0.3
	c1.5,1,1.9,2.3,1,3.9c-0.5,0.9-1.2,1.8-1.9,2.6c-1.7,2-3.1,4.1-4,6.6c-0.3,1-0.9,1.9-1.4,2.9c-0.2,0.5-0.7,1-0.6,1.4
	c0.1,1-0.6,1.5-1.2,1.9c-2.3,1.5-4.6,3.1-7.1,4.2c-3.1,1.3-6.4,2.2-9.7,3c-0.7,0.2-1.4,0.1-2.1,0.1c-0.3,0-0.5-0.3-0.5-0.5
	c0-0.3,0.1-0.8,0.3-1c0.2-0.2,0.6-0.2,1-0.3c1.2-0.2,2.5-0.4,3.7-0.6 M5643.4,1361.2c0.2,1.2,0.3,2,0.4,2.8c0.4,2.2,1.2,4.3,2.4,6.1
	c0.2,0.3,0.5,0.5,0.7,0.8c0.3,0.3,1,0,1.1-0.4c0-0.3,0.1-0.5,0-0.8c-0.9-2.9-1-5.9-1-9c-0.1-4.3,0.5-8.5,2.9-12.3
	c0.5-0.7,0.6-1.4,0.5-2.3c-0.1-1.1,0-2.3,0.1-3.5c0.2-1.9,0.6-3.7,1.3-5.4c0.4-1.1,0.8-1.4,2.1-1c0.7,0.2,1.4,0.4,2,0.7
	c1.6,0.7,3.1,1.4,4.4,2.5c1.5,1.3,3.1,1.5,4.9,1.2c2.2-0.4,4.4-0.4,6.6-0.2c2.8,0.2,5.5,0.8,8.1,1.7c1.4,0.5,2.5,0.4,3.8-0.3
	c1.2-0.7,2.4-1.1,3.7-1.6c1.2-0.4,2.4-0.7,3.6-0.7c1.1,0,1.7,0.5,1.6,1.6c0,1.1-0.3,2.1,0,3.2c0.4,1.8,0.3,3.7,0.1,5.6
	c-0.1,1.2,0,2.2,0.6,3.3c1.7,3.1,2.4,6.5,2.2,10c-0.1,2.6-0.3,5.1-1.1,7.6c-0.2,0.5,0,0.9,0.5,1.1c0.4,0.2,0.7,0,1-0.3
	c0.6-0.7,0.9-1.5,1.3-2.3c2-5,2.3-10.2,1.6-15.4c-0.3-1.9-1.3-3.7-2.2-5.4c-1-1.9-1.4-3.8-0.8-5.9c0.8-2.8,0.4-5.6-0.3-8.4
	c-0.3-1.1-0.8-1.4-2-1.2c-1.9,0.4-3.8,0.9-5.5,2c-0.9,0.5-1.9,1-2.8,1.6c-1,0.6-2.1,0.8-3.3,0.4c-1.5-0.4-3.1-0.8-4.7-1.1
	c-4.5-1-9-1.1-13.5-0.2c-2.3,0.4-4.2,0-6.1-1.2c-1.7-1-3.4-2-5.1-2.9c-0.7-0.4-1.5-0.7-2.2-0.9c-0.9-0.3-1.5,0.1-1.8,1
	c-0.3,0.8-0.5,1.5-0.6,2.3c-0.3,1.9-0.4,3.9,0,5.8c0.4,2-0.1,3.5-1.3,5.2c-2.3,3.1-3.6,6.6-3.6,10.4
	C5643,1357.5,5642.9,1359.5,5643.4,1361.2z"/>
<g id="cfDo8F_2_" display="none">
	<g display="inline">
		<path d="M96.2,196c-1.3-0.7-2.8-0.6-4.2-0.6c-4.3-0.1-8.4-1.4-12.4-2.8c-3-1.1-6.1-1.5-9.1-2.1c-2.5-0.5-4.8-1.6-7.1-2.6
			c-8.3-3.6-15.9-8.4-22.4-14.6c-3.9-3.7-7.6-7.6-11.5-11.3c-2.5-2.4-4.2-5.5-6.1-8.4c-4.4-6.5-7.9-13.5-9.8-21.1
			c-1.2-4.9-2.7-9.8-4-14.7c-0.9-3.3-0.8-6.7-1.1-10.1c-0.2-2.4-0.2-4.8-0.3-7.2c0-0.1,0-0.2,0-0.2c0.2-2,0.5-3.9,0.7-5.9
			c0.4-4.2,1-8.3,1.9-12.4c0.1-0.6,0.3-1.1,0.5-1.6c1.4-2.9,2.2-6,2.8-9.2c0.9-4.2,3.1-7.9,4.9-11.6c3.8-7.7,9.2-14.2,14.8-20.6
			c0.3-0.4,0.7-0.8,1.2-1.1c2.7-1.8,4.8-4.1,7-6.5c2.3-2.5,5.2-4.1,8-6c8.3-5.6,17.3-9.7,27-11.7c4.8-1,9.4-2.8,14.4-3.1
			c6.3-0.4,12.5-0.8,18.8,0.1c5.1,0.8,10.3,1.5,15.3,2.9c0.8,0.2,1.6,0.4,2.3,0.8c2.5,1.3,5.2,2.1,7.9,2.7c2.7,0.6,5.1,2.1,7.6,3.3
			c9.2,4.5,17.1,10.9,24.3,18.1c2.9,2.9,5.6,6.2,8.2,9.5c3.9,4.9,7.1,10.4,9.6,16.1c3.6,8.1,6.8,16.3,7.9,25.1c0.5,4,0.9,8,1.3,12
			c0,0.4-0.1,0.8,0.2,1.2c0,0.7,0,1.3,0,2c-0.5,1.5-0.5,3-0.6,4.5c-0.4,5.7-2.1,11.2-3.1,16.8c-1.7,9.5-5.8,18-10.7,26.1
			c-2.5,4.1-5.3,8.2-9,11.5c-1.9,1.7-3.7,3.6-5.2,5.6c-2.9,3.9-6.6,6.8-10.5,9.6c-2.4,1.7-4.8,3.5-7.3,4.9c-6,3.2-12.1,6.1-18.9,7.4
			c-2.2,0.4-4.2,1.3-6.2,2.1c-4.8,1.9-9.7,2.5-14.8,2.8c-0.5,0-1.1,0-1.6,0.2C103.2,196,99.7,196,96.2,196z M10.5,104
			c-0.1,1.3,0.2,3.9,0.3,6.4c0.2,2.3,0.2,4.7,0.8,6.9c1.4,5,2.8,9.9,4.1,14.9c1.9,7.2,5.2,13.8,9.3,20c1.9,2.9,3.6,6,6.1,8.4
			c3.5,3.4,7,6.8,10.4,10.3c5.8,5.8,12.7,10.3,20.1,13.8c3.7,1.8,7.4,3.5,11.5,4.2c2.6,0.4,5.2,0.8,7.6,1.8
			c6.2,2.6,12.7,2.7,19.3,3.1c2.8,0.2,5.7,0,8.5-0.3c4.7-0.4,9.4-1,13.9-2.8c2-0.8,4.1-1.7,6.2-2.1c6.3-1.1,12.1-3.9,17.6-6.9
			c3.7-2,7.1-4.5,10.4-7.1c2.4-1.8,4.7-3.9,6.6-6.3c1.3-1.7,2.7-3.4,4.3-4.8c4.2-3.6,7.4-8,10.4-12.6c3.4-5.2,6.4-10.8,8.2-16.7
			c2.7-8.8,4.8-17.8,5.7-27c0.1-1.4,0.4-2.8,0.4-4.1c-0.2-2.8-0.6-5.7-0.8-8.5c-0.6-6.1-1.7-12.1-3.7-17.9
			c-3.2-9.4-7.5-18.3-13.3-26.4c-2.7-3.7-5.8-7.1-8.9-10.3c-5.4-5.7-11.5-10.8-18.4-14.7c-4.2-2.4-8.3-4.9-13-6.2
			c-1.5-0.4-3-0.6-4.3-1.2c-7-3.5-14.6-4.1-22.1-5.2c-5.1-0.8-10.3-0.2-15.5,0c-2,0.1-4,0.4-5.9,1c-1.7,0.5-3.4,1.3-5.2,1.4
			c-3.4,0.2-6.6,1.2-9.8,2.3c-9.6,3.2-18.5,7.9-26.4,14.1c-3.4,2.7-6.4,5.9-9.5,8.9c-5,5-9.4,10.6-12.9,16.8
			c-2.7,4.9-5.6,9.7-6.7,15.2c-0.6,2.9-1.5,5.7-2.7,8.5c-0.2,0.5-0.4,1.1-0.5,1.6C11.6,89.3,10.6,96,10.5,104z"/>
	</g>
</g>
<g display="none">
	<line display="inline" fill="none" class="outer" stroke-width="0.3" x1="5.5" y1="-47.3" x2="5.5" y2="-11.3"/>
	<line display="inline" fill="none" class="outer" stroke-width="0.3" x1="-48.5" y1="6.7" x2="-12.5" y2="6.7"/>
	<line display="inline" fill="none" class="outer" stroke-width="0.3" x1="-48.5" y1="200.9" x2="-12.5" y2="200.9"/>
	<line display="inline" fill="none" class="outer" stroke-width="0.3" x1="5.5" y1="254.9" x2="5.5" y2="218.9"/>
	<line display="inline" fill="none" class="outer" stroke-width="0.3" x1="200.3" y1="-47.3" x2="200.3" y2="-11.3"/>
	<line display="inline" fill="none" class="outer" stroke-width="0.3" x1="254.3" y1="6.7" x2="218.3" y2="6.7"/>
	<line display="inline" fill="none" class="outer" stroke-width="0.3" x1="254.3" y1="200.9" x2="218.3" y2="200.9"/>
	<line display="inline" fill="none" class="outer" stroke-width="0.3" x1="200.3" y1="254.9" x2="200.3" y2="218.9"/>
</g>
<g display="none">
	<path display="inline" d="M2.5,101.7c-0.2-6.6,0.6-13.3,2.1-19.9c1.5-6.5,3.5-13,5.9-19.2c3.2-8.3,7.8-15.8,13.6-22.6
		c3-3.5,5.7-7.3,9.7-9.9c0.7-0.5,1.4-1.2,2-1.8c5.9-6.8,13.6-11.2,21.5-15.2c4.9-2.5,10.1-4.5,15.5-6c1.2-0.3,2.3-0.7,3.5-0.9
		c3.9-0.5,7.6-1.5,11.3-2.6c0.6-0.2,1.2-0.4,1.7-0.4c7.8-0.5,15.5-1.1,23.3,0.2c4.1,0.7,8.3,1.1,12.3,2.3c6.9,2,13.8,4,20.3,7
		c8.3,3.9,15.7,9.3,22.5,15.4c3,2.7,6.1,5.3,8.3,8.8c0.5,0.7,1.1,1.4,1.8,2c3.4,3,5.9,6.8,8.2,10.6c6.4,10.3,11,21.2,13.5,33
		c1.3,6,1.9,12.1,2.2,18.2c0.3,4.8-0.5,9.6-1.4,14.3c-1,5.1-2.1,10.3-3.4,15.3c-2.4,9.4-6.7,17.9-12,25.9
		c-2.9,4.4-6.2,8.4-10.1,11.9c-1.6,1.4-2.9,3.1-4.2,4.7c-2.4,3.1-5.4,5.6-8.5,8c-6.2,4.7-12.7,8.9-20.1,11.7
		c-2.2,0.8-4.5,1.8-6.8,2.3c-3.2,0.7-6.4,1.6-9.4,2.8c-6.2,2.5-12.8,2.9-19.3,3.5c-6.5,0.6-12.8-0.5-19.2-1.2
		c-1.3-0.1-2.7-0.5-3.9-0.9c-4.8-1.8-9.8-2.8-14.7-3.9c-1.2-0.2-2.3-0.5-3.4-1c-9.8-3.9-18.8-9.2-26.7-16.2c-4.9-4.4-9.7-9-14-13.9
		c-4.6-5.3-8.4-11.3-11.4-17.6c-1.1-2.4-2.2-4.9-3.3-7.4c-1-2.5-1.9-5-2.3-7.7c-0.4-2.2-0.8-4.4-1.6-6.5
		C3.1,117.4,2.5,109.7,2.5,101.7z M100.1,198.9c3.5,0,6.2,0.2,8.9-0.4c11.7-2.5,23.4-4.8,34.6-9.3c5.3-2.2,10.5-4.6,14.7-8.5
		c8.1-7.4,16.1-14.7,22.9-23.4c4.2-5.4,7.7-11.1,9.6-17.6c2.5-8.3,4.8-16.7,7.1-25c1.2-4.2,1.9-8.6,1.9-12.8c0-4.4-0.5-8.9-1.7-13.3
		c-2.1-7.6-4.1-15.3-6.2-22.9c-0.9-3.2-2.2-6.2-4.2-8.9c-3.8-5.4-7.5-10.8-11.3-16.2c-0.9-1.3-2-2.6-3.2-3.7
		c-3.7-3.7-7.4-7.4-11.2-11c-2.5-2.4-5.3-4.4-8.5-5.8c-5.7-2.6-11.4-5.3-17.1-7.9c-1.5-0.7-3-1.3-4.6-1.7c-5.6-1.5-11.3-2.9-17-4.3
		c-3.5-0.8-7-1.3-10.7-0.7c-4.1,0.6-8.3,0.8-12.5,1.4c-4.1,0.6-8.4,0.5-12.4,1.7c-5.2,1.5-10.3,3-15.5,4.6c-4,1.3-7.7,3.1-11.1,5.7
		c-4.5,3.5-9.1,6.8-13.6,10.3c-1.5,1.2-3,2.4-4.4,3.8c-3.6,3.8-7.2,7.6-10.7,11.5c-2.7,3-4.9,6.4-6.4,10.2
		c-1.8,4.6-3.7,9.2-5.6,13.7c-1.7,4-3,8.1-3.9,12.4c-0.7,3.5-1.5,7-2.3,10.5c-1,4.4-1.3,8.9-0.6,13.4c0.3,1.9,0.6,3.8,0.9,5.8
		c1.6,9.7,3,19.5,6.5,28.8c0.3,0.7,0.5,1.4,0.7,2.1c1.9,5.6,4.6,10.7,8.4,15.2c6.9,8.3,14,16.4,22.3,23.3c4.5,3.8,9.4,7,14.9,9
		c10.5,3.8,21.2,7.3,32.3,9.2C94.3,198.5,97.6,198.9,100.1,198.9z"/>
	<g id="XMLID_1_" display="inline">
		<g>
			<path d="M163.9,135.7c2.9,2.1,3.6,4.5,1.7,7.5c-1.1,1.7-2.4,3.3-3.9,4.8c-3.5,3.6-6.4,7.6-8.2,12.4c-0.7,1.9-1.9,3.6-2.9,5.5
				c-0.5,0.9-1.3,1.8-1.3,2.7c0,1.9-1.3,2.8-2.6,3.5c-4.6,2.8-9.1,5.6-14.2,7.5c-6.2,2.2-12.6,3.8-19,5.1c-1.3,0.3-4.1,0.4-4.1,0.4
				c-4,0-14.8-0.5-15.7-0.5c0,0-0.1,0-0.1,0l-20.4-6c-8.4-2.9-16.3-6.8-23.2-12.3c-1.6-1.3-3.4-2.4-3.1-5c0.1-0.7-0.7-1.5-1-2.3
				c-1-2.2-2.1-4.4-2.7-6.7c-1.2-4-3.3-7.5-5.8-10.8c-1.5-1.9-3-3.8-4.1-5.9c-1.1-2-1.5-4.2,0.3-6.2c1.9-2.1,4.2-2.8,7-1.8
				c3.7,1.3,6.8,3.5,8.8,6.9c1.1,1.9,2,4,3.2,5.9c3.5,5.8,8.6,9.4,15.7,9.3c2.9,0,5.5-0.9,6.9-3.8c1.2-2.4,1.1-5.2-2.2-6.3
				c-1.9-0.7-3.8-1.6-5.7-2.5c-3.4-1.5-6.4-3.4-9.3-5.6c-2.8-2.1-5.3-4.5-6.9-7.6c-3.8-7.4-6.9-15-7-23.4c0-4.4-0.3-8.9,0.2-13.4
				c0.8-7.6,2.9-14.8,6.8-21.4c2.4-4.1,3.5-8.5,3.6-13.3c0.1-4.7,1.1-9.2,2.5-13.6c0.3-0.8,0.5-1.7,0.9-2.4c1.5-2.8,4.3-4,7.4-3.3
				c3.4,0.8,6.5,2.2,9.4,4.2c2.4,1.7,4.8,3.3,7.3,5c1.6,1.1,3.4,1.6,5.4,1.4c4.3-0.4,8.6-0.5,12.9-0.9c4.5-0.4,9,0.2,13.4,1.3
				c3.2,0.8,6.4,1.5,9.6,2.3c3.9,1,7.5,0.6,11.1-1.2c4.7-2.4,9.7-3.7,14.7-5c2.4-0.6,4,0,5.6,1.5c0.6,0.6,1.3,1.2,1.9,1.8
				c0.5,0.5,1,1.1,0.8,1.8c-0.7,2.2,0,4.4,0,7.1c0.2,3.5,0.3,7.4-0.7,11.3c-0.7,2.6-0.1,5.1,0.9,7.5c1.9,4.6,3.9,9.2,4,14.3
				c0.2,9.5-0.1,18.8-2.9,28c-1.3,4.1-3.1,8-5.3,11.7c-4.8,8-11.9,13.2-20.5,16.6c-2.6,1-5.2,1.8-7.8,2.8c-2.2,0.8-2.9,2.2-2.5,4.4
				c0.7,3.4,3.1,5.5,7,5.7c7,0.5,12.4-2.5,16.4-8c1.3-1.8,2.4-3.8,3.7-5.6c2.5-3.3,5.9-5.3,9.9-6.1
				C161,134.6,162.5,134.7,163.9,135.7z M152.3,152.3c0.2-0.7-0.1-1.4-0.7-1.8c-0.9-0.5-1.7-0.3-2.3,0.4c-1,1.2-1.9,2.5-2.7,3.8
				c-3.8,5.6-9.3,7.4-15.8,6.5c-2-0.3-4.1-0.7-6-1.5c-3.2-1.3-5.1-3.6-5.5-6.9c-0.3-2.5-1.1-4.6-2.5-6.7c-1.9-2.9-0.6-6.3,2.7-7.5
				c1.3-0.5,2.7-0.7,4-0.9c3.1-0.6,6-1.5,8.9-2.8c2.6-1.2,4.6-3,5.6-5.7c0.9-2.5,2.3-4.6,3.6-6.8c3.6-6.2,5.1-13,4.8-20.2
				c-0.1-2.9-1.1-5.7-2.4-8.4c-0.5-1.1-1.1-2.2-1.8-3.1c-1.9-2.6-2.2-5.3-0.8-8.2c2-4.1,1.7-8.3,0.9-12.6c-0.5-2.7-1.2-3.1-3.8-3
				c-4.2,0.2-8.2,1.7-11.9,3.5c-2.7,1.3-5,1.5-7.9,0.4c-9.4-3.5-19-5-29-3.5c-2.7,0.4-5,0-7.1-2c-2.2-1.9-4.7-3.4-7.2-5
				c-2-1.3-4.3-2.2-6.7-2.7c-2.2-0.5-3.3,0-4.1,2.1c-1,2.6-1.6,5.2-1.2,8c0.2,1.5,0.5,3,0.7,4.6c0.3,2.1-0.1,4.1-1.5,5.8
				c-0.2,0.3-0.4,0.6-0.6,0.8c-5.6,6.5-7.3,14.2-6.6,22.6c0.4,5,1.4,9.8,3.4,14.4c1.2,2.8,2.6,5.6,3.5,8.6c0.7,2.5,2.6,4,4.7,5.3
				c3,1.8,6.3,2.9,9.6,3.9c1.5,0.4,3.1,0.7,4.3,1.7c2.1,1.7,3.4,4,1,6.6c-1.8,2-2.9,4.2-3.4,6.8c-0.9,3.7-3.4,5.9-7.1,6.6
				c-2.4,0.4-4.8,0.8-7.2,0.7c-5.4-0.1-9.7-2.4-12.6-7c-1.1-1.8-2.1-3.5-3.3-5.2c-0.4-0.6-1.2-0.7-1.9-0.3c-0.4,0.3-0.8,0.8-0.8,1.2
				c-0.1,0.8,0.1,1.7,0.3,2.5c2.7,9,9.2,13.8,18.1,15.8c2,0.5,4.1,0.5,6.2,0.7c1,0.1,2,0.2,3,0.7c1.1,0.6,1.5,1.9,0.8,3.1
				c-0.7,1.1-1.5,1.9-2.7,2.2c-0.7,0.2-1.4,0.3-2,0.4c-0.7,0.2-1.3,0.7-1.4,1.4c-0.2,0.9,0.3,1.8,1.1,2.1c1.9,0.8,3.9,1.5,5.8,2.2
				c1.1,0.4,2.3,0.7,3.4,1.3l9.6,3l5.7,1.1l13.2,0.4c1.2,0.1,2.4,0,3.6-0.2c0.3-0.1,0.6-0.1,0.9-0.1c2.4-0.3,4.8-0.5,7.2-0.8
				l8.4-2.2c0.6-0.2,1.1-0.8,1.1-1.6s-0.4-1.3-1-1.6c-0.8-0.4-1.7-0.5-2.4-0.9c-1.1-0.5-1.9-1.4-2.3-2.6c-0.4-1.2,0.2-2.7,1.4-2.8
				c2.1-0.2,4.1-0.3,6.2-0.3c5.9,0,11.2-2,15.9-5.5C149.1,160.2,151,156.4,152.3,152.3z"/>
		</g>
		<g>
			<path fill="none" class="outer" stroke-width="0.5794" stroke-linecap="round" stroke-linejoin="round" d="M93.3,181.1
				l13.2,0.4c1.2,0.1,2.4,0,3.6-0.2c0.3-0.1,0.6-0.1,0.9-0.1c2.4-0.3,4.8-0.5,7.2-0.8l8.4-2.2c0.6-0.2,1.1-0.8,1.1-1.6
				s-0.4-1.3-1-1.6c-0.8-0.4-1.7-0.5-2.4-0.9c-1.1-0.5-1.9-1.4-2.3-2.6c-0.4-1.2,0.2-2.7,1.4-2.8c2.1-0.2,4.1-0.3,6.2-0.3
				c5.9,0,11.2-2,15.9-5.5c3.6-2.7,5.6-6.5,6.8-10.7c0.2-0.7-0.1-1.4-0.7-1.8c-0.9-0.5-1.7-0.3-2.3,0.4c-1,1.2-1.9,2.5-2.7,3.8
				c-3.8,5.6-9.3,7.4-15.8,6.5c-2-0.3-4.1-0.7-6-1.5c-3.2-1.3-5.1-3.6-5.5-6.9c-0.3-2.5-1.1-4.6-2.5-6.7c-1.9-2.9-0.6-6.3,2.7-7.5
				c1.3-0.5,2.7-0.7,4-0.9c3.1-0.6,6-1.5,8.9-2.8c2.6-1.2,4.6-3,5.6-5.7c0.9-2.5,2.3-4.6,3.6-6.8c3.6-6.2,5.1-13,4.8-20.2
				c-0.1-2.9-1.1-5.7-2.4-8.4c-0.5-1.1-1.1-2.2-1.8-3.1c-1.9-2.6-2.2-5.3-0.8-8.2c2-4.1,1.7-8.3,0.9-12.6c-0.5-2.7-1.2-3.1-3.8-3
				c-4.2,0.2-8.2,1.7-11.9,3.5c-2.7,1.3-5,1.5-7.9,0.4c-9.4-3.5-19-5-29-3.5c-2.7,0.4-5,0-7.1-2c-2.2-1.9-4.7-3.4-7.2-5
				c-2-1.3-4.3-2.2-6.7-2.7c-2.2-0.5-3.3,0-4.1,2.1c-1,2.6-1.6,5.2-1.2,8c0.2,1.5,0.5,3,0.7,4.6c0.3,2.1-0.1,4.1-1.5,5.8
				c-0.2,0.3-0.4,0.6-0.6,0.8c-5.6,6.5-7.3,14.2-6.6,22.6c0.4,5,1.4,9.8,3.4,14.4c1.2,2.8,2.6,5.6,3.5,8.6c0.7,2.5,2.6,4,4.7,5.3
				c3,1.8,6.3,2.9,9.6,3.9c1.5,0.4,3.1,0.7,4.3,1.7c2.1,1.7,3.4,4,1,6.6c-1.8,2-2.9,4.2-3.4,6.8c-0.9,3.7-3.4,5.9-7.1,6.6
				c-2.4,0.4-4.8,0.8-7.2,0.7c-5.4-0.1-9.7-2.4-12.6-7c-1.1-1.8-2.1-3.5-3.3-5.2c-0.4-0.6-1.2-0.7-1.9-0.3c-0.4,0.3-0.8,0.8-0.8,1.2
				c-0.1,0.8,0.1,1.7,0.3,2.5c2.7,9,9.2,13.8,18.1,15.8c2,0.5,4.1,0.5,6.2,0.7c1,0.1,2,0.2,3,0.7c1.1,0.6,1.5,1.9,0.8,3.1
				c-0.7,1.1-1.5,1.9-2.7,2.2c-0.7,0.2-1.4,0.3-2,0.4c-0.7,0.2-1.3,0.7-1.4,1.4c-0.2,0.9,0.3,1.8,1.1,2.1c1.9,0.8,3.9,1.5,5.8,2.2
				c1.1,0.4,2.3,0.7,3.4,1.3l9.6,3L93.3,181.1z"/>
			<path fill="none" class="outer" stroke-width="0.5066" stroke-linecap="round" stroke-linejoin="round" d="M73.2,178.5
				c-8.4-2.9-16.3-6.8-23.2-12.3c-1.6-1.3-3.4-2.4-3.1-5c0.1-0.7-0.7-1.5-1-2.3c-1-2.2-2.1-4.4-2.7-6.7c-1.2-4-3.3-7.5-5.8-10.8
				c-1.5-1.9-3-3.8-4.1-5.9c-1.1-2-1.5-4.2,0.3-6.2c1.9-2.1,4.2-2.8,7-1.8c3.7,1.3,6.8,3.5,8.8,6.9c1.1,1.9,2,4,3.2,5.9
				c3.5,5.8,8.6,9.4,15.7,9.3c2.9,0,5.5-0.9,6.9-3.8c1.2-2.4,1.1-5.2-2.2-6.3c-1.9-0.7-3.8-1.6-5.7-2.5c-3.4-1.5-6.4-3.4-9.3-5.6
				c-2.8-2.1-5.3-4.5-6.9-7.6c-3.8-7.4-6.9-15-7-23.4c0-4.4-0.3-8.9,0.2-13.4c0.8-7.6,2.9-14.8,6.8-21.4c2.4-4.1,3.5-8.5,3.6-13.3
				c0.1-4.7,1.1-9.2,2.5-13.6c0.3-0.8,0.5-1.7,0.9-2.4c1.5-2.8,4.3-4,7.4-3.3c3.4,0.8,6.5,2.2,9.4,4.2c2.4,1.7,4.8,3.3,7.3,5
				c1.6,1.1,3.4,1.6,5.4,1.4c4.3-0.4,8.6-0.5,12.9-0.9c4.5-0.4,9,0.2,13.4,1.3c3.2,0.8,6.4,1.5,9.6,2.3c3.9,1,7.5,0.6,11.1-1.2
				c4.7-2.4,9.7-3.7,14.7-5c2.4-0.6,4,0,5.6,1.5c0.6,0.6,1.3,1.2,1.9,1.8c0.5,0.5,1,1.1,0.8,1.8c-0.7,2.2,0,4.4,0,7.1
				c0.2,3.5,0.3,7.4-0.7,11.3c-0.7,2.6-0.1,5.1,0.9,7.5c1.9,4.6,3.9,9.2,4,14.3c0.2,9.5-0.1,18.8-2.9,28c-1.3,4.1-3.1,8-5.3,11.7
				c-4.8,8-11.9,13.2-20.5,16.6c-2.6,1-5.2,1.8-7.8,2.8c-2.2,0.8-2.9,2.2-2.5,4.4c0.7,3.4,3.1,5.5,7,5.7c7,0.5,12.4-2.5,16.4-8
				c1.3-1.8,2.4-3.8,3.7-5.6c2.5-3.3,5.9-5.3,9.9-6.1c1.6-0.3,3.1-0.3,4.4,0.8c2.9,2.1,3.6,4.5,1.7,7.5c-1.1,1.7-2.4,3.3-3.9,4.8
				c-3.5,3.6-6.4,7.6-8.2,12.4c-0.7,1.9-1.9,3.6-2.9,5.5c-0.5,0.9-1.3,1.8-1.3,2.7c0,1.9-1.3,2.8-2.6,3.5c-4.6,2.8-9.1,5.6-14.2,7.5
				c-6.2,2.2-12.6,3.8-19,5.1c-1.3,0.3-4.1,0.4-4.1,0.4c-4,0-14.8-0.5-15.7-0.5c0,0-0.1,0-0.1,0L73.2,178.5z"/>
		</g>
	</g>
	<g id="XMLID_2_" display="inline">
		<g>
			<path fill="#FFFFFF" d="M156.1,91c0.9,10.8-0.4,21.2-5.1,31c-0.8,1.6-1.5,3.3-2.9,4.5c-0.5,0.5-1.2,0.8-1.9,0.4
				c-0.9-0.5-1.3-1.3-0.9-2.2c2-4.9,2.7-10,3.2-15.2c0.7-7.1-0.2-14.1-3.1-20.6c-1-2.3-1.4-5.6-1-8c0.7-3.7,1.4-6.3,0.8-10.1
				c-0.4-2.2,0.3-4.3,0.5-6.4c0.2-2.2-0.8-3.3-3-3.5c-2.5-0.2-5,0.2-7.3,0.9c-2.5,0.8-5.1,1.6-7.5,2.7c-2.6,1.3-4.9,1.3-7.6,0.2
				c-5.1-2.3-10.4-3.7-15.8-4.6c-4.4-0.7-8.8-1-13.2-0.5c-3.8,0.4-6.9-0.2-9.7-3.1c-2.4-2.4-5.4-4.2-8.4-5.7
				c-1.3-0.6-2.6-1.2-3.9-1.7c-2.4-0.8-3.2-0.4-4.2,1.8c-1.6,3.4-2.5,8.2-3.1,11.9c-0.4,2.3-0.9,3.5-0.9,5.8c0,1.7-0.4,3.1-1.4,4.5
				c-5.2,7.2-6.5,15.4-6.9,24.2c-0.3,6.1-1,12.4,0.5,18.4c0.1,0.5-0.1,1-0.2,1.6c-0.2,0.9-1.5,1.3-2.2,0.7c-0.5-0.5-1-1-1.3-1.6
				c-2.3-4-3.6-8.2-4-12.8c-0.2-1.6-0.3-3.2-0.4-5.7c-0.6-3.3-0.2-7.5,0.1-11.6c0.5-7.8,3.5-14.7,8.5-20.6c2.7-3.2,3.8-6.2,3.2-10.3
				c-0.5-3.9,0-7.9,0.7-11.8c0.3-1.6,0.9-3.1,1.5-4.6c0.8-1.9,2-2.5,3.8-1.8c1.5,0.5,3,1.2,4.3,2.1c3.3,2.1,6.6,4.2,9.8,6.5
				c3.6,2.6,7.4,3.8,12,3.2c9-1.1,18-0.2,26.8,2.4c3.1,0.9,6.1,1.8,9.1,2.9c2.3,0.8,4.5,0.7,6.6-0.4c1.9-1,3.8-1.8,5.7-2.8
				c3.5-1.8,7.4-2.6,11.2-3.2c2.3-0.4,3.4,0.4,3.8,2.7c1,5.7,1.6,11.5-0.4,17.1c-1.5,4.2-1,8.1,0.7,12C154,83.3,155.7,87,156.1,91z"
				/>
		</g>
		<g>
			<path fill="none" class="outer" stroke-width="0.6011" stroke-linecap="round" stroke-linejoin="round" d="M44.9,98
				c0.2,2.4,0.3,4.1,0.4,5.7c0.4,4.6,1.8,8.8,4,12.8c0.4,0.6,0.8,1.1,1.3,1.6c0.6,0.6,2,0.2,2.2-0.7c0.1-0.5,0.3-1.1,0.2-1.6
				c-1.5-6-0.8-12.3-0.5-18.4c0.4-8.8,1.7-17,6.9-24.2c1-1.4,1.3-2.8,1.4-4.5c0-2.3,0.6-3.5,0.9-5.8c0.6-3.7,1.5-8.5,3.1-11.9
				c1-2.3,1.8-2.6,4.2-1.8c1.3,0.4,2.7,1,3.9,1.7c3,1.6,6,3.3,8.4,5.7c2.8,2.8,5.9,3.5,9.7,3.1c4.4-0.5,8.8-0.1,13.2,0.5
				c5.5,0.8,10.8,2.3,15.8,4.6c2.7,1.2,5,1.1,7.6-0.2c2.4-1.2,4.9-2,7.5-2.7c2.4-0.7,4.8-1.1,7.3-0.9c2.2,0.2,3.2,1.3,3,3.5
				c-0.2,2.1-0.8,4.2-0.5,6.4c0.6,3.8-0.1,6.4-0.8,10.1c-0.4,2.4,0,5.7,1,8c2.9,6.5,3.9,13.4,3.1,20.6c-0.5,5.2-1.2,10.3-3.2,15.2
				c-0.4,0.9,0,1.8,0.9,2.2c0.8,0.4,1.4,0,1.9-0.4c1.3-1.2,2.1-2.9,2.9-4.5c4.7-9.8,6-20.3,5.1-31c-0.3-4-2-7.7-3.6-11.3
				c-1.8-4-2.2-7.8-0.7-12c2-5.6,1.4-11.4,0.4-17.1c-0.4-2.3-1.5-3-3.8-2.7c-3.8,0.6-7.7,1.4-11.2,3.2c-1.9,1-3.8,1.8-5.7,2.8
				c-2.2,1.1-4.3,1.3-6.6,0.4c-3-1.1-6.1-2-9.1-2.9c-8.8-2.6-17.8-3.5-26.8-2.4c-4.6,0.6-8.3-0.6-12-3.2c-3.2-2.3-6.5-4.4-9.8-6.5
				c-1.4-0.9-2.8-1.5-4.3-2.1c-1.8-0.7-3-0.1-3.8,1.8c-0.6,1.5-1.2,3-1.5,4.6c-0.8,3.9-1.3,7.9-0.7,11.8c0.5,4.1-0.6,7.2-3.2,10.3
				c-4.9,5.8-7.9,12.7-8.5,20.6C44.7,90.5,44.3,94.7,44.9,98z"/>
		</g>
	</g>
	<path display="inline" d="M13.3,105.7c-0.3-7.6,0.8-15.1,2.2-22.5c0.2-1,0.5-2,0.9-3c1-2.3,1.7-4.6,2.2-7.1c0.3-1.5,0.8-3,1.4-4.5
		c4.2-10.3,10.3-19.3,17.8-27.4c0.8-0.9,1.7-1.6,2.6-2.3c1-0.9,2.1-1.6,2.9-2.6c2.7-3.2,6.1-5.6,9.6-8c7.3-5,15.2-8.5,23.6-11
		c0.6-0.2,1.2-0.4,1.9-0.5c3.7-0.6,7.4-1.5,11-2.5c1.5-0.4,3.1-0.5,4.6-0.6c1.2-0.1,2.3,0,3.5-0.1c8.8-0.6,17.5,0.6,25.9,2.7
		c5.1,1.3,10.2,3.1,15.1,5.2c9.8,4.3,18.3,10.5,25.7,18.2c6.6,6.9,12.5,14.3,16.6,23.1c4.6,9.9,8.1,20.1,8.9,31
		c0.1,1.8,0.3,3.6,0.6,5.4c0.2,1.6,0.2,3.1,0.1,4.7c-0.6,6.1-1.8,12.1-3,18.1c-1.9,9.3-5.4,17.9-10.3,26c-2.6,4.3-5.5,8.5-9.3,12
		c-2,1.9-3.8,3.9-5.6,6c-2.1,2.6-4.4,4.8-7.1,6.7c-1.8,1.3-3.6,2.6-5.4,3.9c-6.7,4.7-14,7.9-22,9.8c-2.1,0.5-4.2,1.3-6.3,2
		c-3,1-6,1.7-9.1,2.1c-7.9,1.1-15.9,0.8-23.8-0.3c-1.7-0.2-3.3-0.7-4.9-1.3c-3.3-1.1-6.7-2-10.2-2.6c-2.4-0.4-4.8-1.2-7.1-2.2
		c-6.4-2.9-12.6-6.3-18.1-10.7c-2.3-1.9-4.6-3.8-6.6-6.1c-1.3-1.4-2.7-2.9-4.1-4.2c-6.8-5.8-11.3-13.2-15.1-21.1
		c-0.7-1.5-1.4-3.1-2-4.6c-0.9-2.3-1.9-4.6-2.4-7c-0.7-3.9-2-7.6-3-11.3c-0.5-1.6-0.8-3.3-1-5C13.7,111.4,13.5,108.6,13.3,105.7z
		 M19.8,102c0,0.9,0,1.8,0,2.7c0.2,2.7,0.1,5.5,0.7,8.2c1.3,5.8,2.9,11.6,4.6,17.4c0.7,2.5,1.9,4.9,3,7.2
		c3.7,7.2,7.7,14.2,14.1,19.5c1.2,1,2.3,2.1,3.3,3.3c7.4,8.3,16.6,13.7,26.8,17.8c1.1,0.4,2.3,0.6,3.4,0.9
		c2.4,0.6,12.3,2.6,14.6,3.5c5.1,2-5.3-0.3,0,0c5.9,0.4,20.1,1.6,25.8,0.1c6.3-1.6,12.5-3.5,18.7-5.6c6.3-2.2,11.9-5.7,17.3-9.8
		c2.6-2,5-4.1,7.1-6.7c1.1-1.3,2.1-2.7,3.4-3.8c3.1-2.8,5.7-6,8.1-9.5c4.6-6.9,8.3-14.2,10-22.3c0.7-3.1,1.4-6.1,2.1-9.1
		c1-4.1,1.6-8.3,1.5-12.4c-0.1-4.8-0.8-9.6-1.6-14.3c-2-10.8-6.3-20.6-12.2-29.8c-1.6-2.5-3.3-5-5.6-7c-0.8-0.7-1.5-1.5-2-2.3
		c-1.5-2.3-3.4-4.3-5.5-6c-2.7-2.3-5.2-4.7-8.1-6.8c-6.1-4.3-12.3-8.4-19.7-10c-1.1-0.2-2.2-0.8-3.3-1.3c-2-0.9-4.1-1.6-6.3-2.1
		c-5.8-1.1-11.5-2.3-17.4-2.3c-2.7,0-5.5,0.2-8.2,0.2c-2.5,0-4.9,0.5-7.3,1.2c-1.5,0.5-3,1-4.5,1.1c-2.4,0.2-4.6,0.8-6.8,1.5
		c-3.6,1.1-7.2,2.4-10.5,4.1c-6.8,3.4-13.4,7-18.5,12.9c-0.8,0.9-1.7,1.6-2.6,2.3c-0.8,0.7-1.7,1.2-2.4,2
		c-4.2,4.8-8.1,9.8-11.5,15.3c-4.2,6.9-5.9,14.7-8.3,22.2C20,89.9,19.7,95.9,19.8,102z"/>
</g>
<g display="none">
	<path display="inline" d="M-113.5,209.3C-113.5,209.3-113.5,209.3-113.5,209.3c-0.7,0-1.3-0.6-1.3-1.3l0-87.2
		c0-0.7,0.6-1.3,1.3-1.3c0,0,0,0,0,0c0.7,0,1.3,0.6,1.3,1.3l0,87.2C-112.2,208.7-112.8,209.3-113.5,209.3z"/>
	<g display="inline">
		<path d="M-113.5,209c-2.2,0-1-27.3-1-29.4c0-15.5,0-31,0-46.4c0-3.9,0-7.9,0-11.8c0-1.3,2-1.1,2,0.2c0,1.6,0,3.2,0,4.8
			c0,14.2,0,28.4,0,42.6c0,8.9,0,17.8,0,26.8C-112.4,197.8-110.9,207.9-113.5,209c-0.3,0.1-0.2,0.6,0.1,0.5c2.2-0.9,1.4-3.9,1.4-6
			c0-5.8,0-11.7,0-17.5c0-15.8,0-31.6,0-47.4c0-5.1,0-10.2,0-15.3c0-1.5,0.2-5.1-2.5-3.5c-1.2,0.7-0.5,5.6-0.5,6.6
			c0,6.1,0,12.2,0,18.3c0,14.9,0,29.9,0,44.8c0,1.9-1.7,20.1,1.5,20.1C-113.2,209.5-113.2,209-113.5,209z"/>
	</g>
</g>
<g display="none">
	<g display="inline">
		<g>
			<path d="M107.2,62.8c-0.2-0.3-0.5-0.5-0.8-0.7c-0.1-0.1-0.3-0.2-0.5-0.1c-1,0.1-1.8,0.3-2.6,0.8c-0.7,0.5-1.3,1-1.8,1.7
				c-0.5,0.7-0.9,1.4-1.3,2.2c-0.3,0.8-0.6,1.5-0.7,2.1c-0.1,0.2-0.1,0.4-0.1,0.6v0.2c0,1,0.1,1.8,0.4,2.4c0.3,0.6,0.6,1.1,1,1.5
				c0.4,0.4,0.8,0.6,1.3,0.7c0.4,0.1,0.7,0.2,1,0.2h0l0,0c1,0,1.9-0.5,2.6-1.5c0.6-0.8,1.1-1.8,1.4-2.8c0.3-1.1,0.5-2.1,0.6-3.1
				c0.1-1.1,0.1-1.9,0-2.6C107.6,63.7,107.5,63.2,107.2,62.8z"/>
			<path d="M200.8,98.8l-0.1-1.1c-0.2-1.7-0.4-3.4-0.5-5.1c-0.8-10.8-4-21.8-10-34.7c-3.9-8.5-9.6-16.5-18.5-25.8
				c-8.5-8.9-18.1-15.8-28.7-20.4c-5.9-2.5-11.5-4.5-16.9-5.9c-8.6-2.2-16.4-3.2-23.8-3.2c-1.8,0-3.5,0.1-5.3,0.2
				c-0.6,0-1.3,0-1.9,0.1c-0.7,0-1.4,0-2.1,0.1c-0.3,0-0.6,0-0.9,0.1c-1.4,0.1-2.9,0.3-4.3,0.6C83.3,5.1,79.3,6,75.5,6.6
				C75,6.7,74.4,6.8,73.9,7l-0.4,0.1c-10.3,3.1-19,7.2-26.5,12.3c-3.8,2.6-7.7,5.3-10.7,8.9c-0.6,0.8-1.4,1.4-2.2,2
				c-0.4,0.3-0.7,0.6-1.1,0.9c-0.3,0.3-0.6,0.5-1,0.8c-0.7,0.6-1.4,1.1-2,1.8c-9,9.8-15.5,19.8-19.9,30.7c-0.7,1.8-1.2,3.4-1.6,5
				c-0.6,3-1.4,5.6-2.5,8c-0.5,1.1-0.8,2.2-1,3.3C3.8,87.7,2.3,96.7,2.6,106c0.1,0.9,0.1,1.8,0.2,2.7c0.2,2.3,0.3,4.6,0.6,6.9
				c0.2,1.7,0.6,3.5,1.1,5.5c0.3,1.1,0.6,2.2,1,3.3c0.9,3.1,1.9,6.2,2.4,9.5c0.4,2.1,1.2,4.1,2,6.1c0.2,0.6,0.5,1.2,0.7,1.7
				c0.6,1.6,1.4,3.3,2.3,5.2c3.9,7.8,8.9,16.7,16.9,23.6c1.7,1.4,3.2,3,4.7,4.7c2,2.2,4.3,4.3,7.4,6.8c5.6,4.5,12,8.3,20.3,12
				c2.7,1.2,5.3,2,7.9,2.5c3.6,0.6,7.4,1.6,11.5,3c1.9,0.6,3.6,1.2,5.5,1.4c10.4,1.3,18.7,1.4,26.6,0.3c3.8-0.5,7.1-1.3,10.2-2.4
				l1.1-0.4c2-0.7,4-1.4,6-1.9c8.9-2.1,17.2-5.8,24.6-11c1.1-0.8,2.3-1.6,3.4-2.4c0.9-0.6,1.8-1.3,2.7-1.9c2.9-2.1,5.6-4.6,7.9-7.5
				c2-2.5,4.1-4.8,6.3-6.8c4.6-4.3,7.9-9.5,10.4-13.5c5.6-9.2,9.4-19,11.5-29.1c1.5-7.2,2.8-13.7,3.4-20.3
				C201,102.4,201,100.7,200.8,98.8z M192.5,117.2l-0.3,1.3c-0.7,2.9-1.4,6-2,9c-1.7,8.2-5.3,16.1-11.2,25.1
				c-2.8,4.2-5.7,7.7-9.1,10.7c-1.3,1.2-2.4,2.6-3.5,3.9l-0.2,0.3c-2.1,2.6-4.6,5-8,7.6c-7,5.3-13.1,8.8-19.4,11
				c-7.4,2.6-14.3,4.7-21,6.3c-3.8,0.9-8,1.4-12.9,1.4c-2,0-4.2-0.1-6.9-0.2c-5.7-0.3-11.7-1-17.6-3.4c-1.7-0.7-3.6-1-5.4-1.4
				c-0.9-0.2-1.8-0.3-2.6-0.5c-0.3-0.1-0.7-0.1-1-0.2c-1-0.2-1.9-0.4-2.8-0.8c-13.1-5.3-22.7-11.7-30.1-20c-1.4-1.6-2.6-2.7-3.7-3.7
				c-7.5-6.2-12.1-14.6-15.8-22c-1.3-2.5-2.6-5.2-3.4-8.1c-2.2-7.4-3.8-13.6-5.1-19.5c-0.5-2.1-0.6-4.4-0.6-6.6
				c0-0.9-0.1-1.8-0.1-2.7c-0.1-0.7,0-1.4,0-2.1c0-0.3,0-0.6,0-1c-0.1-5.7,0-13.1,2.1-20c0.5-1.7,1-3.4,1.5-5.1
				c2-6.7,4-13.7,7.8-19.9c3.5-5.7,7.7-11.4,12.9-17.2c0.5-0.6,1.1-1.1,1.8-1.5c0.3-0.2,0.6-0.5,1-0.8c0.3-0.2,0.6-0.5,0.9-0.7
				c0.7-0.6,1.4-1.2,2-1.9c5.9-6.8,13.5-10.9,20.8-14.5C64,18.3,68,16.7,72,15.5c2.5-0.7,5-1.5,7.7-1.7c1.5-0.1,3-0.6,4.4-1.1
				l0.6-0.2c2.8-0.9,5.5-1.4,8.3-1.4c1.5,0,2.9-0.1,4.4-0.1c1.6-0.1,3.2-0.1,4.8-0.1c6.3,0,12.5,1.2,18.5,2.4l1.1,0.2
				c2.4,0.5,4.8,1.3,7.1,2.3l0.2,0.1c1.1,0.5,2.2,1,3.4,1.3c8.4,1.8,15.3,6.3,22.2,11.2c2.3,1.6,4.4,3.5,6.5,5.3
				c0.9,0.8,1.7,1.5,2.6,2.3c2.7,2.3,4.7,4.5,6.2,6.8c0.6,0.9,1.4,1.8,2.3,2.6c2.7,2.4,4.7,5.4,6.3,7.9
				c7.1,11.2,11.6,22.2,13.7,33.6c1.2,6.3,1.7,11.4,1.8,16.2C194.3,107.4,193.7,112,192.5,117.2z"/>
			<path d="M50.2,155c1.1,0.1,1.7,0.1,2.5,0.1l84.8,0c1.2,0,2.4,0,3.6,0l1.2,0c0.8,0,1.6,0,2.4,0c1.6,0,3,0,4.3,0.1
				c0.2,0,0.5,0,0.7,0c3.7,0,7-1.4,9.4-3.9c2.2-2.4,3.4-5.8,3.1-9.2c-0.1-1.3-0.1-2.8-0.1-3.7c0-0.8,0-1.5,0-2.3c0-0.9,0-1.8,0-2.6
				l0-20.7c0-5.5,0-11.1,0-16.6c0-0.3,0-0.7,0-1c0-1,0-1.9-0.1-2.9c-0.4-6-4.8-10.3-10.8-10.6c-1.1-0.1-2.6,0-4,0
				c-1.1,0-2.2,0-3.3,0c-1,0-1.4-0.4-1.5-1.4c-0.1-0.6-0.1-1.2-0.1-2c0-0.2,0-0.4,0-0.6l0.1-8.8c0.1-4.1,0.1-8.1,0.1-12.2l0-2.9
				c0-3,0.1-6.4,0-9.7c-0.1-5.8-3.6-10.1-9.4-11.4c-1.5-0.3-3-0.3-4-0.3h-10.1c-15.4,0-30.7,0-46.1,0c-0.3,0-0.5,0-0.8,0h-0.8
				c-0.5,0-1.2,0-1.9,0.1c-6.2,0.7-10.3,5-10.8,11.3c-0.1,0.7,0,1.4,0,2c0,2,0.1,3.9,0.2,5.8l0.1,2.4c0.1,2.4,0.1,4.8,0.2,7.3
				c0.1,5.6,0.3,12.2,0.4,18.8V80c0,1.7-0.2,2.1-2.2,2.2c-1.6,0.1-3.3,0.1-5.5,0.1h-1.3c-4.9,0-10.5,3.8-11.2,10.9
				c-0.1,1.1-0.1,2.2-0.1,3.2v0.7c0,14.5,0,29.1,0,43.6v0.7c0,1.1,0,2.1,0.1,3.2C40.4,150.3,44.6,154.4,50.2,155z M114.2,151.4
				l-13.1,0l-0.1,0H58.2c-0.3,0-0.7,0-1,0h-1c-0.7,0-1.5,0-2.3-0.1c-5-0.5-9.1-4.2-10.2-9.1c-0.3-1.5-0.5-3.2-0.5-5.1
				c0-8.3,0-16.7,0-24.9V99.8c0-1.8,0.1-3.7,0.6-5.5c0.8-2.5,2.5-3.8,4.9-3.8c0.4,0,0.9,0,1.4,0.1c1.8,0.3,3.3,1.3,4.8,2.2l3.5,2.2
				c10,6.3,20.7,13,31.1,19.6c3.5,2.2,7.1,3.4,10.8,3.4c4.4,0.1,8.2-1,11.9-3.3c4.3-2.8,8.6-5.5,13.4-8.5l3.7-2.3
				c1-0.6,1.9-1.2,2.9-1.8l15.2-9.5c1.5-1,2.9-1.8,4.6-2c2.8-0.4,4.7,0.6,5.8,3.1c0.7,1.6,0.8,3.3,0.8,4.9c0,4.4,0,8.8,0,13.2
				c0,8.7,0,17.6,0,26.5c0,8.3-4.9,13.1-13.2,13.1c-5.3,0-10.9,0-17.8,0C123.1,151.4,118.7,151.4,114.2,151.4z M69.4,37.2
				c0,0,0.1,0,0.1-0.1c0.1-0.1,0.3-0.1,0.4-0.2c0.1-0.1,0.3-0.1,0.4-0.2c0.1,0,0.2,0,0.2-0.1c0.2-0.1,0.4-0.1,0.6-0.2
				c0.1,0,0.1,0,0.2,0c0.2-0.1,0.5-0.1,0.7-0.1c0.1,0,0.2,0,0.3,0c0.2,0,0.4-0.1,0.6-0.1c1.6-0.1,3-0.1,4.2-0.1c0.2,0,0.4,0,0.6,0
				c3.5,0,7.1,0,10.6,0c0.3,0,0.6,0,0.9,0h23.5c1.9,0,3.8,0,5.7,0s3.8,0,5.7,0l0,0h0.5c1.4,0,2.6,0,3.8,0.1c0.4,0,0.8,0.1,1.1,0.2
				c4.8,0.9,8.3,4.5,9.3,9.3c0.1,0.4,0.2,0.8,0.2,1.3c0.1,0.9,0.1,1.8,0.1,2.7c0,0.2,0,0.4,0,0.6c0,1.7,0,3.5,0,5.2
				c0,1.8,0,3.5,0,5.3l0,3.4c0,0,0,0,0,0v0c0,0.1,0,0.3,0,0.4c0,4.5,0,9.1,0,13.6v1.1c0,0.1,0,0.1,0,0.2c0,9.2-4,16.4-12,21.3
				c-2.1,1.3-4.3,2.7-6.4,4c-2.9,1.8-5.8,3.7-8.8,5.5c-1.1,0.7-2.2,1.3-3.3,1.7c-5.7,2.5-11.5,2.3-17.2-0.6c-0.7-0.3-1.3-0.7-2-1.1
				c-1.7-1-3.5-2.1-5.3-3.3c-0.1,0-0.1-0.1-0.2-0.1c-0.2-0.1-0.4-0.3-0.7-0.4c-1.7-1.1-3.5-2.2-5.4-3.4c-1.4-0.9-2.9-1.8-4.4-2.8
				c-6-3.9-9.7-9.1-10.9-15.7c0,0,0-0.1,0-0.1c-0.1-0.5-0.2-0.9-0.2-1.4c-0.1-0.5-0.1-1-0.1-1.5c0,0,0-0.1,0-0.1
				c0-0.5-0.1-1.1-0.1-1.6c0,0,0-0.1,0-0.1c0-1.6,0-3.2,0-4.8c0-0.2,0-0.5,0-0.7c0-1.5,0-3,0-4.5c0-0.3,0-0.5,0-0.8
				c0-1.5,0-3.1,0-4.6c0-0.2,0-0.3,0-0.5c0-1.5,0-3,0-4.5c0-0.1,0-0.3,0-0.4l0-3.3c0-1,0-2,0-2.9c0-1.1,0-2.3,0-3.4
				c0-1.6,0.2-3.1,0.6-4.6c0.5-2,1.8-4,3.5-5.6C67.4,38.3,68.4,37.7,69.4,37.2z"/>
			<path d="M80.6,86.1c1.2,1.9,2.7,3.4,4.4,4.5c1.7,1.1,3.5,1.8,5.4,2.3c1.9,0.5,4,0.7,6.1,0.8c2.2,0.1,4.3,0.1,6.3,0.1
				c1,0,2.2,0,3.7-0.1c1.6,0,3.4-0.3,5.2-0.7c1.8-0.4,3.7-1.2,5.6-2.2c1.9-1,3.6-2.5,5.3-4.4c1.6-1.9,2.8-4.4,3.8-7.3
				c1-2.9,1.4-6.6,1.4-10.9c0-3.7-0.3-7.2-0.9-10.4c-0.6-3.2-1.8-6-3.6-8.3c-1.8-2.3-4.4-4.1-7.7-5.3c-3.3-1.2-7.6-1.8-12.8-1.7
				c-3.7,0-6.9,0.4-9.6,1.1c-2.7,0.7-5.1,1.7-7,2.9c-2,1.2-3.6,2.7-4.8,4.4c-1.3,1.7-2.2,3.4-2.9,5.3C77.7,58,77.3,60,77,62.1
				c-0.2,2-0.4,4-0.4,6c0,4.2,0.4,7.8,1,10.7C78.4,81.7,79.4,84.1,80.6,86.1z M116.4,75c-0.1,0.1-0.1,0.2-0.1,0.3c0,0,0,0,0,0l0,0
				c-0.5,0.5-1,1-1.6,1.5c-0.1,0.1-0.2,0.2-0.4,0.3l-0.2,0.1c-0.6,0.5-1.5,0.7-2.4,0.8c-0.4,0-0.8,0-1.2,0c-0.3,0-0.6-0.1-0.9-0.2
				c-0.1-0.1-0.3-0.2-0.7-0.5c-0.4-0.3-0.5-0.4-0.6-0.5c-0.1-0.1-0.3-0.2-0.5-0.2h-0.1c-0.2,0-0.3,0.1-0.5,0.2
				c-0.8,0.7-1.6,1.3-2.2,1.7c-0.6,0.4-1.5,0.6-2.4,0.6h-0.7c-0.5-0.2-1-0.4-1.5-0.5c-0.5-0.1-0.9-0.3-1.2-0.5c-0.8-0.6-1.4-1.2-2-2
				c-0.5-0.8-1-1.6-1.3-2.5c-0.2-0.4-0.3-1-0.3-1.8c0-0.7-0.1-1.5-0.2-2.3c0-0.4,0-0.7,0-1c0-0.1,0-0.4,0-0.8
				c0.1-0.8,0.3-1.6,0.6-2.5c0.3-0.8,0.6-1.6,1.1-2.3l0.1-0.1c0.1-0.1,0.3-0.2,0.6-0.6c0.1-0.2,0.2-0.3,0.2-0.3l0.2-0.1
				c1.1-1.1,2.5-2,4.1-2.5c1.6-0.5,3.3-0.7,4.7-0.4c0.2,0,0.4,0.1,0.6,0.2c0.3,0.1,0.6,0.1,0.9,0.1h0.1c0.2,0,0.3,0,0.5-0.1
				c0.1,0,0.1,0,0.2,0l0.1,0c0.2,0,0.3,0,0.5,0.1c0.2,0.1,0.3,0.1,0.5,0.2c0,0.1,0.1,0.3,0.1,0.5c0.1,0.3,0.1,0.5,0.2,0.8
				c0,0.8,0,1.5-0.1,2.3c-0.1,0.8-0.2,1.6-0.3,2.4c-0.1,0.9-0.2,1.7-0.2,2.5c0,0.9,0,1.7,0.2,2.5c0,0.1,0,0.4,0.1,0.6
				c0,0.2,0,0.3,0.1,0.3c0,0.2,0.1,0.4,0.3,0.7c0.2,0.3,0.3,0.5,0.3,0.6c0,0,0.1,0.1,0.1,0.2l0.2,0.4c0.2,0.4,0.4,0.6,0.5,0.7
				c0.1,0.1,0.2,0.2,0.4,0.2c0.1,0,0.2,0.1,0.3,0.1c0.3,0.2,0.7,0,1-0.1c0.1-0.1,0.3-0.2,0.5-0.3c1-1,1.7-2.2,2.1-3.5
				c0.4-1.3,0.6-2.6,0.8-3.9c0.1-0.8,0.2-1.4,0.2-1.8c0-0.6,0-1.2-0.1-1.9c-0.2-1.8-1-3.5-2.3-4.9c-0.1-0.1-0.2-0.2-0.3-0.3
				l-0.2-0.2c-0.1-0.1-0.2-0.2-0.4-0.4l-0.6-0.7c-0.2-0.2-0.3-0.3-0.4-0.4c-0.1-0.1-0.2-0.1-0.4-0.3c-0.2-0.1-0.4-0.2-0.6-0.4
				c-0.2-0.1-0.4-0.3-0.6-0.4c-0.1-0.1-0.2-0.2-0.3-0.2l-0.2-0.2c-0.8-0.4-1.4-0.8-2-1.1c-0.6-0.3-1.3-0.5-2.1-0.5
				c-0.1,0-0.2,0-0.4,0l-0.2,0c-0.1,0-0.1,0-0.2,0h-1.8c-0.4,0-0.7,0-1,0c-0.4,0-0.6,0.1-0.8,0.1c-1.1,0.3-2.2,0.7-3.3,1.3
				c-1.2,0.6-2.3,1.2-3.3,2c-1.1,0.8-2,1.7-2.8,2.6c-0.8,1-1.4,2.1-1.5,3.2c0,0.1-0.1,0.4-0.1,0.6l-0.1,0.3c0,0.3-0.1,0.6-0.2,0.9
				l0,0.2c-0.1,0.3-0.1,0.7-0.2,1l-0.1,0.3c-0.1,0.4-0.1,0.6-0.1,0.7c-0.2,0.7-0.2,1.6-0.1,2.6c0.1,0.9,0.3,1.9,0.5,2.9
				c0.2,1,0.5,2,0.8,2.9c0.3,0.8,0.6,1.6,0.9,2.3c0.5,1.1,1.2,2.1,2,3c0.8,0.9,1.7,1.7,2.6,2.4c0,0,0.1,0.1,0.3,0.1
				c0,0,0.1,0,0.2,0.1c0.2,0.1,0.4,0.2,0.6,0.2c0.1,0,0.1,0,0.2,0.1c0,0,0.1,0,0.1,0.1l0,0c0.2,0.2,0.4,0.3,0.5,0.4
				c0.3,0.2,0.7,0.3,1.1,0.4c0.3,0.1,0.7,0.2,1.3,0.2c0.4,0,0.9,0.1,1.3,0.1h0.8c0.2,0.1,0.3,0.1,0.8,0c0.1,0,0.2,0,0.3,0
				c0.2,0.1,0.5,0.2,1.1,0.2c0.1,0,0.2,0,0.4,0c0.2,0,0.5,0,0.7,0l0.3,0c0.2,0,0.5-0.1,1.1-0.3c0.5-0.1,0.7-0.2,0.8-0.3
				c1.1-0.3,2-0.5,2.6-0.8c0.6-0.2,1.1-0.5,1.6-0.8c0.4-0.2,0.7-0.4,1-0.7c0.2-0.2,0.5-0.4,1-0.6c0,0,0.1,0,0.1-0.1
				c0,0,0.1-0.1,0.3-0.1c0.1,0,0.2,0,0.3-0.1c0.4-0.1,1-0.1,1.5,0.1c0.2,0,0.2,0.1,0.2,0.1c0,0.1,0.1,0.3,0.2,0.3c0,0,0,0.1,0,0.2
				c0,0.2,0,0.5-0.1,0.7c0,0.2-0.1,0.4-0.2,0.6c-0.1,0.2-0.2,0.2-0.2,0.2c-0.1,0.1-0.2,0.2-0.2,0.2c-0.5,0.8-1.1,1.4-1.9,1.9
				c-0.8,0.5-1.6,1-2.6,1.4c-0.9,0.4-1.9,0.7-2.9,0.9c-1.1,0.2-2,0.3-2.9,0.4l-3.1,0c-0.1,0-0.2,0-0.3-0.1c-0.1,0-0.3-0.1-0.6-0.1
				c-0.3,0-0.5,0-0.5,0l-0.5,0l-0.2,0c-0.7-0.4-1.3-0.6-1.9-0.8c-0.6-0.1-1.2-0.3-1.8-0.5c-0.9-0.4-1.7-0.8-2.4-1.3
				c-0.7-0.5-1.5-1.2-2.2-1.9c-0.9-0.8-1.7-1.7-2.3-2.8c0,0-0.1-0.1-0.2-0.2c0-0.1-0.1-0.2-0.2-0.4c-0.2-0.4-0.2-0.5-0.3-0.7
				c-0.6-1.1-1.1-2.2-1.5-3.3c-0.4-1-0.7-2.1-0.9-3.5c0-0.2-0.1-0.4-0.1-0.8c0-0.3,0-0.6-0.1-0.8h0c0-0.2-0.1-0.5-0.1-1
				c0-0.3-0.1-0.9-0.1-1.2l0,0c0.1-0.2,0.1-0.4,0.1-0.5c0,0,0-0.2,0-0.5c0-0.3,0-0.7,0-1c0-0.3,0-0.6,0-0.9c0-0.3,0-0.5,0-0.5
				c0-0.2,0.1-0.5,0.2-0.7c0-0.1,0.1-0.2,0.1-0.4c0-0.1,0.1-0.2,0.1-0.3l0.1-0.2l0-0.1c0-0.1,0-0.2,0.1-0.5c0-0.1,0-0.2,0-0.3
				c0-0.1,0-0.2,0-0.2c0.3-0.9,0.6-1.6,1-2.2c0.5-0.7,0.9-1.4,1.4-2.2c1.6-2.5,3.7-4.4,6.3-5.7c0.4-0.2,0.9-0.4,1.5-0.6
				c0.5-0.2,1-0.3,1.5-0.4c0.2-0.1,0.5-0.1,0.8-0.2c0.4-0.1,0.5-0.1,0.7-0.1c1-0.2,2.4-0.3,3.9-0.3c1.6,0.1,3.3,0.4,4.9,0.9
				c1.6,0.5,3.3,1.3,4.8,2.5c1.5,1.1,2.7,2.5,3.7,4.3l0,0.2c0,0.1,0,0.2,0.1,0.3c0,0,0,0.1,0,0.2c0,0.1,0,0.2,0,0.2l0,0.2
				c0.5,1.4,0.7,3.1,0.7,4.9c-0.1,1.9-0.3,3.7-0.8,5.6c0,0.2-0.1,0.4-0.1,0.5l0,0.2c-0.1,0.3-0.1,0.4-0.1,0.5l-0.1,0.2
				c-0.4,1-0.7,1.8-1,2.6C117.3,73.5,117,74.3,116.4,75z"/>
			<path d="M155.9,138.1c0.1-11.6,0.1-20.4,0-28.6c-0.1-3.2-1.6-5.9-4.2-7.2c-2.3-1.2-5.1-1.2-7.8,0c-0.9,0.4-1.7,0.8-2.6,1.2
				l-0.5,0.2c-1.9,0.9-3.8,1.9-5.7,2.8l-3,1.5c-6.7,3.3-14.3,7-21.7,10.7c-4.3,2.1-8.8,2.9-14,2.2c-2.8-0.4-5.3-1.5-7.6-2.7
				c-2.1-1-3.2-1.6-4.4-2.2l-5.5-2.7l0,0l-0.4-0.2l-0.3-0.1c-0.1-0.1-0.3-0.1-0.4-0.2l-1.9-1c-5.5-2.7-9.3-4.6-18.3-9
				c-1.3-0.6-2.7-1.3-4.1-1.6c-3.3-0.7-5.6,0.9-6,4.3c-0.1,0.8-0.1,1.7-0.1,2.5l0,2.4c0,5.2,0,10.1,0,23.2c0,0.5,0,1,0.1,1.5
				c0.1,0.5,0.1,1,0.1,1.4c0,1.3,0.1,4.4,1.5,6.6l1.3,1l0,0l2,1.5l0.1,0.1c0.4,0.2,0.9,0.3,1.3,0.5c2.8,0.8,5.2,0.9,7.6,0.9h0l1.4,0
				l28.2,0c15.5,0,32.7,0,52.6,0c1.5,0,3.2,0,4.9-0.4C153.1,145.9,155.8,142.7,155.9,138.1z M52.1,140.5c-0.1-0.2-0.1-0.4-0.1-0.7
				c0-0.1,0-0.3,0-0.5l-0.1-0.4c0-0.2-0.1-0.4-0.1-0.6c-0.2-1.7-0.4-2.8-0.5-4.3l-0.1-0.7c0,0,0,0,0-0.1c0,0,0-0.1,0-0.1
				c-0.3-3.8-0.2-7.6,0-11.3c0-1,0.1-2,0.1-2.9c0,0,0,0,0,0c0-1,0.1-2.1,0.2-3.1c0.1-1.2,0.2-2.5,0.2-3.8v-0.1c0-1.4,0-2.8,0.3-4
				c0.5-1.8,1.6-2.8,3.3-2.8c0.4,0,0.9,0.1,1.4,0.2c1,0.3,2,0.8,2.9,1.2l7.4,3.6c3.2,1.6,5.3,2.6,8.3,4.1l0.9,0.4
				c5.3,2.6,10.7,5.3,16,7.9c5.3,2.6,10.9,3.4,16.5,2.2c2.4-0.5,4.5-1.5,6.4-2.5l0.6-0.3c4.9-2.4,9.9-4.9,14.8-7.3
				c5.2-2.5,10.3-5.1,15.5-7.6l0.5-0.2c1.1-0.5,2.2-1.1,3.4-1.5c0.4-0.1,0.7-0.2,0.9-0.2c0.3,0,0.9,0,1.1,1.5
				c0.1,0.6,0.1,1.2,0.1,1.9l0,1c0,7.8,0,15.5,0,23.2v0.6c0,0.7,0,1.5-0.1,2.2c-0.5,4.1-3.7,7.3-7.6,7.4c-1.5,0-2.7,0.1-3.8,0.1
				h-32.5c-5.7,0-11.5,0-17.2,0c-10.2,0-20.4,0-30.7,0l-0.5,0c-1.2,0-3.5,0-5.8-0.8C52.9,141.9,52.3,141.3,52.1,140.5L52.1,140.5
				L52.1,140.5z"/>
			<path d="M184,96.3l0-0.4c-0.7-11.3-4.8-21.3-8.3-28.8c-4-8.7-10.3-15.9-15.2-21.2c-4.7-5-10.2-9.4-16.9-13.5
				c-6.6-4.1-13.9-6.3-21-8.4l-0.3-0.1c-6.3-1.9-12.8-2.9-19.4-2.9c-0.7,0-1.4,0-2.2,0c-0.7,0-1.4,0-2.1,0l-1.3,0
				c-1.8,0-3.7,0-5.5,0.5c-2.1,0.5-4.3,1-6.4,1.4c-2.7,0.6-5.4,1.2-8.1,1.9c-3.9,1.1-8,2.7-12,4.7c-6,3.1-12.9,6.8-18.1,12.8
				c-0.6,0.7-1.2,1.2-1.8,1.6c-2.5,1.7-4.3,3.9-6.1,6c-4.6,5.5-8.3,11.1-11.3,16.9c-1.8,3.5-2.8,7.3-3.9,10.9
				c-0.7,2.6-1.5,5.3-2.5,7.8c-0.2,0.5-0.3,1.1-0.3,1.5c0,0.1,0,0.3-0.1,0.4l-0.4,2.7c-0.2,1.8-0.5,3.7-0.7,5.6
				c-1.1,9.5-0.4,18,2.3,26l0.2,0.6c0.3,0.9,0.6,1.7,0.7,2.5c0.7,5.3,2.7,10,4.6,14c3.2,6.7,7.5,14.3,14.5,20.2
				c0.8,0.7,1.7,1.4,2.3,2.2c3.5,4.5,8.1,7.9,11.8,10.3c6.4,4.2,13.5,8.4,21.9,9.6c1,0.2,2.4,0.4,3.6,0.9c4.5,1.7,9.1,2.4,13.4,2.9
				c2.5,0.3,5.1,0.5,7.6,0.5c0,0,0,0,0,0c4,0,8-0.4,11.9-1.2c6.3-1.3,12.4-3.4,18.4-5.5l1.8-0.6c6.4-2.2,11.8-6,16.9-9.8
				c2.6-1.9,4.7-3.9,6.5-6.2c1.6-1.9,3-3.5,4.3-4.8c8.6-8.6,14.6-19.1,17.7-31.4c0.9-3.4,1.7-7.1,2.4-10.8c1-5.1,2.2-11.5,1-17.8
				C184,97.1,184,96.7,184,96.3z M23.4,87.8c0-0.2,0-0.3,0.1-0.6c0-0.3,0.1-0.6,0.2-0.9c1-2.6,1.8-5.3,2.6-7.9l0.1-0.3
				c1-3.5,2-7,3.7-10.3c2.9-5.7,6.5-11.1,11-16.5l0.1-0.1c1.7-2,3.4-4,5.6-5.5c0.8-0.5,1.5-1.2,2.2-2c4.9-5.6,11.6-9.3,17.4-12.2
				c3.9-2,7.8-3.5,11.6-4.5c2.6-0.7,5.3-1.3,8-1.9c2.3-0.5,4.4-0.9,6.5-1.5c1.6-0.4,3.3-0.4,5-0.4h1.3c0.7,0,1.4,0,2.2,0
				c7-0.2,14,0.7,20.8,2.8l0.3,0.1c6.9,2.1,14.1,4.3,20.5,8.2c6.6,4,12,8.4,16.5,13.2c4.8,5.2,10.9,12.2,14.8,20.6
				c3.4,7.3,7.4,17.2,8.1,28l0,0.4c0,0.4,0.1,1,0.1,1.5c1.1,5.4,0.2,10.6-1,16.9c-0.7,3.6-1.5,7.2-2.4,10.6
				c-3.1,11.9-8.8,22.1-17.1,30.3c-1.5,1.5-2.9,3-4.5,5c-1.7,2.1-3.7,4-6.2,5.8c-4.9,3.6-10.2,7.4-16.3,9.5l-2,0.7
				c-5.8,2-11.9,4.1-17.9,5.3c-6.1,1.3-12.5,1.5-18.8,0.7c-4.2-0.5-8.6-1.2-12.9-2.8c-1.4-0.5-2.9-0.8-4.1-1c-8-1.2-14.8-5.2-21-9.3
				c-3.7-2.5-7.9-5.5-11.2-9.8c-0.8-1-1.8-1.9-2.7-2.6c-6.6-5.6-10.7-13-13.9-19.4c-1.8-3.8-3.8-8.3-4.4-13.3c-0.1-1-0.5-2-0.8-3
				l-0.2-0.6c-2.6-7.6-3.3-15.8-2.2-25c0.2-1.8,0.5-3.7,0.7-5.5L23.4,87.8z"/>
		</g>
	</g>
</g>
<g>
	<path d="M200.8,98.8l-0.1-1.1c-0.2-1.7-0.4-3.4-0.5-5.1c-0.8-10.8-4-21.8-10-34.7c-3.9-8.5-9.6-16.5-18.5-25.8
		c-8.5-8.9-18.1-15.8-28.7-20.4c-5.9-2.5-11.5-4.5-16.9-5.9c-8.6-2.2-16.4-3.2-23.8-3.2c-1.8,0-3.5,0.1-5.3,0.2
		c-0.6,0-1.3,0-1.9,0.1c-0.7,0-1.4,0-2.1,0.1c-0.3,0-0.6,0-0.9,0.1c-1.4,0.1-2.9,0.3-4.3,0.6C83.3,5.1,79.3,6,75.5,6.6
		C75,6.7,74.4,6.8,73.9,7l-0.4,0.1c-10.3,3.1-19,7.2-26.5,12.3c-3.8,2.6-7.7,5.3-10.7,8.9c-0.6,0.8-1.4,1.4-2.2,2
		c-0.4,0.3-0.7,0.6-1.1,0.9c-0.3,0.3-0.6,0.5-1,0.8c-0.7,0.6-1.4,1.1-2,1.8c-9,9.8-15.5,19.8-19.9,30.7c-0.7,1.8-1.2,3.4-1.6,5
		c-0.6,3-1.4,5.6-2.5,8c-0.5,1.1-0.8,2.2-1,3.3C3.8,87.7,2.3,96.7,2.6,106c0.1,0.9,0.1,1.8,0.2,2.7c0.2,2.3,0.3,4.6,0.6,6.9
		c0.2,1.7,0.6,3.5,1.1,5.5c0.3,1.1,0.6,2.2,1,3.3c0.9,3.1,1.9,6.2,2.4,9.5c0.4,2.1,1.2,4.1,2,6.1c0.2,0.6,0.5,1.2,0.7,1.7
		c0.6,1.6,1.4,3.3,2.3,5.2c3.9,7.8,8.9,16.7,16.9,23.6c1.7,1.4,3.2,3,4.7,4.7c2,2.2,4.3,4.3,7.4,6.8c5.6,4.5,12,8.3,20.3,12
		c2.7,1.2,5.3,2,7.9,2.5c3.6,0.6,7.4,1.6,11.5,3c1.9,0.6,3.6,1.2,5.5,1.4c10.4,1.3,18.7,1.4,26.6,0.3c3.8-0.5,7.1-1.3,10.2-2.4
		l1.1-0.4c2-0.7,4-1.4,6-1.9c8.9-2.1,17.2-5.8,24.6-11c1.1-0.8,2.3-1.6,3.4-2.4c0.9-0.6,1.8-1.3,2.7-1.9c2.9-2.1,5.6-4.6,7.9-7.5
		c2-2.5,4.1-4.8,6.3-6.8c4.6-4.3,7.9-9.5,10.4-13.5c5.6-9.2,9.4-19,11.5-29.1c1.5-7.2,2.8-13.7,3.4-20.3
		C201,102.4,201,100.7,200.8,98.8z M192.5,117.2l-0.3,1.3c-0.7,2.9-1.4,6-2,9c-1.7,8.2-5.3,16.1-11.2,25.1
		c-2.8,4.2-5.7,7.7-9.1,10.7c-1.3,1.2-2.4,2.6-3.5,3.9l-0.2,0.3c-2.1,2.6-4.6,5-8,7.6c-7,5.3-13.1,8.8-19.4,11
		c-7.4,2.6-14.3,4.7-21,6.3c-3.8,0.9-8,1.4-12.9,1.4c-2,0-4.2-0.1-6.9-0.2c-5.7-0.3-11.7-1-17.6-3.4c-1.7-0.7-3.6-1-5.4-1.4
		c-0.9-0.2-1.8-0.3-2.6-0.5c-0.3-0.1-0.7-0.1-1-0.2c-1-0.2-1.9-0.4-2.8-0.8c-13.1-5.3-22.7-11.7-30.1-20c-1.4-1.6-2.6-2.7-3.7-3.7
		c-7.5-6.2-12.1-14.6-15.8-22c-1.3-2.5-2.6-5.2-3.4-8.1c-2.2-7.4-3.8-13.6-5.1-19.5c-0.5-2.1-0.6-4.4-0.6-6.6c0-0.9-0.1-1.8-0.1-2.7
		c-0.1-0.7,0-1.4,0-2.1c0-0.3,0-0.6,0-1c-0.1-5.7,0-13.1,2.1-20c0.5-1.7,1-3.4,1.5-5.1c2-6.7,4-13.7,7.8-19.9
		c3.5-5.7,7.7-11.4,12.9-17.2c0.5-0.6,1.1-1.1,1.8-1.5c0.3-0.2,0.6-0.5,1-0.8c0.3-0.2,0.6-0.5,0.9-0.7c0.7-0.6,1.4-1.2,2-1.9
		c5.9-6.8,13.5-10.9,20.8-14.5C64,18.3,68,16.7,72,15.5c2.5-0.7,5-1.5,7.7-1.7c1.5-0.1,3-0.6,4.4-1.1l0.6-0.2
		c2.8-0.9,5.5-1.4,8.3-1.4c1.5,0,2.9-0.1,4.4-0.1c1.6-0.1,3.2-0.1,4.8-0.1c6.3,0,12.5,1.2,18.5,2.4l1.1,0.2c2.4,0.5,4.8,1.3,7.1,2.3
		l0.2,0.1c1.1,0.5,2.2,1,3.4,1.3c8.4,1.8,15.3,6.3,22.2,11.2c2.3,1.6,4.4,3.5,6.5,5.3c0.9,0.8,1.7,1.5,2.6,2.3
		c2.7,2.3,4.7,4.5,6.2,6.8c0.6,0.9,1.4,1.8,2.3,2.6c2.7,2.4,4.7,5.4,6.3,7.9c7.1,11.2,11.6,22.2,13.7,33.6
		c1.2,6.3,1.7,11.4,1.8,16.2C194.3,107.4,193.7,112,192.5,117.2z"/>
</g>
<g display="none">
	<g display="inline">
		<path d="M106.8,63.2c-0.2-0.2-0.4-0.4-0.8-0.6c0,0-0.1,0-0.1,0c-0.9,0-1.6,0.3-2.3,0.7c-0.6,0.4-1.2,1-1.7,1.6
			c-0.5,0.6-0.9,1.3-1.2,2.1c-0.3,0.7-0.6,1.5-0.7,2.1c-0.1,0.1-0.1,0.2-0.1,0.4v0.2c0,0.9,0.1,1.7,0.3,2.2c0.2,0.5,0.5,1,0.9,1.3
			s0.7,0.5,1.1,0.6c0.3,0.1,0.6,0.1,0.9,0.1h0c0.9,0,1.6-0.5,2.2-1.3c0.6-0.8,1-1.7,1.3-2.7c0.3-1,0.5-2,0.6-3c0.1-1,0.1-1.8,0-2.5
			C107.2,63.8,107,63.4,106.8,63.2z"/>
		<path d="M103.1,74.4L103.1,74.4c-0.3,0-0.6-0.1-1-0.2c-0.5-0.1-0.9-0.4-1.3-0.7c-0.4-0.4-0.7-0.9-1-1.5c-0.3-0.6-0.4-1.4-0.4-2.4
			v-0.2c0-0.2,0-0.4,0.1-0.6c0.1-0.6,0.4-1.3,0.7-2.1c0.3-0.8,0.8-1.6,1.3-2.2c0.5-0.7,1.1-1.3,1.8-1.7c0.7-0.5,1.6-0.8,2.6-0.8
			c0.2,0,0.3,0,0.5,0.1c0.3,0.2,0.6,0.4,0.8,0.7c0.2,0.3,0.4,0.8,0.6,1.5c0.1,0.7,0.1,1.5,0,2.6c-0.1,1-0.3,2-0.6,3.1
			c-0.3,1.1-0.8,2-1.4,2.8C105,73.8,104.2,74.3,103.1,74.4L103.1,74.4z M105.9,63c-0.7,0.1-1.4,0.3-2,0.6c-0.6,0.4-1.1,0.9-1.5,1.5
			c-0.5,0.6-0.8,1.3-1.1,2c-0.3,0.7-0.5,1.4-0.7,2c0,0.1-0.1,0.2-0.1,0.2v0.2c0,0.9,0.1,1.5,0.3,2c0.2,0.5,0.5,0.9,0.7,1.1
			c0.3,0.3,0.6,0.4,0.8,0.5c0.3,0.1,0.6,0.1,0.8,0.1c0.7,0,1.3-0.4,1.8-1.1c0.5-0.7,1-1.6,1.3-2.5c0.3-1,0.5-2,0.6-2.9
			c0.1-1,0.1-1.8,0-2.3c-0.1-0.6-0.3-0.9-0.4-1C106.3,63.3,106.1,63.2,105.9,63z"/>
	</g>
	<g display="inline">
		<path d="M51.2,133.3c0.2,2.3,0.2,4.4,0.2,6.2c0-0.3-0.1-0.7-0.1-1c-0.2-1.4-0.4-3-0.5-4.4c0-0.3-0.1-0.5-0.1-0.8
			c-0.4-4.8-0.1-9.7,0.1-14.5C50.6,123.6,50.8,128.5,51.2,133.3z"/>
	</g>
	<g display="inline">
		<g>
			<path d="M57.5,103.4c9.2,4.5,13,6.4,18.6,9.2L77,113c0.3,0.1,0.5,0.2,0.7,0.4c0.2,0.1,0.4,0.2,0.7,0.3l-0.4,0.8
				c-0.2-0.1-0.4-0.2-0.7-0.3c-0.2-0.1-0.5-0.2-0.8-0.4l-0.9-0.4c-4.8-2.3-7.1-3.5-15.2-7.5l-0.5-0.2c-1-0.5-2-1-3.1-1.3
				c-0.6-0.2-1.1-0.2-1.6-0.2c-2.1,0-3.7,1.3-4.2,3.5c-0.3,1.4-0.3,2.8-0.3,4.3v0.1c0,2.3,0.1,4.6,0,6.9c-0.1,4.8-0.5,9.7-0.1,14.5
				c0,0.3,0.1,0.6,0.1,0.8c0.1,1.5,0.3,2.8,0.5,4.4c0,0.3,0.1,0.6,0.1,1c0,0,0,0,0,0c0,0.2,0,0.3,0,0.4c0,0.3,0.1,0.5,0.2,0.8
				c0.2,1.3,0.3,2.2,0.3,2.4l-0.8,1l-1.5-1.2c-1-1.6-1.4-4.1-1.4-6.3c0-0.5,0-1-0.1-1.5c0-0.5-0.1-0.9-0.1-1.4c0-13.3,0-18.2,0-23.5
				v-2.2c0-0.8,0-1.6,0.1-2.4c0.4-3.1,2.4-4.6,5.4-3.9C54.9,102.1,56.2,102.7,57.5,103.4z"/>
		</g>
		<g>
			<path d="M51.2,144.8l-2.1-1.6c-1.3-2.2-1.5-5.3-1.5-6.6c0-0.4,0-0.9-0.1-1.4c-0.1-0.5-0.1-1-0.1-1.5c0-13.1,0-18,0-23.2l0-2.4
				c0-0.8,0-1.6,0.1-2.5c0.4-3.4,2.7-5.1,6-4.3c1.4,0.3,2.8,1,4.1,1.6c9,4.4,12.9,6.3,18.3,9l1.9,1c0.2,0.1,0.4,0.2,0.6,0.3l0.5,0.2
				l-0.8,1.7l-9.7-4.8l-8.8-4.3c-0.9-0.5-1.9-1-3-1.2c-2.7-0.7-4.7,0.4-5.3,2.9c-0.3,1.3-0.3,2.8-0.3,4.2v0.1c0,0.9,0,1.9,0,2.8
				c0,1.3,0,2.7,0,4.1c0,1-0.1,1.9-0.1,2.9c-0.1,3.8-0.3,7.7,0,11.5l0.1,0.8c0.1,1.5,0.3,2.7,0.5,4.3c0,0.2,0.1,0.4,0.1,0.6l0.1,0.4
				c0,0.2,0,0.3,0,0.5c0,0.2,0.1,0.4,0.1,0.7l0.4,2.7L51.2,144.8z M50,142.6l1.1,0.8l0.4-0.5l-0.3-2.2c-0.1-0.2-0.1-0.5-0.2-0.8
				c0-0.2,0-0.3,0-0.5l-0.1-0.3c0-0.2-0.1-0.4-0.1-0.6c-0.2-1.7-0.4-2.9-0.5-4.4l0-0.4c0-0.2,0-0.3,0-0.5c-0.3-3.9-0.2-7.8,0-11.6
				c0-1,0.1-2,0.1-2.9c0-1.3,0-2.7,0-4c0-0.9,0-1.9,0-2.8v-0.1c0-1.5,0-3,0.4-4.4c0.7-3,3.2-4.5,6.5-3.7c0.3,0.1,0.5,0.1,0.8,0.2
				c-0.2-0.1-0.4-0.2-0.5-0.3c-1.3-0.6-2.6-1.3-3.8-1.5c-0.5-0.1-0.9-0.1-1.3-0.1c-2.6,0-3.3,2-3.5,3.6c-0.1,0.8-0.1,1.6-0.1,2.3
				l0,2.4c0,5.2,0,10.1,0,23.2c0,0.4,0,0.9,0.1,1.4c0.1,0.5,0.1,1,0.1,1.5C48.7,139,49.2,141.2,50,142.6z"/>
		</g>
	</g>
	<g display="inline">
		<g>
			<path d="M61.4,49.3c0,3.2,0,6.4,0,9.6c0,6.9-0.1,14,0,20.9c0.1,9.2,4.1,16.3,11.8,21.2c5.8,3.7,11,7,16,10
				c3.9,2.4,7.8,3.6,11.7,3.6c3.9,0,7.9-1.2,11.8-3.6c2.9-1.8,5.9-3.7,8.8-5.5c2.1-1.3,4.3-2.7,6.4-4c8.3-5.1,12.5-12.6,12.4-22.3
				v-1.1c0-5.8,0-11.8,0-17.5c0-3.5,0-7,0-10.5c0-1.1,0-2.3-0.1-3.4c-0.7-6.3-5.3-10.9-11.5-11.6c-1.3-0.1-2.5-0.1-3.9-0.1h-0.5
				c-3.8,0-7.7,0-11.5,0h-11.8H89.3c-3.8,0-7.7,0-11.5,0c-1.5,0-3,0-4.8,0.2c-5.5,0.3-9.9,4.9-11,9.3C61.6,46.1,61.4,47.7,61.4,49.3
				z M50.8,83.2h1.3c2.2,0,3.9,0,5.5-0.1c2.4-0.1,3.2-0.9,3.1-3.2v-0.1c-0.1-6.5-0.2-13.1-0.4-18.8c-0.1-3.2-0.2-6.4-0.3-9.7
				c-0.1-1.9-0.1-3.9-0.2-5.8c0-0.6,0-1.3,0-1.9c0.4-5.7,4.2-9.7,9.9-10.4c0.7-0.1,1.3-0.1,1.8-0.1c0.3,0,0.5,0,0.8,0
				c0.3,0,0.5,0,0.8,0c15.4,0,30.7,0,46.1,0h10.1c1.1,0,2.5,0,3.8,0.3c5.3,1.2,8.5,5.1,8.6,10.4c0.1,3.2,0,6.5,0,9.7
				c0,1,0,1.9,0,2.9c0,4.1-0.1,8.1-0.1,12.2c0,2.7-0.1,5.5-0.1,8.2c0,0.2,0,0.4,0,0.7c0,0.2,0,0.4,0,0.7c0,0.8,0,1.5,0.1,2.1
				c0.1,1.5,1,2.2,2.5,2.3c1.1,0,2.2,0,3.3,0c0.7,0,1.4,0,2,0c0.7,0,1.3,0,1.9,0c5.5,0.3,9.4,4.1,9.8,9.6c0.1,0.9,0.1,1.9,0,2.8
				c0,0.3,0,0.7,0,1c0,8.3,0,16.6,0,24.9v12.4c0,0.9,0,1.8,0,2.6c0,0.8,0,1.5,0,2.3c0,1.1,0,2.5,0.1,3.8c0.3,3.1-0.8,6.2-2.8,8.4
				c-2.3,2.5-5.6,3.8-9.3,3.6c-1.3-0.1-2.7-0.1-4.4-0.1c-1.2,0-2.4,0-3.6,0c-1.2,0-2.4,0-3.6,0H55.2h-0.5h-1.1c-1.4,0-1.8,0-3.2-0.1
				c-5.1-0.5-9-4.3-9.7-9.5c-0.1-1-0.1-2.1-0.1-3.1v-0.8c0-14.5,0-29.1,0-43.6v-0.7c0-1,0-2.1,0.1-3.1
				C41.3,86.7,46.3,83.2,50.8,83.2z M42.8,142.4c1.1,5.3,5.7,9.3,11,9.9c0.9,0.1,1.8,0.1,2.4,0.1c0.3,0,0.7,0,1,0c0.3,0,0.7,0,1,0
				h42.5c0,0,0.1,0,0.1,0c4.5,0,8.9,0,13.4,0c4.5,0,8.9,0,13.4,0c6.9,0,12.6,0,17.8,0c8.8,0,14.1-5.3,14.2-14.1
				c0.1-8.8,0.1-17.8,0-26.5c0-4.4,0-8.8,0-13.2c0-1.7-0.1-3.6-0.9-5.3c-1.3-3-3.7-4.2-6.9-3.7c-1.8,0.3-3.3,1.1-4.9,2.2l-5.9,3.7
				c-3.1,1.9-6.2,3.9-9.2,5.8c-1,0.6-1.9,1.2-2.9,1.8l-3.7,2.3c-4.4,2.8-9,5.6-13.4,8.5c-3.5,2.2-7.2,3.2-11.3,3.2
				c-3.6-0.1-6.9-1.1-10.3-3.3c-10.4-6.6-20.9-13.2-31.1-19.6l-3.5-2.2c-1.6-1-3.2-2-5.2-2.4c-0.5-0.1-1-0.1-1.5-0.1
				c-2.9,0-5,1.6-5.9,4.5c-0.6,1.9-0.7,3.9-0.7,5.8c0,4.2,0,8.3,0,12.4c0,8.2,0,16.6,0,24.9C42.2,139,42.4,140.8,42.8,142.4z"/>
		</g>
		<g>
			<path d="M149.8,155.1c-0.2,0-0.5,0-0.7,0c-1.3-0.1-2.7-0.1-4.3-0.1c-0.8,0-1.6,0-2.4,0l-1.2,0c-1.2,0-2.4,0-3.6,0l-84.8,0
				c-0.8,0-1.4,0-2.5-0.1c-5.6-0.6-9.9-4.7-10.6-10.3c-0.1-1.1-0.1-2.2-0.1-3.2v-0.7c0-14.5,0-29.1,0-43.6v-0.7c0-1,0-2.1,0.1-3.2
				c0.7-7,6.3-10.9,11.2-10.9h1.3c2.2,0,3.9,0,5.5-0.1c2-0.1,2.2-0.5,2.2-2.2v-0.1c-0.1-6.5-0.2-13.2-0.4-18.8
				c-0.1-2.4-0.1-4.8-0.2-7.3l-0.1-2.4c-0.1-1.9-0.1-3.9-0.2-5.8c0-0.6,0-1.3,0-2c0.4-6.2,4.6-10.6,10.8-11.3
				c0.7-0.1,1.4-0.1,1.9-0.1h0.8c0.3,0,0.5,0,0.8,0c15.4,0,30.7,0,46.1,0h10.1c1,0,2.5,0,4,0.3c5.8,1.3,9.3,5.5,9.4,11.4
				c0.1,3.3,0,6.7,0,9.7l0,2.9c0,4.1-0.1,8.1-0.1,12.2l-0.1,8.8c0,0.2,0,0.5,0,0.6c0,0.8,0,1.4,0.1,2c0.1,1,0.5,1.3,1.5,1.4
				c1.1,0,2.2,0,3.3,0c1.4,0,2.9,0,4,0c6,0.3,10.3,4.5,10.8,10.6c0.1,1,0.1,2,0.1,2.9c0,0.3,0,0.7,0,1c0,5.5,0,11.1,0,16.6l0,20.7
				c0,0.9,0,1.8,0,2.6c0,0.8,0,1.5,0,2.3c0,0.9,0,2.4,0.1,3.7c0.3,3.4-0.8,6.7-3.1,9.2C156.9,153.7,153.5,155.1,149.8,155.1z
				 M148.8,153.1c0.1,0,0.3,0,0.4,0c3.4,0.2,6.4-1,8.5-3.3c1.9-2,2.8-4.8,2.6-7.7c0-0.1,0-0.2,0-0.3C159.1,148,155,152,148.8,153.1z
				 M41.5,141.3v0.1c0,1,0,2,0.1,3c0.6,4.7,4.1,8.1,8.8,8.6c0.9,0.1,1.4,0.1,2,0.1c-5.3-1-9.6-5.2-10.7-10.5
				C41.7,142.2,41.6,141.8,41.5,141.3z M101.1,151.4l13.1,0c4.5,0,8.9,0,13.4,0c6.9,0,12.6,0,17.8,0c8.3,0,13.2-4.8,13.2-13.1
				c0.1-8.9,0.1-17.8,0-26.5c0-4.4,0-8.8,0-13.2c0-1.6-0.1-3.3-0.8-4.9c-1.1-2.6-3-3.6-5.8-3.1c-1.6,0.3-3,1.1-4.6,2l-15.2,9.5
				c-1,0.6-1.9,1.2-2.9,1.8l-3.7,2.3c-4.8,3-9.1,5.7-13.4,8.5c-3.7,2.3-7.5,3.4-11.9,3.3c-3.8-0.1-7.3-1.2-10.8-3.4
				C79,108,68.4,101.2,58.3,94.9l-3.5-2.2c-1.5-0.9-3-1.9-4.8-2.2c-0.5-0.1-0.9-0.1-1.4-0.1c-2.4,0-4.1,1.3-4.9,3.8
				c-0.6,1.8-0.6,3.7-0.6,5.5v12.4c0,8.1,0,16.6,0,24.9c0,1.9,0.2,3.6,0.5,5.1c1,4.8,5.2,8.6,10.2,9.1c0.8,0.1,1.7,0.1,2.3,0.1h1
				c0.3,0,0.6,0,1,0L101.1,151.4L101.1,151.4z M92.1,113.8c2.7,1.4,5.4,2.2,8.3,2.2c3.6,0.1,6.8-0.7,9.8-2.4
				C104.1,116.3,98,116.4,92.1,113.8z M89.3,36.1c-3.8,0-7.6,0-11.5,0c-1.4,0-3,0-4.8,0.1c-5,0.3-9.1,4.5-10.1,8.5
				c-0.4,1.5-0.6,3-0.6,4.6c0,2.1,0,4.3,0,6.4l0,3.2c0,6.8-0.1,13.9,0,20.9c0.1,8.8,3.9,15.7,11.3,20.4c6.2,4,11.3,7.2,16,10
				c7.4,4.6,15,4.5,22.5-0.1c2.9-1.8,5.9-3.7,8.8-5.5c2.2-1.3,4.3-2.7,6.4-4c8-4.9,12-12.2,12-21.5v-1.1c0-4.7,0-9.4,0-14l0-3.4
				c0-3.5,0-7,0-10.5c0-1.1,0-2.2-0.1-3.3c-0.6-5.8-4.9-10.1-10.6-10.7c-1.2-0.1-2.4-0.1-3.8-0.1h-0.5c-3.8,0-7.7,0-11.5,0H89.3z
				 M141.3,82.2c-0.6,7.1-3.6,12.9-8.9,17.4l14-8.8c1.7-1.1,3.3-2,5.3-2.3c3.7-0.6,6.5,0.9,8,4.3c0.3,0.6,0.5,1.2,0.6,1.8
				c0-0.8,0-1.6-0.1-2.3c-0.4-5-3.9-8.5-8.9-8.7c-1.1-0.1-2.5,0-3.9,0c-1.1,0-2.2,0-3.4,0C142.9,83.5,141.9,83,141.3,82.2z
				 M48.7,88.4c0.5,0,1.1,0.1,1.7,0.2c2.2,0.4,3.9,1.5,5.5,2.5l3.4,2.2c3.2,2,6.6,4.1,9.9,6.2c-5-4.2-7.9-9.7-8.7-16.2
				c-0.7,0.5-1.6,0.8-3,0.9c-1.6,0.1-3.3,0.1-5.6,0.1h-1.3c-4,0-8.6,3.2-9.2,9.1c-0.1,0.6-0.1,1.2-0.1,1.9c0.1-0.5,0.2-1,0.4-1.5
				C42.9,90.3,45.4,88.4,48.7,88.4z M72.4,34.2l-0.7,0c-0.4,0-1.1,0-1.7,0.1c-5.2,0.6-8.6,4.2-9,9.4c0,0.3,0,0.6,0,1
				c0-0.1,0.1-0.3,0.1-0.4c1.2-4.7,6-9.7,11.9-10c0,0,0,0,0,0C72.8,34.2,72.6,34.2,72.4,34.2z M128.6,34.2c0.1,0,0.2,0,0.3,0
				c5.9,0.6,10.5,4.6,12,10.2c0-0.2,0-0.3,0-0.5c-0.1-4.9-3-8.4-7.8-9.5c-1.3-0.3-2.6-0.3-3.6-0.3H128.6z"/>
		</g>
	</g>
	<g display="inline">
		<g>
			<path d="M81,85.8c1.2,1.9,2.6,3.3,4.3,4.4c1.6,1,3.4,1.8,5.3,2.2c1.9,0.5,3.9,0.7,6,0.8c2.3,0.1,4.4,0.1,6.3,0.1
				c1,0,2.2,0,3.6-0.1c1.6,0,3.3-0.3,5.1-0.7c1.8-0.4,3.6-1.2,5.5-2.2c1.8-1,3.6-2.4,5.1-4.3c1.5-1.9,2.8-4.3,3.7-7.2
				c0.9-2.9,1.4-6.5,1.4-10.8c0-3.8-0.3-7.2-0.8-10.3c-0.6-3.1-1.8-5.8-3.5-8c-1.8-2.2-4.3-4-7.5-5.2c-3.2-1.2-7.5-1.8-12.6-1.7
				c-3.7,0-6.9,0.4-9.5,1.1c-2.7,0.7-5,1.7-6.9,2.8c-1.9,1.2-3.5,2.6-4.7,4.2c-1.2,1.6-2.2,3.3-2.9,5.2c-0.7,1.8-1.2,3.8-1.4,5.8
				c-0.2,2-0.4,4-0.4,6c0,4.2,0.3,7.7,1,10.6S79.8,83.9,81,85.8z M98.2,50.4c0.5-0.2,1-0.3,1.5-0.4c0.2-0.1,0.5-0.2,0.9-0.2
				c0.4-0.1,0.6-0.1,0.7-0.1c1.1-0.2,2.4-0.3,4-0.3c1.6,0.1,3.3,0.4,5,0.9c1.7,0.5,3.4,1.4,5,2.5c1.6,1.1,2.9,2.6,3.9,4.5
				c0,0.1,0,0.1,0,0.2c0,0,0,0.1,0,0.1c0,0.1,0,0.1,0,0.1c0,0,0,0.1,0.1,0.3c0,0.2,0.1,0.3,0.1,0.3c0,0,0,0,0,0.1
				c0.5,1.5,0.7,3.2,0.7,5.1c-0.1,1.9-0.3,3.8-0.8,5.6c0,0.3-0.1,0.5-0.1,0.7c-0.1,0.5-0.2,0.6-0.2,0.7c0,0,0,0,0,0.1
				c-0.4,0.9-0.7,1.8-1,2.5c-0.2,0.7-0.7,1.5-1.2,2.3c0,0,0,0.1,0,0.1c0,0,0,0-0.1,0.2c0,0,0,0.1,0,0.1c0,0-0.1,0-0.1,0.1
				c-0.5,0.5-1,1-1.6,1.5c-0.1,0.1-0.2,0.2-0.4,0.3l-0.2,0.1c-0.7,0.5-1.6,0.8-2.7,0.9c-0.4,0-0.9,0-1.3,0c-0.4,0-0.8-0.1-1.1-0.3
				c-0.1-0.1-0.4-0.3-0.7-0.6c-0.5-0.4-0.6-0.5-0.6-0.5c0,0-0.1-0.1-0.2-0.1h-0.1c-0.1,0-0.1,0-0.2,0.1c-0.8,0.7-1.6,1.3-2.3,1.8
				c-0.7,0.4-1.6,0.7-2.7,0.7h-0.8c-0.5-0.2-1-0.4-1.5-0.5c-0.5-0.1-1-0.3-1.4-0.6c-0.8-0.6-1.5-1.3-2.1-2.1c-0.6-0.8-1-1.7-1.4-2.6
				c-0.2-0.5-0.3-1.1-0.4-1.9c0-0.7-0.1-1.5-0.2-2.3c0-0.4,0-0.7,0-0.9c0-0.2,0-0.5,0-0.9c0.1-0.8,0.3-1.7,0.6-2.6
				c0.3-0.8,0.7-1.7,1.2-2.5c0,0,0,0,0-0.1l0.2-0.2c0.1-0.1,0.2-0.2,0.5-0.5c0.3-0.4,0.4-0.4,0.4-0.4c0,0,0.1,0,0.1,0
				c1.2-1.2,2.6-2.1,4.3-2.7c1.7-0.6,3.4-0.7,5-0.4c0.2,0,0.4,0.1,0.6,0.2c0.2,0.1,0.5,0.1,0.7,0h0.1c0.1,0,0.2,0,0.3-0.1
				c0.1,0,0.2,0,0.2-0.1h0.1c0.2,0,0.5,0,0.8,0.1c0.3,0.1,0.5,0.3,0.7,0.4c0,0.1,0.1,0.3,0.1,0.6c0.1,0.4,0.1,0.6,0.2,0.7v0.1
				c0,0.8,0,1.6-0.1,2.4c-0.1,0.8-0.2,1.6-0.3,2.4c-0.1,0.8-0.2,1.6-0.2,2.4c0,0.8,0,1.6,0.2,2.5c0,0.1,0,0.3,0.1,0.6
				c0,0.2,0.1,0.4,0.1,0.4c0,0.1,0.1,0.2,0.2,0.5c0.1,0.2,0.2,0.4,0.3,0.5c0.1,0.1,0.1,0.3,0.3,0.6c0.2,0.3,0.3,0.5,0.4,0.6
				c0,0,0.1,0.1,0.2,0.1c0.1,0,0.1,0.1,0.3,0.1c0.1,0.1,0.3,0.1,0.5-0.1c0.1-0.1,0.2-0.1,0.4-0.3c1-1,1.6-2.1,2-3.3
				c0.4-1.2,0.6-2.5,0.8-3.8c0.1-0.7,0.1-1.3,0.2-1.8c0-0.5,0-1.2-0.1-1.8c-0.2-1.7-1-3.2-2.2-4.6c-0.1-0.1-0.3-0.3-0.5-0.5
				c-0.2-0.2-0.4-0.4-0.6-0.6c-0.2-0.2-0.3-0.3-0.4-0.4l-0.1-0.1c-0.1-0.2-0.2-0.2-0.3-0.3c-0.1-0.1-0.2-0.1-0.3-0.2
				c-0.2-0.1-0.4-0.2-0.6-0.4c-0.2-0.1-0.4-0.3-0.6-0.5c-0.2-0.1-0.4-0.3-0.5-0.4c-0.8-0.4-1.4-0.8-2-1.1c-0.6-0.3-1.3-0.4-2.2-0.4
				c0,0,0,0-0.1,0c-0.1,0-0.2,0.1-0.4,0.1h-1.8c-0.3,0-0.7,0-1,0c-0.4,0-0.6,0.1-0.7,0.1c-1,0.3-2.1,0.7-3.2,1.2
				c-1.2,0.6-2.3,1.2-3.3,2c-1,0.7-1.9,1.6-2.7,2.5c-0.8,1-1.3,2-1.4,3c0,0.2-0.1,0.5-0.2,0.9c-0.1,0.4-0.1,0.8-0.2,1.2
				c-0.1,0.3-0.1,0.6-0.2,1l-0.1,0.3c-0.1,0.4-0.1,0.6-0.1,0.7c-0.2,0.6-0.2,1.4-0.1,2.4c0.1,0.9,0.3,1.8,0.5,2.8
				c0.2,1,0.5,1.9,0.8,2.8c0.3,0.8,0.6,1.5,0.9,2.3c0.5,1,1.1,2,1.9,2.9c0.8,0.9,1.6,1.7,2.5,2.3c0,0,0.1,0,0.1,0c0,0,0.1,0,0.3,0.1
				c0.2,0.1,0.4,0.2,0.5,0.2c0.1,0,0.2,0.1,0.2,0.1c0.1,0,0.1,0.1,0.2,0.1c0,0,0.1,0.1,0.1,0.1c0.2,0.2,0.3,0.2,0.4,0.3
				c0.3,0.1,0.6,0.2,1,0.3c0.3,0.1,0.7,0.2,1.2,0.2c0.4,0,0.8,0.1,1.2,0.1h0.9c0.2,0.1,0.3,0,0.6,0c0.2,0,0.4,0,0.5-0.1l0.2,0.1
				c0.1,0.1,0.3,0.1,0.8,0.1c0.5,0,0.8,0,1,0h0.2c0.2,0,0.5-0.1,1-0.3c0.5-0.2,0.7-0.2,0.8-0.3c1.1-0.3,2-0.5,2.5-0.8
				c0.6-0.2,1.1-0.5,1.5-0.7c0.4-0.2,0.7-0.4,1-0.6c0.3-0.2,0.6-0.4,1-0.6c0,0,0,0,0.1,0c0,0,0.1-0.1,0.6-0.2c0.1,0,0.2,0,0.3-0.1
				c0.5-0.1,1.2-0.1,1.8,0.1c0.3,0.1,0.4,0.2,0.5,0.5c0,0,0,0.1,0.1,0.1c0.1,0.1,0.2,0.2,0.2,0.5c0,0.3,0,0.5-0.1,0.8
				c-0.1,0.3-0.1,0.5-0.3,0.8c-0.1,0.2-0.2,0.3-0.3,0.4c0,0-0.1,0-0.1,0.1c-0.5,0.8-1.2,1.5-2,2.1c-0.8,0.6-1.7,1.1-2.7,1.5
				c-1,0.4-2,0.7-3,0.9c-1.1,0.2-2.1,0.3-3,0.4h-3.1c0,0-0.1,0-0.2,0c-0.1,0-0.2,0-0.3,0c-0.1,0-0.3-0.1-0.5-0.1c-0.2,0-0.4,0-0.5,0
				h-0.6l-0.3,0c-0.6-0.4-1.3-0.6-1.9-0.8c-0.6-0.1-1.2-0.3-1.8-0.5c-1-0.4-1.8-0.8-2.5-1.4c-0.7-0.6-1.5-1.2-2.2-1.9
				c-1-0.8-1.8-1.8-2.4-2.9c0,0,0-0.1-0.1-0.1c0,0-0.1-0.1-0.3-0.5c-0.2-0.4-0.2-0.6-0.3-0.6c-0.6-1.2-1.1-2.3-1.6-3.4
				c-0.4-1-0.7-2.2-0.9-3.6c0-0.2-0.1-0.5-0.1-0.9c0-0.3,0-0.5-0.1-0.7c0-0.2-0.1-0.5-0.1-1.2c0-0.7-0.1-1.1-0.1-1.2
				c0,0,0-0.1,0.1-0.2c0.1-0.2,0.1-0.3,0.1-0.4c0,0,0-0.2,0-0.5c0-0.3,0-0.6,0-1c0-0.3,0-0.6,0-0.9c0-0.3,0-0.5,0-0.5
				c0-0.3,0.1-0.5,0.2-0.8c0-0.1,0.1-0.3,0.1-0.4c0-0.1,0.1-0.3,0.1-0.4c0,0,0,0,0-0.1c0-0.1,0-0.3,0.1-0.6c0-0.1,0.1-0.5,0.1-0.6
				c0.3-0.9,0.7-1.7,1.1-2.4c0.5-0.7,0.9-1.4,1.4-2.2c1.6-2.6,3.8-4.6,6.5-5.9C97,50.9,97.6,50.6,98.2,50.4z"/>
		</g>
		<g>
			<path d="M102.9,93.8c-2,0-4.1,0-6.3-0.1c-2.1-0.1-4.2-0.3-6.1-0.8c-2-0.5-3.8-1.2-5.4-2.3c-1.7-1.1-3.2-2.6-4.4-4.5
				c-1.2-1.9-2.2-4.4-2.9-7.3c-0.7-2.9-1-6.5-1-10.7c0-2,0.1-4,0.4-6c0.2-2,0.7-4,1.4-5.9c0.7-1.9,1.7-3.7,2.9-5.3
				c1.2-1.7,2.9-3.1,4.8-4.4c2-1.2,4.3-2.2,7-2.9c2.7-0.7,5.9-1.1,9.6-1.1c5.2-0.1,9.5,0.5,12.8,1.7c3.3,1.2,5.9,3,7.7,5.3
				c1.8,2.3,3,5.1,3.6,8.3c0.6,3.1,0.9,6.6,0.9,10.4c0,4.3-0.5,8-1.4,10.9c-1,3-2.3,5.4-3.8,7.3c-1.6,1.9-3.4,3.4-5.3,4.4
				c-1.9,1-3.8,1.8-5.6,2.2c-1.8,0.5-3.5,0.7-5.2,0.7C105.1,93.8,103.8,93.8,102.9,93.8z M103.9,43.4c-0.3,0-0.7,0-1,0
				c-3.6,0-6.8,0.4-9.4,1.1c-2.6,0.7-4.9,1.6-6.7,2.8c-1.9,1.2-3.4,2.6-4.6,4.1C81,53,80,54.7,79.4,56.5c-0.7,1.8-1.1,3.7-1.4,5.7
				c-0.2,2-0.4,4-0.4,5.9c0,4.1,0.3,7.6,1,10.5c0.7,2.8,1.6,5.1,2.8,7c1.2,1.8,2.5,3.2,4.1,4.2c1.6,1,3.3,1.7,5.2,2.2
				c1.8,0.5,3.8,0.7,5.9,0.8c2.2,0.1,4.3,0.1,6.3,0.1c1,0,2.2,0,3.6-0.1c1.6,0,3.2-0.3,4.9-0.7c1.8-0.4,3.6-1.1,5.4-2.1
				c1.8-0.9,3.4-2.3,5-4.2c1.5-1.8,2.7-4.1,3.6-7c0.9-2.8,1.4-6.4,1.4-10.6c0-3.7-0.3-7.1-0.8-10.2c-0.6-3-1.7-5.6-3.4-7.8
				c-1.7-2.2-4.2-3.8-7.3-5C112.4,44,108.5,43.4,103.9,43.4z M103.5,88.1c0,0-0.1,0-0.2,0l-0.2,0c-0.1,0-0.1,0-0.2,0l-0.2,0
				c0,0-0.1,0-0.4-0.1c-0.2,0-0.4,0-0.5,0h-0.6l-0.5-0.1c-0.7-0.4-1.2-0.6-1.7-0.7c-0.6-0.1-1.2-0.3-1.9-0.6c-1-0.4-1.9-0.9-2.6-1.4
				c-0.7-0.6-1.5-1.2-2.3-1.9c-1-0.8-1.8-1.8-2.4-2.9l-0.1-0.1c-0.1-0.1-0.2-0.2-0.4-0.7c-0.1-0.3-0.2-0.4-0.2-0.5l-0.1-0.1
				c-0.6-1.2-1.2-2.3-1.6-3.5c-0.4-1.1-0.7-2.2-1-3.6c0-0.2-0.1-0.5-0.1-0.9c0-0.1,0-0.4-0.1-0.5l-0.1-0.2c0-0.3-0.1-0.6-0.1-1.2
				c-0.1-0.9-0.1-1.1-0.1-1.1l0-0.1c0-0.1,0-0.2,0.1-0.3c0.1-0.2,0.1-0.2,0.1-0.2c0,0,0-0.2,0-0.5c0-0.3,0-0.6,0-0.9
				c0-0.3,0-0.6,0-0.9c0-0.3,0-0.5,0-0.5c0-0.3,0.1-0.7,0.2-1c0-0.1,0.1-0.3,0.1-0.4c0-0.1,0.1-0.2,0.1-0.3c0-0.2,0-0.4,0.1-0.7
				c0,0,0-0.2,0-0.3l0-0.3c0.3-1.1,0.7-1.9,1.2-2.6c0.5-0.7,0.9-1.4,1.4-2.1c1.7-2.7,4-4.7,6.7-6.1c0.4-0.2,1-0.4,1.6-0.6
				c0.6-0.2,1.1-0.4,1.6-0.5c0.2-0.1,0.5-0.1,0.9-0.2c0.5-0.1,0.6-0.1,0.7-0.1c1.1-0.2,2.5-0.4,4.1-0.3c1.7,0.1,3.4,0.4,5.1,0.9
				c1.7,0.5,3.5,1.4,5.1,2.6c1.6,1.2,3,2.7,4.1,4.7l0.1,0.3l0,0.1c0.1,0.1,0.1,0.3,0.1,0.4c0.1,0.3,0.1,0.4,0.1,0.4
				c0.5,1.5,0.8,3.2,0.7,5.2c-0.1,1.9-0.3,3.9-0.8,5.7c0,0.2-0.1,0.3-0.1,0.5l0,0.2c-0.1,0.5-0.2,0.7-0.3,0.9
				c-0.4,0.9-0.7,1.8-1,2.5c-0.2,0.8-0.7,1.6-1.3,2.4l0,0c0,0,0,0.1-0.1,0.2l0,0.1L117,76c0,0,0,0-0.1,0.1c-0.5,0.5-1,1-1.6,1.5
				c-0.1,0.1-0.3,0.2-0.4,0.3l-0.2,0.1c-0.8,0.6-1.8,0.9-2.9,1c-0.5,0-0.9,0-1.3,0c-0.5,0-1-0.2-1.4-0.4c-0.2-0.1-0.4-0.3-0.8-0.6
				c-0.3-0.2-0.5-0.4-0.6-0.5c-0.8,0.7-1.6,1.3-2.3,1.7c-0.8,0.5-1.8,0.7-2.9,0.8l-0.9,0l-0.1,0c-0.5-0.2-0.9-0.4-1.4-0.5
				c-0.6-0.1-1-0.4-1.5-0.6c-0.9-0.7-1.6-1.4-2.2-2.3c-0.6-0.8-1.1-1.8-1.4-2.7c-0.2-0.5-0.4-1.2-0.4-2.1c0-0.7-0.1-1.5-0.2-2.3
				c0-0.4,0-0.7,0-0.9c0-0.3,0-0.6,0-1c0.1-0.9,0.3-1.8,0.6-2.7c0.3-0.8,0.7-1.7,1.2-2.5l0-0.1l0.2-0.2c0.1-0.1,0.2-0.2,0.5-0.5
				c0.3-0.4,0.4-0.5,0.5-0.5l0.1,0c1.2-1.2,2.7-2.1,4.5-2.7c1.7-0.6,3.5-0.7,5.3-0.4c0.3,0.1,0.5,0.1,0.7,0.2c0.1,0,0.4,0,0.4,0
				l0.3,0c0,0,0.1,0,0.1,0l0.3-0.1l0.3,0c0,0,0.1,0,0.2,0c0.3,0,0.5,0.1,0.8,0.2c0.3,0.1,0.7,0.3,0.9,0.5l0.1,0.1l0,0.1
				c0,0.1,0.1,0.3,0.1,0.7c0,0.2,0.1,0.5,0.2,0.6l0.1,0.1v0.1c0,0.9,0,1.7-0.1,2.5c-0.1,0.8-0.2,1.6-0.3,2.4
				c-0.1,0.8-0.2,1.6-0.2,2.4c0,0.8,0,1.6,0.2,2.4c0,0.2,0,0.4,0.1,0.6c0,0.3,0.1,0.5,0.1,0.5c0,0,0.1,0.1,0.1,0.3
				c0.1,0.2,0.2,0.3,0.2,0.4l0.1,0.1c0,0,0.1,0.1,0.1,0.3l0.2,0.3c0.2,0.3,0.3,0.5,0.4,0.5l0.4,0.1c0,0,0,0,0.1,0
				c0.1-0.1,0.2-0.1,0.2-0.2c0.9-0.9,1.5-1.9,1.9-3.1c0.4-1.2,0.6-2.5,0.7-3.7c0.1-0.8,0.1-1.3,0.2-1.8c0-0.5,0-1.1-0.1-1.7
				c-0.2-1.6-0.9-3.1-2.1-4.3c-0.1-0.1-0.2-0.2-0.3-0.3l-0.2-0.2c-0.1-0.1-0.2-0.2-0.4-0.4l-0.7-0.7c-0.1-0.2-0.2-0.2-0.2-0.2
				c-0.1-0.1-0.2-0.1-0.3-0.2c-0.2-0.2-0.5-0.3-0.7-0.5c-0.2-0.1-0.4-0.3-0.6-0.5c-0.1-0.1-0.2-0.1-0.3-0.2l-0.2-0.1
				c-0.7-0.4-1.4-0.8-1.9-1c-0.5-0.3-1.1-0.4-2-0.3c-0.1,0-0.3,0.1-0.5,0.1h-1.8c-0.3,0-0.6,0-1,0c-0.3,0-0.5,0.1-0.6,0.1
				c-1,0.3-2.1,0.7-3.1,1.2c-1.1,0.5-2.2,1.2-3.2,1.9c-1,0.7-1.9,1.6-2.6,2.4c-0.7,0.9-1.2,1.8-1.3,2.8c0,0.2-0.1,0.4-0.1,0.6
				l-0.1,0.3c0,0.3-0.1,0.6-0.2,1l0,0.3c-0.1,0.3-0.1,0.6-0.2,0.9l-0.1,0.3c-0.1,0.3-0.1,0.5-0.1,0.7c-0.2,0.7-0.2,1.4-0.1,2.3
				c0.1,0.9,0.3,1.8,0.5,2.8c0.2,1,0.5,1.9,0.8,2.7c0.3,0.8,0.6,1.5,0.9,2.3c0.5,1,1.1,1.9,1.8,2.8c0.7,0.9,1.5,1.6,2.4,2.2
				c0.1,0,0.2,0.1,0.4,0.2c0.2,0.1,0.3,0.1,0.4,0.1l0.1,0c0,0,0.1,0,0.1,0l0.1,0l0.1,0.1c0.2,0.1,0.2,0.1,0.4,0.2
				c0.1,0.1,0.2,0.1,0.2,0.1c0.3,0.1,0.6,0.2,0.9,0.3c0.3,0.1,0.7,0.1,1.2,0.2c0.4,0,0.8,0.1,1.2,0.1l1.1,0c0.1,0,0.2,0,0.2,0l0.1,0
				c0.2,0,0.4-0.1,0.5-0.1l0.1,0l0.3,0.2c0.1,0,0.3,0.1,0.6,0.1c0.4,0,0.7,0,0.8,0l0.1,0h0.2c0.1,0,0.4-0.1,0.9-0.2
				c0.5-0.1,0.6-0.2,0.7-0.2l0.1,0c1.1-0.3,1.9-0.5,2.5-0.8c0.5-0.2,1-0.5,1.4-0.7c0.3-0.2,0.7-0.4,1-0.6c0.3-0.2,0.6-0.4,1-0.6
				c0.1-0.1,0.3-0.2,0.8-0.3c0.1,0,0.2,0,0.4-0.1c0.6-0.1,1.4-0.1,2,0.1c0.4,0.1,0.7,0.4,0.8,0.7c0.1,0.2,0.2,0.4,0.3,0.7
				c0,0.3,0,0.7-0.1,1c-0.1,0.3-0.2,0.6-0.3,0.9c-0.1,0.2-0.3,0.4-0.4,0.5c-0.5,0.9-1.3,1.6-2.1,2.2c-0.8,0.6-1.7,1.1-2.8,1.5
				c-1,0.4-2,0.7-3.1,0.9c-1.1,0.2-2.1,0.4-3.1,0.4L103.5,88.1z M103.2,87.1c0.1,0,0.2,0,0.3,0.1l3.1,0c0.9,0,1.8-0.2,2.9-0.4
				c1-0.2,2-0.5,2.9-0.9c0.9-0.4,1.8-0.8,2.6-1.4c0.8-0.5,1.4-1.2,1.9-1.9c0,0,0.1-0.1,0.2-0.2c0,0,0.1-0.1,0.2-0.2
				c0.1-0.2,0.2-0.4,0.2-0.6c0.1-0.2,0.1-0.5,0.1-0.7c0-0.1,0-0.2,0-0.2c-0.1-0.1-0.1-0.2-0.2-0.3c0,0,0,0-0.2-0.1
				c-0.4-0.1-1.1-0.2-1.5-0.1c-0.1,0-0.2,0-0.3,0.1c-0.2,0.1-0.3,0.1-0.3,0.1c0,0-0.1,0.1-0.1,0.1c-0.5,0.2-0.8,0.4-1,0.6
				c-0.3,0.2-0.7,0.5-1,0.7c-0.5,0.3-1,0.5-1.6,0.8c-0.6,0.3-1.4,0.5-2.6,0.8c-0.1,0.1-0.3,0.1-0.8,0.3c-0.5,0.2-0.8,0.2-1.1,0.3
				l-0.3,0c-0.2,0-0.5,0-0.7,0c-0.1,0-0.2,0-0.4,0c-0.6,0-0.8-0.1-1.1-0.2c-0.1,0-0.2,0-0.3,0c-0.5,0.1-0.6,0.1-0.8,0h-0.8
				c-0.4,0-0.8,0-1.3-0.1c-0.6-0.1-1-0.1-1.3-0.2c-0.4-0.1-0.7-0.2-1.1-0.4c-0.1,0-0.3-0.2-0.5-0.4l0,0c0,0-0.1,0-0.1-0.1
				c-0.1,0-0.1,0-0.2-0.1c-0.2,0-0.4-0.1-0.6-0.2c-0.1,0-0.1-0.1-0.2-0.1c-0.2,0-0.3-0.1-0.3-0.1c-0.9-0.7-1.8-1.4-2.6-2.4
				c-0.8-0.9-1.5-2-2-3c-0.3-0.8-0.6-1.5-0.9-2.3c-0.3-0.9-0.6-1.9-0.8-2.9c-0.2-1-0.4-2-0.5-2.9c-0.1-1-0.1-1.9,0.1-2.6
				c0-0.1,0-0.3,0.1-0.7l0.1-0.3c0-0.3,0.1-0.6,0.2-1l0-0.2c0.1-0.3,0.1-0.6,0.2-0.9l0.1-0.3c0.1-0.3,0.1-0.5,0.1-0.6
				c0.2-1.1,0.7-2.1,1.5-3.2c0.8-1,1.7-1.8,2.8-2.6c1-0.8,2.2-1.4,3.3-2c1.1-0.5,2.2-1,3.3-1.3c0.1,0,0.4-0.1,0.8-0.1
				c0.4,0,0.7,0,1,0h1.8c0.1,0,0.2,0,0.2,0l0.2,0c0.2,0,0.3,0,0.4,0c0.9,0,1.6,0.2,2.1,0.5c0.5,0.3,1.2,0.6,2,1.1l0.2,0.2
				c0.1,0.1,0.2,0.2,0.3,0.2c0.2,0.2,0.4,0.3,0.6,0.4c0.2,0.2,0.4,0.3,0.6,0.4c0.2,0.1,0.3,0.2,0.4,0.3c0.1,0,0.2,0.2,0.4,0.4
				l0.6,0.7c0.1,0.1,0.2,0.2,0.4,0.4l0.2,0.2c0.1,0.1,0.2,0.2,0.3,0.3c1.3,1.4,2.1,3,2.3,4.9c0.1,0.7,0.1,1.3,0.1,1.9
				c0,0.5-0.1,1-0.2,1.8c-0.1,1.3-0.4,2.6-0.8,3.9c-0.4,1.3-1.1,2.5-2.1,3.5c-0.2,0.2-0.3,0.3-0.5,0.3c-0.3,0.2-0.7,0.3-1,0.1
				c-0.1,0-0.2,0-0.3-0.1c-0.2-0.1-0.4-0.2-0.4-0.2c-0.1-0.1-0.3-0.3-0.5-0.7l-0.2-0.4c0-0.1-0.1-0.1-0.1-0.2
				c-0.1-0.1-0.2-0.2-0.3-0.6c-0.2-0.3-0.3-0.5-0.3-0.7c0,0,0-0.2-0.1-0.3c0-0.3-0.1-0.5-0.1-0.6c-0.1-0.8-0.2-1.6-0.2-2.5
				c0-0.8,0.1-1.6,0.2-2.5c0.1-0.8,0.2-1.6,0.3-2.4c0.1-0.7,0.1-1.5,0.1-2.3c-0.1-0.2-0.2-0.5-0.2-0.8c0-0.2-0.1-0.4-0.1-0.5
				c-0.1-0.1-0.3-0.2-0.5-0.2c-0.2-0.1-0.4-0.1-0.5-0.1l-0.1,0c-0.1,0-0.1,0-0.2,0c-0.1,0.1-0.3,0.1-0.5,0.1h-0.1
				c-0.2,0-0.6,0-0.9-0.1c-0.2-0.1-0.4-0.1-0.6-0.2c-1.5-0.2-3.2-0.1-4.7,0.4c-1.6,0.5-3,1.4-4.1,2.5l-0.2,0.1c0,0-0.1,0.1-0.2,0.3
				c-0.3,0.4-0.5,0.6-0.6,0.6L96.9,63c-0.5,0.8-0.8,1.6-1.1,2.3c-0.3,0.8-0.5,1.6-0.6,2.5c-0.1,0.4-0.1,0.6,0,0.8c0,0.3,0,0.6,0,1
				c0.1,0.8,0.1,1.6,0.2,2.3c0,0.7,0.2,1.3,0.3,1.8c0.3,0.9,0.8,1.7,1.3,2.5c0.5,0.8,1.2,1.5,2,2c0.3,0.2,0.7,0.4,1.2,0.5
				c0.5,0.1,1,0.3,1.5,0.5h0.7c1,0,1.8-0.2,2.4-0.6c0.7-0.4,1.5-1,2.3-1.7c0.2-0.1,0.3-0.2,0.5-0.2h0.1c0.2,0,0.4,0.1,0.5,0.2
				c0.1,0.1,0.2,0.2,0.6,0.5c0.3,0.3,0.5,0.4,0.7,0.5c0.3,0.1,0.6,0.2,0.9,0.2c0.4,0,0.8,0,1.2,0c0.9-0.1,1.7-0.3,2.4-0.8l0.2-0.1
				c0.1-0.1,0.2-0.2,0.4-0.3c0.6-0.5,1.1-0.9,1.6-1.5l0,0c0,0,0,0,0,0c0-0.1,0.1-0.2,0.1-0.3c0.6-0.8,1-1.5,1.2-2.1
				c0.2-0.7,0.6-1.6,1-2.6l0.1-0.2c0,0,0.1-0.2,0.1-0.5l0-0.2c0-0.1,0.1-0.3,0.1-0.5c0.4-1.8,0.7-3.7,0.8-5.6
				c0.1-1.8-0.2-3.4-0.7-4.9l0-0.2c0,0,0-0.1,0-0.2c0-0.1,0-0.2,0-0.2c-0.1-0.1-0.1-0.2-0.1-0.3l0-0.2c-1-1.8-2.2-3.2-3.7-4.3
				c-1.6-1.1-3.2-1.9-4.8-2.5c-1.6-0.5-3.2-0.8-4.9-0.9c-1.5-0.1-2.9,0-3.9,0.3c-0.1,0-0.3,0-0.7,0.1c-0.3,0.1-0.6,0.2-0.8,0.2
				c-0.5,0.1-1,0.2-1.5,0.4c-0.6,0.2-1.1,0.4-1.5,0.6c-2.6,1.3-4.7,3.2-6.3,5.7c-0.5,0.8-1,1.5-1.4,2.2c-0.4,0.6-0.8,1.4-1,2.2
				c0,0,0,0.1,0,0.2c0,0.1,0,0.2,0,0.3c-0.1,0.3-0.1,0.5-0.1,0.5l0,0.1L87.8,63c0,0.1-0.1,0.2-0.1,0.3c-0.1,0.2-0.1,0.3-0.1,0.4
				c-0.1,0.2-0.1,0.5-0.2,0.7c0,0,0,0.2,0,0.5c0,0.3,0,0.6,0,0.9c0,0.4,0,0.7,0,1c0,0.3,0,0.4,0,0.5c0,0.1,0,0.3-0.1,0.5l0,0
				c0.1,0.3,0.1,0.9,0.1,1.2c0,0.5,0.1,0.9,0.1,1h0c0.1,0.2,0.1,0.5,0.1,0.8c0,0.4,0,0.6,0.1,0.8c0.2,1.4,0.5,2.5,0.9,3.5
				c0.4,1.1,0.9,2.2,1.5,3.3c0.1,0.1,0.2,0.3,0.3,0.7c0.1,0.3,0.2,0.4,0.2,0.4c0.1,0.1,0.1,0.1,0.2,0.2c0.6,1.1,1.3,2,2.3,2.8
				c0.7,0.7,1.5,1.3,2.2,1.9c0.6,0.5,1.4,0.9,2.4,1.3c0.6,0.2,1.2,0.4,1.8,0.5c0.6,0.1,1.2,0.4,1.9,0.8l0.2,0l0.5,0
				c0.1,0,0.3,0,0.5,0C102.8,87,103,87,103.2,87.1z"/>
		</g>
	</g>
	<g display="inline">
		<path d="M73.2,101.1c5.8,3.7,11,7,16,10c3.9,2.4,7.8,3.6,11.7,3.6c3.9,0,7.9-1.2,11.9-3.6c2.9-1.8,5.9-3.7,8.8-5.5
			c2.1-1.3,4.3-2.7,6.4-4c8.3-5.1,12.5-12.6,12.4-22.3v-1.1c0-5.8,0-11.8,0-17.5c0-3.5,0-7,0-10.5c0-1.1,0-2.3-0.1-3.4
			c-0.6-6.3-5.3-10.9-11.5-11.6c-1.3-0.1-2.5-0.1-3.9-0.1h-0.5c-3.8,0-7.6,0-11.5,0h-11.8H89.4c-3.8,0-7.6,0-11.5,0
			c-1.5,0-3,0-4.8,0.1c-5.5,0.3-9.9,5-11,9.3c-0.4,1.6-0.6,3.2-0.6,4.8c0,3.2,0,6.4,0,9.6c0,6.9-0.1,14,0,20.9
			C61.5,89,65.5,96.2,73.2,101.1z M61.9,58.9c0-3.2,0-6.4,0-9.6c0-1.6,0.2-3.2,0.6-4.7c1.1-4.1,5.3-8.6,10.5-8.9
			c1.8-0.1,3.4-0.1,4.8-0.1c3.8,0,7.7,0,11.5,0h11.8h11.8c3.8,0,7.6,0,11.5,0h0.5c1.4,0,2.6,0,3.8,0.1c6.1,0.6,10.5,5,11.1,11.1
			c0.1,1.1,0.1,2.2,0.1,3.4c0,3.5,0,7,0,10.5c0,5.7,0,11.7,0,17.5v1.1c0.1,9.6-3.9,16.8-12.2,21.9c-2.1,1.3-4.3,2.7-6.4,4
			c-2.9,1.8-5.8,3.7-8.8,5.5c-7.7,4.7-15.4,4.7-23,0.1c-5-3-10.2-6.3-16-10C65.9,95.8,62,88.8,61.9,79.9
			C61.8,72.9,61.9,65.8,61.9,58.9z"/>
		<path d="M100.9,115.2c-4,0-8-1.2-12-3.6c-4.7-2.9-9.8-6-16-10c-7.9-5-11.9-12.3-12-21.7c-0.1-7.1,0-14.4,0-20.9l0-3.3
			c0-2.1,0-4.2,0-6.3c0-1.7,0.2-3.3,0.6-5c1.1-4.5,5.7-9.3,11.5-9.6c1.8-0.1,3.4-0.2,4.9-0.2c3.8,0,7.7,0,11.5,0h23.5
			c3.8,0,7.7,0,11.5,0h0.5c1.4,0,2.7,0,3.9,0.1c6.5,0.7,11.3,5.5,12,12c0.1,1.2,0.1,2.3,0.1,3.5c0,3.5,0,7,0,10.5l0,3.4
			c0,4.7,0,9.4,0,14.1v1.1c0.1,9.9-4.2,17.5-12.7,22.8c-2.1,1.3-4.3,2.7-6.4,4c-2.9,1.8-5.8,3.7-8.8,5.5
			C109,114,104.9,115.2,100.9,115.2z M89.4,36.1c-3.8,0-7.6,0-11.5,0c-1.4,0-3,0-4.8,0.1c-5,0.3-9.1,4.5-10.1,8.5
			c-0.4,1.5-0.6,3-0.6,4.6c0,2.1,0,4.2,0,6.3l0,3.3c0,6.5-0.1,13.9,0,20.9c0.1,8.8,3.9,15.7,11.3,20.4c6,3.8,11.2,7.1,16,10
			c7.4,4.5,15.1,4.5,22.5-0.1c2.9-1.8,5.9-3.7,8.8-5.5l0.2-0.1c2.1-1.3,4.2-2.6,6.3-3.9c8.1-5,12-12,12-21.5v-1.1
			c0-4.7,0-9.4,0-14.1l0-3.4c0-3.5,0-7,0-10.5c0-1.1,0-2.2-0.1-3.3c-0.6-5.9-4.8-10.1-10.6-10.7c-1.2-0.1-2.4-0.1-3.8-0.1h-0.5
			c-3.8,0-7.7,0-11.5,0H89.4z"/>
	</g>
	<g display="inline">
		<g>
			<path d="M151.5,102.7c-2.1-1.1-4.8-1.1-7.3,0c-0.9,0.4-1.7,0.8-2.6,1.2l-0.5,0.2c-2.9,1.4-5.8,2.9-8.7,4.3
				c-7.1,3.5-14.5,7.1-21.7,10.7c-4.4,2.2-9,2.9-14.2,2.2c-2.9-0.4-5.4-1.5-7.8-2.7c-2.1-1-3.2-1.6-4.4-2.2c-1.3-0.7-2.9-1.4-6-2.9
				l-0.4,0.8c-0.2-0.1-0.4-0.2-0.6-0.3c-0.2-0.1-0.5-0.2-0.8-0.4l-0.9-0.4c-4.8-2.3-7.1-3.5-15.2-7.5l-0.5-0.2c-1-0.5-2-1-3.1-1.3
				c-0.6-0.2-1.1-0.2-1.6-0.2c-2.1,0-3.7,1.3-4.2,3.5c-0.3,1.4-0.3,2.8-0.3,4.3v0.1c0,2.3,0.1,4.6,0,6.8c0.1-2.2,0.5-4.6,0.5-6.8
				v-0.1c0-1.4,0-2.8,0.3-4.1c0.5-2,1.8-3.2,3.8-3.2c0.5,0,1,0.1,1.5,0.2c1,0.3,2,0.8,3,1.2l0.5,0.2c8.1,4,10.4,5.1,15.2,7.5
				l0.9,0.4c5.4,2.6,10.7,5.3,16,7.9c5.2,2.6,10.6,3.3,16.1,2.1c2.3-0.5,4.5-1.6,6.3-2.5c5.1-2.5,10.2-5,15.3-7.5
				c5.2-2.6,10.3-5.1,15.5-7.6l0.2-0.1c1.2-0.6,2.4-1.2,3.7-1.6c0.4-0.1,0.8-0.2,1.1-0.2c0.9,0,1.5,0.6,1.6,1.9
				c0.1,0.7,0.1,1.5,0.1,2.2v0.7c0,7.8,0,15.5,0,23.2v0.4c0,0.8,0,1.7-0.1,2.5c-0.5,4.3-4,7.7-8,7.8c-1.5,0-2.7,0.1-3.9,0.1h-32.5
				c-16,0-31.9-0.1-47.9,0c0,0,0,0,0,0c-1.5,0-4,0-6.5-0.8c-0.9-0.3-1.6-1.1-1.9-2c0.2,1.3,0.3,2.2,0.4,2.4l-0.8,1l1.3,1l0.3,0.2
				c0.4,0.2,0.8,0.3,1.3,0.5c2.7,0.8,5.1,0.9,7.4,0.9l1.4,0c22.2,0,47.9,0,80.9,0c1.4,0,3.1,0,4.8-0.3c4.4-0.8,6.9-3.8,7-8.2
				c0.1-11.5,0.1-20.3,0-28.5C155.3,106.5,153.9,104,151.5,102.7z"/>
		</g>
		<g>
			<path d="M61.4,147.1L61.4,147.1c-2.4,0-4.8-0.1-7.6-0.9c-0.5-0.1-0.9-0.3-1.3-0.5l-0.1-0.1l-2-1.5l1-1.3l-0.3-2.2l1-0.2
				c0.2,0.8,0.8,1.4,1.6,1.7c2.3,0.8,4.5,0.8,5.8,0.8l0.5,0c10.3,0,20.5,0,30.7,0c5.7,0,11.5,0,17.2,0h32.5c1.1,0,2.4,0,3.8-0.1
				c3.8-0.1,7.1-3.3,7.6-7.4c0.1-0.7,0.1-1.5,0.1-2.2l0-0.6c0-7.8,0-15.5,0-23.2l0-1c0-0.6,0-1.3-0.1-1.9c-0.1-1.5-0.8-1.5-1.1-1.5
				c-0.2,0-0.5,0.1-0.9,0.2c-1.1,0.4-2.3,0.9-3.4,1.5l-0.5,0.2c-5.2,2.5-10.3,5.1-15.5,7.6c-4.9,2.4-9.9,4.9-14.8,7.3l-0.6,0.3
				c-1.9,0.9-4,2-6.4,2.5c-5.6,1.2-11.2,0.4-16.5-2.2c-5.3-2.6-10.7-5.3-16-7.9l-0.9-0.4c-3.1-1.5-5.1-2.5-8.3-4.1l-7.4-3.6
				c-0.9-0.4-1.9-0.9-2.9-1.2c-0.5-0.1-0.9-0.2-1.4-0.2c-1.7,0-2.8,1-3.3,2.8c-0.3,1.3-0.3,2.7-0.3,4v0.1c0,1.3-0.1,2.5-0.2,3.8
				c-0.1,1-0.2,2.1-0.2,3.1c0,0,0,0,0,0h0l-1,0c0-1.3,0-2.7,0-4c0-0.9,0-1.9,0-2.8v-0.1c0-1.5,0-3,0.4-4.4c0.7-3,3.3-4.5,6.5-3.7
				c1.1,0.3,2.2,0.8,3.2,1.3l0.5,0.3l17,8.4l0.4-0.8l6.4,3.2c1.2,0.6,2.3,1.2,4.4,2.2c2.3,1.2,4.9,2.3,7.6,2.7
				c5.2,0.7,9.7-0.1,14-2.2c7.4-3.7,15-7.4,21.7-10.7l3-1.5c1.9-0.9,3.8-1.9,5.7-2.8l0.5-0.2c0.8-0.4,1.7-0.9,2.6-1.2
				c2.7-1.2,5.5-1.2,7.8,0c2.6,1.4,4.1,4,4.2,7.2c0.1,8.2,0.1,17,0,28.6c-0.1,4.6-2.8,7.8-7.4,8.7c-1.7,0.3-3.4,0.4-4.9,0.4
				c-19.9,0-37.2,0-52.6,0l-28.2,0L61.4,147.1z M53,144.9c0.4,0.2,0.7,0.3,1.1,0.4c2.6,0.8,5,0.8,7.3,0.8l1.4,0l28.2,0
				c15.5,0,32.7,0,52.6,0c1.4,0,3.1,0,4.7-0.3c4.1-0.8,6.5-3.6,6.6-7.7c0.1-11.6,0.1-20.4,0-28.5c0-2.9-1.4-5.2-3.6-6.4
				c-2-1-4.5-1-6.9,0.1c-0.9,0.4-1.7,0.8-2.6,1.2l-0.5,0.2c-1.9,0.9-3.8,1.9-5.7,2.8l-3,1.5c-6.7,3.3-14.3,7-21.7,10.7
				c-4.5,2.2-9.2,3-14.5,2.3c-2.9-0.4-5.5-1.6-7.9-2.8c-2.1-1-3.2-1.6-4.4-2.2l-5.5-2.7l-0.2,0.4c4.7,2.3,9.5,4.7,14.2,7
				c5.1,2.5,10.4,3.2,15.8,2.1c2.2-0.5,4.3-1.5,6.1-2.4l0.6-0.3c4.9-2.4,9.9-4.9,14.8-7.3c5.2-2.6,10.3-5.1,15.5-7.6l0.5-0.2
				c1.1-0.6,2.3-1.1,3.5-1.5c0.5-0.2,0.9-0.2,1.3-0.2c0.8,0,1.9,0.4,2.1,2.4c0.1,0.6,0.1,1.3,0.1,1.9l0,1c0,7.8,0,15.5,0,23.2l0,0.6
				c0,0.8,0,1.5-0.1,2.3c-0.5,4.6-4.2,8.1-8.5,8.3c-1.5,0-2.7,0.1-3.9,0.1h-32.5c-5.7,0-11.5,0-17.2,0c-10.2,0-20.5,0-30.7,0l-0.6,0
				c-1.3,0-3.7,0-6.1-0.8c-0.4-0.1-0.7-0.3-1-0.5l0.1,0.6l-0.6,0.8L53,144.9z"/>
		</g>
	</g>
</g>
<g>
	<path class="outer" stroke-width="2.1295" stroke-miterlimit="10" d="M187.9,94.8c-0.7-10.7-4.3-20.7-8.8-30.3
		c-3.9-8.4-9.7-15.6-16-22.2c-5.2-5.5-11.3-10.2-17.8-14.2c-7-4.3-14.7-6.6-22.4-9c-7.3-2.2-14.9-3.3-22.6-3
		c-3.1,0.1-6.3-0.2-9.3,0.5c-5.1,1.3-10.3,2.2-15.4,3.5c-4.4,1.2-8.6,2.9-12.6,4.9c-6.9,3.5-13.7,7.4-19,13.4
		c-0.6,0.7-1.3,1.4-2.1,1.9c-2.5,1.7-4.4,4-6.3,6.2C31,52,27,57.9,23.8,64.3c-3.2,6.3-4.2,13.3-6.8,19.8c-0.2,0.6-0.2,1.2-0.3,1.8
		c-0.4,2.9-0.8,5.9-1.2,8.8c-1.1,9.2-0.6,18.3,2.4,27.2c0.4,1.2,0.9,2.4,1,3.6c0.6,5.2,2.6,9.9,4.8,14.5c3.8,7.9,8.3,15.3,15.1,21.1
		c0.9,0.8,1.9,1.6,2.7,2.6c3.4,4.4,7.8,7.7,12.3,10.7c7,4.7,14.3,8.8,22.9,10.1c1.4,0.2,2.8,0.5,4.1,1c4.5,1.7,9.2,2.4,14.1,3
		c6.9,0.9,13.8,0.6,20.4-0.8c7.3-1.5,14.3-4.1,21.4-6.5c6.5-2.2,12.2-6.2,17.7-10.3c2.5-1.9,4.8-4,6.8-6.4c1.5-1.8,3-3.6,4.7-5.2
		c9.3-9.2,15.3-20.3,18.6-32.9c1-3.8,1.8-7.6,2.5-11.4c1.2-6.1,2.3-12.3,1-18.5C187.9,96,187.9,95.4,187.9,94.8z M186.7,115.1
		c-0.7,3.9-1.6,7.7-2.5,11.4c-3.3,12.8-9.5,23.8-18.5,32.8c-1.5,1.5-3,3.1-4.7,5.2c-1.9,2.3-4.1,4.3-6.7,6.3c-5.3,4-11,8-17.6,10.3
		l-1.9,0.7c-6.3,2.2-12.9,4.4-19.5,5.8c-6.6,1.4-13.5,1.6-20.3,0.8c-4.5-0.6-9.3-1.3-14-3c-1.4-0.5-3-0.8-4.1-1
		c-8.7-1.3-16.1-5.6-22.8-10.1c-4-2.7-8.6-6-12.2-10.6c-0.8-1-1.7-1.8-2.7-2.6c-7.2-6.1-11.6-14-15-21c-2-4.1-4.1-9.1-4.8-14.5
		c-0.1-1-0.5-2-0.8-3c-0.1-0.2-0.1-0.4-0.2-0.6c-2.8-8.3-3.6-17.1-2.4-27.1c0.2-2,0.5-3.9,0.8-5.9c0.1-1,0.3-1.9,0.4-2.9
		c0-0.2,0-0.3,0.1-0.5c0.1-0.5,0.1-0.9,0.2-1.3c1.1-2.8,1.9-5.7,2.7-8.5c1.1-3.8,2.2-7.7,4-11.4c3.1-6.2,7-12,11.8-17.8
		c1.9-2.2,3.8-4.5,6.2-6.2c0.7-0.5,1.4-1.1,2.1-1.9c5.4-6.2,12.6-10.1,18.9-13.3c4.2-2.1,8.4-3.8,12.5-4.9c2.8-0.8,5.8-1.4,8.6-2
		c2.2-0.5,4.6-1,6.8-1.5c1.8-0.4,3.7-0.5,5.6-0.5H98c0.7,0,1.5,0,2.3,0c7.6-0.3,15.2,0.8,22.5,3l0.3,0.1c7.5,2.3,15.2,4.6,22.1,8.8
		c7.1,4.4,12.9,9,17.8,14.2c5.2,5.5,11.7,13.1,16,22.2c3.7,7.9,8,18.5,8.8,30.2l0,0.4c0,0.5,0.1,1,0.1,1.5
		C188.9,102.7,188,108.3,186.7,115.1z"/>
	<path class="outer" stroke-width="2.1295" stroke-miterlimit="10" d="M102.9,190.2C102.9,190.2,102.9,190.2,102.9,190.2
		c-2.7,0-5.4-0.2-8.1-0.5c-4.6-0.6-9.5-1.3-14.3-3.1c-1.3-0.5-2.8-0.7-3.9-0.9c-9-1.4-16.5-5.7-23.3-10.3
		c-3.8-2.6-8.7-6.1-12.5-10.9c-0.7-0.9-1.6-1.6-2.5-2.4c-7.5-6.3-12-14.4-15.4-21.5c-2.1-4.2-4.2-9.3-4.9-14.9
		c-0.1-0.9-0.4-1.8-0.8-2.7l-0.2-0.7c-2.9-8.5-3.7-17.5-2.5-27.7c0.2-2,0.5-3.9,0.8-5.9l0.4-2.9c0-0.2,0-0.3,0.1-0.5
		c0.1-0.5,0.1-1.1,0.3-1.6c1.1-2.7,1.9-5.6,2.7-8.3c1.1-3.9,2.2-7.8,4.1-11.6c3.2-6.2,7.1-12.1,12-18c1.9-2.3,3.9-4.6,6.5-6.4
		c0.6-0.4,1.2-1,1.9-1.7c5.5-6.3,12.9-10.3,19.3-13.6c4.3-2.2,8.6-3.9,12.8-5c2.9-0.8,5.8-1.4,8.7-2c2.2-0.5,4.6-1,6.8-1.5
		c1.9-0.5,4-0.5,5.9-0.5l1.4,0c0.7,0,1.5,0,2.2,0c0.8,0,1.6,0,2.3,0c6.9,0,13.9,1,20.6,3.1l0.3,0.1c7.6,2.3,15.4,4.7,22.4,9
		c7.2,4.4,13.1,9.1,18,14.4c5.3,5.6,11.9,13.2,16.2,22.5c3.7,8,8.1,18.7,8.9,30.7l0,0.4c0,0.5,0.1,0.9,0.1,1.3
		c1.3,6.7,0,13.5-1,18.9c-0.7,3.9-1.6,7.8-2.6,11.5c-3.4,13-9.7,24.3-18.9,33.4c-1.4,1.4-2.9,3.1-4.6,5.1c-1.9,2.4-4.2,4.5-7,6.6
		c-5.4,4-11.2,8.1-18,10.4l-1.9,0.7c-6.4,2.2-12.9,4.5-19.6,5.8C111.4,189.7,107.1,190.2,102.9,190.2z M96.6,17.4
		c-1.9,0-3.6,0-5.3,0.4c-2.2,0.5-4.4,1-6.9,1.6c-2.9,0.6-5.8,1.2-8.5,2c-4,1.1-8.2,2.7-12.3,4.8c-6.2,3.2-13.3,7-18.5,13
		c-0.8,0.9-1.5,1.6-2.3,2.1c-2.3,1.6-4.1,3.8-5.9,5.9l-0.1,0.1c-4.8,5.7-8.6,11.5-11.7,17.6c-1.8,3.5-2.8,7.3-3.9,11l-0.1,0.3
		c-0.8,2.8-1.6,5.7-2.7,8.4c-0.1,0.2-0.1,0.6-0.2,0.9c0,0.2,0,0.4-0.1,0.6L17.6,89c-0.3,2-0.5,3.9-0.8,5.9
		c-1.2,9.8-0.4,18.5,2.4,26.6l0.2,0.6c0.4,1,0.7,2.1,0.9,3.2c0.7,5.2,2.7,10.1,4.7,14.1c3.3,6.9,7.7,14.7,14.8,20.7
		c0.9,0.8,2,1.7,2.9,2.8c3.5,4.5,8,7.8,12,10.4c6.6,4.4,13.8,8.6,22.3,9.9c1.2,0.2,2.8,0.5,4.4,1c4.6,1.7,9.3,2.4,13.8,3
		c6.7,0.9,13.5,0.6,20-0.8c6.4-1.4,12.9-3.6,19.1-5.7l2.2-0.7c6.5-2.2,12.1-6.2,17.3-10.1c2.6-1.9,4.7-3.9,6.6-6.2
		c1.7-2.1,3.2-3.7,4.8-5.3c8.8-8.8,15-19.7,18.2-32.3c0.9-3.6,1.8-7.4,2.5-11.3c1.3-6.7,2.2-12.2,1-18c-0.1-0.6-0.1-1.1-0.2-1.6
		l0-0.4c-0.8-11.6-5-22-8.7-29.8c-4.1-9-10.6-16.4-15.8-21.9c-4.8-5.1-10.6-9.7-17.6-14c-6.8-4.2-14.4-6.5-21.8-8.7l-0.3-0.1
		c-7.2-2.2-14.7-3.2-22.1-3c-0.8,0-1.6,0-2.3,0H96.6z"/>
</g>
<path d="M148.9,149.9c0,0.1-0.1,0.2-0.2,0.2c-0.1,0-0.2-0.1-0.2-0.2h0.2C148.8,149.9,148.9,149.9,148.9,149.9z"/>
<path d="M148.9,149.9c-0.1,0-0.1,0-0.2,0h-0.2c0-0.1,0.1-0.2,0.2-0.2h0C148.9,149.7,148.9,149.8,148.9,149.9z"/>
<path display="none" class="outer" stroke-miterlimit="10" d="M85.2,87c1,1.5,2.1,2.7,3.4,3.5c1.3,0.8,2.7,1.4,4.3,1.8
	c1.5,0.4,3.1,0.6,4.8,0.6c1.7,0,3.4,0.1,5.1,0.1c0.7,0,1.7,0,3-0.1c1.3,0,2.6-0.2,4.1-0.6c1.4-0.4,2.9-0.9,4.4-1.7s2.9-2,4.1-3.5
	c1.2-1.5,2.2-3.4,3-5.8c0.8-2.3,1.2-5.2,1.2-8.7c0-3-0.2-5.8-0.7-8.3c-0.5-2.5-1.4-4.7-2.8-6.4c-1.4-1.8-3.4-3.2-6-4.2
	c-2.6-1-6-1.4-10.2-1.4c-3,0-5.5,0.3-7.7,0.9c-2.2,0.6-4,1.3-5.5,2.3c-1.5,1-2.8,2.1-3.8,3.4c-1,1.3-1.7,2.7-2.3,4.2
	c-0.5,1.5-0.9,3-1.1,4.7s-0.3,3.2-0.3,4.8c0,3.4,0.3,6.2,0.8,8.6C83.5,83.6,84.2,85.5,85.2,87z M89.5,72.3c0-0.1,0.1-0.2,0.1-0.2
	s0-0.2,0-0.4c0-0.2,0-0.5,0-0.8c0-0.3,0-0.5,0-0.7c0-0.2,0-0.4,0-0.5c0-0.2,0.1-0.5,0.2-0.7c0.1-0.2,0.1-0.4,0.2-0.6
	c0-0.1,0-0.2,0.1-0.5c0.1-0.3,0.1-0.4,0.1-0.5c0.2-0.8,0.6-1.5,0.9-2c0.4-0.5,0.8-1.1,1.2-1.7c1.4-2.1,3.2-3.8,5.4-4.9
	c0.4-0.2,0.8-0.3,1.3-0.5c0.5-0.2,0.9-0.3,1.3-0.3c0.2-0.1,0.4-0.1,0.8-0.2c0.3-0.1,0.5-0.1,0.5-0.1c0.9-0.2,2-0.3,3.3-0.2
	s2.7,0.3,4.1,0.7c1.4,0.5,2.8,1.1,4.1,2.1c1.3,0.9,2.4,2.2,3.3,3.8c0,0,0,0.1,0,0.1c0,0.1,0,0.1,0,0.1c0,0,0.1,0.1,0.1,0.3
	c0,0.2,0.1,0.3,0.1,0.3c0.4,1.3,0.6,2.7,0.6,4.2c-0.1,1.6-0.3,3.1-0.6,4.6c0,0.2-0.1,0.4-0.1,0.6c-0.1,0.4-0.1,0.6-0.2,0.6
	c-0.3,0.7-0.6,1.4-0.8,2c-0.2,0.6-0.5,1.3-1,1.9c0,0,0,0.1-0.1,0.2c-0.1,0.1-0.1,0.2-0.1,0.2c-0.4,0.5-0.9,0.9-1.3,1.2
	c-0.2,0.1-0.3,0.2-0.5,0.3c-0.6,0.4-1.4,0.7-2.3,0.8c-0.4,0-0.7,0-1,0c-0.3,0-0.7-0.1-1-0.3c-0.1-0.1-0.3-0.2-0.6-0.5
	s-0.5-0.4-0.5-0.5h-0.1c-0.7,0.6-1.3,1.1-1.9,1.4c-0.6,0.4-1.4,0.5-2.3,0.6h-0.7c-0.4-0.2-0.8-0.3-1.2-0.4c-0.4-0.1-0.8-0.3-1.2-0.5
	c-0.7-0.5-1.3-1.1-1.7-1.8c-0.5-0.7-0.9-1.4-1.2-2.2c-0.2-0.4-0.3-1-0.3-1.6c0-0.7-0.1-1.3-0.2-1.9c0-0.3,0-0.5,0-0.7
	c0-0.2,0-0.4,0-0.7c0.1-0.7,0.2-1.4,0.5-2.1c0.2-0.7,0.6-1.4,1-2l0.1-0.1l0.2-0.2c0.1,0,0.2-0.2,0.4-0.4c0.2-0.2,0.3-0.4,0.4-0.4
	c1-1,2.2-1.7,3.6-2.2c1.4-0.5,2.8-0.6,4.2-0.3c0.2,0,0.3,0.1,0.5,0.1c0.2,0.1,0.3,0.1,0.5,0h0.1c0.1,0,0.1,0,0.2-0.1
	c0.1,0,0.1,0,0.1,0l0.1,0h0.1c0.2,0,0.5,0,0.7,0.1c0.3,0.1,0.5,0.2,0.7,0.4c0,0.1,0.1,0.3,0.1,0.6c0.1,0.3,0.1,0.5,0.2,0.6v0.1v0.1
	c0,0.6,0,1.3-0.1,2c-0.1,0.7-0.2,1.3-0.2,2c-0.1,0.7-0.1,1.3-0.2,2c0,0.7,0,1.3,0.1,2c0,0.1,0,0.2,0.1,0.4c0,0.2,0.1,0.3,0.1,0.4
	c0,0,0,0.1,0.1,0.3s0.2,0.3,0.2,0.4c0,0.1,0.1,0.2,0.3,0.5c0.1,0.2,0.2,0.4,0.3,0.5l0.1,0.1h0.1c0,0,0.1,0.1,0.2,0.1l0.1,0.1
	c0,0,0.1,0,0.2-0.1s0.2-0.1,0.2-0.2c0.8-0.7,1.3-1.6,1.6-2.6c0.3-1,0.5-2,0.6-3.1c0.1-0.5,0.1-1,0.1-1.4c0-0.4,0-0.9-0.1-1.4
	c-0.2-1.4-0.7-2.6-1.7-3.6c-0.1-0.1-0.2-0.2-0.4-0.4s-0.3-0.3-0.5-0.5c-0.2-0.2-0.3-0.3-0.4-0.4c-0.1-0.1-0.2-0.2-0.2-0.2
	c0,0-0.1-0.1-0.3-0.2s-0.3-0.2-0.5-0.3c-0.2-0.1-0.3-0.3-0.5-0.4c-0.2-0.1-0.3-0.2-0.4-0.3c-0.6-0.4-1.2-0.6-1.6-0.9
	c-0.4-0.2-1-0.3-1.7-0.3c-0.1,0-0.2,0.1-0.4,0.1c-0.2,0-0.3,0-0.3,0c-0.1,0-0.2,0-0.4,0c-0.2,0-0.5,0-0.7,0c-0.3,0-0.5,0-0.8,0
	c-0.3,0-0.4,0-0.5,0.1c-0.8,0.2-1.6,0.5-2.5,1c-0.9,0.4-1.8,1-2.6,1.6c-0.8,0.6-1.6,1.3-2.2,2c-0.6,0.7-1,1.5-1.1,2.4
	c0,0.1-0.1,0.4-0.1,0.7s-0.1,0.7-0.2,1c-0.1,0.3-0.1,0.7-0.2,1c-0.1,0.3-0.1,0.5-0.1,0.6c-0.1,0.5-0.2,1.1-0.1,1.9
	c0.1,0.7,0.2,1.5,0.4,2.3c0.2,0.8,0.4,1.5,0.7,2.2c0.3,0.7,0.5,1.3,0.7,1.8c0.4,0.8,0.9,1.6,1.5,2.3c0.6,0.7,1.3,1.3,2,1.8
	c0,0,0.1,0,0.3,0.1c0.2,0.1,0.3,0.1,0.4,0.1c0.1,0,0.1,0.1,0.2,0.1l0.1,0l0.1,0c0,0,0.1,0.1,0.2,0.2c0.1,0.1,0.2,0.2,0.2,0.2
	c0.2,0.1,0.5,0.2,0.8,0.3c0.3,0.1,0.6,0.1,1,0.2c0.3,0,0.7,0.1,1,0.1c0.3,0,0.6,0,0.8,0c0,0,0.2,0,0.4,0c0.2,0,0.4-0.1,0.5-0.1
	l0.2,0.1c0,0,0.2,0.1,0.6,0.1c0.3,0,0.6,0,0.8,0h0.2c0.2,0,0.5-0.1,0.8-0.2c0.4-0.1,0.5-0.2,0.6-0.2c0.9-0.2,1.6-0.4,2.1-0.6
	c0.5-0.2,0.9-0.4,1.2-0.6c0.3-0.2,0.6-0.3,0.8-0.5c0.2-0.2,0.5-0.3,0.9-0.5c0.1-0.1,0.2-0.1,0.5-0.2c0.1,0,0.2-0.1,0.3-0.1
	c0.2,0,0.4-0.1,0.6-0.1c0.3,0,0.6,0,0.9,0.1c0.3,0.1,0.5,0.3,0.5,0.5c0.1,0.1,0.2,0.3,0.2,0.5c0,0.2,0,0.5-0.1,0.7
	c-0.1,0.2-0.1,0.5-0.2,0.7c-0.1,0.2-0.2,0.3-0.3,0.4c-0.4,0.7-1,1.3-1.7,1.7c-0.7,0.5-1.4,0.9-2.2,1.2c-0.8,0.3-1.6,0.6-2.5,0.8
	c-0.9,0.2-1.7,0.3-2.5,0.3h-2.5c0,0-0.1,0-0.2,0c-0.1,0-0.2,0-0.2,0c-0.1,0-0.2-0.1-0.4-0.1c-0.2,0-0.3,0-0.4,0h-0.5l-0.3-0.1
	c-0.5-0.3-1-0.5-1.5-0.6c-0.5-0.1-1-0.3-1.5-0.5c-0.8-0.3-1.5-0.7-2.1-1.1c-0.6-0.4-1.2-0.9-1.8-1.6c-0.8-0.7-1.5-1.5-2-2.4
	c-0.1,0-0.2-0.2-0.3-0.5c-0.1-0.3-0.2-0.5-0.2-0.5c-0.5-1-1-1.9-1.3-2.8c-0.3-0.9-0.6-1.8-0.8-2.9c0-0.2-0.1-0.4-0.1-0.7
	c0-0.3,0-0.5-0.1-0.5c0-0.2-0.1-0.5-0.1-1c0-0.5-0.1-0.8-0.1-1C89.4,72.5,89.4,72.4,89.5,72.3z"/>
<path display="none" class="outer" stroke-miterlimit="10" d="M105.9,68.9c-0.1-0.2-0.3-0.3-0.6-0.5c-0.7,0-1.3,0.2-1.8,0.6
	c-0.5,0.3-0.9,0.8-1.3,1.3c-0.4,0.5-0.7,1.1-0.9,1.7c-0.2,0.6-0.4,1.2-0.6,1.7c0,0.1-0.1,0.1-0.1,0.2s0,0.1,0,0.2
	c0,0.7,0.1,1.3,0.3,1.7c0.2,0.4,0.4,0.8,0.6,1c0.2,0.2,0.5,0.4,0.8,0.5c0.3,0.1,0.5,0.1,0.7,0.1c0.6,0,1.2-0.4,1.6-1
	c0.4-0.6,0.8-1.3,1-2.1s0.4-1.6,0.5-2.4c0.1-0.8,0.1-1.5,0-1.9C106.1,69.4,106,69,105.9,68.9z"/>
<path class="outer" stroke-miterlimit="10" d="M149.9,107.9c-0.2-0.2-0.3-0.3-0.5-0.5c-1.2-1.1-2.5-2.4-4.2-2.6
	c-1.4-0.1-2.6,0.4-3.8,1c-2.1,1-4.2,2.1-6.4,3.1c-6.8,3.4-13.7,6.7-20.5,10.1c-1.9,0.9-3.8,1.9-5.7,2.8c-1.8,0.9-3.6,1.4-5.6,1.6
	c-3.5,0.5-7.3,0.2-10.6-1.1c-0.6-0.2-1.2-0.5-1.7-0.8c-1-0.5-1.9-1-2.8-1.4c-3.1-1.5-6.2-3.1-9.3-4.6c-6.2-3.1-12.4-6.1-18.6-9.2
	c-0.5-0.3-1-0.5-1.5-0.8c-2-1-4.5-1.3-6,0.6c-0.9,1.2-1,2.7-1,4.1c0,1.1,0,2.1,0,3.2c0,7,0,14,0,21c0,1.7,0,3.3,0.7,4.9
	c1,2.3,3.1,4.1,5,5.5c1.6,1.2,3.4,1.9,5.4,1.9h0l0.1,0c2.8,0,5.7,0,8.5,0c6.8,0,13.5,0,20.3,0c8,0,16.1,0,24.1,0c6.7,0,13.3,0,20,0
	c2,0,4,0,5.9,0c1.1,0,2.3,0.1,3.4-0.1c2.7-0.5,5-2.4,6-4.8c0.5-1.2,0.7-2.5,0.7-3.9c0-2.9,0-5.8,0-8.7c0-3.9,0-7.8,0-11.6
	c0-1.3,0-2.6,0-4c0-0.9,0-1.8-0.1-2.7C151.5,109.8,150.8,108.8,149.9,107.9z M56.3,143.7c-0.1-0.1-0.1-0.1-0.2-0.2
	C56.2,143.5,56.3,143.6,56.3,143.7C56.3,143.7,56.3,143.7,56.3,143.7z M98.9,126.1c1.5,0.3,3,0.4,4.5,0.4
	C101.9,126.4,100.4,126.3,98.9,126.1z M145.7,107.9c0.4-0.1,0.8-0.2,1.1-0.3C146.5,107.7,146.1,107.8,145.7,107.9z"/>
<path class="outer" stroke-miterlimit="10" d="M164.1,95.2c-0.4-2.6-1.8-5-3.7-6.8c-2.3-2-5.3-2.8-8.3-2.7
	c-2.1,0.1-4.2,0.2-6.3,0.2l0,0c-0.8,0-1.7-0.3-1.6-1.3c0-0.3,0-0.5,0-0.8c0-1.1,0-2.2,0.1-3.3c0.1-3.7,0.1-7.4,0.2-11.1
	c0.1-5.7,0.2-11.4,0.3-17.2c0.1-5.2-3.5-9.9-8.5-11.3c-1.6-0.4-3.3-0.4-5-0.4c-5.9,0-11.7,0-17.6,0c-8.1,0-16.2,0-24.3,0
	c-5.7,0-11.4,0-17,0c-2,0-3.9,0-5.9,0.8c-4.4,1.7-7.3,6.2-7.2,10.9c0.1,5.9,0.3,11.9,0.4,17.8c0.1,3.7,0.2,7.4,0.3,11.1
	c0,1.2,0.1,2.3,0.1,3.5c0,0.4,0.3,1.5-0.5,1.5c-3,0-6-0.1-9,0c-5.5,0.3-10,4.6-10.8,10c-0.2,1.6-0.1,3.3-0.1,5c0,3.2,0,6.3,0,9.5
	c0,7.8,0,15.6,0,23.5c0,2.3,0,4.6,0,7c0,0.7,0,1.4,0.1,2.2c0.3,2.6,1.6,5.1,3.4,6.9c2.3,2.2,5.3,3.3,8.5,3.3c1.2,0,2.3,0,3.5,0
	c5.2,0,10.4,0,15.6,0c7.6,0,15.2,0,22.8,0c8.2,0,16.4,0,24.6,0c7,0,14,0,21.1,0c4.1,0,8.2,0,12.3,0c1.5,0,2.9,0,4.4-0.4
	c5-1.3,8.5-6.1,8.5-11.2c0-4.8,0-9.6,0-14.4c0-7.8,0-15.6,0-23.4c0-2.2,0-4.4,0-6.7C164.2,96.8,164.2,96,164.1,95.2z M153.7,89.4
	c0.1,0,0.1,0,0.1,0C153.8,89.3,153.8,89.3,153.7,89.4L153.7,89.4z M153.6,89.3L153.6,89.3L153.6,89.3L153.6,89.3z M144.9,94.9
	c0.9-0.5,1.8-1.1,2.7-1.6C146.7,93.8,145.8,94.4,144.9,94.9C144.9,94.9,144.9,94.9,144.9,94.9z M144.1,85.5
	c-0.1-0.2-0.2-0.4-0.2-0.7C143.9,85.1,144,85.3,144.1,85.5z M73.3,44.3c-2.6,0.3-5.1,1.4-7,3.2C68.3,45.7,70.7,44.5,73.3,44.3z
	 M63.2,74.8c0-4.8,0-9.7,0-14.5c0-1.4,0-2.7,0-4.1c0-2.3,0.5-4.5,1.8-6.5c2-3.2,5.7-5.2,9.4-5.2h0c1.7,0,3.4,0,5.1,0
	c4.1,0,8.3,0,12.4,0c5.1,0,10.2,0,15.3,0c4.6,0,9.2,0,13.7,0c2.6,0,5.2,0,7.7,0c1.6,0,3.2,0.2,4.8,0.9c3.3,1.3,5.7,4.3,6.6,7.7
	c0.3,1.4,0.3,2.7,0.3,4.1c0,1.7,0,3.5,0,5.2c0,5,0,9.9,0,14.9c0,1.9,0,3.9,0,5.8c0,0.9,0,1.9,0,2.8c-0.2,3.8-1.8,7.6-4,10.7
	c-1.6,2.3-3.7,4.3-6.1,5.7c-3.5,2-6.9,3.9-10.4,5.9c-2,1.1-4,2.2-5.9,3.4c-1,0.6-2,1.2-3,1.7c-3.4,1.7-7.5,2.2-11.3,1.9
	c-2.8-0.2-5.6-1-8-2.3c-3.5-2-6.9-3.9-10.4-5.9c-2-1.1-4-2.2-5.9-3.4c-1-0.6-2-1.1-3-1.7c-3.2-2.1-5.7-5.3-7.3-8.8
	c-1.2-2.5-1.9-5.2-1.9-8C63.2,81.6,63.2,78.2,63.2,74.8z M109.8,118c-1.4,0.5-2.8,0.9-4.2,1.1C107,118.9,108.4,118.5,109.8,118z
	 M102.2,115.6c1.9,0,3.9-0.3,5.7-0.8C106,115.3,104.1,115.6,102.2,115.6z M99,119.2c-2.2-0.3-4.3-0.8-6.3-1.8
	C94.7,118.4,96.8,118.9,99,119.2z M46,94.8c-0.4,0.3-0.7,0.6-1,1C45.2,95.4,45.6,95.1,46,94.8z M160,108.8c0,7.3,0,14.6,0,22
	c0,2.3,0,4.7,0,7c0,0.8,0,1.6-0.1,2.3c-0.4,2.7-1.7,5.1-3.7,6.9c-2,1.8-4.7,2.8-7.4,2.8c0.1,0,0.1,0.1,0.1,0.2
	c0,0.1-0.1,0.2-0.2,0.2c-0.1,0-0.2-0.1-0.2-0.2c0-0.1,0.1-0.2,0.2-0.2h0l0,0c-2.3,0-4.6,0-6.9,0c-5.7,0-11.5,0-17.2,0
	c-7.5,0-14.9,0-22.4,0c-7.5,0-15,0-22.5,0c-5.8,0-11.6,0-17.4,0c-2.4,0-4.8,0-7.3,0c-5.2,0-9.8-3.7-11-8.7c-0.4-1.8-0.3-3.7-0.3-5.6
	c0-6.9,0-13.8,0-20.7c0-3.2,0-6.5,0-9.7c0-1.5-0.1-3,0-4.6c0.1-2.3,1-4.7,3.2-5.8c2.1-1,4.5-0.2,6.4,0.9c1.1,0.6,2.3,1.3,3.4,1.9
	c5.9,3.4,11.9,6.8,17.8,10.1c5.3,3,10.6,6,15.9,9c0.4,0.3,0.9,0.5,1.3,0.8c1.7,0.9,3.5,1.6,5.4,1.9c4.8,1,10.5,0.6,14.8-1.9
	c3.9-2.2,7.8-4.4,11.7-6.7c6.4-3.7,12.8-7.3,19.3-11c2.1-1.2,4.1-2.4,6.2-3.5c2.1-1.2,4.4-2.4,6.9-1.8c2.3,0.6,3.5,2.8,3.8,5
	c0.1,0.8,0.1,1.7,0.1,2.5C160,104.1,160,106.5,160,108.8z"/>
<g>
	<path d="M102.6,51.8c4.7-0.1,8.5,0.4,11.3,1.5c2.9,1.1,5.1,2.6,6.7,4.6c1.6,2,2.6,4.4,3.1,7.2c0.5,2.8,0.8,5.9,0.8,9.3
		c0,3.9-0.4,7.1-1.3,9.7c-0.9,2.6-2,4.7-3.3,6.4s-2.9,2.9-4.6,3.8s-3.3,1.5-4.9,1.9c-1.6,0.4-3.1,0.6-4.5,0.7
		c-1.4,0-2.5,0.1-3.3,0.1c-1.9,0-3.8,0-5.7-0.1c-1.9-0.1-3.7-0.3-5.4-0.7c-1.7-0.4-3.3-1.1-4.7-2C85.3,93.3,84,92,83,90.3
		s-1.9-3.8-2.5-6.4c-0.6-2.6-0.9-5.8-0.9-9.5c0-1.8,0.1-3.6,0.3-5.4c0.2-1.8,0.6-3.5,1.3-5.2c0.6-1.6,1.5-3.2,2.6-4.6
		c1.1-1.4,2.5-2.7,4.2-3.8c1.7-1.1,3.8-1.9,6.2-2.6C96.4,52.2,99.3,51.9,102.6,51.8z M88.1,77.7c0.2,1.2,0.5,2.3,0.9,3.2
		c0.4,1,0.9,2,1.5,3.1c0,0,0.1,0.2,0.3,0.6c0.1,0.3,0.2,0.5,0.3,0.6c0.6,1,1.3,1.9,2.2,2.7c0.7,0.7,1.4,1.3,2,1.7
		c0.6,0.5,1.4,0.9,2.3,1.3c0.6,0.2,1.1,0.4,1.7,0.5c0.6,0.1,1.1,0.4,1.7,0.7l0.3,0.1h0.6c0.1,0,0.2,0,0.4,0c0.2,0,0.4,0.1,0.4,0.1
		c0,0,0.1,0,0.2,0c0.1,0,0.2,0,0.2,0h2.8c0.9,0,1.8-0.2,2.7-0.4c1-0.2,1.9-0.5,2.8-0.8s1.7-0.8,2.5-1.3c0.8-0.5,1.4-1.2,1.8-1.9
		c0.1-0.1,0.2-0.2,0.4-0.4c0.1-0.2,0.2-0.5,0.3-0.7c0.1-0.3,0.1-0.5,0.1-0.8c0-0.3-0.1-0.4-0.2-0.6c-0.1-0.3-0.3-0.5-0.6-0.6
		c-0.3-0.1-0.7-0.1-1-0.1s-0.7,0-1,0.1c-0.3,0.1-0.5,0.2-0.6,0.2c-0.4,0.2-0.7,0.4-1,0.6s-0.5,0.4-0.9,0.6c-0.3,0.2-0.8,0.4-1.3,0.7
		c-0.6,0.2-1.3,0.5-2.3,0.7c0,0-0.3,0.1-0.7,0.2c-0.4,0.1-0.7,0.2-0.9,0.2h-0.2c-0.2,0-0.5,0.1-0.9,0c-0.4,0-0.6,0-0.6-0.1l-0.2-0.1
		c-0.1,0-0.2,0-0.5,0.1c-0.3,0-0.4,0-0.4,0c-0.2,0-0.5,0-0.9,0s-0.7,0-1.1-0.1c-0.4,0-0.7-0.1-1.1-0.2c-0.3-0.1-0.6-0.2-0.9-0.3
		c0,0-0.1-0.1-0.2-0.2s-0.2-0.2-0.2-0.2c0,0-0.1,0-0.1,0c0,0-0.1,0-0.1,0c0,0-0.1,0-0.2-0.1c-0.1,0-0.2,0-0.4-0.1
		c-0.2-0.1-0.3-0.1-0.4-0.1c-0.8-0.6-1.5-1.2-2.2-2.1c-0.7-0.8-1.3-1.7-1.7-2.6c-0.2-0.6-0.5-1.2-0.8-2.1c-0.3-0.8-0.5-1.6-0.7-2.5
		c-0.2-0.9-0.3-1.7-0.4-2.5c-0.1-0.8-0.1-1.5,0.1-2.1c0-0.1,0-0.3,0.1-0.7c0.1-0.3,0.1-0.7,0.2-1.1c0.1-0.4,0.1-0.7,0.2-1.1
		s0.1-0.6,0.1-0.8c0.2-0.9,0.6-1.8,1.3-2.6c0.7-0.8,1.5-1.6,2.4-2.3c0.9-0.7,1.9-1.3,2.9-1.8c1-0.5,2-0.9,2.8-1.1
		c0.1,0,0.3-0.1,0.6-0.1c0.3,0,0.6,0,0.9,0s0.6,0,0.8,0s0.4,0,0.5,0c0,0,0.1,0,0.3,0s0.3,0,0.4-0.1c0.8,0,1.4,0.1,1.9,0.3
		c0.5,0.3,1.1,0.6,1.8,1c0.1,0.1,0.3,0.2,0.4,0.3c0.2,0.1,0.4,0.3,0.6,0.4c0.2,0.1,0.4,0.3,0.5,0.4c0.2,0.1,0.3,0.2,0.3,0.2
		c0,0,0.1,0.1,0.2,0.2c0.1,0.1,0.3,0.3,0.4,0.5s0.3,0.3,0.5,0.5c0.2,0.2,0.3,0.3,0.4,0.4c1.1,1.2,1.7,2.5,1.9,4
		c0.1,0.6,0.1,1.1,0.1,1.6c0,0.5-0.1,1-0.1,1.6c-0.1,1.2-0.3,2.3-0.7,3.4c-0.3,1.1-0.9,2.1-1.8,2.9c-0.1,0.1-0.2,0.1-0.3,0.2
		c-0.1,0.1-0.2,0.1-0.2,0.1c0,0-0.1-0.1-0.1-0.1c-0.1,0-0.2,0-0.2-0.1h-0.1c0,0-0.1,0-0.1-0.1c-0.1-0.1-0.2-0.3-0.4-0.5
		c-0.2-0.3-0.3-0.5-0.3-0.5c-0.1-0.1-0.2-0.2-0.3-0.4c-0.1-0.2-0.1-0.3-0.1-0.4c0,0,0-0.2-0.1-0.4c0-0.2-0.1-0.4-0.1-0.5
		c-0.1-0.8-0.2-1.5-0.1-2.2c0-0.7,0.1-1.5,0.2-2.2c0.1-0.7,0.2-1.5,0.3-2.2c0.1-0.7,0.1-1.5,0.1-2.2v-0.1v-0.1
		c-0.1-0.1-0.1-0.3-0.2-0.7c-0.1-0.3-0.1-0.5-0.1-0.7c-0.2-0.2-0.5-0.4-0.8-0.5c-0.3-0.1-0.6-0.2-0.8-0.1h-0.1c0,0-0.1,0-0.1,0
		c0,0-0.1,0-0.1,0c-0.1,0-0.2,0.1-0.2,0.1h-0.1c-0.2,0-0.4,0-0.6,0s-0.4-0.1-0.6-0.1c-1.5-0.3-3.1-0.1-4.7,0.4
		c-1.6,0.5-2.9,1.4-4,2.5c-0.1,0-0.2,0.2-0.4,0.4c-0.2,0.3-0.3,0.4-0.4,0.4l-0.2,0.2c0,0-0.1,0.1-0.1,0.1c-0.4,0.7-0.8,1.5-1.1,2.3
		c-0.3,0.8-0.5,1.6-0.5,2.4c0,0.3-0.1,0.6,0,0.8c0,0.2,0,0.5,0,0.8c0.1,0.7,0.1,1.4,0.2,2.1c0,0.7,0.2,1.3,0.4,1.8
		c0.3,0.8,0.7,1.6,1.3,2.4s1.2,1.4,1.9,2c0.4,0.2,0.8,0.4,1.3,0.5s0.9,0.3,1.4,0.5h0.8c1,0,1.9-0.3,2.6-0.7c0.7-0.4,1.4-0.9,2.1-1.6
		h0.1c0.1,0.1,0.3,0.2,0.6,0.5c0.3,0.3,0.5,0.4,0.7,0.5c0.4,0.2,0.8,0.3,1.2,0.3c0.4,0,0.8,0,1.2,0c1-0.1,1.9-0.4,2.6-0.9
		c0.7-0.5,1.3-1.1,2-1.8c0,0,0.1-0.1,0.1-0.2s0.1-0.2,0.1-0.2c0.6-0.8,0.9-1.5,1.2-2.1c0.2-0.7,0.5-1.4,0.9-2.3
		c0.1-0.1,0.2-0.3,0.2-0.7c0-0.2,0.1-0.4,0.1-0.7c0.4-1.7,0.6-3.4,0.7-5.1s-0.1-3.3-0.6-4.7c0,0,0-0.2-0.1-0.4
		c0-0.2-0.1-0.3-0.1-0.4c0,0,0-0.1,0-0.1c0-0.1,0-0.1,0-0.1c-1-1.7-2.2-3.1-3.6-4.2c-1.5-1.1-3-1.8-4.6-2.3
		c-1.6-0.5-3.1-0.8-4.6-0.8s-2.7,0-3.7,0.3c0,0-0.2,0-0.6,0.1c-0.4,0.1-0.6,0.2-0.8,0.2c-0.4,0.1-0.9,0.2-1.4,0.4
		c-0.5,0.2-1,0.4-1.4,0.6c-2.5,1.2-4.5,3-6,5.4c-0.4,0.7-0.9,1.3-1.3,1.9c-0.4,0.6-0.8,1.4-1,2.2c0,0,0,0.2-0.1,0.5
		c-0.1,0.3-0.1,0.5-0.1,0.6c-0.1,0.2-0.2,0.5-0.2,0.7c-0.1,0.2-0.1,0.5-0.2,0.8c0,0.1,0,0.2,0,0.5c0,0.3,0,0.5,0,0.8s0,0.6,0,0.9
		c0,0.3,0,0.4,0,0.5c0,0,0,0.1-0.1,0.2c0,0.1-0.1,0.2-0.1,0.2c0,0.2,0.1,0.6,0.1,1.1c0,0.6,0.1,0.9,0.1,1.1c0,0,0.1,0.2,0.1,0.5
		C88,77.3,88.1,77.5,88.1,77.7z M100.2,75.8c0,0,0-0.1,0-0.2c0-0.1,0-0.2,0.1-0.2c0.2-0.6,0.4-1.2,0.7-1.9c0.3-0.7,0.6-1.3,1-1.8
		c0.4-0.6,0.9-1,1.5-1.4c0.6-0.4,1.2-0.6,2-0.6c0.3,0.2,0.5,0.3,0.6,0.5c0.1,0.2,0.3,0.5,0.4,1c0.1,0.5,0.1,1.2,0,2.1
		c-0.1,0.9-0.3,1.8-0.6,2.7c-0.3,0.9-0.7,1.7-1.2,2.4c-0.5,0.7-1.1,1-1.8,1.1c-0.2,0-0.4,0-0.7-0.1c-0.3-0.1-0.6-0.2-0.9-0.5
		c-0.3-0.3-0.5-0.6-0.7-1.1C100.3,77.2,100.2,76.6,100.2,75.8z"/>
</g>
</svg>
