<?xml version="1.0" encoding="utf-8"?>
<!-- Generator: Adobe Illustrator 18.0.0, SVG Export Plug-In . SVG Version: 6.00 Build 0)  -->
<!DOCTYPE svg PUBLIC "-//W3C//DTD SVG 1.1//EN" "http://www.w3.org/Graphics/SVG/1.1/DTD/svg11.dtd">
<svg version="1.1" xmlns="http://www.w3.org/2000/svg" xmlns:xlink="http://www.w3.org/1999/xlink" x="0px" y="0px"
	 viewBox="0 0 421.6 49.6" enable-background="new 0 0 421.6 49.6" xml:space="preserve">
<g id="Layer_1">
	<path display="none" stroke="#000000" stroke-width="0.5" stroke-linecap="round" stroke-linejoin="round" d="M197.5,42.5
		c-0.3,0-0.6-0.1-0.8-0.3l-20.6-17.8c-0.3-0.2-0.4-0.5-0.4-0.9c0-0.2,0.1-0.5,0.3-0.9l19.4-16.8c0.3-0.2,0.7-0.5,1.1-0.8
		c0.4-0.3,0.9-0.4,1.4-0.5c0.5-0.1,1-0.1,1.5,0c0.5,0.1,1,0.4,1.5,0.8c0.8,0.8,1.2,1.7,1.1,2.7c-0.1,0.9-0.3,1.7-0.8,2.3
		c-0.5,0.6-0.8,0.9-0.9,0.9l-13.7,12.1l12,9.7c0.2,0.2,0.4,0.4,0.4,0.8c0,0.3-0.1,0.6-0.3,0.8c-0.4,0.6-0.9,0.7-1.6,0.2l-13.1-10.6
		c-0.3-0.2-0.4-0.4-0.4-0.9c0-0.2,0.1-0.5,0.3-0.9l14.8-13c0.1-0.1,0.3-0.3,0.5-0.6c0.2-0.3,0.4-0.6,0.4-0.9c0-0.3-0.2-0.6-0.5-1
		c-0.2-0.2-0.4-0.2-0.7-0.2c-0.3,0-0.5,0.1-0.7,0.2c-0.2,0.1-0.6,0.3-1,0.5l-18.4,15.9l19.7,16.9c0.3,0.2,0.4,0.4,0.5,0.7
		c0,0.3-0.1,0.6-0.3,0.8C198.1,42.3,197.8,42.5,197.5,42.5z"/>
	<polygon display="none" stroke="#000000" stroke-width="0.5" stroke-linecap="round" stroke-linejoin="round" points="228.6,2.1
		225.7,20.9 235.4,20.9 236,22.1 216.3,49.3 215,48.7 220.1,29.9 210.4,29.9 209.8,28.8 227.2,1.6 	"/>
	<polygon display="none" stroke="#000000" stroke-linecap="round" stroke-linejoin="round" points="226.5,5.4 211.9,28.4 221,28.4
		221.8,29.4 217.5,45.1 233.9,22.4 224.8,22.4 224,21.5 	"/>
	<path display="none" stroke="#000000" stroke-width="0.5" stroke-linecap="round" stroke-linejoin="round" d="M249.4,4.6
		c0.3,0,0.6,0.1,0.8,0.3l20.7,17.7c0.2,0.3,0.3,0.6,0.3,0.9c0,0.3-0.1,0.6-0.3,0.9l-19.4,16.9c-0.3,0.2-0.7,0.5-1.1,0.7
		c-0.4,0.2-0.9,0.4-1.4,0.5c-0.5,0.1-1,0.1-1.5,0c-0.5-0.1-1-0.4-1.5-0.9c-0.8-0.7-1.1-1.6-1.1-2.6c0.1-0.9,0.3-1.7,0.8-2.3
		c0.5-0.6,0.8-0.9,0.9-1l13.7-12L248.3,14c-0.6-0.5-0.7-1.1-0.2-1.6c0.2-0.3,0.4-0.5,0.8-0.5c0.3,0,0.6,0.1,0.8,0.3l13.1,10.6
		c0.3,0.2,0.4,0.5,0.4,0.9c0,0.4-0.1,0.7-0.3,0.9l-14.8,13c-0.1,0.1-0.3,0.3-0.5,0.7c-0.2,0.3-0.4,0.7-0.4,1c0,0.3,0.2,0.6,0.5,0.9
		s0.9,0.3,1.5,0c0.3-0.1,0.6-0.3,0.9-0.5l18.4-16L248.7,6.7c-0.5-0.5-0.6-1-0.2-1.7C248.8,4.8,249.1,4.6,249.4,4.6z"/>
	<g>
		<path d="M20.8,31c0,2.2-0.1,3.7-0.3,4.7s-0.6,1.7-1.1,2.4c-0.9,1.2-2.1,2-3.7,2.6s-3.4,0.9-5.6,0.9c-1.8,0-3.1-0.2-3.9-0.5
			s-1.2-0.9-1.2-1.6c0-0.5,0.2-0.9,0.6-1.3s0.9-0.6,1.4-0.6c0.4,0,1.1,0.1,1.9,0.2s1.5,0.2,2,0.2c2.3,0,4-0.5,4.9-1.6
			s1.5-2.9,1.5-5.5v-2.8c-1,1.1-2,1.9-3.2,2.4s-2.5,0.8-4,0.8c-2.9,0-5.3-1-7.3-2.9S0,24,0,21c0-3,1-5.5,3-7.5s4.4-3,7.3-3
			c1.2,0,2.4,0.2,3.5,0.7s2.3,1.1,3.5,2v-1.7c0-0.3,0.1-0.6,0.3-0.7s0.5-0.2,1-0.2h3.5c0.6,0,1.1,0.1,1.4,0.4s0.5,0.7,0.5,1.2
			c0,0.6-0.2,1.1-0.6,1.3s-1.1,0.4-2.2,0.4h-0.4V31z M10.6,14.1c-2,0-3.7,0.6-5,1.9s-1.9,2.9-1.9,4.9c0,2,0.6,3.6,1.9,4.9
			s3,1.9,5,1.9c2,0,3.7-0.6,5-1.9s2-2.9,2-4.9s-0.7-3.6-2-4.9S12.6,14.1,10.6,14.1z"/>
		<path d="M42.3,28.9h7.5c0.6,0,1.1,0.1,1.3,0.4s0.4,0.7,0.4,1.2c0,0.6-0.1,1.1-0.4,1.3s-0.8,0.4-1.5,0.4H31.5
			c-0.6,0-1.1-0.1-1.4-0.4s-0.5-0.7-0.5-1.3c0-0.5,0.2-1,0.5-1.2s0.8-0.4,1.5-0.4h7.1v-15h-4.6c-0.6,0-1.1-0.1-1.5-0.4
			s-0.5-0.7-0.5-1.3s0.2-1,0.5-1.2s0.8-0.4,1.4-0.4h6.9c0.4,0,0.8,0.1,1,0.3s0.4,0.4,0.4,0.7V28.9z M37.9,3.8c0-1.7,0.2-2.8,0.5-3.2
			s1-0.7,2-0.7c1,0,1.6,0.2,1.9,0.6s0.5,1.2,0.5,2.6c0,1.3-0.1,2.2-0.4,2.5s-0.9,0.5-2,0.5c-1,0-1.7-0.1-2-0.4S37.9,4.8,37.9,3.8z"
			/>
		<path d="M74.3,29.3c-1.3,1.2-2.7,2-4.2,2.6s-3.1,0.9-4.7,0.9c-2.3,0-4.2-0.6-5.6-1.9s-2.1-3-2.1-5.1c0-2.5,0.9-4.4,2.8-5.7
			s4.6-2,8-2c0.9,0,1.8,0.1,2.7,0.2s1.9,0.3,2.8,0.6v-0.2c0-1.8-0.4-3.1-1.3-4s-2.2-1.3-4-1.3c-1.2,0-2.6,0.3-4.1,1s-2.5,1-3,1
			c-0.5,0-0.8-0.2-1.1-0.6s-0.4-0.8-0.4-1.4c0-0.9,0.9-1.7,2.6-2.3s3.9-1,6.6-1c2.8,0,4.8,0.7,6.2,2.1s2.1,3.5,2.1,6.2v10.6h1.1
			c1.1,0,1.9,0.1,2.2,0.4s0.6,0.7,0.6,1.3c0,0.6-0.2,1-0.5,1.3s-0.8,0.4-1.4,0.4h-3.7c-0.4,0-0.8-0.1-1.1-0.4s-0.5-0.6-0.6-1.1
			L74.3,29.3z M74.1,21.9c-0.9-0.3-1.7-0.5-2.5-0.6s-1.6-0.2-2.4-0.2c-2.4,0-4.3,0.4-5.7,1.2s-2.1,1.9-2.1,3.3
			c0,1.1,0.4,1.9,1.3,2.6s2,1,3.3,1c2,0,3.8-0.5,5.5-1.6s2.5-2.1,2.5-3.2V21.9z"/>
		<path d="M89,28.9v-15h-0.4c-1.1,0-1.8-0.1-2.2-0.4s-0.6-0.7-0.6-1.3c0-0.6,0.2-1,0.5-1.3s0.9-0.4,1.6-0.4h1.1h2.2
			c0.4,0,0.8,0.1,1,0.3s0.4,0.4,0.4,0.7v1.6c1.1-1.1,2.3-1.8,3.4-2.4s2.3-0.8,3.5-0.8c2.4,0,4.2,0.7,5.6,2.2s2,3.5,2,6.1v10.6h1.1
			c0.8,0,1.3,0.1,1.7,0.4s0.5,0.7,0.5,1.2c0,0.6-0.2,1-0.6,1.3s-1,0.4-2,0.4h-5.2c-1,0-1.6-0.1-1.9-0.4s-0.4-0.7-0.4-1.3
			c0-0.6,0.2-1,0.5-1.3s0.9-0.4,1.9-0.4h0.8v-9.8c0-1.8-0.4-3.2-1.2-4.2s-2-1.4-3.6-1.4c-1.6,0-3,0.5-4.2,1.6s-1.8,2.4-1.8,4v9.8
			h0.8c0.9,0,1.6,0.1,1.9,0.4s0.5,0.7,0.5,1.3c0,0.7-0.1,1.1-0.4,1.3s-1,0.4-2.1,0.4H89h-1.3c-0.6,0-1.1-0.1-1.4-0.4
			s-0.5-0.7-0.5-1.3c0-0.6,0.2-1.1,0.6-1.3s1.1-0.3,2.1-0.3H89z"/>
		<path d="M117.8,28.9v-15h-0.4c-1.1,0-1.8-0.1-2.2-0.4s-0.6-0.7-0.6-1.3c0-0.6,0.2-1,0.5-1.3s0.9-0.4,1.6-0.4h1.1h2.2
			c0.4,0,0.8,0.1,1,0.3s0.4,0.4,0.4,0.7v1.6c1.1-1.1,2.3-1.8,3.4-2.4s2.3-0.8,3.5-0.8c2.4,0,4.2,0.7,5.6,2.2s2,3.5,2,6.1v10.6h1.1
			c0.8,0,1.3,0.1,1.7,0.4s0.5,0.7,0.5,1.2c0,0.6-0.2,1-0.6,1.3s-1,0.4-2,0.4h-5.2c-1,0-1.6-0.1-1.9-0.4s-0.4-0.7-0.4-1.3
			c0-0.6,0.2-1,0.5-1.3s0.9-0.4,1.9-0.4h0.8v-9.8c0-1.8-0.4-3.2-1.2-4.2s-2-1.4-3.6-1.4c-1.6,0-3,0.5-4.2,1.6s-1.8,2.4-1.8,4v9.8
			h0.8c0.9,0,1.6,0.1,1.9,0.4s0.5,0.7,0.5,1.3c0,0.7-0.1,1.1-0.4,1.3s-1,0.4-2.1,0.4h-4.3h-1.3c-0.6,0-1.1-0.1-1.4-0.4
			s-0.5-0.7-0.5-1.3c0-0.6,0.2-1.1,0.6-1.3s1.1-0.3,2.1-0.3H117.8z"/>
		<path d="M160.7,29.3c-1.3,1.2-2.7,2-4.2,2.6s-3.1,0.9-4.7,0.9c-2.3,0-4.2-0.6-5.6-1.9s-2.1-3-2.1-5.1c0-2.5,0.9-4.4,2.8-5.7
			s4.6-2,8-2c0.9,0,1.8,0.1,2.7,0.2s1.9,0.3,2.8,0.6v-0.2c0-1.8-0.4-3.1-1.3-4s-2.2-1.3-4-1.3c-1.2,0-2.6,0.3-4.1,1s-2.5,1-3,1
			c-0.5,0-0.8-0.2-1.1-0.6s-0.4-0.8-0.4-1.4c0-0.9,0.9-1.7,2.6-2.3s3.9-1,6.6-1c2.8,0,4.8,0.7,6.2,2.1s2.1,3.5,2.1,6.2v10.6h1.1
			c1.1,0,1.9,0.1,2.2,0.4s0.6,0.7,0.6,1.3c0,0.6-0.2,1-0.5,1.3s-0.8,0.4-1.4,0.4h-3.7c-0.4,0-0.8-0.1-1.1-0.4s-0.5-0.6-0.6-1.1
			L160.7,29.3z M160.5,21.9c-0.9-0.3-1.7-0.5-2.5-0.6s-1.6-0.2-2.4-0.2c-2.4,0-4.3,0.4-5.7,1.2s-2.1,1.9-2.1,3.3
			c0,1.1,0.4,1.9,1.3,2.6s2,1,3.3,1c2,0,3.8-0.5,5.5-1.6s2.5-2.1,2.5-3.2V21.9z"/>
	</g>
	<g>
		<path d="M303.3,12L303.3,12c0-0.6,0.1-1,0.4-1.2s0.8-0.4,1.4-0.4c0.6,0,1.1,0.2,1.3,0.6s0.4,1.1,0.4,2.3v4.4c0,0.6-0.1,1-0.4,1.3
			s-0.7,0.4-1.3,0.4c-0.4,0-0.8-0.1-1.1-0.4s-0.7-0.7-1.1-1.5c-0.8-1.3-1.7-2.2-2.7-2.9s-2.3-1-3.7-1c-2.4,0-4.4,0.7-5.9,2.2
			s-2.3,3.3-2.3,5.6c0,2.3,0.7,4.2,2.2,5.7s3.3,2.2,5.6,2.2c1,0,2-0.1,3-0.4s1.8-0.7,2.7-1.3c0.3-0.2,0.7-0.5,1.2-0.9
			c1-0.8,1.8-1.2,2.4-1.2c0.5,0,0.9,0.2,1.2,0.5s0.5,0.7,0.5,1.2c0,1.2-1.2,2.5-3.5,3.8s-4.8,1.9-7.4,1.9c-3.4,0-6.2-1.1-8.5-3.3
			s-3.4-4.9-3.4-8.1s1.1-6,3.4-8.1s5.1-3.3,8.4-3.3c1.2,0,2.4,0.2,3.6,0.5S302,11.3,303.3,12z"/>
		<path d="M337.4,21.4c0,3.3-1.1,6.1-3.4,8.2s-5.2,3.2-8.9,3.2c-3.6,0-6.6-1.1-8.9-3.2s-3.4-4.9-3.4-8.2s1.1-6.1,3.4-8.2
			s5.2-3.2,8.9-3.2s6.6,1.1,8.9,3.2S337.4,18.1,337.4,21.4z M325.1,29.6c2.4,0,4.4-0.8,5.9-2.3s2.3-3.5,2.3-5.8s-0.8-4.3-2.3-5.8
			s-3.5-2.3-5.9-2.3s-4.4,0.8-5.9,2.3s-2.3,3.5-2.3,5.8c0,2.4,0.8,4.3,2.3,5.8S322.7,29.6,325.1,29.6z"/>
		<path d="M360.9,32.2c-0.3,0-0.6-0.1-0.7-0.2s-0.2-0.5-0.2-0.9v-1.9c-0.9,1.2-2.1,2.1-3.5,2.7s-2.9,1-4.6,1c-3,0-5.4-1.1-7.4-3.2
			s-3-4.7-3-7.8c0-3.2,1.1-5.9,3.2-8.1s4.8-3.2,7.9-3.2c1.6,0,3.1,0.3,4.3,0.9s2.4,1.4,3.3,2.5v-9h-1.2c-1.4,0-2.2-0.1-2.6-0.4
			s-0.6-0.7-0.6-1.3c0-0.6,0.2-1,0.5-1.3s0.8-0.4,1.4-0.4h4.8c0.5,0,0.8,0.1,1,0.2s0.3,0.4,0.3,0.7v26.4h1.1c0.8,0,1.3,0.1,1.7,0.4
			s0.5,0.7,0.5,1.2c0,0.5-0.1,0.9-0.4,1.2s-0.7,0.4-1.2,0.4H360.9z M345.6,21.7c0,2.2,0.7,3.9,2.1,5.3s3.2,2.1,5.3,2.1
			c2.2,0,3.9-0.7,5.3-2.1s2.1-3.2,2.1-5.4c0-2.2-0.7-4-2.1-5.4S355.1,14,353,14c-2.2,0-4,0.7-5.3,2.1S345.6,19.4,345.6,21.7z"/>
		<path d="M374.8,22.5c0.1,2.2,0.9,4,2.3,5.2s3.3,1.8,5.7,1.8c1.8,0,3.8-0.5,6-1.5s3.5-1.5,3.9-1.5c0.5,0,0.9,0.1,1.2,0.4
			s0.5,0.7,0.5,1.1c0,0.5-0.2,0.9-0.5,1.2s-0.9,0.7-1.6,1.1c-1.6,0.8-3.2,1.4-4.8,1.8s-3.3,0.6-5,0.6c-3.6,0-6.4-1-8.6-3.1
			s-3.2-4.8-3.2-8.2c0-3.5,1.1-6.2,3.4-8.4s5.2-3.2,8.9-3.2c3.3,0,6,1,8.2,3s3.3,4.4,3.3,7.3c0,0.9-0.2,1.5-0.6,1.8s-1.4,0.4-3,0.4
			h-0.4H374.8z M374.9,19.4h15.3c-0.2-1.9-1-3.4-2.3-4.5s-2.9-1.7-4.9-1.7c-2.1,0-3.8,0.5-5.2,1.6S375.3,17.4,374.9,19.4z"/>
		<path d="M401.3,30.6v-4.2c0-0.7,0.1-1.2,0.4-1.5s0.7-0.4,1.3-0.4c0.6,0,1.1,0.4,1.5,1.3c0.2,0.5,0.5,0.9,0.7,1.2
			c0.7,0.8,1.6,1.5,2.9,2s2.7,0.8,4.2,0.8c1.7,0,3-0.3,4-1s1.5-1.6,1.5-2.6c0-1.1-0.4-1.9-1.2-2.4s-2.2-0.7-4.1-0.7h-1.3
			c-3.2,0-5.6-0.6-7.3-1.7s-2.5-2.7-2.5-4.8c0-2.1,0.8-3.7,2.4-4.8s3.9-1.7,6.9-1.7c1.2,0,2.4,0.2,3.7,0.5s1.9,0.5,2,0.5
			c0.2,0,0.5-0.2,1-0.5s1-0.5,1.4-0.5c0.5,0,0.9,0.2,1.2,0.6s0.4,1,0.4,1.8v2.7c0,0.8-0.1,1.4-0.4,1.8s-0.6,0.6-1.2,0.6
			c-0.5,0-1-0.4-1.7-1.2c-0.5-0.5-0.9-1-1.2-1.2c-0.8-0.8-1.7-1.3-2.6-1.7s-2-0.5-3.3-0.5c-1.5,0-2.7,0.3-3.6,1s-1.3,1.5-1.3,2.5
			c0,1,0.5,1.7,1.4,2.1s2.9,0.7,6,0.7c3.2,0.1,5.6,0.6,7.1,1.7s2.2,2.7,2.2,4.9c0,2.1-0.8,3.8-2.5,5.1s-3.9,1.9-6.7,1.9
			c-0.9,0-1.9-0.1-3-0.2s-2.5-0.4-4.1-0.8c-0.5,0.4-1,0.6-1.4,0.8s-0.7,0.3-1,0.3c-0.5,0-1-0.2-1.3-0.6S401.3,31.3,401.3,30.6z"/>
	</g>
</g>
<g id="Layer_2">
	<rect x="0.5" y="1" fill="none" width="315.2" height="117.8"/>
	<text transform="matrix(1 0 0 1 0.4995 31.1258)" display="none" font-family="'Courier'" font-size="47.1287">gianna</text>
	<rect x="280.3" y="1" fill="none" width="315.2" height="117.8"/>
	<text transform="matrix(1 0 0 1 280.3271 31.1258)" display="none" font-family="'Courier'" font-size="47.1287">codes</text>
	<g id="XMLID_3_">
		<g>
			<path d="M198.1,4c0.5,0,1,0,1.5,0c0.5,0.1,1,0.4,1.4,0.8c0.8,0.8,1.2,1.7,1.1,2.6c0,0.9-0.3,1.7-0.8,2.2c-0.5,0.6-0.8,0.9-0.9,1
				l-13.5,11.9l11.8,9.6c0.2,0.1,0.4,0.4,0.4,0.7c0,0.3-0.1,0.6-0.3,0.8c-0.4,0.6-0.9,0.6-1.5,0.2l-12.8-10.5
				c-0.3-0.1-0.5-0.4-0.5-0.8c0-0.2,0.1-0.5,0.4-0.9l14.5-12.8c0.1-0.1,0.3-0.3,0.5-0.6c0.2-0.3,0.4-0.6,0.5-1
				c0-0.2-0.2-0.5-0.5-0.9c-0.2-0.2-0.4-0.2-0.7-0.2c-0.2,0-0.5,0.1-0.7,0.2c-0.2,0.1-0.5,0.3-1,0.5L179,22.5l19.4,16.6
				c0.3,0.1,0.5,0.4,0.5,0.7c0,0.3,0,0.6-0.3,0.8c-0.3,0.3-0.5,0.5-0.9,0.5c-0.3,0-0.5-0.1-0.8-0.3l-20.3-17.4
				c-0.3-0.2-0.5-0.5-0.5-0.9c0-0.2,0.1-0.5,0.4-0.8l19.1-16.5c0.2-0.2,0.6-0.5,1-0.7C197.1,4.2,197.6,4.1,198.1,4z"/>
			<polygon id="svg-polygon-inner" fill="#5BD59B" points="224.5,21.4 233.4,21.4 217.3,43.7 221.5,28.3 220.7,27.4 211.8,27.4 226.1,4.7 223.7,20.6 			"/>
			<path d="M267.2,22.5L247.9,6.1c-0.5-0.5-0.5-1-0.2-1.6c0.3-0.3,0.6-0.5,0.9-0.5c0.3,0,0.5,0.1,0.8,0.4l20.3,17.4
				c0.2,0.3,0.4,0.6,0.4,0.8c0,0.4-0.1,0.6-0.4,0.9L250.6,40c-0.3,0.2-0.6,0.5-1,0.7c-0.5,0.2-0.9,0.4-1.4,0.5c-0.5,0.1-1,0.1-1.5,0
				c-0.5-0.1-1-0.4-1.5-0.9c-0.7-0.7-1.1-1.5-1.1-2.6c0-1,0.3-1.6,0.8-2.2c0.5-0.6,0.8-0.9,0.9-1l13.5-11.8l-11.8-9.6
				c-0.6-0.5-0.7-1.1-0.1-1.6c0.1-0.3,0.4-0.5,0.7-0.5c0.3,0,0.6,0.1,0.8,0.3l12.8,10.4c0.3,0.1,0.5,0.5,0.5,0.9
				c0,0.4-0.1,0.6-0.4,0.8l-14.5,12.8c-0.1,0.1-0.3,0.4-0.5,0.6c-0.2,0.3-0.4,0.6-0.5,1c0,0.3,0.2,0.6,0.5,1c0.4,0.3,0.8,0.3,1.5,0
				c0.3-0.1,0.6-0.3,0.9-0.5L267.2,22.5z"/>
			<path id="svg-path-inner" fill="#27D085" d="M209.7,27.7L226.8,1l1.4,0.5l-2.9,18.4h9.6l0.5,1.3l-19.3,26.7l-1.3-0.6l5-18.4h-9.5L209.7,27.7z
				 M233.4,21.4h-8.9l-0.8-0.9l2.4-15.9l-14.3,22.7h9l0.7,0.9l-4.1,15.4L233.4,21.4z"/>
		</g>
		<g>
			<polygon id="svg-polygon-outer" fill="none" stroke="#27D085" stroke-miterlimit="10" points="228.2,1.5 225.3,19.9 234.9,19.9 235.4,21.2 216.1,47.9
				214.8,47.2 219.8,28.9 210.4,28.9 209.7,27.7 226.8,1 			"/>
			<polygon id="svg-path-outer" fill="none" stroke="#5BD59B" stroke-miterlimit="10" points="226.1,4.7 211.8,27.4 220.7,27.4 221.5,28.3 217.3,43.7
				233.4,21.4 224.5,21.4 223.7,20.6 			"/>
		</g>
	</g>
</g>
</svg>
